<?xml version="1.0" encoding="UTF-8" standalone="no"?>
<!-- Created with Inkscape (http://www.inkscape.org/) -->

<svg
   xmlns:dc="http://purl.org/dc/elements/1.1/"
   xmlns:cc="http://creativecommons.org/ns#"
   xmlns:rdf="http://www.w3.org/1999/02/22-rdf-syntax-ns#"
   xmlns:svg="http://www.w3.org/2000/svg"
   xmlns="http://www.w3.org/2000/svg"
   xmlns:sodipodi="http://sodipodi.sourceforge.net/DTD/sodipodi-0.dtd"
   xmlns:inkscape="http://www.inkscape.org/namespaces/inkscape"
   width="64"
   height="64"
   viewBox="0 0 63.999996 63.999996"
   id="svg5682"
   version="1.1"
   inkscape:version="0.91 r13725"
   sodipodi:docname="apps.svg"
   inkscape:export-filename="/home/scott/Pictures/mini/apps_256.png"
   inkscape:export-xdpi="360"
   inkscape:export-ydpi="360">
  <defs
     id="defs5684" />
  <sodipodi:namedview
     id="base"
     pagecolor="#ffffff"
     bordercolor="#666666"
     borderopacity="1.0"
     inkscape:pageopacity="0.0"
     inkscape:pageshadow="2"
     inkscape:zoom="11.313708"
     inkscape:cx="16.197725"
     inkscape:cy="29.167129"
     inkscape:document-units="px"
     inkscape:current-layer="layer1"
     showgrid="false"
     fit-margin-top="0"
     fit-margin-left="0"
     fit-margin-right="0"
     fit-margin-bottom="0"
     showguides="false"
     inkscape:window-width="1564"
     inkscape:window-height="913"
     inkscape:window-x="160"
     inkscape:window-y="109"
     inkscape:window-maximized="0"
     units="px" />
  <metadata
     id="metadata5687">
    <rdf:RDF>
      <cc:Work
         rdf:about="">
        <dc:format>image/svg+xml</dc:format>
        <dc:type
           rdf:resource="http://purl.org/dc/dcmitype/StillImage" />
        <dc:title />
      </cc:Work>
    </rdf:RDF>
  </metadata>
  <g
     inkscape:label="Layer 1"
     inkscape:groupmode="layer"
     id="layer1"
     transform="translate(-358.21426,-747.29078)">
    <path
       style="fill:#003862;fill-opacity:1;stroke:none;stroke-width:2;stroke-miterlimit:10;stroke-dasharray:none;stroke-dashoffset:0;stroke-opacity:1"
       d="m 384.71426,757.22831 c -4.14214,0 -7.5,3.35786 -7.5,7.5 l 0,3.56264 -5,0 0,24.49986 c 0,2.95377 2.32848,5.36294 5.25,5.49365 l 0,0.006 23,0 0,-0.006 c 0.0829,0.004 0.16621,0.006 0.25,0.006 3.03757,0 5.5,-2.46243 5.5,-5.5 l 0,-24.49985 -5,0 0,-3.56265 c 0,-4.14214 -3.35787,-7.5 -7.5,-7.5 -1.68825,0 -3.24424,0.55998 -4.49756,1.50146 -1.25395,-0.94276 -2.81282,-1.50146 -4.50244,-1.50146 z m 0,2 c 3.03757,0 5.5,2.46243 5.5,5.5 l 0,3.56264 -11,0 0,-3.56264 c 0,-3.03757 2.46243,-5.5 5.5,-5.5 z m 9,0 c 3.03757,0 5.5,2.46243 5.5,5.5 l 0,3.56264 -7,0 0,-3.56264 c 0,-1.72072 -0.58072,-3.30478 -1.55518,-4.57031 0.87411,-0.58581 1.92386,-0.92969 3.05518,-0.92969 z m -19.5,11.06264 21,0 0,22.49986 c 0,1.32968 0.47193,2.54904 1.25732,3.5 l -18.75732,0 c -1.933,0 -3.5,-1.567 -3.5,-3.5 z m 23,0 7,0 0,22.49986 c 0,1.933 -1.567,3.5 -3.5,3.5 -1.933,0 -3.5,-1.567 -3.5,-3.5 z"
       id="rect6241"
       inkscape:connector-curvature="0"
       sodipodi:nodetypes="cscccccccscccsscccssccssssccscsccscsscccsssc" />
  </g>
</svg>
