<?xml version="1.0" encoding="UTF-8" standalone="no"?>
<!-- Created with Inkscape (http://www.inkscape.org/) -->

<svg
   xmlns:dc="http://purl.org/dc/elements/1.1/"
   xmlns:cc="http://creativecommons.org/ns#"
   xmlns:rdf="http://www.w3.org/1999/02/22-rdf-syntax-ns#"
   xmlns:svg="http://www.w3.org/2000/svg"
   xmlns="http://www.w3.org/2000/svg"
   xmlns:sodipodi="http://sodipodi.sourceforge.net/DTD/sodipodi-0.dtd"
   xmlns:inkscape="http://www.inkscape.org/namespaces/inkscape"
   width="64"
   height="64"
   viewBox="0 0 63.999996 63.999996"
   id="svg5682"
   version="1.1"
   inkscape:version="0.91 r13725"
   sodipodi:docname="cloud.svg">
  <defs
     id="defs5684" />
  <sodipodi:namedview
     id="base"
     pagecolor="#ffffff"
     bordercolor="#666666"
     borderopacity="1.0"
     inkscape:pageopacity="0.0"
     inkscape:pageshadow="2"
     inkscape:zoom="8"
     inkscape:cx="27.605932"
     inkscape:cy="37.879177"
     inkscape:document-units="px"
     inkscape:current-layer="layer1"
     showgrid="false"
     fit-margin-top="0"
     fit-margin-left="0"
     fit-margin-right="0"
     fit-margin-bottom="0"
     showguides="true"
     inkscape:window-width="1564"
     inkscape:window-height="913"
     inkscape:window-x="187"
     inkscape:window-y="124"
     inkscape:window-maximized="0"
     units="px"
     inkscape:guide-bbox="true">
    <sodipodi:guide
       position="-287.49998,123.99999"
       orientation="0,1"
       id="guide5070" />
  </sodipodi:namedview>
  <metadata
     id="metadata5687">
    <rdf:RDF>
      <cc:Work
         rdf:about="">
        <dc:format>image/svg+xml</dc:format>
        <dc:type
           rdf:resource="http://purl.org/dc/dcmitype/StillImage" />
        <dc:title></dc:title>
      </cc:Work>
    </rdf:RDF>
  </metadata>
  <g
     inkscape:label="Layer 1"
     inkscape:groupmode="layer"
     id="layer1"
     transform="translate(-358.21426,-747.29078)">
    <path
       style="fill:#003862;fill-opacity:1;stroke:none;stroke-width:2;stroke-miterlimit:10;stroke-dasharray:none;stroke-dashoffset:0;stroke-opacity:1"
       d="M 34 10 A 12.000001 12.000001 0 0 0 23.353516 16.486328 A 12.000001 12.000001 0 0 0 20 16 A 12.000001 12.000001 0 0 0 8 28 A 12.000001 12.000001 0 0 0 20 40 L 45 40 A 8.9999993 8.9999993 0 0 0 54 31 A 8.9999993 8.9999993 0 0 0 45.996094 22.060547 A 12.000001 12.000001 0 0 0 46 22 A 12.000001 12.000001 0 0 0 34 10 z M 34 12 A 10 10 0 0 1 44 22 A 10 10 0 0 1 43.769531 24.111328 A 6.9999988 6.9999988 0 0 1 45 24 A 6.9999988 6.9999988 0 0 1 52 31 A 6.9999988 6.9999988 0 0 1 45 38 L 20 38 A 10.000001 10.000001 0 0 1 10 28 A 10.000001 10.000001 0 0 1 20 18 A 10.000001 10.000001 0 0 1 24.445312 19.054688 A 10 10 0 0 1 34 12 z "
       transform="translate(358.21426,747.29078)"
       id="path5243" />
  </g>
</svg>
