<?xml version="1.0" encoding="UTF-8" standalone="no"?>
<!-- Created with Inkscape (http://www.inkscape.org/) -->

<svg
   xmlns:dc="http://purl.org/dc/elements/1.1/"
   xmlns:cc="http://creativecommons.org/ns#"
   xmlns:rdf="http://www.w3.org/1999/02/22-rdf-syntax-ns#"
   xmlns:svg="http://www.w3.org/2000/svg"
   xmlns="http://www.w3.org/2000/svg"
   xmlns:sodipodi="http://sodipodi.sourceforge.net/DTD/sodipodi-0.dtd"
   xmlns:inkscape="http://www.inkscape.org/namespaces/inkscape"
   width="64"
   height="64"
   viewBox="0 0 63.999996 63.999996"
   id="svg5682"
   version="1.1"
   inkscape:version="0.91 r13725"
   sodipodi:docname="comms.svg"
   inkscape:export-filename="/home/scott/Pictures/mini/comms.png"
   inkscape:export-xdpi="90"
   inkscape:export-ydpi="90">
  <defs
     id="defs5684" />
  <sodipodi:namedview
     id="base"
     pagecolor="#ffffff"
     bordercolor="#666666"
     borderopacity="1.0"
     inkscape:pageopacity="0.0"
     inkscape:pageshadow="2"
     inkscape:zoom="5.6568542"
     inkscape:cx="108.59939"
     inkscape:cy="-7.4408833"
     inkscape:document-units="px"
     inkscape:current-layer="layer1"
     showgrid="true"
     fit-margin-top="0"
     fit-margin-left="0"
     fit-margin-right="0"
     fit-margin-bottom="0"
     showguides="true"
     inkscape:window-width="1564"
     inkscape:window-height="913"
     inkscape:window-x="447"
     inkscape:window-y="144"
     inkscape:window-maximized="0"
     units="px"
     inkscape:guide-bbox="true">
    <sodipodi:guide
       position="-287.49998,123.99999"
       orientation="0,1"
       id="guide5070" />
    <inkscape:grid
       type="xygrid"
       id="grid4136" />
  </sodipodi:namedview>
  <metadata
     id="metadata5687">
    <rdf:RDF>
      <cc:Work
         rdf:about="">
        <dc:format>image/svg+xml</dc:format>
        <dc:type
           rdf:resource="http://purl.org/dc/dcmitype/StillImage" />
        <dc:title />
      </cc:Work>
    </rdf:RDF>
  </metadata>
  <g
     inkscape:label="Layer 1"
     inkscape:groupmode="layer"
     id="layer1"
     transform="translate(-358.21426,-747.29078)">
    <path
       style="fill:#003862;fill-opacity:1;stroke:none;stroke-width:2;stroke-miterlimit:10;stroke-dasharray:none;stroke-dashoffset:0;stroke-opacity:1"
       d="M 44 16 L 44 22 L 20 22 L 8 34 L 20 46 L 20 40 L 44 40 L 56 28 L 44 16 z M 46 20.816406 L 53.183594 28 L 46 35.183594 L 46 30 L 44 30 L 20 30 L 20 24 L 44 24 L 46 24 L 46 20.816406 z M 22 26 L 22 28 L 24 28 L 24 26 L 22 26 z M 26 26 L 26 28 L 28 28 L 28 26 L 26 26 z M 30 26 L 30 28 L 32 28 L 32 26 L 30 26 z M 34 26 L 34 28 L 46 28 L 46 26 L 34 26 z M 18 26.816406 L 18 32 L 20 32 L 44 32 L 44 38 L 20 38 L 18 38 L 18 41.183594 L 10.816406 34 L 18 26.816406 z M 18 34 L 18 36 L 30 36 L 30 34 L 18 34 z M 32 34 L 32 36 L 34 36 L 34 34 L 32 34 z M 36 34 L 36 36 L 38 36 L 38 34 L 36 34 z M 40 34 L 40 36 L 42 36 L 42 34 L 40 34 z "
       transform="translate(358.21426,747.29078)"
       id="rect4172" />
  </g>
</svg>
