<?xml version="1.0" encoding="UTF-8" standalone="no"?>
<!-- Created with Inkscape (http://www.inkscape.org/) -->

<svg
   xmlns:dc="http://purl.org/dc/elements/1.1/"
   xmlns:cc="http://creativecommons.org/ns#"
   xmlns:rdf="http://www.w3.org/1999/02/22-rdf-syntax-ns#"
   xmlns:svg="http://www.w3.org/2000/svg"
   xmlns="http://www.w3.org/2000/svg"
   xmlns:sodipodi="http://sodipodi.sourceforge.net/DTD/sodipodi-0.dtd"
   xmlns:inkscape="http://www.inkscape.org/namespaces/inkscape"
   width="64"
   height="64"
   viewBox="0 0 63.999996 63.999996"
   id="svg5682"
   version="1.1"
   inkscape:version="0.91 r13725"
   sodipodi:docname="repair.svg">
  <defs
     id="defs5684" />
  <sodipodi:namedview
     id="base"
     pagecolor="#ffffff"
     bordercolor="#666666"
     borderopacity="1.0"
     inkscape:pageopacity="0.0"
     inkscape:pageshadow="2"
     inkscape:zoom="2"
     inkscape:cx="-34.43475"
     inkscape:cy="-7.9681415"
     inkscape:document-units="px"
     inkscape:current-layer="layer1"
     showgrid="false"
     fit-margin-top="0"
     fit-margin-left="0"
     fit-margin-right="0"
     fit-margin-bottom="0"
     showguides="true"
     inkscape:window-width="1564"
     inkscape:window-height="913"
     inkscape:window-x="187"
     inkscape:window-y="124"
     inkscape:window-maximized="0"
     units="px"
     inkscape:guide-bbox="true">
    <sodipodi:guide
       position="-287.49998,123.99999"
       orientation="0,1"
       id="guide5070" />
  </sodipodi:namedview>
  <metadata
     id="metadata5687">
    <rdf:RDF>
      <cc:Work
         rdf:about="">
        <dc:format>image/svg+xml</dc:format>
        <dc:type
           rdf:resource="http://purl.org/dc/dcmitype/StillImage" />
        <dc:title></dc:title>
      </cc:Work>
    </rdf:RDF>
  </metadata>
  <g
     inkscape:label="Layer 1"
     inkscape:groupmode="layer"
     id="layer1"
     transform="translate(-358.21426,-747.29078)">
    <path
       inkscape:connector-curvature="0"
       style="fill:#003862;fill-opacity:1;stroke:none;stroke-width:2;stroke-miterlimit:10;stroke-dasharray:none;stroke-dashoffset:0;stroke-opacity:1"
       d="m 407.16107,759.51563 a 12.001467,12.001467 0 0 0 -6.94795,-2.22484 12.001467,12.001467 0 0 0 -12.00114,12.00113 12.001467,12.001467 0 0 0 0.17816,1.92378 l -18.126,18.126 c -2.73317,2.73375 -2.73317,7.16544 10e-6,9.89919 2.73376,2.73317 7.16546,2.73317 9.8992,10e-6 l 18.11357,-18.11357 a 12.001467,12.001467 0 0 0 1.9362,0.16573 12.001467,12.001467 0 0 0 12.00114,-12.00114 12.001467,12.001467 0 0 0 -2.23037,-6.94242 l -9.77077,9.77077 -2.82834,-2.82835 9.77629,-9.77629 z m 2.36018,6.12486 a 10.001223,10.001223 0 0 1 0.69189,3.65281 10.001223,10.001223 0 0 1 -10.00002,10.00003 10.001223,10.001223 0 0 1 -2.57976,-0.35077 l -0.23477,0.23477 -1.35755,1.35754 -17.29185,17.29186 c -1.9527,1.95227 -5.11818,1.95225 -7.07087,-10e-6 -1.95227,-1.95269 -1.95228,-5.11816 0,-7.07086 l 17.29737,-17.29738 1.35203,-1.35202 0.22925,-0.22925 a 10.001223,10.001223 0 0 1 -0.34527,-2.58529 10.001223,10.001223 0 0 1 10.00004,-10.00002 10.001223,10.001223 0 0 1 3.64729,0.69742 l -9.3026,9.3026 5.65669,5.6567 9.30813,-9.30813 z"
       id="path4958-3-3-6-5" />
  </g>
</svg>
