<?xml version="1.0" encoding="UTF-8" standalone="no"?>
<!-- Created with Inkscape (http://www.inkscape.org/) -->

<svg
   xmlns:dc="http://purl.org/dc/elements/1.1/"
   xmlns:cc="http://creativecommons.org/ns#"
   xmlns:rdf="http://www.w3.org/1999/02/22-rdf-syntax-ns#"
   xmlns:svg="http://www.w3.org/2000/svg"
   xmlns="http://www.w3.org/2000/svg"
   xmlns:sodipodi="http://sodipodi.sourceforge.net/DTD/sodipodi-0.dtd"
   xmlns:inkscape="http://www.inkscape.org/namespaces/inkscape"
   width="64"
   height="64"
   viewBox="0 0 63.999996 63.999996"
   id="svg5682"
   version="1.1"
   inkscape:version="0.91 r13725"
   sodipodi:docname="search.svg">
  <defs
     id="defs5684" />
  <sodipodi:namedview
     id="base"
     pagecolor="#ffffff"
     bordercolor="#666666"
     borderopacity="1.0"
     inkscape:pageopacity="0.0"
     inkscape:pageshadow="2"
     inkscape:zoom="1"
     inkscape:cx="-113.41533"
     inkscape:cy="142.8821"
     inkscape:document-units="px"
     inkscape:current-layer="layer1"
     showgrid="false"
     fit-margin-top="0"
     fit-margin-left="0"
     fit-margin-right="0"
     fit-margin-bottom="0"
     showguides="true"
     inkscape:window-width="1564"
     inkscape:window-height="913"
     inkscape:window-x="187"
     inkscape:window-y="125"
     inkscape:window-maximized="0"
     units="px"
     inkscape:guide-bbox="true">
    <sodipodi:guide
       position="-287.49998,123.99999"
       orientation="0,1"
       id="guide5070" />
  </sodipodi:namedview>
  <metadata
     id="metadata5687">
    <rdf:RDF>
      <cc:Work
         rdf:about="">
        <dc:format>image/svg+xml</dc:format>
        <dc:type
           rdf:resource="http://purl.org/dc/dcmitype/StillImage" />
        <dc:title></dc:title>
      </cc:Work>
    </rdf:RDF>
  </metadata>
  <g
     inkscape:label="Layer 1"
     inkscape:groupmode="layer"
     id="layer1"
     transform="translate(-358.21426,-747.29078)">
    <path
       style="fill:#003862;fill-opacity:1;stroke:none;stroke-width:2;stroke-miterlimit:10;stroke-dasharray:none;stroke-dashoffset:0;stroke-opacity:1"
       d="M 25 6 A 15.000002 15.000002 0 0 0 10 21 A 15.000002 15.000002 0 0 0 25 36 A 15.000002 15.000002 0 0 0 34.083984 32.912109 L 50.585938 49.414062 A 2 2 0 0 0 53.414062 49.414062 A 2 2 0 0 0 53.414062 46.585938 L 36.917969 30.089844 A 15.000002 15.000002 0 0 0 40 21 A 15.000002 15.000002 0 0 0 25 6 z M 25 8 A 13.000002 13.000002 0 0 1 38 21 A 13.000002 13.000002 0 0 1 25 34 A 13.000002 13.000002 0 0 1 12 21 A 13.000002 13.000002 0 0 1 25 8 z "
       id="path5352"
       transform="translate(358.21426,747.29078)" />
  </g>
</svg>
