<?xml version="1.0" encoding="UTF-8" standalone="no"?>
<!-- Created with Inkscape (http://www.inkscape.org/) -->

<svg
   xmlns:dc="http://purl.org/dc/elements/1.1/"
   xmlns:cc="http://creativecommons.org/ns#"
   xmlns:rdf="http://www.w3.org/1999/02/22-rdf-syntax-ns#"
   xmlns:svg="http://www.w3.org/2000/svg"
   xmlns="http://www.w3.org/2000/svg"
   xmlns:sodipodi="http://sodipodi.sourceforge.net/DTD/sodipodi-0.dtd"
   xmlns:inkscape="http://www.inkscape.org/namespaces/inkscape"
   width="64"
   height="64"
   viewBox="0 0 63.999996 63.999996"
   id="svg5682"
   version="1.1"
   inkscape:version="0.91 r13725"
   sodipodi:docname="systems.svg">
  <defs
     id="defs5684">
    <linearGradient
       id="linearGradient3832">
      <stop
         id="stop3834"
         offset="0"
         style="stop-color:#ffffff;stop-opacity:1;" />
      <stop
         id="stop3836"
         offset="1"
         style="stop-color:#e0e0e0;stop-opacity:1;" />
    </linearGradient>
  </defs>
  <sodipodi:namedview
     id="base"
     pagecolor="#ffffff"
     bordercolor="#666666"
     borderopacity="1.0"
     inkscape:pageopacity="0.0"
     inkscape:pageshadow="2"
     inkscape:zoom="1"
     inkscape:cx="242.41277"
     inkscape:cy="181.71588"
     inkscape:document-units="px"
     inkscape:current-layer="layer1"
     showgrid="true"
     fit-margin-top="0"
     fit-margin-left="0"
     fit-margin-right="0"
     fit-margin-bottom="0"
     showguides="false"
     inkscape:window-width="1564"
     inkscape:window-height="913"
     inkscape:window-x="2041"
     inkscape:window-y="236"
     inkscape:window-maximized="0"
     units="px"
     inkscape:guide-bbox="true">
    <sodipodi:guide
       position="-287.49998,123.99999"
       orientation="0,1"
       id="guide5070" />
    <inkscape:grid
       type="xygrid"
       id="grid4136"
       spacingx="1.9999999"
       spacingy="1.9999999" />
  </sodipodi:namedview>
  <metadata
     id="metadata5687">
    <rdf:RDF>
      <cc:Work
         rdf:about="">
        <dc:format>image/svg+xml</dc:format>
        <dc:type
           rdf:resource="http://purl.org/dc/dcmitype/StillImage" />
        <dc:title></dc:title>
      </cc:Work>
    </rdf:RDF>
  </metadata>
  <g
     inkscape:label="Layer 1"
     inkscape:groupmode="layer"
     id="layer1"
     transform="translate(-358.21426,-747.29078)">
    <path
       style="fill:#003862;fill-opacity:1;stroke:none;stroke-width:2;stroke-miterlimit:10;stroke-dasharray:none;stroke-dashoffset:0;stroke-opacity:1"
       d="M 7,8 C 5.3379996,8 4,9.3379996 4,11 l 0,42 c 0,1.662 1.3379996,3 3,3 l 50,0 c 1.662,0 3,-1.338 3,-3 L 60,11 C 60,9.3379996 58.662,8 57,8 Z m 0,2 50,0 c 0.554,0 1,0.446 1,1 l 0,42 c 0,0.554 -0.446,1 -1,1 L 7,54 C 6.4459998,54 6,53.554 6,53 L 6,11 c 0,-0.554 0.4459998,-1 1,-1 z m 1,2 0,6 48,0 0,-6 z m 45.158203,7.648438 c -0.007,-0.002 -0.09135,0.09261 -0.169922,0.06641 -0.0169,-0.006 -0.03388,-0.01002 -0.05078,-0.01563 -0.10104,-0.0336 0.02576,0.255601 0.03516,0.269531 0.0113,0.0169 0.0219,0.03398 0.0332,0.05078 0.0113,0.0169 0.02386,0.03398 0.03516,0.05078 0.004,0.007 0.01002,0.01198 0.01563,0.01758 6.7e-4,8.6e-4 -0.21875,-0.170491 -0.21875,0.06836 0,0.0635 -0.13392,0.277918 -0.1875,0.117188 -0.0313,-0.0938 -0.07099,-0.215037 -0.08398,-0.253907 -0.0217,-0.0653 -0.104662,0.09733 -0.169922,0.119141 -0.19211,0.064 0.03247,0.278138 -0.134765,0.236328 -0.0926,-0.0231 -0.09985,-0.267942 -0.134766,-0.320312 -0.0572,-0.0858 -0.329692,0.167968 -0.101562,0.167968 0.10315,0 0.0083,0.203125 -0.119141,0.203125 -0.12694,0 0.0804,0.160648 -0.0332,0.236328 -0.01,0.006 0.162296,0.252002 -0.08398,0.169922 -0.004,-0.002 0.06936,0.196791 -0.08594,0.119141 -0.14589,-0.073 0.04807,-0.220703 -0.203125,-0.220703 -0.1576,0 0.07022,-0.151705 -0.08398,-0.203125 -0.20252,-0.0675 -0.03746,0.109965 -0.06836,0.203125 -0.096,0.28788 -0.04754,-0.04052 -0.134765,0.01758 -0.0898,0.0598 -0.0824,0.344666 -0.152344,0.134765 -0.04,-0.11969 -0.207688,0.211164 -0.236328,0.220704 -0.21001,0.07 -0.017,0.236859 0.0332,0.287109 0.10727,0.10727 -0.06007,0.0568 0.11914,0.101563 0.252841,0.0633 -0.02192,0.121598 0.117188,0.167968 0.17737,0.0592 -0.125779,0.0633 -0.167969,0 -0.0113,-0.0169 -0.0219,-0.03378 -0.0332,-0.05078 -0.0178,-0.0268 -0.11301,0.08249 -0.1875,-0.06641 -0.005,-0.0105 -0.115707,0.08722 -0.185547,-0.01758 -0.003,-0.004 0.05032,0.185939 -0.05078,0.287109 -0.10389,0.10389 -0.168603,-0.01961 -0.220703,0.136719 -0.0194,0.058 -0.167969,-0.109003 -0.167969,0.117187 0,0.0327 -0.233082,-0.205135 -0.169922,-0.01563 0.0499,0.14978 0.192953,0.144948 0.101563,0.236328 -0.0793,0.0793 -0.202741,-0.183165 -0.269531,0.08398 -0.004,0.0173 -0.01198,0.03398 -0.01758,0.05078 -0.0315,0.0945 0.05349,0.263909 0.08398,0.355469 0.074,0.22234 0.169345,0.01741 0.203125,-0.08398 0.0477,-0.143 0.271744,-0.05879 0.08398,0.06641 -0.13823,0.0922 -0.03151,0.217215 -0.06641,0.322265 -0.0449,0.1349 -0.145595,-0.179299 -0.203125,0.05078 -0.0287,0.114671 -0.05078,0.133312 -0.05078,0.269532 -4.5e-4,0.002 0.163587,-0.047 0.304687,0 0.20183,0.0673 0.113129,0.08594 -0.05078,0.08594 -0.12052,0 -0.239301,-0.01492 -0.337891,0.05078 -0.12454,0.0831 -0.177554,-0.09947 -0.271484,-0.169921 -0.0801,-0.06 -0.234151,-0.08398 -0.337891,-0.08398 -0.002,0 -0.134765,0.266403 -0.134765,0.0332 0,-0.15913 -0.01183,-0.152343 -0.203125,-0.152343 -0.10378,0 -0.151923,0.202778 -0.101563,0.236328 0.0401,0.0267 0.325603,0.152344 0.101563,0.152344 -0.0591,0 -0.0033,0.06493 -0.08594,0.1875 -0.02868,0.04301 -0.04284,0.04423 -0.05469,0.04102 9.27e-4,0.01847 0.0039,0.01473 0.0039,0.04297 0,0.1391 0.203125,0.03452 0.203125,0.203125 0,0.0901 0.232636,0.239574 0.253906,0.271484 0.01,0.0142 -0.01563,0.203493 -0.01563,0.251953 0,0.0108 0.09989,0.13498 -0.03516,0 -0.0943,-0.0943 -0.158849,-0.171065 -0.28711,-0.203125 -0.0912,-0.0228 0.04386,0.191073 0.06836,0.289063 0.0204,0.0814 -0.09742,0.224896 -0.1875,0.134766 -0.11118,-0.111171 -0.1256,-0.131755 -0.21875,-0.271485 -0.0113,-0.0169 -0.02386,-0.03398 -0.03516,-0.05078 -0.0634,-0.0951 -0.134305,-0.148723 -0.203125,-0.251953 -0.0775,-0.11628 -0.07204,-0.210538 -0.134766,-0.304688 -0.0283,-0.006 -0.05578,-0.01198 -0.08398,-0.01758 -0.1347,-0.0269 0.01758,-0.256609 0.01758,-0.287109 0,-0.21609 -0.216141,0.0352 -0.238281,0.101562 -0.0409,0.12281 -0.150885,0.105718 -0.203126,0.236328 -0.0953,0.23832 0.02313,0.08159 -0.185546,0.220704 -0.11172,0.0745 0.101504,0.211413 -0.134766,0.152343 -0.009,-0.002 -0.214981,0.228653 -0.238281,0.251953 -0.0583,0.0583 -0.103656,0.228946 -0.134766,0.322266 -0.0339,0.10168 0,0.278262 0,0.388672 0,0.0805 0.101563,0.198335 0.101563,0.322266 0,0.19335 0.08103,0.154948 0.203125,0.236328 0.0169,0.0113 0.03378,0.0219 0.05078,0.0332 0.16112,0.10742 -0.190073,0.142133 -0.220703,0.152343 -0.0915,0.0305 -0.03144,0.203345 -0.09961,0.271485 -0.0867,0.0867 -0.211585,0.208668 -0.322265,0.236328 -0.14166,0.0354 -0.07406,-0.02469 -0.169922,0.119141 -0.0746,0.1119 -0.127221,-0.07852 0.06836,0.117187 0.12873,0.12873 -0.226992,-0.0012 -0.169922,0.169922 0.0125,0.0379 0,0.110074 0,0.152344 0.0157,0.0475 -0.176045,0.334512 -0.203125,0.388672 -0.01,0.0181 -0.022,0.03398 -0.0332,0.05078 -0.0805,0.12068 -0.120355,0.231329 -0.203125,0.355469 -0.0683,0.10252 -0.222509,0.210836 -0.287109,0.253906 l -0.728516,0.373047 -0.320312,0.134765 c -0.0226,0.006 -0.04586,0.01002 -0.06836,0.01563 -0.11662,0.0292 -0.193497,0.03136 -0.304687,0.06836 -0.15145,0.0505 -0.206034,0.02495 -0.302734,0.169922 -0.0928,0.13919 -0.232524,0.03602 -0.339844,-0.01758 -0.11189,-0.056 -0.234849,-0.04378 -0.355469,-0.08398 -0.12842,-0.0428 -0.173308,0.15573 -0.236328,0.21875 -0.0444,0.0444 -0.04448,0.07769 -0.08398,0.136719 -0.13329,0.13329 -0.07344,0.167969 -0.287109,0.167969 -0.12248,0 -0.241404,0.06915 -0.339844,0.134765 -0.0594,0.0395 -0.248912,0.01176 -0.320312,0.03516 -0.0705,0.0235 -0.273266,0.129635 -0.322266,0.203126 -0.0113,0.0169 -0.0219,0.03398 -0.0332,0.05078 -0.0625,0.0938 -0.105316,0.165995 -0.253906,0.203125 -0.12863,0.0322 -0.195171,0.101562 -0.337891,0.101562 -0.14312,0 -0.223714,0.02417 -0.271484,-0.11914 -0.0192,-0.0576 -0.110359,0.04916 -0.167969,0.06836 -0.0926,0.0308 -0.225322,0.206855 -0.289062,0.01563 -0.0272,-0.0816 0.01659,-0.315446 -0.06641,-0.06641 -0.0433,0.12978 -0.184794,0.156647 -0.271484,0.185547 -0.0312,0.0106 -0.03258,0.05668 -0.05078,0.08398 -0.16592,0.0553 -0.09769,0.230421 -0.320313,0.119141 -0.0356,-0.0178 -0.129182,0.205778 -0.169922,0.236328 -0.11195,0.084 -0.274185,0.142869 -0.322265,0.287109 -0.008,0.0268 -0.04391,0.03398 -0.06641,0.05078 -0.006,0.0225 -0.01198,0.04586 -0.01758,0.06836 -0.0297,0.11917 -0.222849,0.139948 -0.287109,0.236328 -0.0905,0.13579 -0.01693,0.165875 -0.203125,0.203125 -0.0167,0.003 -0.03378,0 -0.05078,0 -0.052,0 -0.04969,0.119141 -0.101563,0.119141 -0.12012,0 -0.194339,0.307088 -0.287109,0.167968 -0.002,-0.002 -0.253276,0.1875 -0.322266,0.1875 -0.0443,0 -0.154888,0.281073 -0.167968,0.320313 -0.0199,0.0598 -0.05104,0.117452 -0.08594,0.169922 -0.0638,0.19122 -0.153693,0.162653 -0.101562,0.371093 0.0329,0.13163 -0.08388,-0.06661 -0.185547,0.136719 -0.0866,0.17312 -0.175796,0.07816 -0.134766,-0.08594 0.0501,-0.20026 0.12479,0.0014 0,-0.185547 -0.0941,-0.14107 -0.08786,-0.179811 -0.03516,-0.337891 0.0385,-0.11561 -0.01483,-0.236397 -0.04883,-0.304687 -0.0289,-0.0577 -0.279253,0.247829 -0.289063,0.287109 -0.0248,0.0992 -0.01563,0.218036 -0.01563,0.322266 0,0.13673 -0.06323,0.22608 -0.119141,0.33789 -0.01,0.0181 -0.0218,0.03398 -0.0332,0.05078 -0.0513,0.0769 -0.03516,0.23843 -0.03516,0.33789 0,0.075 0.203125,-0.0221 0.203125,0.152344 0,0.17881 0.08865,0.148839 0.134766,0.287109 0.0224,0.0671 -0.09961,0.11684 -0.09961,0.1875 0,0.12162 0.06641,0.209351 0.06641,0.337891 0,0.15864 -0.127119,0.197772 -0.167969,0.320312 -0.0347,0.1041 -0.101399,0.216386 -0.136719,0.322266 -0.0345,0.10326 -0.06112,0.241602 0.01758,0.320312 0.0488,0.0488 -0.06836,0.269574 -0.06836,0.339844 0,0.0629 0.0047,0.129609 0.01758,0.167969 0,0.0391 0.262499,0.297656 0.287109,0.322266 0.0841,0.0841 0.03396,0.216742 0.06836,0.320312 0.039,0.11734 0.07586,0.249788 0.185547,0.304688 0.11326,0.0566 0.192968,0.192185 0.236328,0.322265 0.0113,0.0338 0.02386,0.06769 0.03516,0.101563 0.0388,0.11654 0.08187,0.217969 0.185547,0.287109 0.0947,0.0632 0.159937,0.219806 0.185547,0.322266 0.0304,0.12168 0.169922,0.0497 0.169922,0.236328 0,0.0634 0.0302,0.259477 0,0.304687 -0.12735,0.19102 -0.182515,0.08262 -0.271485,-0.05078 -0.0748,-0.11212 -0.09211,-0.241729 -0.167969,-0.355469 -0.0957,-0.14346 -0.03516,-0.0056 -0.03516,0.134766 0,0.23593 -0.134765,-0.13047 -0.134765,-0.21875 0,-0.1536 -0.166488,-0.199907 -0.236329,-0.304687 -0.0501,-0.0751 -0.166233,-0.350901 -0.220703,-0.1875 -0.0548,0.16435 -0.09192,0.215235 0.05078,0.322265 0.0649,0.0486 0.04299,0.277269 0.101562,0.355469 0.0731,0.0975 0.229916,0.12639 0.322266,0.21875 0.0884,0.0884 0.199304,0.163807 0.152343,0.304687 -0.0425,0.12766 -0.217822,0.192768 -0.289062,0.08594 -0.0781,-0.11716 -0.137568,-0.205948 -0.236328,-0.304688 -0.0652,-0.0652 -0.167879,-0.236238 -0.167969,-0.236328 -0.004,-0.004 0.06683,0.288556 0.01563,0.134766 -0.0638,-0.19122 -0.140067,-0.117456 -0.185547,-0.253906 -0.045,-0.13517 -0.115807,-0.233281 -0.185547,-0.337891 -0.0113,-0.0169 -0.02386,-0.03398 -0.03516,-0.05078 -0.054,-0.081 -0.06619,-0.392783 -0.152344,-0.220703 -0.0539,0.10769 0.0053,0.267038 0.03516,0.355468 0.0392,0.11773 0.132938,0.268961 0.236328,0.337891 0.0775,0.0517 0.181258,0.213709 0.236328,0.287109 0.0868,0.11579 0.127666,0.204903 0.253906,0.289063 0.0169,0.0113 0.03398,0.0219 0.05078,0.0332 0.0777,0.0518 0.159428,0.202157 0.236328,0.304688 0.0856,0.11428 0.160702,0.2215 0.238282,0.33789 0.007,0.0105 0.01002,0.02386 0.01563,0.03516 l 0.253906,0.269532 0.203125,0.40625 0.0332,0.220703 0,0.236328 0.119141,0.269531 0.06836,0.101563 0.117188,0.05078 0.08594,0.08594 c 0.0939,0.0938 0.160548,0.224221 0.236328,0.337891 0.0724,0.10857 0.08398,0.191122 0.08398,0.320312 0,0.0897 0.212514,0.194917 0.271484,0.253907 0.0947,0.0947 0.133095,0.217215 0.203125,0.322265 0.0547,0.082 0.06641,0.239621 0.06641,0.337891 0,0.11274 0.03516,0.218521 0.03516,0.337891 0,0.11144 0.08398,0.219623 0.08398,0.339843 0,0.13158 0.05448,0.219851 0.08398,0.337891 0.0158,0.0634 0,0.15292 0,0.21875 0.0358,0.14311 0.169065,0.236737 0.203125,0.373047 0.0288,0.11497 0.07193,0.208524 0.134766,0.271484 0.0986,0.0986 0.10958,0.216393 0.1875,0.320313 0.0786,0.10473 0.128685,0.223025 0.203125,0.322265 0.0122,0.0163 0.0219,0.03398 0.0332,0.05078 0.0463,0.0694 0.111902,0.08102 0.169922,0.167968 0.0225,0.0339 0.04391,0.06769 0.06641,0.101563 0.0618,0.0928 0.09273,0.216575 0.119141,0.322266 0.0246,0.0983 0,0.23582 0,0.33789 l 0,0.337891 c 0,0.0687 0.09939,0.286339 0.101562,0.287109 0.005,0.002 0.06868,0.13104 -0.11914,0.06836 -0.11858,-0.0396 0.08398,0.251426 0.08398,0.373046 0,0.0232 0.01198,0.04401 0.01758,0.06641 0,0.1439 0.01758,0.292953 0.01758,0.439453 0,0.0596 -0.07893,0.244237 -0.11914,0.304687 -0.0811,0.12161 -0.137198,0.223116 -0.236329,0.322266 -0.0951,0.0951 -0.27862,-0.05574 -0.33789,-0.134766 -0.0156,-0.0208 0,0.207404 0,0.371094 0,0.13501 -0.03057,0.250072 0.01563,0.388672 0.0474,0.14214 0.133613,0.206155 0.220703,0.322265 0.041,0.0548 0.194027,-0.06006 0.304688,-0.03516 0.15053,0.0339 0.26053,0.163445 0.33789,0.203125 0.0952,0.0488 0.0866,0.153215 0.236328,0.203125 0.0783,0.0261 0.189035,0.206603 0.203125,0.220703 l 0.101563,0 c 0.11793,0 0.179257,-0.0075 0.304687,0.0332 0.13877,0.0463 0.163018,0.200909 0.304688,0.236329 0.12786,0.032 0.18205,-0.102812 0.33789,-0.05078 0.0269,0.009 0.265361,-0.06641 0.337891,-0.06641 0.14442,0 0.208856,0.0098 0.322266,0.06641 0.11911,0.0596 0.09791,-0.06505 0.236328,-0.09961 0.1211,-0.0303 0.210625,-0.06836 0.322265,-0.06836 0.13701,0 0.21875,0.0046 0.21875,-0.134766 0,-0.008 0.217357,-0.05078 0.253907,-0.05078 0.0642,0 0.0051,-0.14203 0.05078,-0.1875 0.0767,-0.0767 0.25338,-0.129207 0.337891,-0.185547 0.0518,-0.0346 -0.02642,-0.141487 0.01758,-0.185547 0.0822,-0.0822 0.203235,-0.08594 0.322265,-0.08594 0.28146,0 0.0065,0.125596 0.28711,-0.08398 0.0627,-0.047 0.137945,-0.07378 0.203125,-0.117187 0.0565,-0.0376 -0.03398,-0.137265 -0.01758,-0.203125 0.0263,-0.10495 0.176896,-0.232975 0.253906,-0.271485 0.0997,-0.0498 0.194017,-0.134765 0.304687,-0.134765 l 0.05078,0 c 0.130471,0 0.241264,-0.01758 0.371094,-0.01758 0.14475,0 0.137838,-0.174751 0.304688,-0.119141 0.0581,0.0194 0.321915,-0.02593 0.390625,-0.04883 0.0169,-0.006 0.03398,-0.01198 0.05078,-0.01758 0.1092,-0.0364 0.221792,-0.077 0.320312,-0.101563 0.0173,-0.004 0.03398,-0.01198 0.05078,-0.01758 0.13429,-0.0448 0.208255,0.101562 0.322265,0.101562 0.17593,0 0.190129,-0.01141 0.355469,-0.06641 0.10136,-0.0337 0.16046,0.20417 0.21875,0.21875 0.13371,0.0334 0.171009,-0.156507 0.28711,-0.185547 0.16736,-0.0419 0.133903,0.122769 0.220703,-0.05078 0.0109,-0.0216 0.30068,0 0.33789,0 0.14291,0 0.22626,-0.114211 0.28711,0.06836 0.0523,0.15698 0.201901,0.110323 0.238281,-0.03516 0.0384,-0.15339 0.164731,0.10484 0.269531,0 0.11101,-0.11101 0.13966,-0.176812 0.1875,-0.320312 0.0388,-0.11641 0.181661,-0.154793 0.269531,-0.220703 0.0216,-0.0162 0,-0.220777 0,-0.253907 0.0842,-0.0632 0.138922,-0.295671 0.169922,-0.388671 0.005,-0.0169 0.01002,-0.03398 0.01563,-0.05078 0.0305,-0.0914 0.238598,-0.170085 0.304688,-0.203125 0.10083,-0.0504 0.22709,-0.05078 0.33789,-0.05078 0.13302,0 0.210553,-0.175406 0.289063,-0.253906 0.063,-0.063 0.24485,-0.123517 0.33789,-0.185547 0.004,-0.003 0.01198,0 0.01758,0 0.11408,-0.076 0.275181,-0.09437 0.388671,-0.169922 0.0169,-0.0113 0.03378,-0.0218 0.05078,-0.0332 0.12327,-0.0822 0.161881,-0.148933 0.269531,-0.220703 0.0169,-0.0113 0.03378,-0.022 0.05078,-0.0332 0.0943,-0.0629 0.237224,-0.0674 0.339844,-0.0332 0.11709,0.039 0.335548,0.03661 0.455078,0.06641 0.13245,0.0543 0.169408,-0.02 0.304688,-0.0332 0.15508,-0.0339 0.286951,0.03527 0.388672,-0.01563 0.13052,-0.0652 0.299526,-0.116884 0.441406,-0.152344 0.13221,-0.0331 0.373964,-0.111792 0.490234,-0.169922 0.23307,-0.13785 0.480643,-0.165781 0.726563,-0.337891 C 55.653781,44.770534 56,44.783531 56,44.650391 l 0,-23.394532 c -0.0316,-0.0362 -0.175662,-0.08594 -0.320312,-0.08594 -0.0348,0 -0.123025,-0.06641 -0.203126,-0.06641 -0.15941,0 -0.185747,-0.07452 -0.304687,0.08398 -0.0122,0.0163 -0.02406,0.03398 -0.03516,0.05078 -0.0679,0.10178 -0.21355,0.155836 -0.28711,0.253907 -0.14118,0.18824 -0.0569,-0.09037 -0.0332,-0.185547 0.034,-0.13595 0.181085,-0.180598 0.01563,-0.304688 -0.11036,-0.0827 -0.238945,-0.144333 -0.353515,-0.220703 -0.0169,-0.0113 -0.03398,-0.0218 -0.05078,-0.0332 -0.0849,-0.0565 -0.165681,-0.207878 -0.238281,-0.304688 -0.10836,-0.14448 -0.142429,-0.190639 -0.287109,-0.287109 -0.11035,-0.0735 -0.04363,-0.194511 -0.21875,-0.238281 -0.10294,-0.0257 -0.256763,0.147731 -0.289063,0.05078 -0.0263,-0.0788 -0.148838,-0.291152 -0.236328,-0.320312 z m -4.554687,4.134765 c -0.0082,-0.164054 -0.03974,-0.01077 0,0 z M 9.9999998,22 l 0,2 L 30,24 30,22 Z m 0,4 0,2 L 30,28 30,26 Z m 0,4 0,2 L 30,32 30,30 Z m 0,4 0,2 L 30,36 30,34 Z m 0,4 0,2 L 30,40 30,38 Z m 0,8 0,4 L 14,50 14,46 Z M 18,46 l 0,4 4,0 0,-4 z m 8,0 0,4 4,0 0,-4 z"
       transform="translate(358.21426,747.29078)"
       id="rect4236"
       inkscape:connector-curvature="0"
       sodipodi:nodetypes="ssssssssssssssssssccccccccccccscccccsscccsccccccccccccccscccscccccccsccssscsccsscscccccccccsccccscssccsccccccccccccccccsscscccccssccccccccccccsscscccccccccsccsscsscccscsccccccscccssccccccccsccccccccccccccccccccccsccsssccccccccccssccscscccsccccscscccsccssscccsccccsssccsccsccccscccccccccsccccccccccccccscsscccccccccccccccccccccccccccccccccccccccccccccccccccccc" />
  </g>
</svg>
