<?xml version="1.0" encoding="UTF-8" standalone="no"?>
<!-- Created with Inkscape (http://www.inkscape.org/) -->

<svg
   xmlns:dc="http://purl.org/dc/elements/1.1/"
   xmlns:cc="http://creativecommons.org/ns#"
   xmlns:rdf="http://www.w3.org/1999/02/22-rdf-syntax-ns#"
   xmlns:svg="http://www.w3.org/2000/svg"
   xmlns="http://www.w3.org/2000/svg"
   xmlns:sodipodi="http://sodipodi.sourceforge.net/DTD/sodipodi-0.dtd"
   xmlns:inkscape="http://www.inkscape.org/namespaces/inkscape"
   width="64"
   height="64"
   viewBox="0 0 63.999996 63.999996"
   id="svg5682"
   version="1.1"
   inkscape:version="0.91 r13725"
   sodipodi:docname="telephony.svg">
  <defs
     id="defs5684" />
  <sodipodi:namedview
     id="base"
     pagecolor="#ffffff"
     bordercolor="#666666"
     borderopacity="1.0"
     inkscape:pageopacity="0.0"
     inkscape:pageshadow="2"
     inkscape:zoom="4"
     inkscape:cx="-8.279011"
     inkscape:cy="51.831959"
     inkscape:document-units="px"
     inkscape:current-layer="layer1"
     showgrid="false"
     fit-margin-top="0"
     fit-margin-left="0"
     fit-margin-right="0"
     fit-margin-bottom="0"
     showguides="true"
     inkscape:window-width="1564"
     inkscape:window-height="913"
     inkscape:window-x="187"
     inkscape:window-y="125"
     inkscape:window-maximized="0"
     units="px"
     inkscape:guide-bbox="true">
    <sodipodi:guide
       position="-287.49998,123.99999"
       orientation="0,1"
       id="guide5070" />
  </sodipodi:namedview>
  <metadata
     id="metadata5687">
    <rdf:RDF>
      <cc:Work
         rdf:about="">
        <dc:format>image/svg+xml</dc:format>
        <dc:type
           rdf:resource="http://purl.org/dc/dcmitype/StillImage" />
        <dc:title></dc:title>
      </cc:Work>
    </rdf:RDF>
  </metadata>
  <g
     inkscape:label="Layer 1"
     inkscape:groupmode="layer"
     id="layer1"
     transform="translate(-358.21426,-747.29078)">
    <path
       style="fill:#003862;fill-opacity:1"
       d="m 384.9185,752.77268 a 1.947069,1.947069 0 0 0 -0.4894,2e-4 l -1.13421,0.14216 c -0.26677,-0.0269 -0.44738,0.0394 -0.56234,0.0549 -0.21672,0.0292 -0.3314,0.0652 -0.44355,0.0997 -0.2243,0.0689 -0.40538,0.1436 -0.61363,0.23194 -0.41647,0.17667 -0.90386,0.40868 -1.43386,0.67656 -1.06001,0.53578 -2.24608,1.18685 -3.11142,1.75625 a 1.947069,1.947069 0 0 0 -0.002,0.002 c -1.80905,1.19201 -3.85865,3.12821 -4.96075,5.96515 a 1.947069,1.947069 0 0 0 -0.0667,0.20872 c -1.95671,7.44068 -0.41446,15.1514 3.03872,22.04386 2.78597,7.19602 7.46732,13.52812 14.30028,17.07955 a 1.947069,1.947069 0 0 0 0.20007,0.0912 c 2.84161,1.08886 5.65128,0.87148 7.74952,0.33184 a 1.947069,1.947069 0 0 0 0.002,2.3e-4 c 1.00336,-0.2587 2.28371,-0.70158 3.39273,-1.12725 0.55451,-0.21284 1.05293,-0.41841 1.46357,-0.60838 0.20533,-0.095 0.38222,-0.18028 0.58393,-0.30012 0.1009,-0.0599 0.20606,-0.11999 0.37317,-0.26086 0.0887,-0.0748 0.26043,-0.16141 0.41964,-0.37748 l 0.86581,-0.74612 a 1.947069,1.947069 0 0 0 0.43057,-0.5276 c 0.61494,-1.10199 0.89473,-1.86709 1.25106,-3.07906 a 1.947069,1.947069 0 0 0 -0.53587,-1.97036 l -7.41809,-6.95526 a 1.947069,1.947069 0 0 0 -1.77855,-0.47445 l -2.00848,0.47264 a 1.947069,1.947069 0 0 0 -0.002,-2.3e-4 c -0.69254,0.16345 -1.23582,0.43305 -1.65238,0.69728 -0.20826,0.13212 -0.38226,0.25797 -0.55535,0.41339 -0.0865,0.0778 -0.17065,0.15509 -0.29405,0.30902 -0.006,0.007 -0.0156,0.0257 -0.0214,0.033 -0.23443,0.28574 -0.2898,0.29689 -0.88753,0.44888 a 1.947069,1.947069 0 0 0 -0.0813,0.0243 c -0.51277,0.1546 -0.77345,0.1158 -0.96028,0.0457 -0.1815,-0.0681 -0.38705,-0.21501 -0.64713,-0.62674 -1.48241,-2.90382 -2.66042,-5.38572 -3.643,-7.56602 -0.95321,-2.18834 -1.99948,-4.72134 -3.15149,-7.76054 -0.12961,-0.46753 -0.10048,-0.71932 -0.0289,-0.89945 0.0737,-0.18565 0.22227,-0.40404 0.68155,-0.68028 a 1.947069,1.947069 0 0 0 0.0721,-0.047 c 0.51256,-0.33971 0.56102,-0.37387 0.92822,-0.35587 0.01,6.3e-4 0.0313,0.006 0.0405,0.007 0.19735,0.0119 0.31199,9.5e-4 0.42772,-0.011 0.23146,-0.024 0.43957,-0.0668 0.67716,-0.13245 0.47516,-0.13129 1.03997,-0.3543 1.62569,-0.75726 a 1.947069,1.947069 0 0 0 0.002,2.2e-4 l 1.69747,-1.16982 a 1.947069,1.947069 0 0 0 0.84185,-1.63713 l -0.16954,-10.16806 a 1.947069,1.947069 0 0 0 -1.10056,-1.71918 c -1.1374,-0.55016 -1.89148,-0.85716 -3.12077,-1.14174 a 1.947069,1.947069 0 0 0 -0.19064,-0.0351 z m -0.24785,1.93168 c 1.13528,0.26282 1.59879,0.45905 2.71241,0.99771 l 0.16953,10.16806 -1.69747,1.16981 c -0.73671,0.50683 -1.51885,0.60367 -1.55518,0.54898 -0.88602,-0.046 -1.49219,0.26702 -2.1163,0.68068 -1.47068,0.88459 -1.99032,2.19132 -1.51682,3.81969 1.1881,3.14171 2.26279,5.74001 3.24359,7.99098 1.00884,2.23853 2.21082,4.77713 3.7403,7.76756 0.88834,1.44453 2.20443,1.93868 3.84759,1.4433 0.72564,-0.18452 1.36558,-0.42349 1.92668,-1.11071 -0.0159,-0.0638 0.58139,-0.57727 1.45166,-0.78267 l 2.00848,-0.47264 7.4181,6.95526 c -0.34893,1.18683 -0.5146,1.66173 -1.08245,2.67934 l -1.23105,1.05895 c -0.0142,0.22172 -3.36832,1.50916 -5.08491,1.95175 -1.80408,0.46398 -4.22033,0.6353 -6.56806,-0.26431 -6.33887,-3.29464 -10.75985,-9.22665 -13.41618,-16.12948 -3.32973,-6.60441 -4.75459,-13.86173 -2.93769,-20.77078 0.91042,-2.34354 2.66162,-4.02126 4.21706,-5.04616 1.48089,-0.97443 4.68647,-2.59301 4.8602,-2.4545 l 1.61051,-0.20082 z"
       id="path5574-1"
       inkscape:connector-curvature="0" />
  </g>
</svg>
