<?xml version="1.0" encoding="UTF-8" standalone="no"?>
<!-- Created with Inkscape (http://www.inkscape.org/) -->

<svg
   xmlns:dc="http://purl.org/dc/elements/1.1/"
   xmlns:cc="http://creativecommons.org/ns#"
   xmlns:rdf="http://www.w3.org/1999/02/22-rdf-syntax-ns#"
   xmlns:svg="http://www.w3.org/2000/svg"
   xmlns="http://www.w3.org/2000/svg"
   xmlns:sodipodi="http://sodipodi.sourceforge.net/DTD/sodipodi-0.dtd"
   xmlns:inkscape="http://www.inkscape.org/namespaces/inkscape"
   width="64"
   height="64"
   viewBox="0 0 63.999996 63.999996"
   id="svg5682"
   version="1.1"
   inkscape:version="0.91 r13725"
   sodipodi:docname="workstation.svg">
  <defs
     id="defs5684" />
  <sodipodi:namedview
     id="base"
     pagecolor="#ffffff"
     bordercolor="#666666"
     borderopacity="1.0"
     inkscape:pageopacity="0.0"
     inkscape:pageshadow="2"
     inkscape:zoom="1"
     inkscape:cx="-213.77798"
     inkscape:cy="62.880817"
     inkscape:document-units="px"
     inkscape:current-layer="layer1"
     showgrid="false"
     fit-margin-top="0"
     fit-margin-left="0"
     fit-margin-right="0"
     fit-margin-bottom="0"
     showguides="false"
     inkscape:window-width="1564"
     inkscape:window-height="913"
     inkscape:window-x="187"
     inkscape:window-y="124"
     inkscape:window-maximized="0"
     units="px" />
  <metadata
     id="metadata5687">
    <rdf:RDF>
      <cc:Work
         rdf:about="">
        <dc:format>image/svg+xml</dc:format>
        <dc:type
           rdf:resource="http://purl.org/dc/dcmitype/StillImage" />
        <dc:title></dc:title>
      </cc:Work>
    </rdf:RDF>
  </metadata>
  <g
     inkscape:label="Layer 1"
     inkscape:groupmode="layer"
     id="layer1"
     transform="translate(-358.21426,-747.29078)">
    <path
       style="fill:#003862;fill-opacity:1;stroke:none;stroke-width:2;stroke-miterlimit:10;stroke-dasharray:none;stroke-dashoffset:0;stroke-opacity:1"
       d="M 10 12 L 10 14 L 10 44.957031 L 10 46 L 28 46 L 28 44 L 28 40 L 38 40 L 38 44 L 32 44 L 32 46 L 46 46 L 46 44 L 40 44 L 40 40 L 54 40 L 54 38 L 54 24 L 54 23.320312 L 54 22 L 28 22 L 28 13.417969 L 28 12 L 10 12 z M 12 14 L 26 14 L 26 22 L 24 22 L 24 23.5 L 24 24 L 24 34 L 14 34 L 14 36 L 24 36 L 24 38 L 14 38 L 14 40 L 24 40 L 26 40 L 26 44 L 12 44 L 12 14 z M 14 16 L 14 20 L 24 20 L 24 16 L 14 16 z M 26 24 L 52 24 L 52 38 L 26 38 L 26 24 z "
       transform="translate(358.21426,747.29078)"
       id="rect4717" />
  </g>
</svg>
