<?xml version="1.0" encoding="UTF-8" standalone="no"?>
<!-- Created with Inkscape (http://www.inkscape.org/) -->

<svg
   xmlns:dc="http://purl.org/dc/elements/1.1/"
   xmlns:cc="http://creativecommons.org/ns#"
   xmlns:rdf="http://www.w3.org/1999/02/22-rdf-syntax-ns#"
   xmlns:svg="http://www.w3.org/2000/svg"
   xmlns="http://www.w3.org/2000/svg"
   xmlns:sodipodi="http://sodipodi.sourceforge.net/DTD/sodipodi-0.dtd"
   xmlns:inkscape="http://www.inkscape.org/namespaces/inkscape"
   width="118"
   height="72"
   viewBox="0 0 799.99998 489.99999"
   id="svg4978"
   version="1.1"
   inkscape:version="0.91 r13725"
   sodipodi:docname="magic_cloud.svg">
  <defs
     id="defs4980" />
  <sodipodi:namedview
     id="base"
     pagecolor="#ffffff"
     bordercolor="#666666"
     borderopacity="1.0"
     inkscape:pageopacity="0.0"
     inkscape:pageshadow="2"
     inkscape:zoom="1"
     inkscape:cx="200.44683"
     inkscape:cy="75.562676"
     inkscape:document-units="px"
     inkscape:current-layer="layer1"
     showgrid="false"
     fit-margin-top="0"
     fit-margin-left="0"
     fit-margin-right="0"
     fit-margin-bottom="0"
     units="px"
     inkscape:window-width="1858"
     inkscape:window-height="1153"
     inkscape:window-x="62"
     inkscape:window-y="25"
     inkscape:window-maximized="1" />
  <metadata
     id="metadata4983">
    <rdf:RDF>
      <cc:Work
         rdf:about="">
        <dc:format>image/svg+xml</dc:format>
        <dc:type
           rdf:resource="http://purl.org/dc/dcmitype/StillImage" />
        <dc:title></dc:title>
      </cc:Work>
    </rdf:RDF>
  </metadata>
  <g
     inkscape:label="Layer 1"
     inkscape:groupmode="layer"
     id="layer1"
     transform="translate(43.119405,-35.42965)">
    <path
       style="fill:#003862;fill-opacity:1;stroke:none;stroke-width:2;stroke-miterlimit:10;stroke-dasharray:none;stroke-dashoffset:0;stroke-opacity:1"
       d="m 446.69266,44.844907 c -65.95964,0.0842 -127.32916,33.776188 -162.80751,89.381733 -23.4032,-18.45459 -52.32548,-28.51519 -82.12952,-28.56886 -70.98162,0.0884 -129.390004,55.891 -132.715063,126.79483 -62.7363561,19.40844 -105.538741,77.38815 -105.610438,143.05803 -1.87e-4,82.79768 67.119965,149.91851 149.917561,149.91901 l 487.06446,0 c 82.79804,1.8e-4 149.91914,-67.12088 149.91891,-149.91901 C 750.25267,307.96746 705.01805,248.81671 639.85402,231.04706 635.97618,127.15246 550.65964,44.909748 446.69266,44.844907 Z"
       id="path4965-0-9-5"
       inkscape:connector-curvature="0"
       sodipodi:nodetypes="cccccssccc" />
    <path
       style="fill:#ddf0ff;fill-opacity:1;stroke:none;stroke-width:2;stroke-miterlimit:10;stroke-dasharray:none;stroke-dashoffset:0;stroke-opacity:1"
       d="M 448.1877,36.844892 C 381.13007,36.930521 318.73898,71.183324 282.67004,127.71452 258.87726,108.95273 229.47352,98.724633 199.17336,98.670075 127.01015,98.759933 67.629474,155.49148 64.249067,227.5756 0.46838244,247.30712 -43.046504,306.25198 -43.119401,373.01503 c -1.84e-4,84.17596 68.237273,152.41411 152.413141,152.41462 l 495.17233,0 c 84.17633,1.8e-4 152.41475,-68.2382 152.41452,-152.41462 C 756.80089,304.3475 710.81328,244.2121 644.56451,226.14665 640.62211,120.52258 553.88536,36.910803 448.1877,36.844892 Z m -78.46592,49.361721 c 0.14134,-0.0055 0.26199,0.01333 0.36003,0.05116 1.20175,0.461149 2.67951,5.31279 3.45128,11.330976 1.22386,9.542691 -0.93144,16.258321 -7.45554,23.232631 -3.58113,3.82823 -11.41698,9.30101 -13.31654,9.30101 -0.65774,0 -1.28031,-1.00388 -1.88477,-3.03903 -2.67643,-9.01274 -2.80747,-17.53302 -0.36646,-23.81958 1.08523,-2.79513 2.45259,-4.666001 5.99208,-8.199465 4.33726,-4.329868 11.09969,-8.810035 13.21992,-8.857469 z m -3.12269,6.227088 c -0.22986,-0.01057 -0.72967,0.470939 -1.51246,1.414884 -1.11185,1.340608 -1.85172,1.812144 -2.13219,1.358395 -0.74281,-1.201798 -1.56527,-0.757289 -1.56527,0.846182 0,2.187892 -2.99248,5.791138 -4.43058,5.334628 -0.93112,-0.29554 -1.04938,-0.13113 -0.69855,0.9741 0.23212,0.73146 0.13881,2.45581 -0.20784,3.8319 -0.34661,1.37609 -0.793,3.27267 -0.99133,4.21487 -0.30166,1.43226 -0.50739,1.59147 -1.25576,0.97037 -1.41709,-1.17606 -1.60205,-0.32312 -0.51782,2.38668 0.68862,1.7211 0.92032,3.6322 0.74101,6.11072 -0.14345,1.98367 -0.0899,3.60691 0.11863,3.60691 0.20868,0 0.83998,-0.96596 1.4028,-2.14621 0.70154,-1.47114 1.73295,-2.42731 3.28048,-3.04138 4.63097,-1.83742 4.85578,-2.05552 1.95564,-1.89961 -3.01642,0.1622 -3.02423,0.13927 -1.30333,-3.86325 1.07379,-2.4975 1.53811,-2.91273 4.27186,-3.82073 3.7011,-1.22924 4.12419,-2.41371 0.65282,-1.82722 -2.78206,0.47002 -2.86548,0.24705 -1.28559,-3.43878 0.70723,-1.64985 1.77831,-2.95149 2.86718,-3.48498 1.6601,-0.813364 1.67724,-0.862085 0.38007,-1.080089 -1.61188,-0.27086 -1.57199,0.01057 -0.45292,-3.161805 0.77806,-2.205221 1.01914,-3.270601 0.68315,-3.285585 z m 84.07149,17.269379 c 2.1457,0.0124 4.36917,0.28998 6.68562,0.82936 3.9048,0.90915 10.9748,3.40743 12.64685,4.4689 1.34553,0.85409 -0.0813,3.11194 -5.65305,8.94521 -6.3403,6.63787 -11.26976,9.20532 -18.22908,9.49434 -2.61751,0.10875 -5.57391,0.0679 -6.5697,-0.0905 -6.24014,-0.99335 -15.39127,-4.35556 -15.39127,-5.65498 0,-1.17969 5.27151,-7.59404 8.89658,-10.82525 5.44075,-4.84962 11.17705,-7.20339 17.61405,-7.16703 z m -0.86107,4.19478 c -0.28617,-0.0313 -0.80578,0.4492 -1.68662,1.4733 -0.88801,1.03224 -1.98092,1.56348 -3.29312,1.60076 -1.08014,0.0308 -2.26755,0.42208 -2.63884,0.86944 -0.89435,1.07774 -1.73479,1.03311 -1.73479,-0.092 0,-1.61662 -1.09029,-0.96357 -3.12775,1.8735 -1.09764,1.52851 -3.01578,3.29961 -4.26244,3.93564 -2.95639,1.50815 -2.86644,1.97876 0.2984,1.55967 2.17461,-0.288 2.93304,-0.0744 4.97974,1.40225 3.14392,2.26832 3.99631,2.26226 1.81651,-0.0129 -0.9508,-0.99249 -1.57314,-1.96052 -1.38271,-2.1509 0.19038,-0.19042 1.71433,-0.70686 3.38597,-1.14779 2.39472,-0.63172 3.27198,-0.64642 4.1364,-0.07 5.49582,3.66483 6.609,3.8177 3.62038,0.49779 -1.44085,-1.60063 -1.15123,-2.00294 2.14106,-2.97511 2.03157,-0.59982 2.77112,-0.57486 4.15466,0.14056 2.16679,1.12058 2.68709,1.10247 1.72214,-0.0602 -0.94776,-1.14195 -0.3945,-1.71194 2.58653,-2.66457 2.84531,-0.90925 2.92142,-1.83706 0.15081,-1.83706 -1.47533,0 -2.11251,-0.27265 -2.11251,-0.90492 0,-1.00099 -1.24772,-1.21104 -2.14248,-0.36054 -0.31531,0.29977 -1.86372,0.64123 -3.44062,0.75885 -2.41362,0.1799 -2.86668,0.0465 -2.86668,-0.84664 0,-0.62979 -0.0814,-0.96449 -0.30404,-0.98899 z m -52.01789,2.93626 c 8.20263,0.006 15.50668,0.1509 15.66958,0.4623 0.1303,0.24903 0.11486,5.95274 -0.0345,12.67494 l -0.27178,12.22243 -19.63872,0 -19.63928,0 0.35585,-12.06459 c 0.19557,-6.63561 0.52517,-12.33923 0.73261,-12.6749 0.24861,-0.40236 12.28011,-0.62707 22.82631,-0.62018 z m -3.81002,4.23496 c -5.64327,0 -10.25236,0.20352 -10.24248,0.4525 0.0147,0.37681 9.47098,6.1171 10.16314,6.16959 0.12222,0.01 2.49102,-1.27308 5.26412,-2.84985 2.77323,-1.5769 5.04988,-3.0708 5.05912,-3.31974 0.01,-0.24898 -4.6005,-0.4525 -10.2439,-0.4525 z m -195.53151,1.19499 c 3.73561,0.006 12.30337,1.59768 15.86239,2.95125 8.95206,3.40463 14.75151,11.32679 17.22221,23.52487 1.33629,6.59704 1.32461,6.60582 -7.44856,5.46681 -15.48834,-2.0108 -23.55184,-9.34169 -27.3438,-24.85908 -0.7048,-2.88419 -1.12274,-5.65871 -0.92832,-6.16527 0.23096,-0.60175 1.14513,-0.92014 2.63608,-0.91858 z m 210.79302,0.44778 c -0.56479,0.0565 -3.91206,1.87396 -7.77687,4.23449 l -7.49535,4.57766 -7.49485,-4.56746 c -4.1222,-2.51202 -7.65103,-4.412 -7.84127,-4.2218 -0.19024,0.19024 -0.34559,3.6958 -0.34559,7.78992 l 0,7.44401 15.69242,0 15.69301,0 0,-7.44401 c 0,-4.09412 -0.16036,-7.60419 -0.35626,-7.80022 -0.0124,-0.0124 -0.0377,-0.0166 -0.0752,-0.0124 z m -101.11582,3.31638 c 2.81262,0.0968 5.5831,2.84585 5.5779,6.02577 -0.005,2.02771 -2.15572,5.22693 -4.07004,6.04912 -0.9137,0.39243 -1.74687,0.76698 -1.85158,0.83216 -0.1047,0.0652 1.14931,1.37186 2.78693,2.90358 3.55939,3.32944 6.28983,8.23265 8.27232,14.85612 3.90337,13.04113 10.82685,20.5055 19.02001,20.5055 1.95192,0 1.96686,0.0202 0.88447,1.21646 -3.43377,3.79431 -15.57457,7.62561 -22.42244,7.07594 l -3.87626,-0.31145 0.17655,4.00703 c 0.16845,3.8159 0.24861,4.0066 1.67494,4.0066 2.22388,0 2.18983,1.50612 -0.16758,7.42572 -3.39033,8.51339 -6.04039,18.03792 -8.09356,29.08976 -1.66952,8.98741 -1.51439,31.21965 0.28019,40.1513 3.33045,16.57547 10.42996,30.90949 21.35825,43.12218 7.94639,8.8804 13.08268,15.1729 15.09421,18.49194 1.0851,1.79036 2.11914,3.2541 2.29798,3.25286 0.17875,0 1.7289,-2.92109 3.44439,-6.48853 8.27483,-17.2086 26.16935,-38.64444 48.68413,-58.31865 5.25464,-4.59163 11.20352,-10.01762 13.21988,-12.05761 13.33896,-13.49533 20.77994,-31.67859 20.28092,-49.55927 l -0.20128,-7.22214 2.94652,-0.83258 c 2.45521,-0.69381 3.02984,-0.69841 3.44526,-0.0267 1.5918,2.57546 1.99963,22.06696 0.61085,29.185 -1.30388,6.6829 -4.6722,16.37925 -7.95103,22.888 -4.79432,9.51695 -8.99154,14.94841 -22.89034,29.62201 -9.19971,9.71266 -18.11353,20.76827 -24.08943,29.87665 -5.40757,8.24216 -12.46576,21.92664 -14.78704,28.66948 -2.18743,6.35413 -2.6523,13.81662 -1.12495,18.05768 2.63172,7.30723 8.27778,7.12227 25.51378,-0.8363 4.14951,-1.91602 13.92698,-5.85561 21.72798,-8.75478 23.30921,-8.66231 42.11329,-19.2684 58.24443,-32.85121 12.27395,-10.3349 23.40494,-22.82962 32.04524,-35.97182 3.94313,-5.99769 12.15325,-21.49444 13.19092,-24.89742 0.46993,-1.54133 1.30673,-1.65697 4.67712,-0.64721 2.77323,0.83097 2.78826,0.54766 -0.49728,9.54995 -5.16718,14.15785 -16.24012,33.52618 -26.56955,46.47455 -5.46622,6.85196 -18.65539,20.2755 -24.15162,24.58078 -2.43582,1.90793 -4.42874,3.65512 -4.42874,3.88273 0,0.89394 13.03934,4.22374 22.3318,5.7027 8.81532,1.40284 25.29927,1.40004 34.40343,-0.006 17.64139,-2.72446 34.31407,-8.90269 48.23498,-17.87369 4.31741,-2.78224 4.61879,-2.88405 5.68017,-1.92337 2.73302,2.47327 2.57242,2.79345 -3.81742,7.60685 -13.4724,10.14862 -27.59532,16.77118 -45.14787,21.17091 -10.52584,2.63838 -19.39351,3.44434 -39.95701,3.63164 -19.75892,0.17995 -29.64822,0.96339 -42.55109,3.37103 -14.97751,2.79474 -23.47853,5.46966 -33.77763,10.62815 -9.76763,4.89237 -14.24789,8.01929 -21.29189,14.86127 -7.38508,7.1732 -10.7539,11.6558 -13.99265,18.61756 -4.52328,9.72282 -6.12629,18.1156 -7.59059,39.74081 -1.13828,16.81084 -2.92666,34.27371 -4.55715,44.503 -1.87043,11.73439 -1.41061,17.31198 1.9743,23.95733 1.8303,3.59317 6.69279,8.38795 10.4181,10.27281 1.83186,0.92685 3.3304,1.94066 3.3304,2.11633 l -114.97868,0 4.6244,-2.34136 c 6.64425,-3.36446 11.13788,-6.57228 17.06203,-12.17992 8.94355,-8.46586 16.89141,-19.30793 23.40255,-31.92481 8.08046,-15.65758 10.14228,-22.62698 8.95606,-30.27254 -0.96026,-6.1888 -2.09555,-8.30117 -8.99802,-16.73803 -3.3645,-4.11237 -6.10988,-7.77899 -6.10101,-8.14812 0.009,-0.36908 0.77953,-1.59189 1.71291,-2.7173 l 1.69691,-2.04582 8.88785,6.8743 c 10.77082,8.33114 10.47735,8.12518 10.92747,7.67502 0.87504,-0.87496 2.81354,-12.23461 3.12871,-18.33498 0.94307,-18.25427 -7.25542,-33.05179 -24.09136,-43.48221 -9.96909,-6.1762 -24.3921,-13.97868 -29.84903,-16.14819 -9.97584,-3.96593 -20.68526,-5.04583 -30.77178,-3.10292 -24.12924,4.64774 -52.67126,3.48984 -75.45786,-3.06055 -17.65408,-5.07502 -36.73927,-14.98675 -49.85578,-25.89247 l -4.09481,-3.40468 1.3789,-1.74688 c 0.75834,-0.96081 1.6019,-1.76176 1.87442,-1.78015 0.27261,-0.0179 3.12867,1.70289 6.34705,3.82501 16.4868,10.87093 37.28201,18.49539 57.77045,21.18116 9.24526,1.212 28.02222,1.19761 37.41434,-0.0285 7.7293,-1.00908 20.71403,-3.5883 21.32975,-4.23684 0.39855,-0.41983 0.048,-0.70282 -7.57326,-6.11076 -15.20479,-10.78907 -32.20712,-29.31971 -43.63025,-47.55183 -2.79837,-4.46642 -10.89203,-20.27986 -10.89203,-21.28108 0,-0.79364 5.23608,-2.75857 6.0351,-2.26478 0.34726,0.21455 1.44201,1.99641 2.43293,3.9594 2.19529,4.34894 8.57566,13.85628 13.14045,19.58044 12.39603,15.54438 27.54163,28.70754 45.31131,39.38124 8.721,5.23847 15.52474,8.40252 28.24031,13.13163 5.92112,2.20205 16.74107,6.47648 24.04421,9.49907 10.98786,4.5475 13.9597,5.54012 17.22786,5.75348 4.86819,0.31779 5.72127,-0.42622 5.67834,-4.95083 -0.0418,-4.4126 -2.62698,-9.4702 -9.50096,-18.58856 -13.44321,-17.83256 -19.9014,-33.57094 -22.48219,-54.78836 -2.69518,-22.15852 1.66833,-48.13818 12.05292,-71.76086 1.51688,-3.45054 2.75793,-6.62467 2.75793,-7.05359 0,-0.43854 0.85845,-0.86255 1.96171,-0.96895 l 1.96129,-0.18905 0.17742,-4.38488 c 0.1531,-3.7802 0.0285,-4.43131 -0.90492,-4.72479 -7.11289,-2.23597 -13.46712,-7.85041 -16.75298,-14.8028 -2.38066,-5.03729 -3.66671,-10.48617 -4.28721,-18.16653 l -0.42498,-5.26131 -2.18214,-0.66917 c -4.09206,-1.2553 -4.1058,-1.26422 -2.78542,-1.80714 0.66394,-0.27302 2.06292,-0.51552 3.10904,-0.53892 1.50645,-0.0335 2.1571,-0.4748 3.12913,-2.12239 0.68384,-1.15887 2.35901,-2.65736 3.78249,-3.38358 2.66826,-1.36134 2.46101,-1.35826 13.51965,-0.1924 2.68669,0.28322 3.18176,0.14511 4.49639,-1.25429 0.96578,-1.02797 1.47749,-2.27867 1.47749,-3.61197 0,-2.87564 -1.17776,-4.06342 -3.81094,-3.84275 -1.85949,0.15586 -2.19144,0.41551 -2.35585,1.84455 -0.12653,1.10068 0.13771,1.78921 0.78078,2.03594 1.38565,0.53179 1.90108,-0.23947 1.06,-1.58619 -0.79351,-1.27065 -0.15374,-2.01025 1.26739,-1.46489 1.24753,0.47866 1.54956,1.50198 0.93301,3.16084 -0.43537,1.17118 -0.88043,1.36474 -2.77664,1.20713 -1.85571,-0.15425 -2.36397,-0.49075 -2.85265,-1.88844 -0.75435,-2.15774 0.5356,-4.6842 2.79805,-5.47982 0.50637,-0.17811 1.02852,-0.25096 1.54942,-0.23299 z m -105.44882,1.13248 c -0.4748,-0.0221 0.0851,0.71496 1.65541,2.32316 1.95118,1.99811 2.1707,2.45788 1.32944,2.78078 -1.66612,0.6393 -1.13897,1.46328 0.95355,1.49012 1.34791,0.0175 2.6854,0.6638 4.27462,2.06765 l 2.3124,2.04353 -2.61456,1.22528 -2.61407,1.22529 3.95757,-0.10549 c 3.70049,-0.099 4.12115,0.0299 6.47731,1.9874 1.38588,1.15143 2.52453,2.27569 2.53046,2.49824 0.006,0.22269 -0.80059,0.58304 -1.7927,0.80086 -3.36547,0.73923 -2.76073,1.63974 0.80233,1.19454 3.02713,-0.37828 3.55346,-0.2676 5.33039,1.12306 1.08441,0.84866 2.08829,1.42661 2.23069,1.28417 0.14244,-0.14244 -0.46749,-1.30729 -1.35555,-2.58888 -1.29515,-1.86891 -2.5368,-6.1894 -2.80559,-9.76336 -0.0124,-0.16597 -0.41845,0.22205 -0.90267,0.862 -0.8466,1.11906 -0.96279,1.07292 -3.02732,-1.20713 -1.18065,-1.30384 -2.56773,-3.30816 -3.08247,-4.45392 -0.78376,-1.74458 -1.0264,-1.92103 -1.49334,-1.08662 -0.50868,0.90892 -0.79218,0.87992 -3.23089,-0.33107 -1.47041,-0.73013 -2.68701,-1.65086 -2.70337,-2.04624 -0.0506,-1.22749 -1.36727,-1.61477 -1.94994,-0.57343 -0.5005,0.89416 -0.72346,0.90267 -2.3046,0.0849 -1.03504,-0.5352 -1.69227,-0.82178 -1.9771,-0.83488 z m 54.04969,2.36752 c 14.49862,-0.008 15.8292,0.0785 16.7487,1.09452 0.83915,0.92721 0.99882,2.60119 0.99882,10.46848 0,8.30632 -0.12447,9.47847 -1.10344,10.36441 -0.96784,0.87597 -3.02984,0.99759 -16.74916,0.98945 -8.77101,-0.006 -16.04275,-0.25997 -16.55027,-0.57992 -0.71514,-0.45071 -0.97428,-2.51027 -1.23328,-9.79883 -0.31485,-8.86124 -0.0455,-11.07083 1.47422,-12.08565 0.36527,-0.24388 7.75187,-0.44741 16.41441,-0.45246 z m 80.82042,1.19771 c 0.7111,0 0.90502,0.83432 0.90502,3.88756 0,3.61555 -0.49962,5.06845 -1.42472,4.14344 -0.21235,-0.21235 -0.38568,-2.10598 -0.38568,-4.20843 0,-2.99537 0.19594,-3.82257 0.90538,-3.82257 z m -7.52426,1.90949 c 0.67603,0.055 1.49743,1.15809 2.70705,3.54523 1.72164,3.39755 1.7648,3.60535 0.7429,3.57975 -0.41491,-0.0106 -1.61887,-1.43598 -2.67575,-3.16843 -1.05687,-1.73253 -1.69167,-3.38431 -1.41065,-3.6708 0.20187,-0.20582 0.41114,-0.30409 0.63645,-0.28575 z m 14.75197,0.31283 c 1.13193,0.19465 0.92064,1.16213 -0.8699,3.98555 -1.59819,2.52003 -3.06418,3.67995 -3.0241,2.39285 0.0322,-1.03362 3.35214,-6.47153 3.894,-6.3784 z m -101.68591,0.79576 0,7.1418 c 0,3.92819 0.15724,7.2995 0.34923,7.49158 0.19203,0.19203 6.23541,0.30492 13.42952,0.25119 l 13.07978,-0.0976 0.16951,-7.3935 0.16951,-7.39349 -13.59852,0 -13.59903,0 z m 107.44367,4.22465 c 1.66625,0 0.23331,1.97339 -2.40305,3.30935 -3.19049,1.6168 -4.24525,1.85733 -4.24525,0.96762 0,-0.60924 5.70136,-4.27697 6.6483,-4.27697 z m -25.94428,0.0733 c 0.59454,0.045 1.6903,0.61793 3.59428,1.78944 4.85095,2.9848 3.79485,4.09472 -1.34861,1.41727 -1.57681,-0.82086 -2.86723,-1.8946 -2.86723,-2.38622 0,-0.57091 0.15913,-0.85538 0.62156,-0.82049 z m 109.6356,0.64914 c 10.30104,-0.0267 20.45251,5.58406 25.38114,15.96236 1.96143,4.1302 2.26148,5.37447 2.47539,10.26582 0.19314,4.41568 -0.0152,6.41747 -1.0082,9.68628 -3.07232,10.11484 -11.91241,17.78673 -22.428,19.46374 -4.35207,0.694 -4.53712,0.69418 -8.59268,0.011 -12.77651,-2.15139 -22.03432,-11.75448 -23.74199,-24.62788 -0.9809,-7.39433 2.41454,-16.73354 8.18549,-22.51441 5.56306,-5.57267 12.68086,-8.22925 19.72885,-8.24713 z m -140.12489,2.45907 c -0.27054,-0.006 -0.53322,0.0615 -0.77145,0.21143 -1.17049,0.73721 -1.63036,2.24811 -1.10247,3.62378 0.46414,1.20957 3.35044,0.85331 4.21023,-0.51979 0.80683,-1.28876 -0.87528,-3.29634 -2.33631,-3.31542 z m 43.15858,0.43987 c 2.57499,0 3.91082,0.83271 4.80655,2.9951 0.85027,2.05289 0.0211,5.08945 -1.55457,5.69419 -0.65994,0.25326 -0.84995,1.81527 -0.84995,6.98447 l 0,6.6585 -2.11251,0 -2.11251,0 0,-6.63938 c 0,-3.9071 -0.24181,-6.63929 -0.58796,-6.63929 -0.79227,0 -2.43008,-3.25258 -2.43008,-4.82618 0,-1.91749 2.64537,-4.22741 4.84103,-4.22741 z m 162.72576,0.60377 c 0.65553,0 0.82789,1.49679 0.82789,7.17917 0,16.47572 -6.18076,25.18579 -21.53379,30.34497 -7.78271,2.61526 -7.43739,2.82572 -7.43739,-4.51887 0,-3.42462 0.29692,-7.83846 0.6598,-9.80821 1.94098,-10.53435 8.88657,-17.39706 21.90922,-21.6481 2.61015,-0.85202 5.11864,-1.54896 5.57427,-1.54896 z m -164.51331,1.20713 c -0.76106,0 -1.30596,0.94248 -0.82371,1.42472 0.6797,0.67966 1.39153,0.41404 1.39153,-0.51934 0,-0.49792 -0.25546,-0.90538 -0.56782,-0.90538 z m 105.96852,1.38078 c -0.1053,0.006 -0.18537,0.0336 -0.23625,0.0845 -0.18845,0.18854 0.41376,1.83738 1.33789,3.66386 l 1.68014,3.32061 3.53034,0 c 2.83335,0 3.46452,-0.1725 3.1954,-0.87367 -0.62739,-1.63495 -7.92699,-6.29029 -9.50752,-6.19528 z m -7.23658,0.42962 c -0.96513,0 -4.69252,5.41625 -4.23587,6.15511 0.39147,0.63342 8.67812,0.63254 8.67812,0 l 0,0 c 0,-1.08905 -3.65605,-6.15415 -4.44225,-6.15415 z m -83.12543,0.0715 c 1.47459,0.0129 1.86132,0.23423 1.86132,0.80551 0,0.74855 -0.78937,0.93397 -3.97337,0.93397 -2.90929,0 -3.90696,-0.20229 -3.72454,-0.75467 0.15421,-0.46717 1.66732,-0.82265 3.97338,-0.93393 0.75922,-0.0368 1.37173,-0.0553 1.86321,-0.0512 z m 75.39388,0.01 c -1.10363,-0.017 -3.30453,1.0623 -5.62511,2.82329 -4.19414,3.1829 -4.19966,3.8388 -0.0303,3.61574 3.39387,-0.1816 3.42825,-0.20219 4.99054,-3.04883 0.86521,-1.57649 1.42408,-3.01578 1.24165,-3.19821 -0.12589,-0.1258 -0.32202,-0.18803 -0.5767,-0.19199 z m -100.39108,0.2209 c 2.28014,0 3.60926,0.26558 3.77215,0.75412 0.18445,0.55335 -0.82141,0.75467 -3.77215,0.75467 -2.95079,0 -3.95665,-0.20132 -3.7722,-0.75467 0.1628,-0.48854 1.49206,-0.75412 3.7722,-0.75412 z m 217.06065,1.35794 -0.19052,14.82017 c -0.17889,13.92523 -0.26658,14.92254 -1.45184,16.52224 -1.95908,2.64417 -4.16977,3.49353 -6.93676,2.66458 -4.16987,-1.24937 -5.94354,-5.71 -3.86692,-9.72562 1.46002,-2.82352 3.95297,-3.6834 7.99115,-2.75646 l 1.96176,0.45017 0,-7.29082 0,-7.29072 -1.4962,0 c -1.36418,0 -14.60957,1.98248 -18.5727,2.77985 l -1.65959,0.33392 -0.006,10.36387 c -0.005,10.94819 -0.47172,14.04096 -2.38948,15.77644 -1.80056,1.62962 -5.97103,1.83701 -8.24106,0.41045 l 0,0 c -2.1684,-1.36308 -3.36266,-4.19064 -2.85082,-6.75001 0.74033,-3.70164 5.6326,-6.42606 8.64494,-4.81395 0.72741,0.38931 1.45799,0.57247 1.62369,0.40682 0.16565,-0.1657 0.26833,-5.06919 0.22789,-10.8963 -0.0734,-10.58261 -0.0717,-10.59506 1.30705,-10.8673 0.75931,-0.14984 6.26905,-0.98725 12.24431,-1.86128 5.9753,-0.87413 11.49304,-1.74403 12.26168,-1.9328 l 1.39761,-0.34325 z m -47.99216,1.05816 c -0.23354,0.0216 -0.76147,0.4219 -1.58301,1.20897 -1.40588,1.3469 -1.97716,1.57645 -2.53519,1.01845 -0.95135,-0.9513 -1.68626,-0.91388 -1.68626,0.0859 0,1.08602 -4.72689,5.27827 -5.16042,4.57669 -0.70273,-1.13699 -1.4784,-0.49681 -1.4784,1.22023 0,0.97631 -0.30239,1.96217 -0.67198,2.19056 -0.36959,0.22844 -1.20672,1.62439 -1.86045,3.10205 -1.1358,2.56774 -1.23862,2.64169 -2.31655,1.66617 -1.09378,-0.98986 -1.11718,-0.89458 -0.77797,3.1511 0.26824,3.20027 0.1207,4.61447 -0.63319,6.07246 -1.60898,3.11134 -1.11465,3.61965 1.17298,1.20617 1.85108,-1.95307 2.51249,-2.26341 4.82328,-2.26341 1.47294,0 2.67809,-0.27183 2.67809,-0.60382 0,-0.3319 -0.9507,-0.60331 -2.11256,-0.60331 -1.16185,0 -2.1126,-0.16487 -2.1126,-0.3661 0,-0.46822 3.693,-5.22518 4.51142,-5.8114 0.3405,-0.24392 1.43378,-0.45122 2.42961,-0.46091 2.85707,-0.0276 4.7839,-0.67401 3.82354,-1.28274 -0.44299,-0.28084 -1.55268,-0.5147 -2.46555,-0.51971 -0.91288,-0.006 -1.6596,-0.30952 -1.6596,-0.67667 0,-1.24799 3.71737,-5.36822 4.84333,-5.36822 0.6165,0 1.28871,-0.27141 1.49384,-0.60336 0.20518,-0.33194 -0.0501,-0.60377 -0.56778,-0.60377 -1.27093,0 -1.1887,-0.49291 0.55239,-3.31969 1.25318,-2.03474 1.68225,-3.05149 1.29303,-3.01569 z m -96.65211,0.29982 c 1.90876,0 0.78845,1.25452 -2.68737,3.00916 -4.13292,2.08627 -4.2424,2.11141 -4.2424,0.97732 0,-0.89242 5.37847,-3.98648 6.92977,-3.98648 z m -67.93815,1.56197 c 0.0787,-0.006 0.13868,0.006 0.17696,0.0271 0.9382,0.57983 0.42769,1.1534 -2.48146,2.78726 -3.08265,1.73138 -4.28634,2.04168 -4.28634,1.10582 0,-0.68503 5.41001,-3.83985 6.59084,-3.91978 z m 14.10987,0.0602 c 0.52756,0.0165 1.43078,0.39593 2.73968,1.14734 3.65191,2.09651 4.09964,2.52434 3.38642,3.23746 -0.36439,0.36444 -1.68013,-0.10567 -3.59142,-1.28362 -3.72844,-2.29806 -3.51935,-2.09799 -3.02405,-2.89944 0.0876,-0.14176 0.24953,-0.20918 0.48937,-0.20174 z m 39.65582,1.32296 2.19993,0.18716 2.19938,0.18735 0,9.65681 0,9.65741 -1.76889,0.17935 c -0.97285,0.0987 -1.96276,-0.0142 -2.19984,-0.25165 -0.23703,-0.23712 -0.43104,-4.74744 -0.43104,-10.02355 l 0,-9.59288 z m -80.94885,0.15733 c -0.11835,0.006 -0.24489,0.0106 -0.37965,0.0267 -1.38294,0.15926 -1.88045,0.74162 -2.99933,3.51062 -2.6222,6.48926 -1.35431,12.77073 3.53539,17.51596 2.91637,2.83023 4.90584,3.98653 8.1939,4.76073 2.72709,0.6422 7.72889,0.70245 9.8278,0.11863 0.82986,-0.23087 1.50874,-0.79061 1.50874,-1.24404 0,-0.62027 -1.19477,-0.84696 -4.82843,-0.91614 -7.56572,-0.14418 -12.97232,-3.10582 -15.45383,-8.46567 -1.58972,-3.43364 -1.45275,-7.2808 0.37217,-10.47322 1.92066,-3.35972 1.99838,-4.86299 0.22324,-4.83302 z m 77.68247,1.72592 c 0.6917,0 0.85216,1.53135 0.85216,8.13313 l 0,8.13328 -1.8109,-0.36238 c -1.49422,-0.29885 -1.81288,-0.16445 -1.824,0.76947 -0.0165,1.3869 -1.64457,3.47408 -3.41723,4.38066 -0.72507,0.37088 -3.23341,0.67433 -5.57372,0.67433 -3.79067,0 -4.45718,-0.18142 -6.10657,-1.6601 -1.40615,-1.26059 -1.95413,-2.38563 -2.27876,-4.67758 -0.40834,-2.88244 -0.52187,-3.0309 -2.53382,-3.31923 l -2.10649,-0.30207 -0.17833,-3.71805 c -0.20532,-4.28239 -1.12164,-3.73598 8.92981,-5.3258 3.15363,-0.49879 7.86283,-1.31638 10.46471,-1.81646 2.60193,-0.50004 5.11432,-0.9092 5.58314,-0.9092 z m 19.00044,1.20713 c 0.74423,0 1.16305,0.31131 1.01611,0.75462 -0.42788,1.29065 -9.50748,2.97005 -9.50748,1.7586 0,-0.57192 6.55922,-2.51322 8.49137,-2.51322 z m -159.9631,0.60377 16.24903,0 c 9.31324,0 16.39672,0.23823 16.59463,0.5585 0.63926,1.03435 3.80998,17.81684 3.51251,18.59187 -0.44116,1.14977 -39.30066,1.11649 -39.74223,-0.034 -0.24646,-0.64248 1.48461,-10.61786 3.08201,-17.75838 l 0.30405,-1.35793 z m 181.81343,1.75157 -4.13916,0.18022 -4.13876,0.18082 -1.07962,2.91333 c -0.59385,1.60259 -0.92474,3.16428 -0.73555,3.47054 0.42277,0.68397 8.53407,0.74703 8.95275,0.0696 0.16569,-0.26805 0.48973,-1.91082 0.72056,-3.65076 l 0.41978,-3.16373 z m 24.4673,0.006 0.40387,2.59265 c 0.75913,4.87678 0.56935,4.70561 5.20345,4.70561 3.15757,0 4.28845,-0.22292 4.5464,-0.89518 0.18881,-0.49217 -0.0234,-2.05386 -0.47168,-3.47049 l -0.81483,-2.57532 -4.43342,-0.17884 -4.43379,-0.17843 z m -11.92873,0.0552 c -7.41106,0 -7.66721,0.13825 -8.25875,4.45433 l -0.38715,2.82375 8.38345,-0.1685 8.3835,-0.16855 -0.18537,-1.50888 c -0.10195,-0.82991 -0.46212,-2.3916 -0.80087,-3.47049 l -0.61645,-1.96166 -6.51836,0 z m -167.30429,1.73239 c -1.19822,0.0276 -2.32463,0.4299 -2.32463,1.18475 0,0.6086 0.20357,1.31151 0.45255,1.56197 0.42741,0.43012 4.24865,0.0745 4.7667,-0.44359 0.13279,-0.1327 0.0702,-0.68738 -0.13908,-1.23283 -0.28714,-0.74837 -1.55737,-1.09732 -2.75554,-1.0703 z m -7.21746,0.0784 c -1.87617,0 -2.34982,0.22278 -2.34982,1.10633 0,0.6086 0.18119,1.28798 0.4025,1.5092 0.60124,0.60125 4.30326,0.48565 4.69399,-0.14658 0.82122,-1.32888 -0.44686,-2.46895 -2.74667,-2.46895 z m -8.44559,0.0517 c -1.06055,0.0193 -1.14692,0.34477 -1.14692,1.4574 0,1.4836 0.15393,1.56739 2.56511,1.39301 2.10084,-0.15205 2.56498,-0.4043 2.56498,-1.39301 0,-0.98862 -0.46414,-1.24045 -2.56498,-1.39245 -0.60285,-0.0437 -1.06473,-0.0714 -1.41819,-0.0649 z m -5.66579,0.25027 c -1.76512,0 -2.45751,0.26787 -2.59958,1.00544 -0.21042,1.09287 1.08978,1.65128 3.49669,1.50222 1.07536,-0.0666 1.5092,-0.44019 1.5092,-1.30053 0,-1.00521 -0.40264,-1.20713 -2.40631,-1.20713 z m 151.22059,1.50888 c 3.85801,0 4.79294,0.17663 4.79294,0.90538 0,0.72769 -0.92781,0.90543 -4.72804,0.90543 -2.60032,0 -4.90147,-0.17388 -5.11377,-0.38609 -0.9724,-0.97249 0.63025,-1.42472 5.04887,-1.42472 z m -129.54859,2.99882 c -1.09038,-0.006 -2.10649,0.2026 -2.38245,0.64914 -0.81539,1.31937 1.05338,2.49745 3.29725,2.07845 1.18319,-0.22099 2.25289,-0.50187 2.3769,-0.6239 0.12396,-0.12204 0.0644,-0.64064 -0.13219,-1.15294 -0.23253,-0.60594 -1.75745,-0.94868 -3.15951,-0.95075 z m -22.24157,0.0193 c -2.32077,0 -2.75798,0.18436 -2.75798,1.16283 0,1.20129 1.01432,1.64594 3.62126,1.58724 1.09231,-0.0248 1.5621,-0.40907 1.70169,-1.39204 0.17586,-1.23838 -0.0501,-1.35803 -2.56497,-1.35803 z m 7.21966,0 c -2.24976,0 -2.73495,0.19659 -2.73495,1.1068 0,0.60855 0.18119,1.28738 0.4025,1.50874 0.58015,0.58014 3.97582,0.47797 4.96669,-0.14948 1.70909,-1.08211 0.23092,-2.46606 -2.63424,-2.46606 z m 7.86935,0 c -2.27209,0 -2.75788,0.19521 -2.75788,1.1068 0,1.62282 0.61407,1.98937 2.99616,1.78893 1.68638,-0.14194 2.17442,-0.46455 2.32683,-1.5377 0.17591,-1.23838 -0.0501,-1.35803 -2.56511,-1.35803 z m 132.00394,1.31409 c 2.06701,0.0506 8.88689,1.73828 8.88689,2.32312 0,1.03407 -0.98348,1.04019 -4.96724,0.0312 -4.19662,-1.06281 -5.18575,-1.5633 -4.48095,-2.26805 0.0675,-0.0676 0.26599,-0.0937 0.5613,-0.0864 z m -27.6291,1.49946 c -0.31471,-0.006 -0.52154,0.0216 -0.58561,0.086 -0.17586,0.17585 -0.31986,1.06961 -0.31986,1.98648 0,2.75043 1.38004,3.56384 6.04489,3.56384 3.5991,0 4.27127,-0.17682 5.08481,-1.33835 0.74612,-1.06515 0.78414,-1.48268 0.18542,-2.04481 -0.7242,-0.67975 -8.20691,-2.22168 -10.40965,-2.25311 z m 214.32842,0.35111 c 0.37685,0 0.58084,0.0423 0.61223,0.12382 0.13798,0.35957 0.17825,7.8467 0.0896,16.63853 l -0.16106,15.98516 -1.65968,0.19102 -1.66005,0.19102 0,-14.49007 c 0,-7.96946 -0.20353,-14.60382 -0.45251,-14.74263 -0.24894,-0.13877 -4.93419,0.51285 -10.41148,1.44807 -5.47734,0.93521 -10.02686,1.71208 -10.10987,1.72591 -0.083,0.0138 -0.15076,0.26337 -0.15076,0.55432 0,0.29095 2.51239,0.85147 5.58305,1.24583 3.07057,0.39446 7.21258,1.05044 9.20435,1.4574 l 3.62135,0.73973 0.16059,16.42278 c 0.12672,12.95126 -0.006,16.41252 -0.60372,16.37469 -0.42029,-0.0267 -2.66541,-0.6956 -4.98912,-1.48727 -2.32376,-0.79176 -7.55648,-2.4508 -11.62836,-3.68675 l -7.40333,-2.247 0.1606,-15.67335 0.16064,-15.67279 14.99948,-2.81447 c 8.12817,-1.52496 13.00513,-2.28611 14.63802,-2.28395 z M 260.5937,168.15 c -2.58257,0 -3.01757,0.16851 -3.01757,1.16876 0,0.86649 0.50766,1.23218 1.96171,1.41258 1.07885,0.13394 2.0073,0.28681 2.0631,0.34004 0.0559,0.0531 0.5312,-0.0685 1.05623,-0.26994 0.52513,-0.20151 0.95452,-0.88034 0.95452,-1.50875 0,-0.96876 -0.45945,-1.14269 -3.01799,-1.14269 z m 7.84642,0 c -3.01008,0 -3.83673,0.75026 -2.40488,2.18211 0.67952,0.67947 5.81397,0.19856 5.57372,-0.5221 -0.083,-0.24894 -0.15085,-0.72424 -0.15085,-1.05623 0,-0.33195 -1.35817,-0.60378 -3.01799,-0.60378 z m -22.46578,0.0588 c -0.38752,-0.006 -0.88442,0.0179 -1.52042,0.0592 -2.15613,0.13863 -2.91084,0.44392 -3.06197,1.23986 -0.16969,0.89343 0.27128,1.05623 2.86158,1.05623 2.68696,0 3.06188,-0.152 3.06188,-1.24027 0,-0.82701 -0.17852,-1.09948 -1.34107,-1.11506 z m 6.96057,0.2026 c -1.67205,-0.028 -3.5069,0.30828 -3.5069,0.9457 0,0.5681 0.78689,1.03072 2.11256,1.2421 2.36504,0.37713 4.42184,-0.3489 4.06029,-1.43359 -0.16358,-0.4907 -1.36542,-0.73256 -2.66595,-0.75421 z m 197.6755,0.33204 c -3.25534,-0.0193 -2.95033,0.18712 -3.87308,4.71541 -0.15531,0.7622 -0.12194,1.64507 0.0738,1.96175 0.43054,0.69671 6.91443,0.75467 7.99075,0.0714 0.80044,-0.50812 1.95053,-3.85617 1.95053,-5.67829 0,-0.91683 -0.61085,-1.06 -4.51509,-1.06 -0.62432,0 -1.16191,-0.007 -1.62692,-0.0106 z m -34.24232,0.0106 c -2.31457,0 -4.34416,0.21994 -4.51046,0.48891 -0.16615,0.26903 -0.008,1.65031 0.35259,3.06938 0.77094,3.03729 1.92562,3.68923 6.21578,3.50924 l 3.01808,-0.12654 -0.12429,-2.66356 c -0.19598,-4.21005 -0.27408,-4.27743 -4.9517,-4.27743 z m 9.60272,0 0,1.52837 c 0,0.84057 0.3802,2.43885 0.84526,3.55171 l 0.84567,2.02344 6.54828,-0.15972 c 6.20007,-0.15118 6.58767,-0.23552 7.29353,-1.59001 0.41008,-0.78684 0.74975,-2.31365 0.75462,-3.39254 l 0.009,-1.96125 -8.14816,0 -8.14817,0 z m -34.12646,0.66307 c 0.57427,-0.0129 1.80994,0.3769 3.65265,1.28559 3.56647,1.75873 4.51482,2.80513 2.97363,3.28043 -0.31126,0.0959 -1.99153,-0.65621 -3.73437,-1.67172 -2.96917,-1.7301 -3.84913,-2.87242 -2.89191,-2.8943 z m 171.07879,8.39002 c -0.64762,0 -6.67482,11.49208 -6.42308,12.24721 0.11822,0.35469 1.42072,0.9353 2.89467,1.29064 2.6723,0.64418 2.68034,0.65447 2.86576,3.56159 l 0.18592,2.91531 2.47535,-0.19943 c 1.58834,-0.12792 2.56639,0.0698 2.72993,0.55151 0.32859,0.96784 -2.34279,1.98772 -4.04209,1.5433 -1.21421,-0.31756 -1.2963,-0.15154 -1.12072,2.25454 0.18413,2.52361 0.27463,2.6267 3.20712,3.65495 5.48038,1.92167 5.06312,2.8891 5.25902,-12.18645 0.0954,-7.3359 0.0377,-13.55651 -0.12842,-13.82365 -0.24949,-0.40148 -6.39909,-1.80952 -7.90346,-1.80952 z m -293.98239,1.20759 c 0.77205,0 18.72323,10.0982 20.17162,11.34734 1.11319,0.95999 1.47556,4.34513 0.46506,4.34513 -0.32519,0 -4.97253,-2.62836 -10.32746,-5.84086 -8.90982,-5.34511 -9.87923,-5.78723 -11.41734,-5.20666 -0.92441,0.34886 -5.6104,2.97721 -10.41342,5.84086 -4.80296,2.86359 -8.9055,5.20666 -9.11661,5.20666 -0.21106,0 -0.38342,-0.9354 -0.38342,-2.0785 0,-2.0592 0.0936,-2.13104 10.20005,-7.84601 5.61013,-3.17233 10.47974,-5.76796 10.82152,-5.76796 z m -92.84586,0.3017 c 7.93715,0 8.25503,0.0506 12.28081,1.95707 5.66238,2.68172 10.23057,7.45623 13.86148,14.48621 1.55571,3.01224 2.82889,5.88705 2.82889,6.3886 0,2.37524 -15.56391,3.66685 -22.31736,1.85199 -4.67841,-1.25718 -7.72774,-3.22119 -11.85997,-7.63861 -3.36869,-3.60108 -8.67587,-12.46728 -8.67587,-14.4938 0,-1.59676 5.19448,-2.55146 13.88202,-2.55146 z m 178.30052,0.30161 c 1.77795,0 4.49759,2.11982 5.24633,4.08921 0.77471,2.0375 -0.30648,5.1931 -2.20591,6.43764 -1.36704,0.89573 -2.22453,3.40932 -0.87509,2.57532 0.33194,-0.20509 2.03832,-0.0303 2.03832,0.24236 -3.69433,2.48992 -2.21827,13.77328 -2.03832,19.26339 l 0,2.39877 -6.63934,0 -6.63892,0 0,-7.90571 c 0,-6.13488 0.22555,-8.38175 1.0077,-10.02998 1.10546,-2.32951 3.95895,-4.39022 6.08419,-4.39376 1.77073,-0.005 1.71617,-0.34008 -0.45297,-2.81065 -0.99588,-1.13428 -1.81049,-2.74542 -1.81049,-3.58025 0,-3.44034 2.84522,-6.28634 6.2845,-6.28634 z m 31.1365,0 c 5.51085,0 8.11875,6.27365 4.22604,10.16636 l -1.80957,1.80944 1.78158,0.39142 c 0.97956,0.21515 2.50536,0.961 3.39107,1.65766 2.68595,2.11283 3.27483,4.47162 3.27483,13.11623 l 0,7.86558 -6.89659,0 -6.89714,0 0.34325,-7.71707 c 0.35566,-7.99722 0.30198,-8.27732 -2.71408,-14.16222 -0.12754,-0.24893 0.28838,-0.4525 0.92464,-0.4525 1.95155,0 1.98437,-0.6735 0.12374,-2.53423 -3.86762,-3.86762 -1.23719,-10.14067 4.25223,-10.14067 z m -16.05295,0.0428 c 0.96394,-0.023 2.00689,0.18358 3.09313,0.67851 3.94976,1.79959 4.31388,7.36481 0.67107,10.25654 -1.26542,1.00443 -1.26666,1.02424 -0.0804,1.39663 5.97475,1.87553 6.68337,3.25259 7.22261,14.03191 l 0.43053,8.60068 -10.92052,0 -10.92048,0 0,-7.87032 c 0,-10.72289 0.99584,-12.67177 7.54058,-14.75666 1.18649,-0.378 1.1853,-0.39763 -0.0803,-1.40224 -5.06132,-4.01769 -2.16192,-10.81251 3.04373,-10.93505 z m 50.02157,0.63043 c -2.80707,0.023 -2.93572,0.95396 -0.58604,3.10624 3.26252,2.98834 8.91962,5.6867 8.84345,4.21817 -0.0133,-0.24893 -0.91324,-1.9464 -2.00054,-3.77219 -1.91754,-3.21986 -2.06435,-3.32521 -4.88915,-3.50695 -0.51093,-0.0331 -0.96674,-0.0485 -1.36772,-0.0455 z m 13.50471,0.0115 c -1.41296,-0.0152 -2.61544,0.0872 -2.87978,0.35166 -0.66761,0.66767 2.89389,6.81018 3.9487,6.81018 0.4599,0 1.68151,-1.27594 2.71449,-2.83542 1.03288,-1.55939 1.78397,-3.12113 1.66892,-3.47045 -0.15719,-0.47677 -3.09736,-0.83018 -5.45233,-0.85597 z m 14.95508,0.009 c -0.19811,0.006 -0.39919,0.0115 -0.60001,0.0248 -2.9114,0.1868 -2.9284,0.20017 -4.94614,3.95945 -1.76503,3.28853 -1.88467,3.77156 -0.93489,3.76659 0.59927,-0.005 2.44768,-0.78909 4.10745,-1.74651 3.82786,-2.20802 6.19487,-4.66723 5.32718,-5.53497 -0.30419,-0.30419 -1.56633,-0.4953 -2.95359,-0.46924 z m 117.48583,1.25516 c 0.16855,-0.007 0.33944,0.0322 0.49925,0.13123 0.95728,0.59159 0.80275,2.14524 -0.21336,2.14524 -0.47843,0 -1.05228,-0.29522 -1.27539,-0.65603 -0.42796,-0.69249 0.25947,-1.59065 0.9895,-1.62044 z m -390.53687,1.14642 c -0.22182,0.008 -0.42778,0.238 -0.74576,0.65847 -0.63806,0.84383 -1.20768,0.94045 -3.04837,0.51644 -1.24482,-0.28677 -2.26336,-0.41781 -2.26336,-0.29086 0,0.12682 1.15464,0.94983 2.56553,1.82856 1.41079,0.87877 2.67151,1.69015 2.80182,1.80345 0.1303,0.11335 -0.14115,0.66265 -0.60341,1.22065 -0.76882,0.92822 -0.65231,0.97933 1.37058,0.6005 1.67035,-0.31268 2.81437,-0.0993 4.67767,0.87188 1.35656,0.7071 2.46648,1.51127 2.46648,1.78709 0,0.27587 -0.86237,1.11525 -1.91598,1.86546 -2.5339,1.80433 -1.40312,2.08099 2.19759,0.5375 l 2.88442,-1.2365 3.24541,1.48589 c 3.41019,1.56119 4.01125,2.43532 2.09298,3.0441 -0.63392,0.20127 -1.51472,0.80215 -1.95706,1.33518 -0.71276,0.85873 -0.6331,0.91623 0.70001,0.5038 0.8273,-0.25592 2.27587,-0.8579 3.2188,-1.33785 1.51311,-0.7702 1.99982,-0.75857 4.14901,0.10135 1.33923,0.53589 2.54985,0.85988 2.68971,0.72002 0.13992,-0.13982 -0.82632,-1.10992 -2.14716,-2.15595 -1.45147,-1.14968 -2.68793,-2.78978 -3.12536,-4.14666 -0.39804,-1.23471 -0.98118,-2.74271 -1.29579,-3.35099 -0.52991,-1.02461 -0.62602,-1.03183 -1.30848,-0.0986 -0.6786,0.92809 -0.91991,0.89614 -3.0577,-0.40296 -1.27654,-0.77572 -3.06938,-2.15737 -3.98418,-3.07029 -1.86211,-1.85825 -2.38622,-2.04164 -2.38622,-0.83543 0,0.63287 -0.56057,0.7219 -2.41417,0.38292 -1.32797,-0.24282 -2.42042,-0.27445 -2.42778,-0.0701 -0.007,0.2044 -0.53685,-0.30717 -1.17679,-1.13708 -0.60616,-0.78606 -0.9172,-1.14095 -1.20244,-1.13005 z m 93.52477,3.51632 c 1.09315,0.0377 3.0538,1.07177 8.45585,4.18306 l 8.14816,4.69261 0.16244,13.70594 0.16261,13.70598 -5.59472,-0.1737 -5.59436,-0.17374 0.2106,-7.09184 c 0.11587,-3.90052 -0.0198,-7.1065 -0.30161,-7.1241 -5.75928,-0.3587 -10.00531,-0.23975 -10.35045,0.28952 -0.23234,0.35644 -0.42249,3.63555 -0.42249,7.28714 l 0,6.63928 -5.5831,0.17324 -5.58305,0.17374 0,-13.58878 c 0,-13.44661 0.0142,-13.5976 1.35793,-14.41018 0.74686,-0.45164 3.93817,-2.27228 7.09184,-4.04536 3.15358,-1.77312 6.27706,-3.5678 6.94099,-3.98831 0.26682,-0.16897 0.53501,-0.267 0.89936,-0.2545 z m -49.80117,0.18026 c 0.25197,-0.0129 0.49636,0.0622 0.74249,0.21424 1.70918,1.05605 1.60733,2.44211 -0.35911,4.89852 -2.54981,3.18511 -3.71865,6.30996 -4.11122,10.99246 -0.50436,6.01561 1.16489,10.72412 6.1467,17.33845 0.4212,0.55928 0.22558,1.15993 -0.66959,2.05515 l -1.26505,1.26505 -1.91689,-2.31291 c -6.58018,-7.93872 -7.82187,-19.32315 -3.1016,-28.43691 2.2021,-4.25177 3.44241,-5.95852 4.53427,-6.01405 z m 241.08242,2.8653 15.41839,0 c 14.61357,0 15.48177,0.063 16.62593,1.20713 1.1062,1.10611 1.20709,2.01222 1.20709,10.8303 0,9.25974 -0.0506,9.65824 -1.34162,10.56238 -1.12992,0.79149 -3.77064,0.93793 -16.74916,0.93016 -8.47418,-0.006 -15.70594,-0.20904 -16.0712,-0.45292 -1.64682,-1.09958 -2.05231,-3.38864 -2.05231,-11.59665 0,-8.23802 0.0486,-8.56583 1.48167,-9.99873 l 1.48121,-1.48167 z m -236.27968,1.82773 c 0.52453,-0.0239 1.02589,0.25914 1.51067,0.84328 0.56884,0.68545 0.34532,1.36925 -1.09972,3.36405 -4.12519,5.69465 -3.74457,13.3198 0.94514,18.93792 1.37003,1.64107 1.39292,1.79753 0.42493,2.86714 -1.39461,1.54114 -1.73934,1.44963 -3.56619,-0.9456 -3.77261,-4.94601 -5.05392,-13.46666 -2.81952,-18.74971 1.77055,-4.1866 3.26435,-6.25563 4.60469,-6.31708 z m 306.93797,0.11854 c 0.82757,0.0368 1.83462,1.43993 3.03114,4.22139 1.67453,3.89248 1.44232,8.21325 -0.66077,12.29997 -1.51784,2.94941 -2.55266,3.80479 -3.24587,2.68319 -0.21801,-0.35272 0.16367,-1.35274 0.84802,-2.22273 2.90289,-3.69052 3.02378,-9.79038 0.27408,-13.84236 -1.03073,-1.51885 -1.31869,-2.43011 -0.89987,-2.84898 0.2038,-0.2038 0.42157,-0.30073 0.65327,-0.29048 z m -20.31636,0.0202 c 0.14396,0.011 0.27693,0.0738 0.39602,0.19254 0.46685,0.4651 0.23598,1.40826 -0.81304,3.3196 -0.80587,1.46843 -1.64461,3.52983 -1.86367,4.58096 -0.48413,2.32335 0.57275,6.52038 2.22655,8.84299 1.90117,2.66991 0.40498,3.45606 -1.59285,0.83681 -2.4304,-3.18645 -3.18567,-7.78079 -1.95519,-11.89279 1.0504,-3.5102 2.59444,-5.95852 3.60218,-5.88011 z m -246.74715,1.95711 -0.18215,3.85957 c -0.26737,5.66997 -0.37405,5.57037 5.75495,5.36822 l 5.29115,-0.1742 0,-4.52677 0,-4.52682 -5.43221,0 -5.43174,0 z m 249.40837,0.49038 c 0.57119,0.028 0.57339,1.38823 -0.39496,3.19499 -1.5707,2.93052 -1.58393,5.36335 -0.0455,8.38111 1.54896,3.03803 0.5858,4.31286 -1.12858,1.49385 -2.27076,-3.73396 -2.17318,-8.17299 0.26102,-11.8881 0.5534,-0.84457 1.0088,-1.19628 1.30798,-1.18185 z m 15.03083,0.0119 c 0.81764,-0.0485 1.91041,1.56767 2.62247,4.02389 0.87459,3.01666 0.75012,4.78445 -0.53795,7.62092 -1.21563,2.67704 -2.16638,3.60949 -2.73729,2.68554 -0.19617,-0.31742 0.19158,-1.47601 0.86149,-2.57486 1.57663,-2.58597 1.56532,-6.25668 -0.0276,-8.86868 -0.87895,-1.44186 -1.05665,-2.23078 -0.60377,-2.68365 0.12833,-0.12838 0.27072,-0.19419 0.42212,-0.20316 z m -66.16797,0.40259 0,7.25437 0,7.25381 13.42911,-0.16197 13.42951,-0.16257 0.16997,-7.09184 0.16998,-7.0918 -13.59954,0 -13.59903,0 z M 227.4693,195.4219 c 0.3655,-0.0216 0.75531,0.34215 1.36823,1.01941 0.96555,1.0669 0.94964,1.25655 -0.28254,3.34488 -1.65499,2.80509 -1.37586,7.39391 0.61315,10.08418 1.06437,1.43957 1.18944,1.98483 0.61453,2.67758 -1.08294,1.30485 -2.16946,1.05697 -3.48874,-0.79571 -2.80734,-3.94258 -3.0224,-9.68186 -0.53143,-14.17812 0.80803,-1.45841 1.23701,-2.12432 1.7068,-2.15222 z m 287.61621,1.09599 c 0.68577,0 0.81024,0.29039 0.45347,1.05623 -0.27058,0.58098 -0.49166,2.14271 -0.49166,3.4705 0,1.32787 0.22108,2.88961 0.49166,3.47054 0.31724,0.68112 0.24384,1.05577 -0.20683,1.05577 -0.38439,0 -1.11902,-1.00503 -1.63257,-2.23395 -0.75669,-1.81127 -0.80329,-2.66843 -0.2465,-4.52677 0.41542,-1.38662 1.06047,-2.29232 1.63243,-2.29232 z m 10.1141,0.20821 c 0.43918,0.0129 1.14913,0.59398 1.55875,1.58302 0.80118,1.9344 0.47402,5.06771 -0.67336,6.45029 -0.98453,1.18621 -1.95573,1.01307 -1.37012,-0.24425 0.534,-1.14632 0.67226,-5.37608 0.21948,-6.71504 -0.25399,-0.75113 -0.0763,-1.08422 0.26525,-1.07402 z m -4.90082,0.70007 c 2.39955,-0.0604 4.26731,2.88373 2.59678,5.43312 -1.34097,2.04665 -4.18789,2.05975 -5.52091,0.0253 -1.16972,-1.78521 -0.71096,-3.63284 1.21504,-4.8948 0.57348,-0.37566 1.15533,-0.54968 1.70909,-0.5636 z m -283.63392,0.0985 c 5.07507,-0.15411 8.78062,5.65563 5.85341,10.32507 -2.35938,3.7637 -6.89167,4.26047 -10.05049,1.10165 -1.72104,-1.72109 -2.05244,-2.48707 -2.05244,-4.74721 0,-3.33932 1.63146,-5.60296 4.63608,-6.43255 0.54857,-0.15145 1.0884,-0.23105 1.61344,-0.24696 z m 185.06445,8.25402 c 0.30975,0.006 0.54674,0.049 0.69814,0.14249 0.79479,0.49111 0.59017,9.61429 -0.33158,14.78092 -1.10183,6.17653 -3.45266,10.89014 -7.3388,14.71465 -3.39176,3.33798 -9.53009,6.71503 -15.30164,8.41847 -5.188,1.53122 -5.25239,1.49946 -5.6947,-2.81763 -0.43766,-4.272 0.31678,-11.27978 1.71572,-15.93396 1.16548,-3.87777 5.35305,-9.53726 8.98864,-12.14811 4.50573,-3.23576 14.27074,-7.18735 17.26422,-7.15683 z m 99.94611,3.50791 c 1.77726,0.0115 3.15524,0.14336 3.35982,0.34789 0.27274,0.2727 3.10918,9.17949 6.30362,19.79339 3.19443,10.61386 5.9309,19.70542 6.08083,20.20334 0.23795,0.79002 -1.92328,0.90548 -16.95981,0.90548 -14.92396,0 -17.22998,-0.12144 -17.21334,-0.90548 0.0106,-0.49792 2.67018,-9.73215 5.91036,-20.5209 l 5.89132,-19.61592 4.74529,-0.17797 c 0.65254,-0.0244 1.28949,-0.0335 1.88191,-0.0299 z m -104.36036,2.12653 c -0.24365,-0.029 -0.85951,0.34095 -1.85245,1.09834 -1.28325,0.97883 -2.20555,1.33146 -2.44966,0.93631 -0.61498,-0.99506 -1.41088,-0.74529 -1.82961,0.5739 -0.21074,0.66412 -1.31601,1.919 -2.45627,2.78877 -1.69976,1.29639 -2.23615,1.44577 -2.97735,0.83064 -0.76313,-0.63332 -0.90359,-0.50785 -0.90359,0.80606 0,0.85592 -0.81507,2.93861 -1.81095,4.62757 -0.99589,1.6891 -1.81035,3.38468 -1.81035,3.76847 0,0.51313 -0.19162,0.50606 -0.72434,-0.0271 -1.43598,-1.43598 -1.80428,-0.68627 -1.39479,2.84154 0.33603,2.89563 0.18353,4.08704 -0.81208,6.33763 -1.46604,3.31431 -0.97368,3.52206 1.56109,0.65893 1.63128,-1.84253 2.22834,-2.11252 4.6734,-2.11252 1.71511,0 2.65883,-0.23409 2.43062,-0.60335 -0.20518,-0.332 -1.17229,-0.60378 -2.14855,-0.60378 -0.9763,0 -1.775,-0.15365 -1.775,-0.34187 0,-0.51575 3.12278,-4.68162 4.15507,-5.54288 0.49741,-0.41496 1.73506,-0.75803 2.75043,-0.76253 1.01542,-0.006 2.51088,-0.18583 3.32296,-0.40305 1.36758,-0.36573 1.38978,-0.42921 0.30174,-0.85496 -0.64624,-0.25285 -1.94442,-0.47871 -2.88492,-0.50206 -1.90572,-0.047 -1.90609,-0.04 0.20118,-3.23792 0.93949,-1.42582 2.14028,-2.42331 3.18148,-2.64297 1.85797,-0.39216 2.85321,-1.40427 1.38082,-1.40427 -1.32502,0 -1.17417,-0.92832 0.56783,-3.49191 1.22033,-1.79587 1.6595,-2.69413 1.30329,-2.73743 z m -84.98482,0.79709 c 1.84211,0 3.70908,1.7615 3.70908,3.49904 0,0.44869 -1.53489,2.4252 -3.4112,4.39233 -1.87631,1.96713 -3.16668,3.60875 -2.86718,3.64837 0.2995,0.0391 5.18373,0.0124 10.85374,-0.0592 8.938,-0.1139 10.44324,0.005 11.31696,0.87651 1.26095,1.26087 1.27929,2.37465 0.0593,3.59465 -0.76809,0.76809 -2.4902,0.94844 -9.0536,0.94844 -4.61056,0 -8.10514,0.24246 -8.10514,0.56269 0,0.30965 -0.58474,0.7486 -1.29961,0.97552 -0.71482,0.22687 -2.36145,1.49559 -3.65913,2.81947 -2.60041,2.6529 -3.3639,2.73449 -2.05938,0.21998 1.02834,-1.98202 0.6627,-3.70707 -1.03752,-4.89797 -1.85733,-1.30094 -3.87212,-1.08533 -5.5518,0.59439 -1.89717,1.89718 -1.87787,3.60958 0.063,5.55042 1.14953,1.1495 1.99889,1.47799 3.31969,1.28417 0.97616,-0.14332 1.77491,-0.2135 1.77491,-0.15596 0,0.0574 -0.4338,0.97396 -0.9638,2.0364 -2.63732,5.28655 3.43027,10.06662 8.50861,6.70336 1.49665,-0.99119 2.8379,-1.19959 7.73486,-1.20295 3.25851,-0.006 6.44973,0.27702 7.09179,0.6206 1.30503,0.69841 1.55209,2.97437 0.44323,4.08318 -0.87445,0.87445 -26.24465,0.93319 -29.23037,0.0677 -2.6051,-0.75517 -6.50512,-4.82296 -7.36035,-7.67741 -0.99079,-3.30709 -0.85942,-6.6704 0.36237,-9.27343 0.57224,-1.21917 4.75121,-6.04002 9.28617,-10.71328 7.03135,-7.24572 8.51453,-8.49698 10.07531,-8.49698 z m 187.74534,0.15421 c -0.55275,-0.0179 -1.12692,0.11095 -1.69176,0.41325 -1.1233,0.60111 -2.15981,3.92121 -1.5383,4.92693 0.18413,0.29789 1.81283,0.54131 3.6191,0.54131 2.84475,0 3.2837,-0.15632 3.2837,-1.16801 0,-2.69676 -1.69839,-4.64785 -3.67274,-4.71348 z m 36.26521,0.38333 2.86718,0.18399 c 2.72217,0.17466 2.87624,0.27914 3.05021,2.06678 0.15393,1.5815 0.58268,2.03943 2.68039,2.86341 2.41697,0.94951 2.5424,0.93899 3.89777,-0.33429 l 1.40045,-1.31597 2.10226,2.03787 2.10235,2.03782 -1.32295,1.40845 c -1.26895,1.35077 -1.28532,1.51339 -0.39593,3.95895 0.79815,2.19497 1.21412,2.592 2.98623,2.85174 1.99305,0.29218 2.05882,0.38885 2.05882,3.01808 0,2.61024 -0.0778,2.7275 -1.99489,3.01748 -1.65086,0.24981 -2.19304,0.74589 -3.14406,2.87747 -1.13465,2.54319 -1.13423,2.58502 0.0331,3.31409 1.60779,1.00406 1.49941,1.57263 -0.74341,3.88655 l -1.92631,1.98699 -1.35049,-1.26836 c -1.27314,-1.1961 -1.49932,-1.21889 -3.9584,-0.39638 -2.2697,0.75908 -2.61102,1.10068 -2.62762,2.62992 -0.0179,1.66336 -0.17126,1.76705 -2.86672,1.94121 -2.82117,0.18224 -2.84806,0.16661 -2.84806,-1.68437 0,-1.62163 -0.33893,-2.01539 -2.56502,-2.97975 -2.49916,-1.08252 -2.59752,-1.08188 -3.8115,0.0248 -1.67016,1.52258 -2.15525,1.44449 -4.18209,-0.67106 l -1.73061,-1.80626 1.39908,-1.48957 c 1.28329,-1.36612 1.33371,-1.65394 0.61126,-3.47477 -1.17077,-2.95047 -1.82667,-3.5735 -3.5513,-3.37328 -1.46379,0.16974 -1.57208,0.006 -1.74458,-2.68568 -0.18035,-2.81014 -0.14905,-2.86713 1.58578,-2.86713 1.96322,0 2.54199,-0.55078 3.73667,-3.55728 0.75297,-1.89506 0.71523,-2.12873 -0.50247,-3.11478 -1.7057,-1.38115 -1.66152,-1.82478 0.37644,-3.77725 2.02591,-1.94103 2.37749,-1.97743 4.03735,-0.41795 1.22855,1.15414 1.3863,1.16273 3.81141,0.21015 2.28032,-0.89573 2.52958,-1.19596 2.52958,-3.04745 l 0,-2.05419 z m -81.08669,1.87672 c 12.19977,0 16.00566,0.17724 16.22022,0.75463 0.15411,0.41495 1.0879,4.67491 2.07514,9.46639 1.32108,6.41199 1.62089,8.92144 1.13571,9.50605 -1.00844,1.21513 -38.08852,1.15574 -39.09971,-0.0626 -0.55289,-0.66623 -0.35034,-2.78141 0.91011,-9.5061 0.8916,-4.757 1.89061,-8.98883 2.21998,-9.40378 0.452,-0.56939 4.50875,-0.75463 16.53855,-0.75463 z m -290.3774,1.20718 9.49999,0 9.49998,0 -0.15972,17.95629 -0.16013,17.95588 -13.0153,0.16248 c -7.15849,0.0892 -13.20191,-0.0244 -13.42956,-0.25175 -0.22757,-0.22756 -0.41376,-6.55466 -0.41376,-14.06036 l 0,-13.64669 4.08925,-4.05799 4.08925,-4.05786 z m 3.28931,3.01794 0,4.19713 0,4.19758 -4.07381,0.17839 -4.07431,0.17838 -0.16625,9.93567 c -0.0916,5.46461 -0.0276,10.30016 0.14382,10.74541 0.24663,0.6427 2.39541,0.77181 10.42738,0.6267 l 10.11636,-0.18265 0.16114,-14.93826 0.16156,-14.93835 -6.34792,0 -6.34797,0 z m 276.16669,0 c -1.14227,0 -2.24456,0.27137 -2.44974,0.60336 -0.66568,1.07719 0.32657,1.81086 2.44974,1.81086 1.67444,0 2.07703,-0.23382 2.07703,-1.20709 0,-0.97322 -0.40259,-1.20713 -2.07703,-1.20713 z m 6.90551,0 c -2.01185,0 -2.41422,0.20114 -2.41422,1.20713 0,1.00595 0.40237,1.20709 2.41422,1.20709 2.01195,0 2.41426,-0.20114 2.41426,-1.20709 0,-1.00599 -0.40231,-1.20713 -2.41426,-1.20713 z m 7.24269,0 c -2.0119,0 -2.41426,0.20114 -2.41426,1.20713 0,1.00595 0.40236,1.20709 2.41426,1.20709 2.01185,0 2.41417,-0.20114 2.41417,-1.20709 0,-1.00599 -0.40232,-1.20713 -2.41417,-1.20713 z m 7.24265,0 c -2.01186,0 -2.41422,0.20114 -2.41422,1.20713 0,1.00595 0.40236,1.20709 2.41422,1.20709 2.01189,0 2.41426,-0.20114 2.41426,-1.20709 0,-1.00599 -0.40237,-1.20713 -2.41426,-1.20713 z m -301.06072,1.91133 c -0.39413,-0.0336 -1.08703,0.51626 -2.16679,1.64323 -1.74417,1.8206 -1.38892,2.53377 1.14315,2.29375 0.89072,-0.0844 1.25677,-0.62878 1.39631,-2.07607 0.11656,-1.20956 0.0216,-1.82712 -0.37267,-1.86091 z m 333.13859,0.58277 c -1.98938,0.0161 -2.66067,0.23161 -2.86383,0.7612 -0.34688,0.90382 4.27752,7.60874 5.24771,7.60874 0.28437,0 1.62222,-1.3977 2.97276,-3.10628 3.50156,-4.42989 3.18317,-5.00332 -2.8966,-5.21742 -0.98761,-0.0345 -1.79684,-0.0516 -2.46004,-0.0465 z m -155.50679,0.22177 11.76946,0 11.76947,0 0,21.42688 0,21.42632 -11.63268,0.164 c -9.0051,0.1269 -11.69909,-0.0101 -11.92822,-0.60717 -0.1628,-0.42415 -0.2243,-10.14012 -0.13683,-21.59069 l 0.1588,-20.81934 z m 108.21323,1.57976 c -1.74619,0.0207 -2.5585,0.76708 -2.08503,2.001 0.24797,0.64606 1.1477,0.94606 2.83832,0.94606 2.22158,0 2.45562,-0.13904 2.28243,-1.35789 -0.14961,-1.05343 -0.64996,-1.40201 -2.23114,-1.55314 -0.28649,-0.0276 -0.5551,-0.0386 -0.80458,-0.0358 z m 14.4919,0.20269 c -1.39208,0.0152 -1.92829,0.65006 -1.47422,1.83329 0.50169,1.30751 5.51769,1.06304 5.51769,-0.26888 0,-0.53612 -0.92358,-1.07035 -2.37078,-1.37109 -0.64922,-0.13485 -1.20869,-0.19846 -1.67269,-0.19332 z m -20.53542,0.006 c -0.36283,0.005 -0.77618,0.0446 -1.23792,0.11955 -1.66396,0.26999 -2.24893,0.65819 -2.24893,1.49293 0,0.91522 0.45935,1.12812 2.43338,1.12812 1.65242,0 2.54971,-0.30363 2.79621,-0.94606 0.45752,-1.19219 -0.17029,-1.81651 -1.74274,-1.79454 z m 14.31817,0.0248 c -2.04407,0 -2.44377,0.20821 -2.60708,1.35798 -0.17617,1.24091 0.0486,1.35798 2.60708,1.35798 2.55854,0 2.78335,-0.11707 2.60717,-1.35798 -0.16335,-1.14977 -0.563,-1.35798 -2.60717,-1.35798 z m -101.75742,1.6088 c -1.05012,-0.007 -2.26314,0.006 -3.64796,0.0331 l -8.06451,0.16863 -0.17186,6.5048 -0.1714,6.50439 8.92338,-0.16717 8.9232,-0.16717 0.1714,-5.7937 c 0.1314,-4.43508 -0.029,-5.96064 -0.68692,-6.50627 -0.44231,-0.36711 -2.12493,-0.55478 -5.27533,-0.57661 z m 182.1605,1.10716 c -4.19653,0 -6.71131,4.9011 -4.28915,8.35918 1.61837,2.31057 4.01355,2.95847 6.59177,1.78383 1.73529,-0.79065 3.3024,-3.3206 3.3024,-5.33094 0,-2.07868 -3.18377,-4.81207 -5.60502,-4.81207 z m -80.12987,1.81086 c -2.4366,0 -3.31887,0.68411 -2.75977,2.1411 0.37561,0.97902 4.90087,1.24979 5.47095,0.32735 0.81566,-1.31965 -0.44626,-2.46845 -2.71118,-2.46845 z m 34.68035,0 c -0.36155,0 -1.51619,2.92137 -2.56557,6.49184 -1.77152,6.02756 -2.26755,8.59731 -1.66005,8.59731 0.13623,0 2.03754,-2.1633 4.22507,-4.80742 2.18757,-2.64412 3.97719,-5.1032 3.97719,-5.46442 0,-0.94491 -3.19665,-4.81727 -3.97664,-4.81731 z m 13.04986,0 c -0.7413,0 -4.33663,4.25178 -4.12524,4.87839 0.42874,1.27107 7.95038,10.1437 8.376,9.88061 0.25753,-0.15908 -0.0216,-1.9834 -0.62059,-4.05372 -2.71826,-9.39607 -3.16231,-10.70528 -3.63017,-10.70528 z m -57.11911,0.0841 c -1.00241,0.034 -1.45983,0.28768 -1.67356,0.84471 -0.61812,1.61083 0.18183,2.16436 2.8476,1.97012 2.04642,-0.1491 2.50991,-0.4059 2.50991,-1.39006 0,-0.98265 -0.46326,-1.24128 -2.48895,-1.38933 -0.46634,-0.034 -0.8608,-0.047 -1.195,-0.0354 z m -7.18009,0.0322 c -1.97444,0.0386 -2.96347,0.78279 -2.50802,1.96966 0.29191,0.76078 1.00167,0.95658 2.95492,0.81534 2.10631,-0.15228 2.57072,-0.40388 2.57072,-1.39296 0,-0.94712 -0.45499,-1.24087 -2.11256,-1.36447 -0.321,-0.0239 -0.62294,-0.0331 -0.90506,-0.028 z m 23.64262,0.0391 c -1.76117,-0.0354 -2.49823,0.65218 -1.99999,1.95059 0.52876,1.37802 5.42453,1.04456 5.69603,-0.38811 0.14189,-0.74856 -0.43605,-1.1034 -2.31572,-1.421 -0.51281,-0.0866 -0.97391,-0.13325 -1.38032,-0.14148 z m -161.9431,2.25827 c 1.68092,0 2.54209,1.57221 1.52938,2.79253 -0.91471,1.10206 -2.90496,1.05642 -3.33977,-0.0767 -0.57009,-1.48572 0.24985,-2.71587 1.81039,-2.71587 z m 26.104,0.15177 c 4.03648,0.0179 5.06335,0.69193 5.06335,2.46463 0,2.41909 -1.07265,2.81534 -7.61624,2.81534 l -6.16724,0 -1.27897,-2.06954 c -0.70365,-1.13837 -1.6089,-2.18398 -2.01131,-2.32362 -0.4024,-0.13977 2.70176,-0.45623 6.8976,-0.70333 2.0876,-0.1229 3.76737,-0.18969 5.11281,-0.18348 z m -208.38253,1.36299 c 6.82838,-0.0846 12.68404,2.18054 18.01323,6.93087 3.71167,3.30834 9.70035,11.68481 9.41036,13.16238 -0.59214,3.0179 -19.0953,5.52013 -25.65654,3.46958 -3.80492,-1.18912 -7.64358,-3.63518 -11.04849,-7.04 -3.12002,-3.12002 -8.43814,-10.53884 -8.43814,-11.77139 0,-1.27024 7.17103,-3.58563 13.82319,-4.46321 1.33403,-0.17599 2.63185,-0.27247 3.89639,-0.28823 z m 136.20051,0.25178 1.50309,1.5036 1.50373,1.50322 0,12.63564 c 0,16.49512 0.79521,15.38061 -11.26139,15.78678 -8.72528,0.29394 -8.96281,0.33737 -9.15071,1.6601 -0.17655,1.24326 -0.51235,1.35789 -3.97342,1.35789 -2.07933,0 -3.96184,-0.18114 -4.18311,-0.40245 -0.22131,-0.22131 -0.4025,-0.90019 -0.4025,-1.50883 0,-1.01786 -0.64735,-1.10671 -8.08138,-1.10671 -11.62854,0 -10.8838,1.02039 -11.11431,-15.22966 -0.17153,-12.09879 -0.10737,-13.01736 1.00264,-14.38867 l 1.18553,-1.46489 21.48566,-0.17324 21.48617,-0.17278 z m -56.68567,0.0524 c 3.3935,0.0106 6.51523,0.16133 7.00768,0.47438 0.92432,0.58737 1.20451,37.96065 0.2915,38.87367 -0.54232,0.54227 -13.74303,1.02511 -16.00998,0.58561 -0.55367,-0.10737 -1.014,-0.37924 -1.02264,-0.60382 -0.2254,-5.80133 0.0294,-38.26851 0.30387,-38.71256 0.25357,-0.41017 5.06642,-0.63043 9.42957,-0.61728 z m 113.71975,0.71863 c 2.64155,0.049 4.60647,2.65456 3.01661,5.08104 -0.98853,1.5087 -2.1196,1.90996 -2.1196,0.75182 0,-0.37579 -0.96752,-1.59611 -2.15034,-2.71169 l -2.15093,-2.02844 1.50272,-0.68462 c 0.64628,-0.29444 1.29193,-0.41951 1.90154,-0.40811 z m 112.32582,0.10084 c 0.73904,-0.0202 1.52207,0.10802 2.35492,0.38292 4.06172,1.34047 5.30434,6.62532 2.29605,9.76524 -1.8366,1.91704 -1.88596,1.80024 1.24919,2.95033 4.32081,1.58486 4.86616,3.0082 5.08766,13.27582 l 0.19419,9.01204 -10.90747,0 -10.90784,0 0,-7.86609 c 0,-5.31909 0.26939,-8.51031 0.83212,-9.85726 0.98154,-2.34908 3.5922,-4.5583 5.94221,-5.02828 0.92174,-0.18426 1.67591,-0.4161 1.67591,-0.51506 0,-0.0989 -0.81498,-0.99473 -1.81091,-1.99066 -2.3364,-2.33631 -2.45025,-5.27547 -0.30354,-7.82684 1.25926,-1.49661 2.67175,-2.25812 4.29751,-2.30216 z m -302.56058,2.85602 c -0.15687,-0.0212 -0.16813,0.292 -0.17792,0.9199 -0.0179,1.17004 -0.27454,1.25664 -2.88727,0.9792 -1.57691,-0.1674 -3.35403,-0.72998 -3.94911,-1.25006 -0.99579,-0.87017 -1.10941,-0.8403 -1.42716,0.37451 -0.30639,1.17183 -0.61912,1.27663 -2.78261,0.93066 -3.17362,-0.50748 -2.59443,0.54053 1.0731,1.94116 2.88488,1.10183 3.12941,1.41705 1.98552,2.56089 -0.89651,0.89655 -0.1987,0.93774 1.39907,0.0826 0.8939,-0.47839 1.95863,-0.3894 4.18541,0.35024 1.64254,0.54554 2.98627,1.19408 2.98627,1.44154 0,0.24742 -0.67887,1.08772 -1.50878,1.86739 -2.43936,2.29168 -1.7501,2.54999 1.9617,0.73454 3.43432,-1.67972 3.50028,-1.68745 6.3312,-0.71914 1.57345,0.53818 3.02525,1.14292 3.22629,1.34387 0.20104,0.20109 -0.54301,1.22179 -1.65357,2.2681 l -2.01912,1.90251 3.12913,-1.63211 c 2.62767,-1.37058 3.57088,-1.56619 5.88471,-1.21922 1.51554,0.22724 2.75554,0.27854 2.75554,0.11348 0,-0.16514 -1.07623,-0.90533 -2.39179,-1.64465 -1.66079,-0.93347 -2.9062,-2.32863 -4.07426,-4.56419 -1.67954,-3.21461 -2.58745,-4.02761 -2.58745,-2.31709 0,0.49796 -0.24457,0.90547 -0.54361,0.90547 -1.32163,0 -6.76909,-2.96618 -7.86558,-4.28303 -0.59077,-0.70949 -0.89289,-1.06533 -1.04971,-1.08661 z m 375.34876,0.23951 c -0.71923,0 -8.57916,9.64941 -8.57916,10.53246 0,0.7344 16.65778,0.90943 17.10882,0.17976 0.35042,-0.567 -7.72769,-10.71222 -8.52966,-10.71222 z m -189.78087,0.87463 c 2.82131,-0.0895 5.15927,3.4534 2.54631,6.06631 -1.50635,1.50645 -3.72573,1.55181 -5.03669,0.10328 -1.31919,-1.45772 -1.26973,-3.89616 0.10461,-5.13987 0.76773,-0.69483 1.59571,-1.00467 2.38577,-1.02972 z m 17.54211,0.45858 c 4.60381,0.0999 6.32054,1.70845 3.97343,4.0556 -0.75169,0.75159 -2.38044,0.94845 -7.84651,0.94845 -3.7938,0 -6.89802,-0.0976 -6.89802,-0.21717 0,-0.11955 0.89546,-1.16705 1.9898,-2.32735 1.86647,-1.97913 2.27696,-2.12809 6.63459,-2.40769 0.77214,-0.0496 1.48903,-0.0661 2.14671,-0.0518 z m -109.454,0.47723 -0.16533,10.1187 -0.16533,10.11828 18.57413,-0.15967 18.57413,-0.15972 0,-9.95852 0,-9.95907 -18.40876,0 -18.40884,0 z m -11.16569,0.26241 -6.78315,0.17047 c -5.98624,0.15058 -6.80733,0.2989 -6.99192,1.2622 -0.49447,2.58032 0.13743,2.83174 7.11703,2.83174 l 6.65804,0 0,-2.13223 0,-2.13218 z m 139.93438,2.45397 c -1.83177,0 -2.71013,1.1341 -2.10318,2.71587 0.19865,0.51764 1.09934,0.90538 2.10318,0.90538 0.96568,0 2.0939,-0.40746 2.5072,-0.90538 1.06905,-1.28816 -0.24903,-2.71587 -2.5072,-2.71587 z m 6.63887,0 c -1.83172,0 -2.71013,1.1341 -2.10318,2.71587 0.19865,0.51764 1.09935,0.90538 2.10318,0.90538 0.96569,0 2.09399,-0.40746 2.50715,-0.90538 1.06911,-1.28816 -0.24898,-2.71587 -2.50715,-2.71587 z m 6.55159,0.0962 c -2.09758,-0.0253 -3.30549,1.32792 -2.2078,2.65047 0.47292,0.56985 1.5053,0.86521 2.6388,0.75462 1.53544,-0.14984 1.86224,-0.44667 1.86224,-1.69085 0,-1.24417 -0.3268,-1.54064 -1.86224,-1.69043 -0.14736,-0.0142 -0.29118,-0.0221 -0.431,-0.0239 z m 101.8812,3.52505 c 2.61806,0 2.71633,0.0655 2.71633,1.81844 0,1.55641 0.39014,2.0079 2.70558,3.13285 l 2.70516,1.31455 1.53728,-1.44384 1.53678,-1.44389 1.91501,1.91455 1.91501,1.91506 -1.39475,1.48451 c -1.38418,1.4734 -1.38712,1.50548 -0.34188,4.2424 0.96224,2.51957 1.22892,2.75784 3.08386,2.75784 2.00417,0 2.03042,0.0354 2.03042,2.71642 0,2.68071 -0.0267,2.71587 -2.03042,2.71587 -1.85494,0 -2.12162,0.23832 -3.08386,2.75788 -1.0321,2.70259 -1.02773,2.78473 0.21672,4.10934 l 1.27015,1.35187 -1.98134,1.92016 -1.98083,1.92015 -1.27442,-1.27433 c -1.25203,-1.25199 -1.32332,-1.25571 -4.05146,-0.21386 -2.53975,0.96991 -2.77701,1.23379 -2.77701,3.09084 0,2.00008 -0.0404,2.03037 -2.68038,2.03037 -1.47423,0 -2.83327,-0.24663 -3.01992,-0.54866 -0.18661,-0.30198 -0.17246,-0.98462 0.0317,-1.51669 0.52247,-1.36161 -0.55758,-2.43324 -3.39764,-3.37057 -2.29324,-0.75688 -2.50095,-0.72608 -3.35844,0.49824 -0.86695,1.23774 -0.99165,1.25415 -2.41752,0.31986 -0.82674,-0.54168 -1.79619,-1.53209 -2.15411,-2.20086 -0.53478,-0.99924 -0.40779,-1.39875 0.71114,-2.24286 1.35288,-1.02038 1.35477,-1.04479 0.304,-3.79591 -0.91209,-2.3883 -1.31767,-2.79392 -2.94978,-2.95268 -1.76048,-0.17107 -1.90489,-0.36302 -2.07753,-2.74947 -0.17926,-2.47737 -0.12502,-2.56511 1.58582,-2.56511 1.95605,0 2.54562,-0.55464 3.71194,-3.49384 0.72332,-1.82299 0.67207,-2.1082 -0.62436,-3.48824 l -1.41167,-1.50267 1.91459,-1.91506 1.91506,-1.91455 1.53682,1.44389 1.53724,1.44384 2.70512,-1.31455 c 2.31544,-1.12495 2.70557,-1.57644 2.70557,-3.13285 0,-1.75294 0.0979,-1.81844 2.71587,-1.81844 z m 118.9026,0.32221 c 5.67416,-0.005 9.12718,1.3008 12.57359,4.74721 4.71031,4.71035 6.38769,11.76978 4.41141,18.5676 -2.51805,8.66198 -12.49968,14.09713 -21.39925,11.6523 -7.63186,-2.09665 -12.46553,-7.81718 -13.19373,-15.61451 -0.69528,-7.44599 3.01436,-14.23539 9.68734,-17.73029 2.60298,-1.36331 3.85603,-1.62002 7.92064,-1.62231 z m -377.17975,0.35865 c -0.90051,-0.006 -2.03814,0.0175 -3.46998,0.0538 -4.59071,0.11624 -6.81786,0.40269 -6.98218,0.89794 -0.17015,0.51286 1.0607,0.77981 4.17562,0.90543 2.42938,0.098 4.82457,0.13095 5.32253,0.0734 0.49797,-0.0576 1.65219,-0.12548 2.56507,-0.1509 1.06869,-0.029 1.66005,-0.37565 1.66005,-0.97129 0,-0.58957 -0.56976,-0.80077 -3.27111,-0.80835 z m 143.20549,1.12963 c -1.83177,0 -2.71013,1.13465 -2.10318,2.71633 0.48868,1.27355 4.36323,1.21247 4.8578,-0.0766 0.54503,-1.42022 -0.72737,-2.63976 -2.75462,-2.63976 z m 6.42078,0 c -2.03544,0 -2.95737,1.05858 -2.3348,2.68085 0.62823,1.63725 4.69303,1.56026 5.3304,-0.10084 0.54347,-1.41631 -0.80771,-2.58001 -2.9956,-2.58001 z m 5.73349,0.0785 c -0.90975,0.0404 -1.24896,0.34054 -1.48687,1.08988 -0.59099,1.86206 0.16529,2.53905 2.60896,2.3353 1.90302,-0.15858 2.20734,-0.39184 2.20734,-1.69269 0,-1.30158 -0.30396,-1.5343 -2.21198,-1.69333 -0.44731,-0.0372 -0.81419,-0.0527 -1.11745,-0.0391 z m 227.1121,2.33576 c -0.42084,0 -0.76529,0.14956 -0.76529,0.33208 0,0.83938 1.86363,3.81026 2.52954,4.03217 1.07517,0.35842 3.50598,-0.19038 3.50598,-0.79149 0,-0.66978 -4.28221,-3.57276 -5.27023,-3.57276 z m -10.25084,0.1144 c -0.52587,-0.0427 -1.72785,0.58755 -3.63812,1.88049 -2.2237,1.50516 -2.41836,2.02353 -0.9092,2.41794 2.14887,0.56153 2.60868,0.37336 3.77863,-1.54565 1.09236,-1.79141 1.36469,-2.70429 0.76869,-2.75278 z m 5.17683,0.0248 c -0.0234,0 -0.0451,0.006 -0.0659,0.0115 -1.14264,0.38081 -3.04078,3.307 -2.60381,4.01406 0.52366,0.84728 5.1675,0.87454 5.1675,0.0303 0,-1.22924 -1.78263,-4.08033 -2.49782,-4.05606 z m -234.20073,2.89306 c -0.97557,0.0423 -1.90678,0.43274 -2.29099,1.15055 -1.35219,2.52673 3.47169,4.21344 5.01197,1.75253 0.45462,-0.72636 0.40911,-1.2713 -0.16386,-1.96176 -0.56181,-0.67694 -1.5816,-0.98342 -2.55712,-0.94132 z m -145.85884,0.1657 c -0.63811,0.0345 -1.33813,0.42102 -2.18587,1.15022 -1.40758,1.21072 -1.63275,1.889 -1.72918,5.20712 -0.0928,3.1944 0.0853,3.95918 1.09553,4.70001 1.85135,1.35766 4.01525,0.78721 5.52183,-1.45597 1.53935,-2.29205 1.39429,-5.46723 -0.36421,-7.97075 -0.79944,-1.13805 -1.51766,-1.67517 -2.3381,-1.63063 z m 152.59906,0.12143 c -2.40378,0 -3.65967,1.51706 -2.45627,2.96711 0.98899,1.19164 3.06322,1.23038 4.60427,0.0859 l 0,0 c 1.71466,-1.27332 0.46244,-3.05351 -2.148,-3.05351 z m 6.70516,0 c -2.4685,0 -3.74164,1.49812 -2.52205,2.96761 0.86034,1.0367 2.87932,1.24257 4.16858,0.42535 0.44396,-0.28139 0.71583,-1.16002 0.60382,-1.95234 -0.16905,-1.19522 -0.55234,-1.44062 -2.25035,-1.44062 z m 195.48908,0.75458 0,14.59091 c 0,16.05369 -0.23671,17.30775 -3.60126,19.04764 -3.65421,1.88968 -7.62317,0.59913 -9.35006,-3.03996 -1.33426,-2.81179 -0.84632,-5.59353 1.34024,-7.64055 2.16206,-2.02412 3.85126,-2.48555 6.46045,-1.76516 l 2.1331,0.58892 0,-7.18248 0,-7.18243 -2.86713,0.37635 c -1.57682,0.20711 -6.26207,0.9518 -10.41153,1.65453 l -7.54435,1.27764 -0.3017,11.49106 c -0.33705,12.83517 -0.70347,14.09847 -4.55426,15.70741 -2.49121,1.04088 -3.06496,1.03789 -5.51682,-0.0285 -2.24264,-0.97534 -3.8109,-3.64901 -3.8109,-6.49643 0,-4.07266 3.72536,-6.89493 8.21348,-6.2219 l 2.62252,0.39317 0.16482,-10.74816 0.16483,-10.74826 3.92346,-0.47061 c 4.52576,-0.54306 18.08131,-2.61292 20.97386,-3.20294 l 1.96125,-0.4003 z m 20.55596,3.16888 -0.53239,1.9613 c -0.29274,1.07884 -0.42024,2.16523 -0.28341,2.41416 0.13684,0.24903 2.55022,0.45297 5.36266,0.45297 3.69347,0 5.19894,-0.22251 5.42104,-0.80127 0.1691,-0.44074 0.0312,-1.52713 -0.30593,-2.41422 -0.58939,-1.55043 -0.78901,-1.61294 -5.13749,-1.61294 l -4.52448,0 z m 15.37119,0 c -2.48601,0 -2.73081,0.13068 -2.73081,1.45929 0,2.86327 0.55307,3.36914 3.68574,3.36914 2.16316,0 2.95359,-0.23184 2.95359,-0.86622 0,-0.47632 -0.26507,-1.5627 -0.58888,-2.41426 -0.51212,-1.347 -0.94348,-1.54795 -3.31964,-1.54795 z m -21.59685,0.0817 c -2.32693,-0.0491 -3.46576,1.0549 -3.46576,3.35329 0,1.25061 0.28042,1.39342 2.73499,1.39342 1.63859,0 2.8454,-0.30253 3.01054,-0.75458 0.15164,-0.415 0.34689,-1.43349 0.4338,-2.26341 0.14198,-1.3549 -0.0859,-1.52855 -2.23211,-1.70348 -0.16569,-0.0133 -0.32624,-0.0221 -0.48146,-0.0253 z m -240.87044,0.35861 c 0.13164,0.005 0.26792,0.006 0.40953,0.011 6.43609,0.25666 9.6838,7.77724 5.50372,12.74494 -0.81676,0.97065 -1.48498,1.9129 -1.48498,2.0939 0,0.181 1.01855,0.41348 2.26341,0.51649 l 2.26341,0.1872 0,11.16616 0,11.16615 -15.50006,0.16059 c -8.52502,0.0886 -15.6448,-0.0732 -15.82185,-0.35952 -0.17696,-0.28635 -0.31968,-5.29096 -0.31752,-11.12134 0.006,-11.43986 -0.0326,-11.31369 3.32107,-11.31369 1.87204,0 1.83729,-0.44474 -0.20031,-2.57155 -1.40035,-1.46163 -1.65963,-2.25275 -1.65963,-5.05912 0,-3.07029 0.1736,-3.48506 2.25454,-5.39212 1.9304,-1.76912 2.68277,-2.06627 5.23474,-2.06627 2.35129,0 3.38569,0.34136 4.90128,1.61666 1.30595,1.09889 2.16363,1.43658 2.67805,1.05573 3.22436,-2.38664 4.17993,-2.85997 6.1546,-2.83542 z m 132.49143,0.77144 c -1.28362,0.0563 -2.60841,0.59298 -3.775,1.75957 -2.842,2.84194 -2.12782,6.97734 1.55502,9.00266 1.50814,0.82941 2.81391,0.86347 4.76073,0.12323 0.83561,-0.31765 1.9635,-1.4375 2.50669,-2.48789 2.28317,-4.41518 -1.19642,-8.56648 -5.04744,-8.39757 z m -101.82141,0.0165 c -1.05518,0.017 -2.10033,0.48726 -2.48192,1.48162 -0.73941,1.92673 1.76375,3.31238 4.25637,2.35585 0.52513,-0.20146 0.95494,-1.01115 0.95494,-1.79919 0,-1.33091 -1.37279,-2.05984 -2.72939,-2.03828 z m -12.59597,0.0377 c -1.25985,0.0395 -2.69174,0.64785 -2.99092,1.42748 -0.82186,2.14174 3.47666,3.71479 5.0315,1.84124 0.87091,-1.04934 0.42796,-2.59991 -0.88672,-3.10445 -0.33328,-0.12787 -0.73399,-0.17746 -1.15386,-0.16427 z m 6.14899,0.0138 c -1.91919,-0.029 -3.08729,1.45781 -2.24654,3.02879 0.74704,1.39585 3.72058,1.49909 4.82558,0.16763 1.10174,-1.32756 0.0106,-2.91108 -2.18536,-3.16981 -0.13426,-0.0161 -0.26571,-0.0248 -0.39368,-0.0271 z m -37.35182,3.52092 c -2.01925,-0.0221 -4.17139,1.44572 -4.17139,3.64938 0,3.22804 4.272,4.78145 6.63929,2.41421 1.45018,-1.45013 1.53218,-2.88901 0.2676,-4.6944 -0.65663,-0.93751 -1.6777,-1.35761 -2.7355,-1.36919 z m 12.97099,0.028 c -2.05102,0 -3.86366,1.69903 -3.86366,3.6213 0,1.94916 1.8114,3.6213 3.92295,3.6213 1.42803,0 2.32707,-0.40443 2.98347,-1.34152 1.98887,-2.83956 0.41031,-5.90108 -3.04276,-5.90108 z m -180.24632,1.12026 c 1.89533,-0.0179 3.73257,0.62722 5.21365,1.92761 3.90645,3.42991 4.22833,7.92827 0.84291,11.78394 l -1.81508,2.06774 2.05418,0 c 1.12982,0 2.38016,0.32584 2.77848,0.7242 1.0475,1.04764 1.0201,22.43315 -0.0299,23.26393 -0.94983,0.7515 -30.5757,0.87339 -31.90188,0.13123 -0.81814,-0.45794 -0.94376,-2.09643 -0.88723,-11.57197 0.0359,-6.07109 0.28102,-11.37776 0.54402,-11.79276 0.26291,-0.415 1.43364,-0.75463 2.60143,-0.75463 l 2.12331,0 -1.83425,-1.83425 c -3.34607,-3.34602 -3.22487,-8.09342 0.2937,-11.50375 1.90518,-1.84662 2.46363,-2.05281 5.55507,-2.05281 2.60578,0 3.9013,0.33098 5.35613,1.36865 l 1.91878,1.36874 2.23955,-1.51955 c 1.55737,-1.05687 3.27469,-1.59005 4.94711,-1.60632 z m 420.54378,1.89722 c -2.59315,0 -2.73499,0.0877 -2.73499,1.68998 0,2.37298 1.10477,3.22303 3.9202,3.01523 2.17838,-0.16074 2.40162,-0.32717 2.25913,-1.68717 -0.28529,-2.7235 -0.6211,-3.01804 -3.44434,-3.01804 z m 11.78583,0 c -2.96812,0 -5.50836,0.20408 -5.6452,0.45306 -0.13683,0.24889 -0.01,1.33533 0.28341,2.41417 l 0.53239,1.96176 4.52448,0 c 4.30123,0 4.5532,-0.0766 5.11285,-1.5485 1.19803,-3.15133 1.00885,-3.28049 -4.80793,-3.28049 z m 11.49672,0 c -3.13267,0 -3.68574,0.50597 -3.68574,3.36924 0,1.32576 0.24705,1.45975 2.69486,1.45975 2.04647,0 2.84517,-0.2813 3.31965,-1.16793 0.34362,-0.6421 0.62482,-1.72849 0.62482,-2.41426 0,-1.09015 -0.37134,-1.2468 -2.95359,-1.2468 z m -458.17952,3.01804 c -1.77285,0 -3.61248,1.81582 -3.61248,3.56573 0,1.3652 2.47424,3.677 3.93514,3.677 0.72061,0 1.73511,-0.47544 2.25449,-1.05632 2.3746,-2.65575 0.90364,-6.18641 -2.57715,-6.18641 z m 14.22798,0.0491 c -1.36928,0.0455 -2.72975,0.83225 -3.2529,2.33295 -0.51571,1.47937 -0.41509,2.04899 0.58704,3.32291 1.2064,1.53369 2.54287,1.88131 4.43848,1.1539 1.41709,-0.54379 2.19883,-2.94017 1.53172,-4.69491 -0.55693,-1.4648 -1.93505,-2.1604 -3.30434,-2.11485 z m 173.70655,1.15105 -1.37853,1.46765 c -0.75834,0.80725 -1.19867,1.75929 -0.97837,2.11587 0.59628,0.96467 5.15822,0.83051 5.15822,-0.15182 0,-0.44005 -0.63021,-1.39217 -1.40055,-2.11577 l -1.40077,-1.31593 z m -115.67548,0.83345 c -0.17361,-0.0175 -0.36063,0.0744 -0.56177,0.2756 -0.33194,0.33199 -0.40663,0.92239 -0.16574,1.31215 0.29201,0.4725 0.63944,0.50748 1.0418,0.10507 0.33199,-0.33199 0.40618,-0.92238 0.16529,-1.3122 -0.14603,-0.23629 -0.30603,-0.36301 -0.47958,-0.38062 z m 29.46335,0.81865 c 7.7709,0.006 15.54189,0.12783 15.7723,0.35819 0.71749,0.71744 3.82836,17.55508 3.33463,18.04872 -0.79852,0.79866 -37.48999,0.94101 -38.14805,0.1481 -0.5237,-0.63108 2.49314,-17.44587 3.26927,-18.22201 0.23,-0.23004 8.00095,-0.33925 15.77185,-0.333 z m 345.43483,1.47381 c -0.27408,-0.01 -0.57978,0 -0.91715,0.0335 -2.71265,0.26429 -3.03118,0.97828 -1.37568,3.08284 1.57406,2.00115 1.98768,2.00786 3.26831,0.0532 1.30154,-1.98639 0.94275,-3.09874 -0.97548,-3.16971 z m -9.2772,0.50242 c -1.1534,0 -2.0967,0.22941 -2.0967,0.50992 0,1.20134 5.56416,4.68516 5.92111,3.70725 0.10319,-0.28263 -0.24296,-1.34727 -0.76961,-2.36572 -0.78983,-1.52736 -1.32507,-1.85145 -3.0548,-1.85145 z m 17.23296,0 c -2.04586,0 -2.53436,0.26181 -3.31968,1.78057 -1.84193,3.56182 -1.13263,3.85079 2.89889,1.18047 1.55071,-1.02714 2.81961,-2.11357 2.81961,-2.41421 0,-0.30065 -1.07954,-0.54683 -2.39882,-0.54683 z m -350.14794,1.20709 c -2.10396,0 -2.34982,0.15765 -2.34982,1.50878 0,1.3527 0.24457,1.50925 2.36379,1.50925 1.34843,0 2.47705,-0.32427 2.62717,-0.75462 0.5317,-1.52419 -0.33062,-2.26341 -2.64114,-2.26341 z m -13.06296,0.01 c -2.20499,0.0124 -3.43027,0.85381 -2.97414,2.04256 0.2431,0.63355 1.10491,0.96614 2.50247,0.96614 1.87116,0 2.13126,-0.18459 2.13126,-1.50924 0,-1.24593 -0.28906,-1.50704 -1.65959,-1.49946 z m 19.65137,0 c -1.79928,-0.0106 -2.58217,0.79645 -2.06963,2.13219 0.47705,1.24311 4.5242,1.17059 5.00787,-0.0896 0.45361,-1.18218 -0.76612,-2.03015 -2.93824,-2.04256 z m -13.89935,0.0608 c -1.75534,0.0207 -2.54999,0.77448 -2.0649,2.03879 0.27583,0.71864 0.98655,0.932 2.64541,0.7948 1.80332,-0.14915 2.26801,-0.43518 2.26801,-1.39489 0,-0.93039 -0.46722,-1.25167 -2.03824,-1.40183 -0.28906,-0.0276 -0.55946,-0.04 -0.81028,-0.0372 z m 199.30333,1.13709 c 4.74014,0 9.30065,2.74239 11.41178,6.86202 l 1.50552,2.9382 -0.15926,16.66702 c -0.11486,12.01284 -0.35851,16.79383 -0.87275,17.12086 -0.39243,0.24958 -6.33119,0.45775 -13.19699,0.46285 -11.40483,0.008 -12.50276,-0.082 -12.70895,-1.04699 -0.12424,-0.58093 -0.21023,-6.21675 -0.19148,-12.52409 l 0.034,-11.4673 10.86399,-0.30212 10.86445,-0.30175 0.18124,-3.13331 c 0.42175,-7.29311 -5.08201,-11.93962 -11.02703,-9.30993 -2.68457,1.1876 -3.96547,2.8932 -4.81068,6.40446 -0.55556,2.30827 -1.40822,3.32296 -2.79199,3.32296 -1.86362,0 -2.83652,-2.08724 -2.37878,-5.10348 0.91871,-6.05339 6.60583,-10.5894 13.27688,-10.5894 z m -110.38094,0.90542 c -7.89288,0 -9.38181,0.14635 -9.90391,0.97406 -0.33797,0.53588 -0.44138,1.42564 -0.22977,1.97719 0.34004,0.88608 1.49279,0.98325 9.90396,0.83635 l 9.51911,-0.16625 0,-1.81044 0,-1.81091 -9.28939,0 z m -179.81063,0.37313 c -0.37975,0.0184 -0.71565,0.28304 -1.29396,0.80643 -1.88729,1.70799 -1.51798,2.14013 1.83002,2.14013 1.92692,0 2.98766,-0.24245 2.85133,-0.65143 -0.11937,-0.35819 -0.94317,-1.09177 -1.83048,-1.63018 -0.75385,-0.45738 -1.17721,-0.68384 -1.55691,-0.66495 z m 91.54629,1.77349 c -1.91492,-0.0368 -3.89427,1.19794 -3.34492,2.62955 0.58313,1.51959 5.43781,1.11434 5.74038,-0.47912 0.11859,-0.62418 -0.15048,-1.36657 -0.59812,-1.65026 -0.52779,-0.33447 -1.1591,-0.48794 -1.79734,-0.50017 z m 6.63005,0.14198 c -1.35569,0.006 -2.32698,0.61356 -2.32698,1.57465 0,1.58077 0.62869,1.94755 2.99616,1.74826 1.68638,-0.14189 2.17442,-0.46446 2.32683,-1.5377 0.10609,-0.7469 -0.0294,-1.37876 -0.30174,-1.40417 -0.27201,-0.0253 -1.03762,-0.15228 -1.70156,-0.28203 -0.34656,-0.0677 -0.67993,-0.0994 -0.99271,-0.099 z m 55.84744,0.0916 c 0.8067,-0.0257 2.39114,0.49654 5.50184,1.54285 l 3.01753,1.01472 0.18164,3.08294 0.18114,3.08247 -2.5954,0.71583 c -1.42757,0.39377 -3.44388,0.91476 -4.48007,1.15763 l -1.88371,0.44171 -0.37966,-3.6293 c -0.20867,-1.99586 -0.37919,-4.54484 -0.37919,-5.66432 0,-1.14545 0.0285,-1.71884 0.83588,-1.74453 z m -219.326444,0.0794 c 9.054414,-0.065 13.670774,1.89451 20.114214,8.5366 3.15739,3.25488 7.64486,9.65861 7.64799,10.914 0.006,1.02704 -3.0617,2.27435 -9.20817,3.74788 -6.09209,1.46052 -11.74414,1.48295 -16.139819,0.0644 -1.825795,-0.5892 -4.245112,-1.55447 -5.376127,-2.14483 -4.084884,-2.13195 -10.85728,-9.44846 -13.527188,-14.61417 -1.237466,-2.39417 -0.973821,-2.63148 5.333244,-4.80099 4.000541,-1.3759 5.894315,-1.6652 11.155856,-1.70293 z m 149.460104,0.25634 c -3.07554,0 -4.14372,0.97915 -2.43339,2.23073 1.77446,1.29841 4.72837,0.77884 4.96297,-0.8728 0.17553,-1.23609 -0.0517,-1.35793 -2.52958,-1.35793 z m 21.66965,0 c -2.29296,0 -2.73508,0.18725 -2.73508,1.15712 0,0.63627 0.33966,1.30609 0.75471,1.4887 0.82366,0.3626 4.6432,0.005 5.12866,-0.48142 0.16588,-0.16588 0.14051,-0.72052 -0.0561,-1.23278 -0.24945,-0.64987 -1.18392,-0.93162 -3.09222,-0.93162 z m 73.98354,2.71637 c -7.89288,0 -9.38181,0.1463 -9.90391,0.97405 -0.33797,0.5358 -0.44138,1.42564 -0.22977,1.97715 0.34004,0.88608 1.49279,0.98329 9.90396,0.83635 l 9.51911,-0.16616 0,-1.81099 0,-1.8104 -9.28939,0 z m -250.000557,0.94045 c -0.332589,0 -0.544985,0.28939 -0.544985,0.86954 0,0.67074 -0.742673,0.91825 -2.866676,0.95493 l -2.867182,0.0495 3.168838,1.44757 c 3.303648,1.50938 3.649475,1.95651 2.444596,3.16139 -0.89311,0.89306 -0.456506,0.91356 1.731479,0.0817 1.818486,-0.69134 6.515323,0.23395 7.253859,1.42899 0.211018,0.34132 -0.396524,1.24252 -1.349984,2.00285 -2.574396,2.05271 -1.431752,2.34131 2.127952,0.53744 3.11203,-1.57695 3.13524,-1.57897 6.24667,-0.56272 1.71764,0.56102 3.24174,1.12476 3.38689,1.25286 0.14524,0.12815 -0.66978,1.03105 -1.81091,2.00657 -2.59071,2.21487 -1.81903,2.31843 1.73852,0.23349 l 0,0 c 2.42506,-1.42113 2.98898,-1.52575 5.3342,-0.98903 1.44233,0.33001 2.61508,0.43403 2.60611,0.23114 -0.009,-0.20288 -1.11286,-1.0457 -2.45337,-1.87299 -1.52993,-0.94413 -3.14802,-2.74189 -4.34609,-4.82848 -1.302,-2.26759 -1.97536,-2.98857 -2.11771,-2.26801 -0.11477,0.58089 -0.42566,1.05624 -0.69115,1.05624 -1.05122,0 -6.44454,-2.62684 -7.6508,-3.72637 -1.020603,-0.93039 -1.346344,-0.9975 -1.602589,-0.3297 -0.460597,1.20019 -5.498527,1.30536 -6.46982,0.1349 -0.482108,-0.58079 -0.935259,-0.87187 -1.267848,-0.87219 z m 176.066477,0.63926 c -1.48241,-0.006 -2.18068,0.55868 -2.18068,1.72081 0,1.06888 0.3865,1.22621 3.01748,1.22621 2.59209,0 3.01799,-0.16662 3.01799,-1.17997 0,-0.86999 -0.55344,-1.28352 -2.10783,-1.57511 -0.67156,-0.12598 -1.25281,-0.19056 -1.74696,-0.19194 z m -21.89046,0.0836 c -0.40099,0.007 -0.85464,0.0524 -1.35748,0.13724 -1.88628,0.31871 -2.47213,0.69124 -2.47213,1.57185 0,0.96661 0.44433,1.15432 2.73495,1.15432 1.92654,0 2.84222,-0.27978 3.09787,-0.94606 0.48546,-1.26509 -0.26581,-1.94856 -2.00321,-1.91735 z m 7.0348,0.14708 c -2.35709,0 -2.74185,0.17939 -2.90924,1.35789 -0.17848,1.25723 0.0381,1.35844 2.90924,1.35844 2.87145,0 3.08739,-0.10121 2.90877,-1.35844 -0.16735,-1.1785 -0.5516,-1.35789 -2.90877,-1.35789 z m 7.84604,0 c -2.35712,0 -2.74138,0.17939 -2.90873,1.35789 -0.17861,1.25723 0.0377,1.35844 2.90873,1.35844 2.87141,0 3.08776,-0.10121 2.9092,-1.35844 -0.16736,-1.1785 -0.55211,-1.35789 -2.9092,-1.35789 z m -127.20111,0.94326 c 0.41496,0.0207 2.79121,0.76763 5.28094,1.65963 l 4.52677,1.62227 0,3.31965 0,3.31969 -4.52677,1.62181 c -5.1652,1.85066 -5.09396,1.83438 -5.63311,1.29533 -0.22126,-0.22131 -0.40254,-3.2091 -0.40254,-6.63938 0,-4.6073 0.19732,-6.22695 0.75471,-6.199 z m 208.14481,2.67808 c -8.01285,0 -9.37676,0.13835 -9.92395,1.00582 -0.46133,0.73155 -0.4145,1.27028 0.17181,1.97673 0.68761,0.82849 2.14579,0.94675 9.924,0.805 l 9.11753,-0.1662 0,-1.81049 0,-1.81086 -9.28939,0 z m 241.7101,7.0536 c 1.91478,0.0143 3.81719,0.25073 5.68578,0.71675 4.13567,1.03128 12.53957,4.99064 15.08915,7.10912 l 1.5092,1.25383 -4.70888,4.44363 c -3.33076,3.14319 -6.20682,5.18575 -9.82922,6.9807 -4.55739,2.25831 -5.66666,2.55831 -10.07908,2.7252 -3.09438,0.11716 -6.20553,-0.15186 -8.27741,-0.71583 -3.59322,-0.97805 -12.08583,-5.00658 -14.42227,-6.84106 l -1.44624,-1.13516 2.65332,-2.88542 c 7.00051,-7.61339 15.52833,-11.71454 23.82565,-11.65176 z m -327.44909,2.26245 6.77332,0.17089 c 6.50549,0.16377 6.7815,0.22411 6.96673,1.52837 0.19019,1.33909 0.31861,1.35793 9.20444,1.35793 l 9.01154,0 0,1.50883 0,1.5092 -15.6187,0 c -11.78435,0 -15.76104,0.18491 -16.19728,0.75417 -0.31802,0.41491 -1.20212,3.3349 -1.96497,6.48852 -0.76289,3.15358 -1.48663,5.84679 -1.60829,5.9851 -0.12158,0.13835 -0.22127,-3.46048 -0.22127,-7.99727 l 0,-8.24855 1.44343,0 c 1.0412,0 1.55043,-0.42576 1.82712,-1.52837 l 0.38393,-1.52882 z m 328.45862,1.88835 c -0.37133,-0.0101 -0.95111,0.38443 -1.66097,1.16884 -0.73762,0.81516 -1.85889,1.20709 -3.45275,1.20709 -1.29823,0 -2.9114,0.29471 -3.5849,0.6552 -1.08275,0.57941 -1.17849,0.50978 -0.82513,-0.60336 0.61559,-1.93955 -0.39128,-1.50961 -3.22303,1.37573 -1.42205,1.44894 -3.6651,2.99068 -4.98447,3.42609 -3.39548,1.12067 -3.47275,1.78571 -0.20688,1.78571 2.33511,0 3.2211,0.35507 5.27445,2.11256 1.35734,1.16191 2.57748,2.1121 2.71077,2.1121 0.13325,0 -0.32326,-0.91467 -1.01427,-2.03267 -0.69101,-1.1181 -1.25612,-2.16638 -1.25612,-2.32969 0,-0.1634 1.53484,-0.45554 3.41069,-0.64914 3.22818,-0.33314 3.54638,-0.24057 5.9469,1.72638 3.23461,2.6506 3.75827,2.62376 2.14524,-0.11018 -0.71027,-1.20373 -1.21256,-2.25205 -1.11612,-2.32969 0.0965,-0.0777 1.58356,-0.30027 3.30475,-0.49456 2.58547,-0.29187 3.40334,-0.13752 4.7057,0.88681 l 1.57645,1.23977 -0.37639,-1.49941 c -0.35001,-1.39466 -0.1845,-1.52786 2.3722,-1.91133 3.23066,-0.48446 4.29503,-1.54938 1.54845,-1.54938 -1.39521,0 -1.98707,-0.32197 -2.21855,-1.20708 -0.33553,-1.2832 -1.37126,-1.57208 -2.3176,-0.64633 -0.81929,0.80155 -6.30678,-0.56282 -6.30678,-1.56804 0,-0.50467 -0.16276,-0.75752 -0.45164,-0.76542 z m -132.83174,2.37593 c -3.14457,0 -4.74496,3.25111 -2.84015,5.76943 0.48744,0.64436 0.8949,2.41647 0.90552,3.93794 0.0216,3.13905 0.36205,3.69553 2.1069,3.44576 1.01827,-0.14574 1.2645,-0.69169 1.42008,-3.14553 0.10342,-1.63289 0.57877,-3.52666 1.05628,-4.20825 1.78576,-2.54958 0.30143,-5.79935 -2.64863,-5.79935 z m 72.92676,2.4143 13.30018,0 13.30026,0 -0.17282,5.88471 -0.17277,5.88466 -2.83873,0.18312 -2.83823,0.18261 -0.1793,-4.10607 -0.1793,-4.10612 -7.09189,-0.16988 -7.09179,-0.17006 0,4.24428 0,4.24378 -3.01804,0 -3.01757,0 0,-6.03551 0,-6.03552 z m -117.44332,0.13959 c 1.92163,0.008 4.09431,0.0377 6.51887,0.0864 13.74629,0.27771 14.60723,0.36233 15.80406,1.55825 1.20456,1.2034 1.27484,1.97333 1.45179,15.88574 0.10232,8.04148 0.0221,15.50539 -0.17888,16.58672 -0.71055,3.82699 -1.7256,4.05225 -18.99295,4.21446 -10.23071,0.0961 -15.85122,-0.077 -16.70669,-0.51419 -2.38043,-1.21669 -2.63369,-2.95815 -2.63369,-18.08706 0,-17.03491 0.25418,-18.19732 4.21855,-19.26477 1.25061,-0.33672 4.75401,-0.49166 10.51894,-0.46556 z m 105.02251,0.46414 c 1.26142,0 7.59197,3.57101 7.59197,4.28257 0,0.30032 -0.54329,0.5459 -1.20713,0.5459 -1.3771,0 -1.41001,0.16373 -1.46719,7.2427 -0.023,2.82163 -0.10944,7.9143 -0.1925,11.31695 l -0.1508,6.18641 -8.92186,0 -0.40669,-11.92031 c -0.22384,-6.55628 -0.51492,-12.25525 -0.64684,-12.66469 -0.13182,-0.40926 -0.65736,-0.58392 -1.16783,-0.38802 -0.51056,0.19589 -0.92836,0.11904 -0.92836,-0.17085 0,-0.71647 6.28482,-4.43066 7.49723,-4.43066 z m -224.83297,1.46907 c 4.49087,0.0202 6.05206,0.18712 5.92727,0.52954 -0.14373,0.39455 -1.29887,4.79148 -2.56691,9.7709 -2.3449,9.20775 -2.92596,10.67163 -4.1364,10.42132 -0.37433,-0.0775 -8.10464,-0.21755 -17.17883,-0.31145 l -16.49843,-0.17094 0.3894,-2.3073 c 0.21451,-1.26918 1.39227,-5.7294 2.61692,-9.9114 l 2.2265,-7.60364 17.70464,-0.30207 c 5.07222,-0.0867 8.82139,-0.12714 11.51584,-0.11496 z m 109.23452,2.15227 0.18262,3.12688 0.18261,3.12724 4.47079,1.09645 c 5.54711,1.36014 8.62701,3.13294 12.34143,7.10397 3.11097,3.3259 4.72487,6.42473 5.83199,11.19691 0.38503,1.65986 0.80325,3.35728 0.92928,3.77224 0.26751,0.88088 6.0425,1.06028 6.57158,0.20403 0.64413,-1.04212 -1.50671,-9.32262 -3.45086,-13.28524 -4.43825,-9.04624 -15.44418,-16.30644 -24.76426,-16.33544 l -2.29518,-0.007 z m 136.46908,1.1563 4.67758,0.17645 4.67763,0.17604 0.16303,12.52409 0.16344,12.52404 1.79826,0 c 0.98913,0 1.79831,0.21203 1.79831,0.47121 0,0.25914 -1.96878,1.43966 -4.37551,2.6234 l -4.37596,2.15222 -4.20595,-2.28997 c -3.01344,-1.64061 -3.91211,-2.38448 -3.16889,-2.62344 0.57054,-0.18344 1.44462,-0.46083 1.94259,-0.61637 0.7662,-0.23942 0.90547,-2.19047 0.90547,-12.70013 l 0,-12.41754 z m -438.188713,0.65415 c 2.167623,0 2.414767,0.15292 2.414767,1.49665 0,1.12798 0.570494,1.78801 2.317095,2.67896 l 2.317551,1.18236 1.30659,-1.30655 1.3066,-1.30705 1.93509,1.93514 1.9351,1.93509 -1.31777,1.22768 c -1.14806,1.06956 -1.22643,1.43993 -0.61222,2.87927 1.09424,2.56405 1.70914,3.16047 3.25851,3.16047 1.2718,0 1.43543,0.27458 1.43543,2.41426 0,2.27771 -0.10232,2.41422 -1.80291,2.41422 -1.50428,0 -1.955,0.36559 -2.72433,2.20687 -0.82338,1.97063 -0.82448,2.31415 -0.008,3.21604 1.23921,1.36929 1.15482,1.98708 -0.48275,3.52561 -1.65633,1.55594 -2.10465,1.6077 -3.44108,0.39827 -0.89908,-0.81364 -1.24721,-0.81438 -3.17536,-0.009 -1.638448,0.68463 -2.212068,1.31083 -2.357312,2.57348 -0.164456,1.43028 -0.496908,1.69471 -2.325966,1.84869 -1.173715,0.0988 -2.327896,-0.0143 -2.565066,-0.25161 -0.237078,-0.23721 -0.43095,-1.14627 -0.43095,-2.02017 0,-1.27396 -0.427274,-1.74301 -2.155626,-2.36802 -1.896532,-0.68577 -2.296412,-0.6518 -3.329893,0.2835 -1.129729,1.02236 -1.243304,0.9974 -2.974552,-0.66127 l -1.799688,-1.72449 1.21784,-1.2963 c 1.139105,-1.21251 1.158823,-1.43617 0.310022,-3.46769 -0.687104,-1.64452 -1.31257,-2.21855 -2.576235,-2.3638 -1.451241,-0.16684 -1.692824,-0.48702 -1.855717,-2.4553 -0.166708,-2.01429 -0.03355,-2.26452 1.20713,-2.27274 1.885961,-0.0124 2.470934,-0.53276 3.348646,-2.97745 0.664214,-1.8502 0.614206,-2.22292 -0.452093,-3.35784 l -1.199593,-1.27676 1.799688,-1.72404 c 1.696086,-1.62498 1.864403,-1.66653 2.91434,-0.71638 1.375723,1.2451 2.101757,1.25953 4.368476,0.0874 1.243993,-0.64335 1.780567,-1.37094 1.780567,-2.41426 0,-1.33992 0.248017,-1.49335 2.414169,-1.49335 z m 90.065083,1.81095 c 3.06115,0 6.34039,1.78235 8.78227,4.77377 2.49281,3.0538 4.64633,3.66837 12.8729,3.67274 l 6.39789,0.005 0.38995,5.49297 c 0.21451,3.02134 0.23943,5.73781 0.0552,6.03602 -0.18441,0.2983 -3.78259,0.54797 -7.99548,0.55523 -8.49707,0.0147 -10.75106,0.64799 -14.72209,4.13453 -3.67838,3.22964 -7.1276,4.23569 -10.74678,3.13478 -3.0469,-0.9268 -5.34653,-2.47792 -7.78998,-5.25382 -1.37503,-1.56224 -2.28901,-3.04777 -2.03088,-3.30149 0.25822,-0.25385 2.64261,0.054 5.29827,0.68407 4.63088,1.09893 4.88845,1.10224 6.29985,0.0756 2.79584,-2.0335 3.96354,-4.21491 3.9178,-7.31972 -0.0665,-4.52834 -1.24427,-5.79219 -6.22741,-6.68272 -2.3141,-0.41353 -4.56584,-0.98894 -5.00405,-1.27856 -2.00896,-1.32806 5.54306,-4.72717 10.50258,-4.72717 z m 212.01978,8.14807 -0.18211,3.15201 -0.18164,3.15253 2.8812,0.72525 c 3.68831,0.92868 8.04833,5.13261 9.14179,8.81399 l 0.76212,2.56506 3.37241,0 3.37241,0 -0.39363,-2.46422 c -1.23182,-7.70338 -9.27918,-15.53514 -16.27239,-15.83675 l -2.50016,-0.10787 z m -302.084863,1.50878 c -2.246771,0 -4.828384,2.33397 -4.828384,4.36517 0,4.53863 5.677186,6.56763 8.463794,3.02502 0.656446,-0.83455 1.193572,-2.17199 1.193572,-2.97216 0,-2.0774 -2.558494,-4.41803 -4.828982,-4.41803 z m 404.389153,6.57301 2.86663,0.18404 2.86718,0.18399 0.17848,4.07422 0.17834,4.0739 6.88587,0 6.88593,0 0.17843,-4.0739 0.17838,-4.07422 2.86709,-0.18399 2.86672,-0.18404 0,6.0454 0,6.0454 -12.72618,0.17456 c -6.99955,0.0958 -12.83894,0.0609 -12.97664,-0.0774 -0.13766,-0.13835 -0.25023,-2.93714 -0.25023,-6.21956 l 0,-5.96836 z m -98.9846,3.08431 c -0.7959,0 -3.62185,2.7406 -3.62185,3.51251 0,1.08156 2.52213,3.73023 3.5518,3.73023 0.5772,0 1.64378,-0.55408 2.37032,-1.23098 0.72649,-0.67681 1.32103,-1.63951 1.32103,-2.13959 0,-1.04727 -2.64187,-3.87217 -3.6213,-3.87217 z m -274.2909,9.35107 c 1.64337,-0.0138 3.30981,0.19038 4.96719,0.63645 6.57692,1.77032 13.54194,7.20505 15.62605,12.19302 2.43679,5.83194 2.02096,12.48529 -1.15239,18.43918 -2.11591,3.96974 -5.44378,6.99591 -9.86144,8.96718 -3.91348,1.74619 -11.4736,2.11205 -15.41604,0.74575 -8.87094,-3.07438 -15.00228,-12.45422 -14.25184,-21.80318 0.87233,-10.86693 10.04589,-19.09309 20.08847,-19.1784 z m 7.01384,4.05892 c -1.17546,-0.0193 -1.28619,1.08932 -0.28571,3.25056 1.53936,3.32561 2.56953,3.81397 6.06774,2.87646 0.7469,-0.20012 1.35789,-0.59016 1.35789,-0.86663 0,-0.82614 -3.78507,-4.10667 -5.611,-4.863 -0.62671,-0.25964 -1.13704,-0.3911 -1.52892,-0.39739 z m -11.75825,0.46928 c -1.10652,-0.0276 -3.24624,1.00862 -4.9312,2.48799 -2.47884,2.17644 -2.62225,2.76298 -0.76579,3.13477 2.82485,0.56567 3.74949,0.12227 5.18616,-2.48711 0.78758,-1.43042 1.27984,-2.75328 1.0936,-2.93953 -0.12695,-0.12699 -0.3274,-0.18987 -0.58277,-0.19612 z m 5.67742,0.0152 c -0.5295,0.007 -1.69728,1.05168 -2.5949,2.32123 -2.06476,2.92027 -1.42417,3.70169 3.03522,3.70169 l 3.27437,0 -0.38425,-1.92209 c -0.45048,-2.25229 -1.96649,-4.11913 -3.33044,-4.10083 z m -0.19286,8.43713 c -5.16208,0 -5.3446,0.0475 -5.9151,1.548 -0.76671,2.01663 -0.75227,4.3334 0.0285,4.58799 0.571,0.18606 10.199,0.17259 11.90671,-0.017 0.97801,-0.10838 1.00223,-4.42295 0.0303,-5.39484 -0.45393,-0.45393 -2.71261,-0.72433 -6.05055,-0.72433 z m -11.18155,0.008 c -3.90269,0.0143 -4.91374,0.53818 -5.3309,2.76215 -0.20983,1.11861 -0.36867,2.24305 -0.35259,2.49879 0.0437,0.68402 2.5157,1.2627 4.90459,1.1477 1.66663,-0.0802 2.17176,-0.40273 2.50481,-1.59887 0.2295,-0.82408 0.44419,-2.24517 0.47724,-3.15813 0.0554,-1.52768 -0.11992,-1.65923 -2.20315,-1.65164 z m 24.00026,0.0888 c -0.19622,0.006 -0.40039,0.0133 -0.61214,0.0276 l -2.71592,0.17746 0.14194,2.34141 c 0.18973,3.13143 1.14338,4.19184 3.37015,3.74651 0.973,-0.1947 2.44952,-0.35397 3.28136,-0.35397 1.41038,0 1.48769,-0.15273 1.14545,-2.26157 -0.44433,-2.73812 -1.66736,-3.74462 -4.61084,-3.67737 z m 411.88584,3.91459 c 6.84304,-0.0133 12.61482,2.41072 17.80778,7.43601 3.43207,3.32126 9.09,11.1087 9.09,12.51145 0,0.40411 -2.24057,1.46163 -4.97933,2.34982 -6.77106,2.19594 -16.72958,2.63902 -21.44829,0.95447 -3.91469,-1.39755 -9.03783,-4.8618 -11.93898,-8.07297 -2.63135,-2.9125 -6.90082,-9.41688 -6.90082,-10.51278 0,-1.03206 8.70313,-3.68657 14.45454,-4.4087 1.34378,-0.16868 2.6478,-0.25472 3.9151,-0.2573 z m 0.59292,3.32204 c -0.39955,0.0198 -1.29625,0.40066 -3.06886,1.1613 -2.11201,0.90639 -3.87497,1.19798 -6.38856,1.05633 -1.90936,-0.1076 -3.47119,-0.0285 -3.47054,0.17512 0,0.20384 1.2012,0.82866 2.66779,1.38868 2.34587,0.89601 2.79562,1.37775 3.74044,4.00523 1.30636,3.63293 2.04573,3.8666 1.59464,0.50385 -0.31866,-2.37579 -0.27242,-2.464 1.06143,-2.04063 4.57871,1.45317 5.45118,2.1406 6.91162,5.44296 0.80408,1.81821 1.62971,3.30567 1.8343,3.30567 0.20453,0 0.18849,-1.22202 -0.0354,-2.71587 -0.24332,-1.62287 -0.17309,-2.71633 0.17462,-2.71633 1.79187,0 4.89871,1.57042 6.34521,3.20712 1.33362,1.50897 1.65959,1.65955 1.65959,0.76717 0,-0.9535 0.33443,-1.05729 2.36191,-0.73311 1.29883,0.20775 2.86061,0.5386 3.4705,0.7355 0.64045,0.20675 0.26525,-0.37142 -0.88723,-1.36873 -1.3976,-1.20934 -1.87566,-2.03994 -1.59515,-2.77094 0.31751,-0.82743 0.0694,-1.04414 -1.19734,-1.04414 -2.05331,0 -5.17026,-2.29729 -5.17026,-3.81049 0,-0.98922 -0.29246,-1.11019 -1.90012,-0.78872 -1.13905,0.22788 -3.19517,-0.0285 -5.13518,-0.64018 -2.64335,-0.83322 -3.17224,-1.2206 -2.88824,-2.11536 0.21695,-0.68352 0.31467,-1.02429 -0.085,-1.00443 z m -296.3009,1.41814 0.19892,4.52682 c 0.10958,2.48964 0.012,9.24181 -0.21804,15.00463 -0.41326,10.36809 -0.43574,10.49716 -2.1116,12.37278 -1.47114,1.6464 -2.09003,1.89538 -4.71214,1.89538 -2.35474,0 -3.35729,-0.31811 -4.55854,-1.4466 -2.32307,-2.18233 -3.03738,-4.92256 -1.95711,-7.50799 1.25535,-3.00438 3.58513,-4.3477 7.30718,-4.21344 l 3.0497,0.10971 -0.22365,-6.74909 c -0.12314,-3.71203 -0.28089,-6.81275 -0.3507,-6.89057 -0.16763,-0.1867 -19.1398,2.77549 -20.11376,3.14039 -0.56723,0.21258 -0.75457,3.13505 -0.75457,11.77833 l 0,11.49534 -1.96176,2.1247 c -2.07799,2.25063 -5.12186,3.13078 -7.39349,2.13825 -2.02624,-0.88525 -3.95284,-3.39098 -4.31296,-5.60967 -0.73858,-4.55141 3.13423,-8.17413 8.02209,-7.50417 l 2.6005,0.35626 0.16487,-10.65058 0.16483,-10.65114 11.46735,-1.70716 c 6.30729,-0.93908 12.41855,-1.77616 13.58036,-1.85995 l 2.11252,-0.15223 z m -141.55665,0.30216 c -3.56228,0 -4.66517,0.75366 -4.34044,2.96619 0.32096,2.18688 1.05256,2.87242 3.4556,3.23746 3.73216,0.56691 4.23054,0.31917 4.16164,-2.0705 -0.10364,-3.59335 -0.5317,-4.13315 -3.2768,-4.13315 z m 26.91943,0.029 c -0.54954,-0.007 -1.17827,0.0207 -1.89272,0.0794 -2.24057,0.18463 -2.36301,0.30625 -2.86112,2.84103 -0.3933,2.00142 -0.32362,2.77498 0.28585,3.16741 1.18714,0.76455 6.11834,-0.0584 6.99279,-1.16696 0.41495,-0.526 0.75462,-1.71415 0.75462,-2.64017 0,-1.57295 -0.89862,-2.25035 -3.27942,-2.28069 z m -20.56121,0.27219 0.0677,2.2522 c 0.10728,3.55943 0.91788,4.08507 6.30035,4.08507 3.54363,0 4.95446,-0.24278 5.69185,-0.98021 0.63416,-0.63416 0.91591,-1.75341 0.7976,-3.16884 l -0.18302,-2.18822 -6.33727,0 -6.33726,0 z m 38.92978,1.49156 22.93558,0.04 22.93561,0.0391 0,14.75661 0,14.7567 -22.93561,0 -22.93558,0 0,-14.79632 0,-14.79591 z m 330.64918,1.32612 c 2.96246,-0.006 6.59075,0.0106 11.00928,0.0418 l 22.59328,0.15834 0,14.4858 0,14.48533 -22.67684,0.1583 c -12.47229,0.0869 -22.86125,-0.0267 -23.08647,-0.25174 -0.58056,-0.58051 -0.49295,-27.50996 0.0925,-28.43221 0.28373,-0.44704 3.18111,-0.63273 12.06827,-0.64537 z m -307.7136,2.91623 c -8.47175,0 -12.70588,0.20867 -12.56886,0.61967 0.18229,0.54701 11.79842,7.74172 12.56886,7.78478 0.16597,0.01 2.99528,-1.53815 6.2873,-3.43919 3.29192,-1.9009 6.09848,-3.79614 6.23678,-4.2111 0.1959,-0.58768 -2.57191,-0.75416 -12.52408,-0.75416 z m 317.95801,1.20708 c -9.76295,0 -12.62815,0.16731 -12.08983,0.70568 1.26537,1.26527 11.27908,7.04826 12.28591,7.09505 0.53942,0.0253 3.595,-1.47698 6.79023,-3.33789 3.19512,-1.86091 5.80951,-3.62612 5.80951,-3.92295 0,-0.30037 -5.67663,-0.53989 -12.79582,-0.53989 z m -299.86163,0.60341 c -0.33783,0 -4.32642,2.30891 -8.86349,5.13054 -4.53707,2.82168 -8.64962,5.13009 -9.13899,5.13009 -0.48946,0 -4.66632,-2.34582 -9.28153,-5.21323 -4.87834,-3.03091 -8.61437,-4.98912 -8.92462,-4.67758 -0.29435,0.2954 -0.37133,4.52957 -0.1719,9.4383 l 0.3615,8.90233 18.31678,0 18.31636,0 0,-9.35525 c 0,-5.94276 -0.22397,-9.3552 -0.61411,-9.3552 z m -72.48459,1.0623 c -0.49677,-0.01 -1.06304,0.009 -1.69976,0.0523 -3.51426,0.24012 -3.69324,0.69345 -1.53072,3.8758 1.78912,2.633 2.07487,2.70139 3.72081,0.89431 3.05619,-3.35536 2.98697,-4.75737 -0.49033,-4.82241 z m -11.07689,0.14474 c -1.4665,0 -2.83896,0.2795 -3.0498,0.62064 -0.47719,0.77213 2.5886,3.69268 5.25617,5.00732 2.44009,1.20248 2.9022,1.23737 2.9022,0.21947 0,-0.43564 -0.54944,-1.92949 -1.2211,-3.31969 -1.16057,-2.40203 -1.35366,-2.52774 -3.88747,-2.52774 z m 366.03276,0 c -0.36623,0 -0.59591,3.6036 -0.59591,9.3552 l 0,9.3553 18.4088,0 18.40884,0 0,-9.3553 c 0,-5.94267 -0.22393,-9.3552 -0.61407,-9.3552 -0.33783,0 -4.32642,2.30891 -8.86353,5.13063 -4.53707,2.82164 -8.48853,5.13009 -8.78081,5.13009 -0.79626,0 -2.47622,-0.95226 -10.26821,-5.82257 -3.90485,-2.44078 -7.36753,-4.43815 -7.69511,-4.43815 z m -346.02183,0.006 c -2.40741,0.006 -2.59448,0.13614 -3.88287,2.78082 -1.18765,2.43802 -1.33381,3.85672 -0.39735,3.85672 0.15953,0 1.29795,-0.51672 2.52958,-1.1483 2.74905,-1.40987 5.2215,-3.96772 4.68084,-4.84249 -0.22035,-0.3564 -1.53898,-0.64776 -2.9302,-0.64675 z"
       id="path4965-0-9"
       inkscape:connector-curvature="0" />
  </g>
</svg>
