<?xml version="1.0" encoding="UTF-8" standalone="no"?>
<!-- Created with Inkscape (http://www.inkscape.org/) -->
<svg id="svg3495" xmlns:rdf="http://www.w3.org/1999/02/22-rdf-syntax-ns#" xmlns="http://www.w3.org/2000/svg" xml:space="preserve" height="35.433" width="35.433" version="1.1" xmlns:cc="http://creativecommons.org/ns#" xmlns:dc="http://purl.org/dc/elements/1.1/"><metadata id="metadata3501"><rdf:RDF><cc:Work rdf:about=""><dc:format>image/svg+xml</dc:format><dc:type rdf:resource="http://purl.org/dc/dcmitype/StillImage"/><dc:title/></cc:Work></rdf:RDF></metadata><defs id="defs3499"><clipPath id="clipPath3505" clipPathUnits="userSpaceOnUse"><path id="path3507" d="m-35.7-6.4191,28.346,0,0,28.346-28.346,0,0-28.346z"/></clipPath><clipPath id="clipPath3515" clipPathUnits="userSpaceOnUse"><path id="path3517" clip-rule="evenodd" d="M-28.7,31-28.7,0,0,0,0,31-28.7,31z"/></clipPath></defs><g id="g3503" clip-path="url(#clipPath3505)" transform="matrix(1.25,0,0,-1.25,44.624625,27.40925)"><g id="g3509" transform="matrix(0.5,0,0,0.5,-13.812904,0.24022442)"><g id="g3511"><g id="g3513" clip-path="url(#clipPath3515)"><g id="g3519" transform="translate(-16.1,5.9)"><path id="path3521" fill-rule="evenodd" fill="param(fill) #ff0000" d="m0,0,0.1,6,0,0-9.6,3.9,0,0-0.4,0.5,0,0-0.2,1.2,0.1,0.3,0.3,0.3,0.2,0,0.3,0,0,0,9.2-1.5,0,0.3,0,5.9,0,0-3.5,2.1,0,0.3,0,0.9,0,0,0.3,0.5,0,0,0.6,0,0,0,1.1-0.2,0,0,1.2-0.3,0,0,1.5-0.3,0,0,0.3,0.9,0,0,0.5,0,0,0,0.4-0.9,0,0,1.4,0.3,0,0,1.5,0.3,0,0,1.5,0.3,0,0,0.3-0.6,0,0,0-1.2,0,0-3.6-2.1,0,0,0-6.2,0,0,6.5,1.1,0,0,1.8,0.4,0,0,1.5,0,0,0,0.3-0.3,0,0,0-1.7l-0.3-0.3-0.3-0.3-0.9-0.6-8.5-3-0.1-5.9v-0.3l-0.3-0.9-0.2-0.6-0.4-0.5-0.2-0.4-0.4-0.2h-0.5l-0.3,0.1-0.3,0.4-0.3,0.5-0.6,1.8z"/></g><g id="g3523" transform="translate(-15.5,4.1)"><path id="path3525" fill-rule="evenodd" fill="param(fill) #ff0000" d="m0,0,0.3-0.5,0,0,0.3-0.4,0,0,0.3-0.1,0,0,0.5,0,0,0,0.4,0.2,0,0,0.2,0.4,0,0,0.4,0.5,0,0,0.2,0.6,0,0,0.3,0.9,0,0,0,0.3,0,0,0.1,5.9,0,0,8.5,3,0.9,0.6,0,0,0.3,0.3,0.3,0.3,0,0,0,1.7,0,0-0.3,0.3,0,0-1.5,0,0,0-1.8-0.4,0,0-6.5-1.1,0,0,0,6.2,0,0,3.6,2.1,0,0,0,1.2,0,0-0.3,0.6,0,0-1.5-0.3,0,0-1.5-0.3,0,0-1.4-0.3,0,0-0.4,0.9,0,0-0.5,0,0,0-0.3-0.9,0,0-1.5,0.3,0,0-1.2,0.3,0,0-1.1,0.2,0,0-0.6,0,0,0-0.3-0.5,0,0,0-0.9,0-0.3,0,0,3.5-2.1,0,0,0-5.9,0-0.3,0,0-9.2,1.5,0,0-0.3,0-0.2,0,0,0-0.3-0.3-0.1-0.3,0,0,0.2-1.2,0,0,0.4-0.5,0,0,9.6-3.9,0,0-0.1-6,0,0l0.6-1.8z"/></g><g id="g3527" transform="translate(-15.5,4.1)"><path id="path3529" fill-rule="evenodd" fill="param(fill) #ff0000" d="m0,0,0.3-0.5,0,0,0.3-0.4,0,0,0.3-0.1,0,0,0.5,0,0,0,0.4,0.2,0,0,0.2,0.4,0,0,0.4,0.5,0,0,0.2,0.6,0,0,0.3,0.9,0,0,0,0.3,0,0,0.1,5.9,0,0,8.5,3,0,0,0.9,0.6,0,0,0.3,0.3,0,0,0.3,0.3,0,0,0,1.7,0,0-0.3,0.3,0,0-1.5,0,0,0-1.8-0.4,0,0-6.5-1.1,0,0,0,6.2,0,0,3.6,2.1,0,0,0,1.2,0,0-0.3,0.6,0,0-1.5-0.3,0,0-1.5-0.3,0,0-1.4-0.3,0,0-0.4,0.9,0,0-0.5,0,0,0-0.3-0.9,0,0-1.5,0.3,0,0-1.2,0.3,0,0-1.1,0.2,0,0-0.6,0,0,0-0.3-0.5,0,0,0-0.9,0-0.3,0,0,3.5-2.1,0,0,0-5.9,0,0,0-0.3,0,0-9.2,1.5,0,0-0.3,0-0.2,0,0,0-0.3-0.3-0.1-0.3,0,0,0.2-1.2,0,0,0.4-0.5,0,0,9.6-3.9,0,0-0.1-6,0,0l0.6-1.8z"/></g><g id="g3531" transform="translate(-15.5,4.1)"><path id="path3533" fill-rule="evenodd" fill="param(fill) #ff0000" d="m0,0,0.3-0.5,0,0,0.3-0.4,0,0,0.3-0.1,0,0,0.5,0,0,0,0.4,0.2,0,0,0.2,0.4,0,0,0.4,0.5,0,0,0.2,0.6,0,0,0.3,0.9,0,0,0,0.3,0,0,0.1,5.9,0,0,8.5,3,0,0,0.9,0.6,0,0,0.3,0.3,0,0,0.3,0.3,0,0,0,1.7,0,0-0.3,0.3,0,0-1.5,0,0,0-1.8-0.4,0,0-6.5-1.1,0,0,0,6.2,0,0,3.6,2.1,0,0,0,1.2,0,0-0.3,0.6,0,0-1.5-0.3,0,0-1.5-0.3,0,0-1.4-0.3,0,0-0.4,0.9,0,0-0.5,0,0,0-0.3-0.9,0,0-1.5,0.3,0,0-1.2,0.3,0,0-1.1,0.2,0,0-0.6,0,0,0-0.3-0.5,0,0,0-0.9,0-0.3,0,0,3.5-2.1,0,0,0-5.9,0,0,0-0.3,0,0-9.2,1.5,0,0-0.3,0,0,0-0.2,0,0,0-0.3-0.3-0.1-0.3,0,0,0.2-1.2,0,0,0.4-0.5,0,0,9.6-3.9,0,0-0.1-6,0,0l0.6-1.8z"/></g></g></g></g></g></svg>
