<?xml version="1.0" encoding="UTF-8" standalone="no"?>
<!-- Created with Inkscape (http://www.inkscape.org/) -->
<svg id="svg3535" xmlns:rdf="http://www.w3.org/1999/02/22-rdf-syntax-ns#" xmlns="http://www.w3.org/2000/svg" xml:space="preserve" height="35.433" width="35.433" version="1.1" xmlns:cc="http://creativecommons.org/ns#" xmlns:dc="http://purl.org/dc/elements/1.1/"><metadata id="metadata3541"><rdf:RDF><cc:Work rdf:about=""><dc:format>image/svg+xml</dc:format><dc:type rdf:resource="http://purl.org/dc/dcmitype/StillImage"/><dc:title/></cc:Work></rdf:RDF></metadata><defs id="defs3539"><clipPath id="clipPath3545" clipPathUnits="userSpaceOnUse"><path id="path3547" d="m-54.91,0,28.346,0,0,28.346-28.346,0,0-28.346z"/></clipPath><clipPath id="clipPath3555" clipPathUnits="userSpaceOnUse"><path id="path3557" clip-rule="evenodd" d="m-54.3,0,0,56.7h54.3v-56.7h-54.3z"/></clipPath></defs><g id="g3543" clip-path="url(#clipPath3545)" transform="matrix(1.25,0,0,-1.25,68.637875,35.433125)"><g id="g3549" transform="matrix(0,-0.5,0.5,0,-55.01004,0.475)"><g id="g3551"><g id="g3553" clip-path="url(#clipPath3555)"><g id="g3559" transform="translate(-29.2,18.5)"><path id="path3561" stroke-linejoin="miter" d="M0,0-11,0" stroke="param(outline) #000" stroke-linecap="round" stroke-miterlimit="3" stroke-dasharray="none" stroke-width="0.70899999" fill="none"/></g><g id="g3563" transform="translate(-29.2,18.5)"><path id="path3565" stroke-linejoin="miter" d="m0,0,0,18.4,13,0" stroke="param(outline) #000" stroke-linecap="round" stroke-miterlimit="3" stroke-dasharray="none" stroke-width="0.70899999" fill="none"/></g><g id="g3567" transform="translate(-29.2,18.5)"><path id="path3569" stroke-linejoin="miter" d="M0,0,13,0" stroke="param(outline) #000" stroke-linecap="round" stroke-miterlimit="3" stroke-dasharray="none" stroke-width="0.70899999" fill="none"/></g><g id="g3571" transform="translate(-29.2,36.9)"><path id="path3573" stroke-linejoin="miter" d="M0,0-11,0" stroke="param(outline) #000" stroke-linecap="round" stroke-miterlimit="3" stroke-dasharray="none" stroke-width="0.70899999" fill="none"/></g><g id="g3575" transform="translate(-1.8,24.5)"><path id="path3577" stroke-linejoin="miter" d="m0,0,0,0,0,8.4-0.5,0.5,0,2.5-0.5,0.5,0,1-0.5,0.5,0,1-0.5,0.5,0,1-0.5,0.5,0,0.5-0.5,0.5-0.5,0.5,0,0.5-0.5,0.5,0,0.5-0.5,0.5-0.5,0,0,0.5-0.5,0.5,0,0.5-0.5,0.5-0.4,0-0.5,0.5,0,0.5-0.5,0.5-0.5,0-0.5,0.5,0,0.5-0.5,0.5-0.5,0-0.5,0.5-0.5,0.5-0.5,0.5-0.5,0-0.5,0.5-0.5,0.5-0.5,0-0.5,0.5-0.5,0-0.5,0.5-0.5,0-0.5,0.5-0.5,0-0.5,0.5-0.5,0-0.5,0.5-1.5,0-0.5,0.5-3,0-0.5,0.5-6,0-0.5-0.5-3,0-0.5-0.5-1,0-0.5-0.5-1,0-0.5-0.5-0.5,0-0.5-0.5-0.5,0-0.5-0.5-0.5,0-0.5-0.5-0.5,0-0.5-0.5-0.5-0.5-0.5,0-0.5-0.5-0.5-0.5-0.5,0-0.5-0.5,0-0.5-0.5-0.5-0.5,0-0.5-0.5,0-0.5-0.5-0.5-0.5,0-0.5-0.5,0-0.5-0.5-0.5,0-0.5-0.5-0.5-0.5,0,0-1-0.5-0.5-0.5,0,0-1-0.5-0.5,0-0.5-0.5-0.5,0-0.5-0.5-0.5,0-1-0.5-0.5,0-1-0.5-0.5,0-1-0.5-0.5,0-2.5-0.5-0.5,0-6,0.5-0.5,0-2.4,0.5-0.5,0-1.5,0.5-0.5,0-1,0.5-0.5,0-0.5,0.5-0.5,0-1,0.5-0.5,0-0.5,0.5-0.5,0-0.5,0.5-0.5,0.5,0,0-1,0.5-0.5,0.5,0,0-1,0.5-0.5,0.5,0,0.5-0.5,0-0.5,0.5-0.5,0.5,0,0.5-0.5,0-0.5,0.5-0.5,0.5,0,0.5-0.5,0-0.5,0.5,0,0.5-0.5,0.5,0,0.5-0.5,0-0.5,1,0,0.5-0.5,0.5-0.5,0.5,0,0.5-0.5,0.5,0,0.5-0.5,1,0,0.5-0.5,1.5,0,0.5-0.5,2,0,0.5-0.5,3.5,0,0.5-0.5,0.5,0.5,3.5,0,0.5,0.5,2.5,0,0.5,0.5,1,0,0.5,0.5,1,0,0.5,0.5,0.5,0,0.5,0.5,0.5,0,0.5,0.5,0.5,0,0.5,0.5,0.5,0,0.5,0.5,0.5,0.5,0.5,0,0.5,0.5,0,0.5,0.5,0.5,0.5,0,0.5,0.5,0.5,0.5,0.5,0.5,0,0.5,0.5,0.5,0.5,0,0.4,0.5,0,0.5,0.5,0.5,0.5,0,0,0.5,0.5,0.5,0,0.5,0.5,0.5,0.5,0.5,0,0.5,0.5,0.5,0,0.5,0.5,0.5,0,0.5,0.5,0.5,0,0.5,0.5,0.5,0,0.5,0.5,0.5,0,1.5,0.5,0.5,0,2l0.5,0.5" stroke="param(outline) #000" stroke-linecap="round" stroke-miterlimit="3" stroke-dasharray="none" stroke-width="0.70899999" fill="none"/></g></g></g></g></g></svg>
