<?xml version="1.0" encoding="UTF-8" standalone="no"?>
<!-- Created with Inkscape (http://www.inkscape.org/) -->
<svg id="svg3579" xmlns:rdf="http://www.w3.org/1999/02/22-rdf-syntax-ns#" xmlns="http://www.w3.org/2000/svg" xml:space="preserve" height="35.433" width="35.433" version="1.1" xmlns:cc="http://creativecommons.org/ns#" xmlns:dc="http://purl.org/dc/elements/1.1/"><metadata id="metadata3585"><rdf:RDF><cc:Work rdf:about=""><dc:format>image/svg+xml</dc:format><dc:type rdf:resource="http://purl.org/dc/dcmitype/StillImage"/><dc:title/></cc:Work></rdf:RDF></metadata><defs id="defs3583"><clipPath id="clipPath3589" clipPathUnits="userSpaceOnUse"><path id="path3591" d="m-28.181,0,28.346,0,0,28.346-28.346,0,0-28.346z"/></clipPath><clipPath id="clipPath3599" clipPathUnits="userSpaceOnUse"><path id="path3601" clip-rule="evenodd" d="m0,0,0,56.7-18.7,0v-56.7h18.7z"/></clipPath></defs><g id="g3587" clip-path="url(#clipPath3589)" transform="matrix(1.25,0,0,-1.25,35.22625,35.433125)"><g id="g3593" transform="matrix(0.5,0,0,0.5,-9.0084215,-0.12011229)"><g id="g3595"><g id="g3597" clip-path="url(#clipPath3599)"><g id="g3603" transform="translate(-1.5,9.4)"><path id="path3605" stroke-linejoin="miter" d="m0,0,0,0,0,39.6-0.5,0.6,0,0.5-0.6,0.6-0.6,0.6-0.6,0.6-0.5,0-0.6,0.5-0.6,0.6-0.6,0-0.5,0.6-5.8,0-0.5-0.6-0.6-0.6-0.6,0-0.6-0.5,0-0.6-0.5-0.6-0.6,0,0-0.6-0.6-0.5,0-1.2-0.6-0.6,0-1.1-0.5-0.6,0-35,0.5-0.6,0-1.7,0.6-0.6,0-0.6,0.6-0.5,0-0.6,0.6-0.6,0.5,0,0.6-0.5,0-0.6,0.6,0,0.6-0.6,1.1,0,0.6-0.6,1.1,0,0.6-0.5,0.6,0.5,1.7,0,0.6,0.6,1.1,0,0.6,0.6,0.6,0,0.5,0.6,0,0.5,0.6,0.6,0,0.6,0.6,0.5,0.6,0,0,1.2l0.5,0.6" stroke="param(outline) #000" stroke-linecap="round" stroke-miterlimit="3" stroke-dasharray="none" stroke-width="0.70899999" fill="none"/></g></g></g></g></g></svg>
