<?xml version="1.0" encoding="UTF-8" standalone="no"?>
<!-- Created with Inkscape (http://www.inkscape.org/) -->
<svg id="svg3586" xmlns:rdf="http://www.w3.org/1999/02/22-rdf-syntax-ns#" xmlns="http://www.w3.org/2000/svg" xml:space="preserve" height="35.61" width="35.61" version="1.1" xmlns:cc="http://creativecommons.org/ns#" xmlns:dc="http://purl.org/dc/elements/1.1/"><metadata id="metadata3592"><rdf:RDF><cc:Work rdf:about=""><dc:format>image/svg+xml</dc:format><dc:type rdf:resource="http://purl.org/dc/dcmitype/StillImage"/><dc:title/></cc:Work></rdf:RDF></metadata><defs id="defs3590"><clipPath id="clipPath3600" clipPathUnits="userSpaceOnUse"><path id="path3602" clip-rule="evenodd" d="M0,28.488,0,0h28.488v28.488h-28.488z"/></clipPath><clipPath id="clipPath3610" clipPathUnits="userSpaceOnUse"><path id="path3612" clip-rule="evenodd" d="M0,28.488,0,0h28.488v28.488h-28.488z"/></clipPath></defs><g id="g3594" transform="matrix(1.25,0,0,-1.25,0,35.610237)"><g id="g3596"><g id="g3598" clip-path="url(#clipPath3600)"><path id="path3604" stroke-linejoin="round" d="m-1.4346-1.4689,0,31.395,31.322,0,0-31.395-31.322,0z" stroke="none" stroke-linecap="round" stroke-miterlimit="10" stroke-dasharray="none" stroke-width="0" fill="none"/></g></g><g id="g3606"><g id="g3608" clip-path="url(#clipPath3610)"><path id="path3618" d="m21.28,12.911,0.09747,0,0,1.4379-0.09747,0-0.4782,1.9172-1.1955,1.6776-1.6737,1.4379-2.1519,0.47931,0-0.13835-1.4346,0.12071,0,0.01764l-1.912-0.48-1.913-1.438-1.195-1.678-0.4782-1.917,0.1439-0.121-0.1207-1.438-0.0232,0.121,0.4782-2.157,1.1955-1.6776,1.9128-1.1983,1.9128-0.47931v0.017637l1.4346,0.12071v-0.13835l2.1519,0.47931,1.6737,1.1983,1.1955,1.6776zm-5.4994-3.8345,0,3.8345,3.8256,0-0.2391-1.4379-0.957-1.199-1.196-0.9583-1.434-0.2397zm-5.2602,3.8345,3.8256,0,0-3.8345-1.4346,0.23966-1.1955,0.95862-0.95641,1.1983-0.2391,1.4379zm3.8256,5.2724,0-3.8345-3.8256,0,0.2391,1.4379,0.95641,1.1983,1.1955,0.71897,1.4346,0.47931zm5.2602-3.8345-3.8256,0,0,3.8345,1.4346-0.47931,1.1955-0.71897,0.95641-1.1983,0.2391-1.4379z" fill-rule="evenodd" fill="param(fill) #000"/><text id="text3624" fill="none" transform="matrix(0.99768651,0,0,-1,21.2801,-17.28619)"><tspan id="tspan3626" style="writing-mode:lr;" font-weight="normal" fill-rule="nonzero" font-size="2.15691" font-variant="normal" y="0" x="0 1.6814839 2.16191403 2.88255923 4.083613 5.28466676 6.48572052 7.20636572 8.40741949 9.12806469 10.80954859 12.01060235 13.21165612" font-family="Arial" fill="none">Offshore Rock</tspan></text>
<text id="text3628" fill="none" transform="matrix(0.99768651,0,0,-1,21.2801,-42.92942)"><tspan id="tspan3630" style="writing-mode:lr;" font-weight="normal" fill-rule="nonzero" font-size="2.15691" font-variant="normal" y="0" x="0 1.92169896 2.64234416 4.083613 5.04445169" font-family="Arial" fill="none">Wreck</tspan></text>
</g></g></g></svg>
