<?xml version="1.0" encoding="UTF-8" standalone="no"?>
<!-- Created with Inkscape (http://www.inkscape.org/) -->
<svg id="svg3411" xmlns:rdf="http://www.w3.org/1999/02/22-rdf-syntax-ns#" xmlns="http://www.w3.org/2000/svg" xml:space="preserve" height="35.61" width="35.61" version="1.1" xmlns:cc="http://creativecommons.org/ns#" xmlns:dc="http://purl.org/dc/elements/1.1/"><metadata id="metadata3417"><rdf:RDF><cc:Work rdf:about=""><dc:format>image/svg+xml</dc:format><dc:type rdf:resource="http://purl.org/dc/dcmitype/StillImage"/><dc:title/></cc:Work></rdf:RDF></metadata><defs id="defs3415"><clipPath id="clipPath3425" clipPathUnits="userSpaceOnUse"><path id="path3427" clip-rule="evenodd" d="M0,28.488,0,0h28.488v28.488h-28.488z"/></clipPath><clipPath id="clipPath3435" clipPathUnits="userSpaceOnUse"><path id="path3437" clip-rule="evenodd" d="M0,28.488,0,0h28.488v28.488h-28.488z"/></clipPath></defs><g id="g3419" transform="matrix(1.25,0,0,-1.25,0,35.610237)"><g id="g3421"><g id="g3423" clip-path="url(#clipPath3425)"><path id="path3429" stroke-linejoin="round" d="m-1.4346-1.4689,0,31.395,31.322,0,0-31.395-31.322,0z" stroke="#none" stroke-linecap="round" stroke-miterlimit="10" stroke-dasharray="none" stroke-width="0.95641" fill="none"/></g></g><g id="g3431"><g id="g3433" fill-rule="evenodd" clip-path="url(#clipPath3435)"><path id="path3451" d="m21.731,16.635-5.7385,0-1.4346,4.7931-1.6737-4.7931-5.2602,0,4.3038-3.3552-1.9128-5.2724,4.5429,3.3552,4.5429-3.3552-1.9128,5.2724,4.5429,3.3552z" fill="param(fill) #ff0"/><path id="path3453" d="m17.906,13.04,5.2602,3.8345-6.4558,0-2.1519,6.2311-1.9128-6.2311-6.6949,0,5.2602-3.8345-1.9128-6.2311,5.2602,3.8345,5.2602-3.8345-1.9128,6.2311zm-2.1519,2.6362,4.0647,0-3.3474-2.3966,1.4346-3.5948-3.3474,2.3966-3.1083-2.3966,1.1955,3.8345-3.3474,2.1569,4.0647,0,1.1955,3.8345,1.1955-3.8345z" stroke="param(stroke) #000"/></g></g></g></svg>
