<?xml version="1.0" encoding="UTF-8" standalone="no"?>
<!-- Created with Inkscape (http://www.inkscape.org/) -->
<svg id="svg3179" xmlns:rdf="http://www.w3.org/1999/02/22-rdf-syntax-ns#" xmlns="http://www.w3.org/2000/svg" xml:space="preserve" height="35.433" width="35.433" version="1.1" xmlns:cc="http://creativecommons.org/ns#" xmlns:dc="http://purl.org/dc/elements/1.1/"><metadata id="metadata3185"><rdf:RDF><cc:Work rdf:about=""><dc:format>image/svg+xml</dc:format><dc:type rdf:resource="http://purl.org/dc/dcmitype/StillImage"/><dc:title/></cc:Work></rdf:RDF></metadata><defs id="defs3183"><clipPath id="clipPath3189" clipPathUnits="userSpaceOnUse"><path id="path3191" d="m-51.285,0,28.346,0,0,28.346-28.346,0,0-28.346z"/></clipPath><clipPath id="clipPath3199" clipPathUnits="userSpaceOnUse"><path id="path3201" clip-rule="evenodd" d="M-49.5,56.7-49.5,0,0,0v56.7h-49.5z"/></clipPath></defs><g id="g3187" clip-path="url(#clipPath3189)" transform="matrix(1.25,0,0,-1.25,64.105875,35.433125)"><g id="g3193" fill="param(fill) #000" transform="matrix(0,-0.5,0.5,0,-51.282794,0.30921399)"><g id="g3195" fill="param(fill) #000"><g id="g3197" fill="param(fill) #000" clip-path="url(#clipPath3199)"><g id="g3203" transform="translate(-48.1,29)"><path id="path3205" stroke-linejoin="miter" d="m0,0,0.6,0,0,1.9,0.7,0,0,1.8,0.6,0,0,1.3,0.6,0,0,1.8,0.6,0,0,1.9,0.6,0,0,1.9,0.7,0,0,1.2,0.6,0,0,1.9,0.6,0,0,1.8,0.6,0,0,1.9,0.6,0,0,1.2,0.7,0,0,1.9,0.6,0,0,1.8,0.6,0,0,0.7,1.9,0,0-47.8-1.3,0,0-0.6-0.6,0,0,1.2-0.6,0,0,1.3-0.6,0,0,1.8-0.7,0,0,1.9-0.6,0,0,1.9-0.6,0,0,1.2-0.6,0,0,1.9-0.6,0,0,1.8-0.7,0,0,1.9-0.6,0,0,1.2-0.6,0,0,1.9-0.6,0,0,1.8-0.6,0,0,1.3-0.7,0,0,1.8-0.6,0,0,2.5,3.1,1.9,0-0.6,3.7,0,0-0.7,0.7,0,0-3.7-0.7,0,0-0.6-3.1,0,0-1.9,0.7,0,0-1.2,0.6,0,0-1.9,0.6,0,0-1.2,0.6,0,0-1.9,0.6,0,0-1.2,0.7,0,0-1.9,0.6,0,0-1.2,0.6,0,0,14.9-0.6,0,0,15.5-0.6,0,0-1.9-0.7,0,0-1.8-0.6,0,0-1.9-0.6,0,0-1.9h-0.6v-1.8h-0.6v-1.3h-0.7v-1.8h-0.6l-0.6-1.9v-2.5h0.6v2.5h-0.6l0.6-3.1v-0.6h0.6v0.6h-0.6" stroke="param(outline) #0F0" stroke-linecap="round" stroke-miterlimit="3" stroke-dasharray="none" stroke-width="0.70899999000000002" fill="param(fill) #000"/></g><g id="g3207" transform="translate(-36.3,38.3)"><path id="path3209" stroke-linejoin="miter" d="m0,0,1.9,0,0-1.8,6.8,0,0,0.6,14.9,0,0-6.8-3.8,0,0,0.6-13.6,0,0,0.6-4.3,0,0-1.9-1.9,0,0,8.7" stroke="param(outline) #0F0" stroke-linecap="round" stroke-miterlimit="3" stroke-dasharray="none" stroke-width="0.70899999000000002" fill="param(fill) #000"/></g><g id="g3211" transform="translate(-36.3,50.1)"><path id="path3213" stroke-linejoin="miter" d="m0,0,1.9,0,0-1.9,4.3,0,0,0.7,13,0,0,0.6,4.4,0,0-6.8-14.9,0,0,0.6-6.8,0,0-1.9-1.9,0,0,8.7" stroke="param(outline) #0F0" stroke-linecap="round" stroke-miterlimit="3" stroke-dasharray="none" stroke-width="0.70899999000000002" fill="param(fill) #000"/></g><g id="g3215" transform="translate(-36.3,26.5)"><path id="path3217" stroke-linejoin="miter" d="m0,0,1.9,0,0-1.8,9.3,0,0,0.6,12.4,0,0-6.8-4.4,0,0,0.6-13.6,0,0,0.6-3.7,0,0-1.8-1.9,0,0,8.6" stroke="param(outline) #0F0" stroke-linecap="round" stroke-miterlimit="3" stroke-dasharray="none" stroke-width="0.70899999000000002" fill="param(fill) #000"/></g><g id="g3219" transform="translate(-36.3,14.1)"><path id="path3221" stroke-linejoin="miter" d="m0,0,0.6,0,0,0.7,0.6,0,0-0.7,0.7,0,0-1.2,12.4,0,0,0.6,9.3,0,0-6.8-8.7,0,0,0.6-13,0,0-1.8-1.9,0,0,8.6" stroke="param(outline) #0F0" stroke-linecap="round" stroke-miterlimit="3" stroke-dasharray="none" stroke-width="0.70899999000000002" fill="param(fill) #000"/></g><g id="g3223" transform="translate(-9.6,52.6)"><path id="path3225" stroke-linejoin="miter" d="M0,0,2.4,0,2.4-49,0-49,0,0" stroke="param(outline) #0F0" stroke-linecap="round" stroke-miterlimit="3" stroke-dasharray="none" stroke-width="0.70899999000000002" fill="param(fill) #000"/></g><g id="g3227" transform="translate(-12.1,49.5)"><path id="path3229" stroke-linejoin="miter" d="m0,0,1.9,0,0-42.8-1.9,0v42.8" stroke="param(outline) #0F0" stroke-linecap="round" stroke-miterlimit="3" stroke-dasharray="none" stroke-width="0.70899999000000002" fill="param(fill) #000"/></g><g id="g3231" transform="translate(-5.9,54.4)"><path id="path3233" stroke-linejoin="miter" d="m0,0,2.5,0,0-52.7-2.5,0v52.7" stroke="param(outline) #0F0" stroke-linecap="round" stroke-miterlimit="3" stroke-dasharray="none" stroke-width="0.70899999000000002" fill="param(fill) #000"/></g></g></g></g></g></svg>
