<?xml version="1.0" encoding="UTF-8" standalone="no"?>
<!-- Created with Inkscape (http://www.inkscape.org/) -->
<svg id="svg3235" xmlns:rdf="http://www.w3.org/1999/02/22-rdf-syntax-ns#" xmlns="http://www.w3.org/2000/svg" xml:space="preserve" height="35.433" width="35.433" version="1.1" xmlns:cc="http://creativecommons.org/ns#" xmlns:dc="http://purl.org/dc/elements/1.1/"><metadata id="metadata3241"><rdf:RDF><cc:Work rdf:about=""><dc:format>image/svg+xml</dc:format><dc:type rdf:resource="http://purl.org/dc/dcmitype/StillImage"/><dc:title/></cc:Work></rdf:RDF></metadata><defs id="defs3239"><clipPath id="clipPath3245" clipPathUnits="userSpaceOnUse"><path id="path3247" d="m-0.42624,0,28.346,0,0,28.346-28.346,0,0-28.346z"/></clipPath><clipPath id="clipPath3255" clipPathUnits="userSpaceOnUse"><path id="path3257" clip-rule="evenodd" d="M55,0,0,0,0,56.7,55,56.7,55,0z"/></clipPath></defs><g id="g3243" clip-path="url(#clipPath3245)" transform="matrix(1.25,0,0,-1.25,0.53279875,35.433125)"><g id="g3249" transform="scale(0.5,0.5)"><g id="g3251"><g id="g3253" clip-path="url(#clipPath3255)"><g id="g3259" transform="translate(27.6,51.5)"><path id="path3261" stroke-linejoin="miter" d="m0,0-0.6,0,0-0.6-0.6,0,0-0.6-0.5,0,0-0.6-0.6,0,0-0.5-0.6,0,0-0.6-0.5,0,0-0.6-0.6,0,0-0.5-0.6,0,0-0.6-0.6,0,0-0.6-0.5,0,0-0.6-0.6,0,0-0.5-0.6,0,0-0.6-0.5,0,0-0.6-0.6,0,0-0.6-0.6,0,0-0.5-0.6,0,0-0.6-0.5,0,0-0.6-0.6,0,0-0.5-0.6,0,0-0.6-0.6,0,0-0.6-0.5,0,0-0.6-0.6,0,0-0.5-0.6,0,0-0.6-0.5,0,0-0.6-0.6,0,0-0.5-0.6,0,0-0.6-0.6,0,0-0.6-0.5,0,0-0.6-0.6,0,0-0.5-0.6,0,0-0.6-0.5,0,0-0.6-0.6,0,0-0.5-0.6,0,0-0.6,3.4,0,0-27.5,29.8,0,0,27.5,3.4,0,0,0.6-0.6,0,0,0.5-0.5,0,0,0.6-0.6,0,0,0.6-0.6,0,0,1.1-0.5,0,0,0.6-0.6,0,0,0.6-0.6,0,0,0.5-0.6,0,0,0.6-0.5,0,0,12.6-2.9,0,0-9.2-1.1,0,0,0.6-0.6,0,0,0.6-0.6,0,0,0.5-0.6,0,0,0.6-0.5,0,0,0.6-0.6,0,0,0.6-0.6,0,0,0.5-0.5,0,0,0.6-0.6,0,0,0.6-0.6,0,0,1.1-0.6,0,0,0.6-0.5,0,0,0.6-0.6,0,0,0.5-0.6,0,0,0.6-0.5,0,0,0.6-0.6,0,0,0.6" stroke="param(outline) #000" stroke-linecap="round" stroke-miterlimit="3" stroke-dasharray="none" stroke-width="0.709" fill="none"/></g><g id="g3263" transform="translate(27.6,55.5)"><path id="path3265" stroke-linejoin="miter" d="m0,0,0-0.6,0.6,0,0-0.6,0.5,0,0-0.6,0.6,0,0-0.5,0.6,0,0-0.6,0.5,0,0-0.6,0.6,0,0-0.5,0.6,0,0-0.6,0.6,0,0-0.6,0.5,0,0-0.6,0.6,0,0-0.5,0.6,0,0,4.5,9.7,0,0-14.8,0.6,0,0-0.6,0.5,0,0-0.6,0.6,0,0-0.5,0.6,0,0-0.6,0.6,0,0-0.6,0.5,0,0-0.6,0.6,0,0-0.5,0.6,0,0-0.6,0.6,0,0-0.6,0.5,0,0-0.5,0.6,0,0-0.6,0.6,0,0-0.6,0.5,0,0-0.6,0.6,0,0-0.5,0.6,0,0-0.6,0.6,0,0-1.1-0.6,0,0,0.5-6.9,0,0-27.4-36.6,0,0,27.4-6.3,0,0-0.5-0.6,0,0,1.1,0.6,0,0,0.6,0.6,0,0,0.5,0.6,0,0,0.6,0.5,0,0,0.6,0.6,0,0,0.6,0.6,0,0,0.5,0.6,0,0,0.6,0.5,0,0,0.6,0.6,0,0,0.5,0.6,0,0,0.6,0.5,0,0,0.6,0.6,0,0,0.6,0.6,0,0,0.5,0.6,0,0,0.6,0.5,0,0,0.6,0.6,0,0,0.5,0.6,0,0,0.6,0.5,0,0,0.6,0.6,0,0,0.6,0.6,0,0,0.5,0.6,0,0,0.6,0.5,0,0,0.6,0.6,0,0,0.5,0.6,0,0,0.6,0.5,0,0,1.2,0.6,0,0,0.5,0.6,0,0,0.6,0.6,0,0,0.6,0.5,0,0,0.6,0.6,0,0,0.5,0.6,0,0,0.6,0.6,0,0,0.6,0.5,0,0,0.5,0.6,0,0,0.6,0.6,0,0,0.6,0.5,0,0,0.6,0.6,0,0,0.5,0.6,0,0,0.6,0.6,0,0,0.6,0.5,0,0,0.5,0.6,0,0,0.6,0.6,0,0,0.6,0.5,0,0,0.6,1.2,0" stroke="param(outline) #000" stroke-linecap="round" stroke-miterlimit="3" stroke-dasharray="none" stroke-width="0.709" fill="none"/></g></g></g></g><path id="path3270" fill="param(fill) #000" d="M17.5,3.0938c-0.121,0-0.219,0.0948-0.219,0.2187s-0.099,0.2187-0.187,0.2187c-0.175,0-0.594,0.3754-0.594,0.5313,0,0.1253-0.375,0.5313-0.5,0.5313s-0.531,0.4059-0.531,0.5312-0.406,0.5312-0.531,0.5312c-0.126,0-0.532,0.3748-0.532,0.5,0,0.1253-0.406,0.5313-0.531,0.5313s-0.5,0.406-0.5,0.5313c0,0.1558-0.419,0.5312-0.594,0.5312-0.088,0-0.156,0.0678-0.156,0.1562,0,0.175-0.375,0.5938-0.531,0.5938-0.126,0-0.532,0.406-0.532,0.5312,0,0.1253-0.405,0.5313-0.531,0.5313-0.156,0-0.531,0.3875-0.531,0.5625,0,0.088-0.07,0.187-0.156,0.187-0.204,0-0.8752,0.672-0.8752,0.876,0,0.086-0.0678,0.156-0.1563,0.156-0.2079,0-0.5937,0.386-0.5937,0.594,0,0.088-0.0678,0.156-0.1563,0.156-0.175,0-0.5937,0.375-0.5937,0.531,0,0.125-0.406,0.531-0.5313,0.531s-0.5313,0.406-0.5313,0.532c0,0.125-0.4059,0.531-0.5312,0.531-0.2091,0-0.5312,0.424-0.5312,0.719,0,0.284,0.0995,0.312,1.0624,0.312h1.0626v8.562,8.563h9.4372,9.469v-8.563-8.562h1.063c0.958,0,1.031-0.032,1.031-0.312,0-0.32-0.602-1.032-0.875-1.032-0.087,0-0.156-0.095-0.156-0.218,0-0.124-0.074-0.25-0.157-0.25-0.082,0-0.156-0.096-0.156-0.219s-0.411-0.603-0.906-1.094l-0.907-0.906v-3.844-3.8438h-1.031-1.062v2.875c0,2.4357-0.027,2.8438-0.219,2.8438-0.124,0-0.219-0.0678-0.219-0.1562,0-0.175-0.375-0.5938-0.531-0.5938-0.125,0-0.531-0.406-0.531-0.5312,0-0.1559-0.419-0.5313-0.594-0.5313-0.088,0-0.156-0.0699-0.156-0.1563,0-0.2038-0.703-0.875-0.907-0.875-0.086,0-0.156-0.1261-0.156-0.25,0-0.1238-0.042-0.2187-0.125-0.2187-0.082,0-0.156-0.1161-0.156-0.2813,0-0.1668-0.094-0.3124-0.219-0.3124-0.124,0-0.25-0.07-0.25-0.1563,0-0.2038-0.671-0.9063-0.875-0.9063-0.086,0-0.156-0.0708-0.156-0.1562,0-0.2332-0.873-1.0312-1.125-1.0312zm0.062,0.75c0.342,0,0.75,0.3254,0.75,0.5937,0,0.0885,0.07,0.1563,0.157,0.1563,0.204,0,0.906,0.7024,0.906,0.9062,0,0.0863,0.095,0.1562,0.219,0.1562,0.125,0,0.218,0.1145,0.218,0.2813,0,0.1652,0.074,0.3125,0.157,0.3125,0.082,0,0.156,0.0949,0.156,0.2188,0,0.1238,0.07,0.2187,0.156,0.2187,0.204,0,0.875,0.7024,0.875,0.9063,0,0.0863,0.099,0.1562,0.188,0.1562,0.175,0,0.562,0.3754,0.562,0.5312,0,0.1253,0.406,0.5313,0.532,0.5313,0.155,0,0.531,0.3875,0.531,0.5625,0,0.0885,0.242,0.1875,0.531,0.1875h0.531v-2.875-2.8437h0.75,0.75v3.875c0,3.6982-0.005,3.8872,0.281,4.0932,0.166,0.12,0.313,0.301,0.313,0.407,0,0.105,0.068,0.187,0.156,0.187,0.208,0,0.594,0.386,0.594,0.594,0,0.088,0.095,0.156,0.219,0.156,0.125,0,0.218,0.115,0.218,0.282,0,0.165,0.074,0.312,0.157,0.312,0.082,0,0.156,0.095,0.156,0.219s0.068,0.25,0.156,0.25c0.208,0,0.594,0.354,0.594,0.562,0,0.097-0.366,0.188-0.906,0.188h-0.907v8.531,8.562h-9.156-9.156v-8.562-8.531h-0.9062c-0.7007,0-0.875-0.075-0.875-0.25,0-0.124,0.0677-0.219,0.1562-0.219,0.175,0,0.5938-0.375,0.5938-0.531,0-0.126,0.3747-0.531,0.5-0.531,0.1252,0,0.5312-0.375,0.5312-0.5,0-0.156,0.4188-0.532,0.5938-0.532,0.0884,0,0.1562-0.069,0.1562-0.156,0-0.205,1.451-1.656,1.656-1.656,0.087,0,0.156-0.068,0.156-0.156,0-0.175,0.376-0.5942,0.532-0.5942,0.125,0,0.531-0.406,0.531-0.5313s0.375-0.5,0.5-0.5c0.156,0,0.531-0.4188,0.531-0.5937,0-0.0885,0.068-0.1563,0.156-0.1563,0.175,0,0.594-0.3754,0.594-0.5313,0-0.1252,0.406-0.5312,0.532-0.5312,0.125,0,0.531-0.406,0.531-0.5312,0-0.1253,0.406-0.5313,0.531-0.5313s0.5-0.406,0.5-0.5313c0-0.1252,0.406-0.5,0.531-0.5,0.126,0,0.531-0.4059,0.531-0.5312,0-0.2122,0.447-0.5312,0.75-0.5312z" transform="matrix(0.8,0,0,-0.8,-0.426239,28.3465)"/><path id="path3273" fill="param(fill) #000" d="m7.9574,23.812,0-8.558-1.051,0c-0.96297,0-1.051-0.02604-1.051-0.311,0-0.2944,0.31642-0.73998,0.52549-0.73998,0.12528,0,0.52549-0.40022,0.52549-0.52549,0-0.12528,0.40022-0.52549,0.52549-0.52549,0.12528,0,0.52549-0.40022,0.52549-0.52549,0-0.15589,0.41486-0.52549,0.58984-0.52549,0.088476,0,0.16086-0.07239,0.16086-0.16086,0-0.20787,0.38197-0.58984,0.58984-0.58984,0.088476,0,0.16086-0.07063,0.16086-0.15696,0-0.20381,0.69021-0.89402,0.89402-0.89402,0.08633,0,0.15696-0.07239,0.15696-0.16086,0-0.17498,0.3696-0.58984,0.52549-0.58984,0.12528,0,0.52549-0.40022,0.52549-0.52549,0-0.12528,0.40022-0.52549,0.52549-0.52549,0.15589,0,0.52549-0.41486,0.52549-0.58984,0-0.088476,0.07239-0.16086,0.16086-0.16086,0.17498,0,0.58984-0.3696,0.58984-0.52549,0-0.12528,0.40022-0.52549,0.52549-0.52549,0.12528,0,0.52549-0.40022,0.52549-0.52549,0-0.12528,0.40022-0.52549,0.52549-0.52549,0.12528,0,0.52549-0.40022,0.52549-0.52549,0-0.15589,0.41486-0.52549,0.58984-0.52549,0.08848,0,0.16095-0.050672,0.16105-0.11261,0.000312-0.19189,0.70083-0.93838,0.88059-0.93838,0.09361,0,0.17021-0.10134,0.17021-0.22521s0.09901-0.22521,0.22003-0.22521c0.25219,0,1.1312,0.81275,1.1312,1.0459,0,0.08536,0.07063,0.1552,0.15696,0.1552,0.20381,0,0.89402,0.69021,0.89402,0.89402,0,0.086331,0.10134,0.15696,0.22521,0.15696,0.12512,0,0.22521,0.13346,0.22521,0.30028,0,0.16515,0.06756,0.30028,0.15014,0.30028s0.15014,0.10134,0.15014,0.22521,0.07063,0.22521,0.15696,0.22521c0.20381,0,0.89402,0.69021,0.89402,0.89402,0,0.086331,0.07239,0.15696,0.16086,0.15696,0.17498,0,0.58984,0.3696,0.58984,0.52549,0,0.12528,0.40022,0.52549,0.52549,0.52549,0.15589,0,0.52549,0.41486,0.52549,0.58984,0,0.088476,0.10134,0.16086,0.22521,0.16086,0.19228,0,0.22521-0.41706,0.22521-2.8527v-2.8527h1.051,1.051v3.8387,3.8387l0.90084,0.89249c0.49546,0.49087,0.90084,0.99302,0.90084,1.1159s0.06756,0.22341,0.15014,0.22341,0.15014,0.10134,0.15014,0.22521c0,0.12386,0.07063,0.22521,0.15696,0.22521,0.27359,0,0.89402,0.72462,0.89402,1.0442,0,0.28013-0.09231,0.3071-1.051,0.3071h-1.051v8.558,8.558h-9.4588-9.4588v-8.558zm18.617-0.30028,0-8.558,0.81691,0c0.4493,0,0.85899-0.06808,0.91042-0.15129,0.10443-0.16896-0.26575-0.59941-0.51548-0.59941-0.08848,0-0.16086-0.10134-0.16086-0.22521,0-0.12386-0.06756-0.22521-0.15014-0.22521s-0.15014-0.13513-0.15014-0.30028c0-0.16682-0.10009-0.30028-0.22521-0.30028-0.12387,0-0.22521-0.07239-0.22521-0.16086,0-0.20787-0.38197-0.58984-0.58984-0.58984-0.08848,0-0.16086-0.08643-0.16086-0.19207s-0.13513-0.28946-0.30028-0.4085c-0.28692-0.2068-0.30028-0.38867-0.30028-4.0869v-3.8705h-0.7507-0.7507v2.8527,2.8527h-0.52549c-0.28902,0-0.52549-0.072389-0.52549-0.16086,0-0.17498-0.3696-0.58984-0.52549-0.58984-0.12528,0-0.52549-0.40022-0.52549-0.52549,0-0.15589-0.41486-0.52549-0.58984-0.52549-0.08848,0-0.16086-0.070634-0.16086-0.15696,0-0.20381-0.69021-0.89402-0.89402-0.89402-0.08633,0-0.15696-0.10134-0.15696-0.22521s-0.06756-0.22521-0.15014-0.22521-0.15014-0.13513-0.15014-0.30028c0-0.16682-0.10009-0.30028-0.22521-0.30028-0.12387,0-0.22521-0.070634-0.22521-0.15696,0-0.20381-0.69021-0.89402-0.89402-0.89402-0.08633,0-0.15696-0.072389-0.15696-0.16086,0-0.26827-0.40927-0.58984-0.7507-0.58984-0.30308,0-0.7507,0.31334-0.7507,0.52549,0,0.12528-0.40022,0.52549-0.52549,0.52549-0.12528,0-0.52549,0.40022-0.52549,0.52549,0,0.12528-0.40022,0.52549-0.52549,0.52549-0.12528,0-0.52549,0.40022-0.52549,0.52549,0,0.12528-0.40022,0.52549-0.52549,0.52549-0.12528,0-0.52549,0.40022-0.52549,0.52549,0,0.15589-0.41486,0.52549-0.58984,0.52549-0.08847,0-0.16086,0.072389-0.16086,0.16086,0,0.17498-0.3696,0.58984-0.52549,0.58984-0.12528,0-0.52549,0.40022-0.52549,0.52549,0,0.12528-0.40022,0.52549-0.52549,0.52549-0.15589,0-0.52549,0.41486-0.52549,0.58984,0,0.08848-0.06435,0.16086-0.14299,0.16086-0.18638,0-1.6587,1.4723-1.6587,1.6587,0,0.07864-0.072389,0.14299-0.16086,0.14299-0.17498,0-0.58984,0.3696-0.58984,0.52549,0,0.12528-0.40022,0.52549-0.52549,0.52549-0.12528,0-0.52549,0.40022-0.52549,0.52549,0,0.15589-0.41486,0.52549-0.58984,0.52549-0.088476,0-0.16086,0.10134-0.16086,0.22521,0,0.17516,0.20019,0.22521,0.90084,0.22521h0.90084v8.558,8.558h9.1586,9.1586v-8.558z" transform="matrix(0.8,0,0,-0.8,-0.426239,28.3465)"/><path id="path3275" fill="param(fill) #000" d="m6.3059,25.164,0-8.558-2.0644-0.01186c-1.1354-0.0065-1.9643-0.05115-1.8419-0.09919,0.30173-0.11844,0.60324-0.43278,0.60324-0.62892,0-0.08848,0.072389-0.16086,0.16086-0.16086,0.20787,0,0.58984-0.38197,0.58984-0.58984,0-0.08847,0.070634-0.16086,0.15696-0.16086,0.20381,0,0.89402-0.69021,0.89402-0.89402,0-0.08633,0.070634-0.15696,0.15696-0.15696,0.20381,0,0.89402-0.69021,0.89402-0.89402,0-0.08633,0.072389-0.15696,0.16086-0.15696,0.20787,0,0.58984-0.38197,0.58984-0.58984,0-0.08848,0.072389-0.16086,0.16086-0.16086,0.17498,0,0.58984-0.3696,0.58984-0.52549,0-0.12528,0.40022-0.52549,0.52549-0.52549,0.12528,0,0.52549-0.40022,0.52549-0.52549,0-0.12528,0.40022-0.52549,0.52549-0.52549,0.12528,0,0.52549-0.40022,0.52549-0.52549,0-0.12528,0.40022-0.52549,0.52549-0.52549,0.15589,0,0.52549-0.41486,0.52549-0.58984,0-0.088476,0.10134-0.16086,0.22521-0.16086,0.12771,0,0.22521-0.13465,0.22521-0.31101,0-0.2944,0.31642-0.73998,0.52549-0.73998,0.12528,0,0.52549-0.40022,0.52549-0.52549,0-0.12528,0.40022-0.52549,0.52549-0.52549,0.15589,0,0.52549-0.41486,0.52549-0.58984,0-0.088476,0.07239-0.16086,0.16086-0.16086,0.17498,0,0.58984-0.3696,0.58984-0.52549s0.41486-0.52549,0.58984-0.52549c0.08848,0,0.16086-0.070634,0.16086-0.15696,0-0.20381,0.69021-0.89402,0.89402-0.89402,0.08633,0,0.15696-0.070634,0.15696-0.15696,0-0.20381,0.69021-0.89402,0.89402-0.89402,0.08633,0,0.15696-0.076529,0.15696-0.17006,0-0.093536,0.12455-0.27933,0.27678-0.41289,0.15223-0.13355,0.3158-0.34417,0.3635-0.46803,0.06921-0.17975,0.08911-0.17217,0.09857,0.037535,0.0065,0.14451,0.08424,0.26275,0.17272,0.26275,0.20787,0,0.58984,0.38197,0.58984,0.58984,0,0.088475,0.07063,0.16086,0.15696,0.16086,0.20381,0,0.89402,0.69021,0.89402,0.89402,0,0.086331,0.08643,0.15696,0.19206,0.15696,0.10564,0,0.28946,0.13513,0.4085,0.30028s0.30286,0.30028,0.4085,0.30028,0.19207,0.086429,0.19207,0.19207,0.13513,0.28946,0.30028,0.4085c0.16516,0.11904,0.30028,0.30286,0.30028,0.4085,0,0.11941,0.19879,0.19207,0.52549,0.19207h0.52549v-1.4263-1.4263h2.7025,2.7025v4.5793c0,3.9704,0.02995,4.5793,0.22521,4.5793,0.12387,0,0.22521,0.08643,0.22521,0.19207s0.13513,0.28946,0.30028,0.4085c0.16516,0.11904,0.30028,0.30286,0.30028,0.4085s0.07239,0.19207,0.16086,0.19207c0.17498,0,0.58984,0.3696,0.58984,0.52549,0,0.12528,0.40022,0.52549,0.52549,0.52549,0.15589,0,0.52549,0.41486,0.52549,0.58984,0,0.08848,0.07063,0.16086,0.15696,0.16086,0.20381,0,0.89402,0.69021,0.89402,0.89402,0,0.08633,0.07239,0.15696,0.16086,0.15696,0.17498,0,0.58984,0.3696,0.58984,0.52549,0,0.14029,0.34506,0.46324,0.60324,0.56458,0.12239,0.04804-0.77403,0.09268-1.992,0.0992l-2.2146,0.01185v8.558,8.558h-11.11-11.11v-8.558zm20.719-1.2011,0-8.558,1.051,0,1.051,0,0-0.45725c0-0.45028-0.55695-1.1943-0.89402-1.1943-0.08633,0-0.15696-0.10134-0.15696-0.22521s-0.06756-0.22521-0.15014-0.22521-0.15014-0.13513-0.15014-0.30028c0-0.16682-0.10009-0.30028-0.22521-0.30028-0.12387,0-0.22521-0.07239-0.22521-0.16086,0-0.17498-0.3696-0.58984-0.52549-0.58984s-0.52549-0.41486-0.52549-0.58984c0-0.08848-0.06756-0.16086-0.15014-0.16086-0.09624,0-0.15014-1.4013-0.15014-3.9036v-3.9036h-1.2011-1.2011l-0.01185,2.8902c-0.0065,1.5896-0.05116,2.7901-0.0992,2.6677-0.10135-0.25818-0.42429-0.60324-0.56459-0.60324-0.12528,0-0.52549-0.40022-0.52549-0.52549,0-0.15589-0.41486-0.52549-0.58984-0.52549-0.08848,0-0.16086-0.070634-0.16086-0.15696,0-0.20381-0.69021-0.89402-0.89402-0.89402-0.08633,0-0.15696-0.10134-0.15696-0.22521s-0.06756-0.22521-0.15014-0.22521-0.15014-0.13513-0.15014-0.30028c0-0.16682-0.10009-0.30028-0.22521-0.30028-0.12387,0-0.22521-0.072389-0.22521-0.16086,0-0.17498-0.3696-0.58984-0.52549-0.58984-0.12528,0-0.52549-0.40022-0.52549-0.52549,0-0.15589-0.41486-0.52549-0.58984-0.52549-0.08848,0-0.16086-0.10134-0.16086-0.22521,0-0.15014-0.15014-0.22521-0.45042-0.22521s-0.45042,0.07507-0.45042,0.22521c0,0.12387-0.07239,0.22521-0.16086,0.22521-0.17498,0-0.58984,0.3696-0.58984,0.52549,0,0.12528-0.40022,0.52549-0.52549,0.52549-0.12528,0-0.52549,0.40022-0.52549,0.52549,0,0.12528-0.40022,0.52549-0.52549,0.52549-0.12528,0-0.52549,0.40022-0.52549,0.52549,0,0.12528-0.40022,0.52549-0.52549,0.52549-0.12528,0-0.52549,0.40022-0.52549,0.52549,0,0.15589-0.41486,0.52549-0.58984,0.52549-0.08848,0-0.16086,0.072389-0.16086,0.16086,0,0.17498-0.3696,0.58984-0.52549,0.58984-0.12528,0-0.52549,0.40022-0.52549,0.52549,0,0.12528-0.40022,0.52549-0.52549,0.52549-0.12528,0-0.52549,0.40022-0.52549,0.52549,0,0.15589-0.41486,0.52549-0.58984,0.52549-0.088476,0-0.16086,0.07239-0.16086,0.16086,0,0.20786-0.38197,0.58984-0.58984,0.58984-0.088476,0-0.16086,0.07239-0.16086,0.16086,0,0.17498-0.3696,0.58984-0.52549,0.58984-0.12528,0-0.52549,0.40022-0.52549,0.52549,0,0.12528-0.40022,0.52549-0.52549,0.52549-0.12528,0-0.52549,0.40022-0.52549,0.52549,0,0.12528-0.40022,0.52549-0.52549,0.52549-0.24624,0-0.52549,0.47301-0.52549,0.89012v0.46115h1.051,1.051v8.558,8.558h9.609,9.609v-8.558z" transform="matrix(0.8,0,0,-0.8,-0.426239,28.3465)"/><path id="path3279" fill="param(fill) #000" d="m3.3248,15.469,0-0.17596,0.17592,0,0.17592,0-0.065187,0.08453c-0.035853,0.04649-0.11502,0.12567-0.17592,0.17596l-0.11073,0.09143v-0.17596z" transform="matrix(0.8,0,0,-0.8,-0.426239,28.3465)"/><path id="path3281" fill="param(fill) #000" d="m6.2178,25.073,0-8.4269-1.9773,0-1.9773,0,0-0.14598,0-0.14598,0.17915,0.000099,0.17915,0.000099-0.079624,0.04804c-0.043793,0.02642-0.10252,0.05663-0.13051,0.06712-0.21364,0.08015,0.42757,0.11862,2.3483,0.1409l1.5378,0.01784v8.4358c0,7.4808-0.00451,8.4358-0.039812,8.4358-0.035305,0-0.039812-0.95401-0.039812-8.4269z" transform="matrix(0.8,0,0,-0.8,-0.426239,28.3465)"/><path id="path3283" fill="param(fill) #000" d="m7.8102,23.959,0-8.5596-1.0484,0-1.0484,0,0.00546-0.28532,0.00546-0.28532,0.00885,0.23224,0.00885,0.23224,1.0606,0,1.0606,0,0,8.5994,0,8.5994,9.5416,0,9.5416,0,0-8.5994,0-8.5994,1.0617,0,1.0617,0,0.0031-0.27205c0.0024-0.21683,0.0075-0.2505,0.02501-0.16588,0.01208,0.05839,0.02265,0.2047,0.02349,0.32513l0.0015,0.21897h-1.0617-1.0617v8.5596,8.5596h-9.5947-9.5947v-8.5596z" transform="matrix(0.8,0,0,-0.8,-0.426239,28.3465)"/><path id="path3285" fill="param(fill) #000" d="m6.9875,13.236c0.07929-0.08029,0.15353-0.14598,0.16498-0.14598,0.011447,0,0.020813,0.04592,0.020813,0.10205,0,0.13424-0.062586,0.1899-0.21351,0.1899h-0.11644l0.14416-0.14598z" transform="matrix(0.8,0,0,-0.8,-0.426239,28.3465)"/></g></svg>
