<?xml version="1.0" encoding="UTF-8" standalone="no"?>
<!-- Created with Inkscape (http://www.inkscape.org/) -->
<svg id="svg3005" xmlns:rdf="http://www.w3.org/1999/02/22-rdf-syntax-ns#" xmlns="http://www.w3.org/2000/svg" xml:space="preserve" height="35.433" width="35.433" version="1.1" xmlns:cc="http://creativecommons.org/ns#" xmlns:dc="http://purl.org/dc/elements/1.1/"><metadata id="metadata3011"><rdf:RDF><cc:Work rdf:about=""><dc:format>image/svg+xml</dc:format><dc:type rdf:resource="http://purl.org/dc/dcmitype/StillImage"/><dc:title/></cc:Work></rdf:RDF></metadata><defs id="defs3009"><clipPath id="clipPath3015" clipPathUnits="userSpaceOnUse"><path id="path3017" d="M-0.0057373,0,28.341,0v28.346h-28.346v-28.346z"/></clipPath><clipPath id="clipPath3025" clipPathUnits="userSpaceOnUse"><path id="path3027" clip-rule="evenodd" d="M56.7,0,0,0v56.7h56.7v-56.7z"/></clipPath></defs><g id="g3013" clip-path="url(#clipPath3015)" transform="matrix(1.25,0,0,-1.25,0.00717163,35.433125)"><g id="g3019" fill="param(fill) #000" transform="scale(0.5,0.5)"><g id="g3021" fill="param(fill) #000"><g id="g3023" fill="param(fill) #000" clip-path="url(#clipPath3025)"><g id="g3029" fill="param(fill) #000" transform="translate(28.1,53.5)"><path id="path3031" stroke-linejoin="miter" d="m0,0,0-0.6,0.6,0,0-0.5,0.5,0,0-0.6,0.6,0,0-0.5,0.5,0,0-0.6,0.6,0,0-0.5,0.5,0,0-0.6,0.6,0,0-0.6,0.5,0,0-0.5,0.6,0,0-0.6,0.6,0,0-0.5,0.5,0,0,4.4,9.4,0,0-14.4,0.6,0,0-0.6,0.5,0,0-0.5,0.6,0,0-0.6,0.5,0,0-0.5,0.6,0,0-0.6,0.6,0,0-0.5,0.5,0,0-0.6,0.6,0,0-0.5,0.5,0,0-0.6,0.6,0,0-0.5,0.5,0,0-0.6,0.6,0,0-0.5,0.5,0,0-0.6,0.6,0,0-0.6,0.5,0,0-0.5,0.6,0,0-0.6-1.1,0,0,0.6-6.1,0,0-27.2-35.5,0,0,27.2-5.5,0,0-0.6-1.1,0,0,1.1,0.5,0,0,0.6,0.6,0,0,0.6,0.5,0,0,0.5,0.6,0,0,0.6,0.5,0,0,0.5,0.6,0,0,0.6,0.5,0,0,0.5,0.6,0,0,0.6,0.6,0,0,0.5,0.5,0,0,0.6,0.6,0,0,0.5,0.5,0,0,0.6,0.6,0,0,0.5,0.5,0,0,0.6,0.6,0,0,0.6,0.5,0,0,0.5,0.6,0,0,0.6,0.5,0,0,0.5,0.6,0,0,0.6,0.6,0,0,0.5,0.5,0,0,0.6,0.6,0,0,0.5,0.5,0,0,0.6,0.6,0,0,0.5,0.5,0,0,0.6,0.6,0,0,0.6,0.5,0,0,0.5,0.6,0,0,0.6,0.5,0,0,0.5,0.6,0,0,0.6,0.6,0,0,0.5,0.5,0,0,0.6,0.6,0,0,0.5,0.5,0,0,0.6,0.6,0,0,0.5,0.5,0,0,0.6,0.6,0,0,0.6,0.5,0,0,0.5,0.6,0,0,0.6,0.5,0,0,0.5,0.6,0,0,0.6,0.5,0,0,0.5,0.6,0,0,0.6,1.1,0" stroke="param(outline) #000" stroke-linecap="round" stroke-miterlimit="3" stroke-dasharray="none" stroke-width="0.70899999999999996" fill="param(fill) #000"/></g></g></g></g></g></svg>
