<?xml version="1.0" encoding="UTF-8" standalone="no"?>
<!-- Created with Inkscape (http://www.inkscape.org/) -->

<svg
   xmlns:dc="http://purl.org/dc/elements/1.1/"
   xmlns:cc="http://creativecommons.org/ns#"
   xmlns:rdf="http://www.w3.org/1999/02/22-rdf-syntax-ns#"
   xmlns:svg="http://www.w3.org/2000/svg"
   xmlns="http://www.w3.org/2000/svg"
   xmlns:sodipodi="http://sodipodi.sourceforge.net/DTD/sodipodi-0.dtd"
   xmlns:inkscape="http://www.inkscape.org/namespaces/inkscape"
   id="svg3005"
   xml:space="preserve"
   height="35.433"
   width="35.433"
   version="1.1"
   inkscape:version="0.48.2 r9819"
   sodipodi:docname="calm_offices.svg"><sodipodi:namedview
     pagecolor="#ffffff"
     bordercolor="#666666"
     borderopacity="1"
     objecttolerance="10"
     gridtolerance="10"
     guidetolerance="10"
     inkscape:pageopacity="0"
     inkscape:pageshadow="2"
     inkscape:window-width="1280"
     inkscape:window-height="962"
     id="namedview3171"
     showgrid="false"
     inkscape:zoom="6.660458"
     inkscape:cx="17.716499"
     inkscape:cy="17.716499"
     inkscape:window-x="-8"
     inkscape:window-y="-8"
     inkscape:window-maximized="1"
     inkscape:current-layer="svg3005" /><metadata
     id="metadata3011"><rdf:RDF><cc:Work
         rdf:about=""><dc:format>image/svg+xml</dc:format><dc:type
           rdf:resource="http://purl.org/dc/dcmitype/StillImage" /><dc:title></dc:title></cc:Work></rdf:RDF></metadata><defs
     id="defs3009"><clipPath
       id="clipPath3015"
       clipPathUnits="userSpaceOnUse"><path
         id="path3017"
         d="M-0.0057373,0,28.341,0v28.346h-28.346v-28.346z" /></clipPath><clipPath
       id="clipPath3025"
       clipPathUnits="userSpaceOnUse"><path
         id="path3027"
         clip-rule="evenodd"
         d="M56.7,0,0,0v56.7h56.7v-56.7z" /></clipPath></defs><g
     id="g3013"
     clip-path="url(#clipPath3015)"
     transform="matrix(1.25,0,0,-1.25,0.00717163,35.433125)"><g
       id="g3019"
       fill="param(fill) #000"
       transform="scale(0.5,0.5)"><g
         id="g3021"
         fill="param(fill) #000"><g
           id="g3023"
           fill="param(fill) #000"
           clip-path="url(#clipPath3025)"><g
             id="g3029"
             fill="param(fill) #000"
             transform="translate(28.1,53.5)"><path
               id="path3031"
               stroke-linejoin="miter"
               d="m0,0,0-0.6,0.6,0,0-0.5,0.5,0,0-0.6,0.6,0,0-0.5,0.5,0,0-0.6,0.6,0,0-0.5,0.5,0,0-0.6,0.6,0,0-0.6,0.5,0,0-0.5,0.6,0,0-0.6,0.6,0,0-0.5,0.5,0,0,4.4,9.4,0,0-14.4,0.6,0,0-0.6,0.5,0,0-0.5,0.6,0,0-0.6,0.5,0,0-0.5,0.6,0,0-0.6,0.6,0,0-0.5,0.5,0,0-0.6,0.6,0,0-0.5,0.5,0,0-0.6,0.6,0,0-0.5,0.5,0,0-0.6,0.6,0,0-0.5,0.5,0,0-0.6,0.6,0,0-0.6,0.5,0,0-0.5,0.6,0,0-0.6-1.1,0,0,0.6-6.1,0,0-27.2-35.5,0,0,27.2-5.5,0,0-0.6-1.1,0,0,1.1,0.5,0,0,0.6,0.6,0,0,0.6,0.5,0,0,0.5,0.6,0,0,0.6,0.5,0,0,0.5,0.6,0,0,0.6,0.5,0,0,0.5,0.6,0,0,0.6,0.6,0,0,0.5,0.5,0,0,0.6,0.6,0,0,0.5,0.5,0,0,0.6,0.6,0,0,0.5,0.5,0,0,0.6,0.6,0,0,0.6,0.5,0,0,0.5,0.6,0,0,0.6,0.5,0,0,0.5,0.6,0,0,0.6,0.6,0,0,0.5,0.5,0,0,0.6,0.6,0,0,0.5,0.5,0,0,0.6,0.6,0,0,0.5,0.5,0,0,0.6,0.6,0,0,0.6,0.5,0,0,0.5,0.6,0,0,0.6,0.5,0,0,0.5,0.6,0,0,0.6,0.6,0,0,0.5,0.5,0,0,0.6,0.6,0,0,0.5,0.5,0,0,0.6,0.6,0,0,0.5,0.5,0,0,0.6,0.6,0,0,0.6,0.5,0,0,0.5,0.6,0,0,0.6,0.5,0,0,0.5,0.6,0,0,0.6,0.5,0,0,0.5,0.6,0,0,0.6,1.1,0"
               stroke="param(outline) #000"
               stroke-linecap="round"
               stroke-miterlimit="3"
               stroke-dasharray="none"
               stroke-width="0.70899999999999996"
               fill="param(fill) #33FF00" /></g></g></g></g></g><path
     style="fill:#00ff00;fill-opacity:1"
     d="m 6.1557328,25.688924 0,-8.4829 -1.8016779,0 c -1.1010254,0 -1.8016779,0.05839 -1.8016779,0.15014 0,0.08258 -0.1013444,0.15014 -0.2252097,0.15014 -0.1238654,0 -0.2252098,-0.101345 -0.2252098,-0.22521 0,-0.123866 0.067563,-0.22521 0.1501399,-0.22521 0.082577,0 0.1501398,-0.07659 0.1501398,-0.170206 0,-0.179765 0.74648,-0.880277 0.9383739,-0.880589 0.061933,-1.01e-4 0.1126049,-0.07257 0.1126049,-0.161048 0,-0.207865 0.3819699,-0.589835 0.5898349,-0.589835 0.088475,0 0.1609468,-0.05067 0.1610475,-0.112605 2.486e-4,-0.152615 0.6837404,-0.938374 0.8162437,-0.938374 0.1303375,0 0.5348314,-0.394479 0.5348314,-0.521589 0,-0.120596 0.709073,-0.829669 0.8296688,-0.829669 0.120247,0 0.5215896,-0.401343 0.5215896,-0.52159 0,-0.155363 0.7266016,-0.829668 0.8940144,-0.829668 0.08633,0 0.1569644,-0.07239 0.1569644,-0.160865 0,-0.174979 0.3695986,-0.589835 0.5254894,-0.589835 0.1252746,0 0.5254894,-0.400214 0.5254894,-0.525489 0,-0.125274 0.4002148,-0.5254893 0.5254894,-0.5254893 0.1232133,0 0.5254891,-0.3992907 0.5254891,-0.5215897 0,-0.1553635 0.726602,-0.8296687 0.894015,-0.8296687 0.08633,0 0.156964,-0.069815 0.156964,-0.1551445 0,-0.2018538 0.99426,-1.196114 1.196114,-1.196114 0.08533,0 0.155144,-0.072389 0.155144,-0.1608641 0,-0.1749794 0.369599,-0.589835 0.52549,-0.589835 0.125274,0 0.525489,-0.4002148 0.525489,-0.5254894 0,-0.1252745 0.400215,-0.5254894 0.52549,-0.5254894 0.123213,0 0.525489,-0.3992907 0.525489,-0.5215896 0,-0.1553635 0.726602,-0.8296688 0.894014,-0.8296688 0.08633,0 0.156965,-0.069815 0.156965,-0.1551444 0,-0.2018539 0.99426,-1.196114 1.196114,-1.196114 0.08533,0 0.155144,-0.1013444 0.155144,-0.2252097 0,-0.1251166 0.133458,-0.2252098 0.30028,-0.2252098 0.165154,0 0.30028,0.070634 0.30028,0.1569644 0,0.1674128 0.674304,0.8940144 0.829668,0.8940144 0.120247,0 0.52159,0.4013427 0.52159,0.5215896 0,0.1553635 0.726602,0.8296688 0.894015,0.8296688 0.08633,0 0.156964,0.070634 0.156964,0.1569644 0,0.2038057 0.690209,0.8940144 0.894015,0.8940144 0.08633,0 0.156963,0.1013444 0.156963,0.2252097 0,0.1238654 0.101345,0.2252098 0.22521,0.2252098 0.184382,0 0.22521,-0.2585741 0.22521,-1.4263284 l 0,-1.4263283 2.852657,0 2.852656,0 0,4.5041947 c 0,3.9036359 0.03003,4.5041949 0.22521,4.5041949 0.123865,0 0.22521,0.06982 0.22521,0.155144 0,0.08533 0.234218,0.389363 0.520485,0.67563 0.286266,0.286266 0.590299,0.520484 0.675629,0.520484 0.08533,0 0.155144,0.07063 0.155144,0.156965 0,0.203805 0.690209,0.894014 0.894015,0.894014 0.08633,0 0.156964,0.06964 0.156964,0.154754 0,0.203718 1.740997,1.947204 1.944425,1.947204 0.08664,0 0.157533,0.07653 0.157533,0.170064 0,0.09354 0.145462,0.296223 0.323252,0.450418 l 0.323253,0.280357 -0.323253,0 c -0.17779,0 -0.323252,-0.06756 -0.323252,-0.15014 0,-0.09239 -0.7507,-0.15014 -1.951818,-0.15014 l -1.951818,0 0,8.4829 0,8.4829 -11.035277,0 -11.0352772,0 0,-8.4829 z"
     id="path3173"
     inkscape:connector-curvature="0" /></svg>