<?xml version="1.0" encoding="UTF-8" standalone="no"?>
<!-- Created with Inkscape (http://www.inkscape.org/) -->
<svg id="svg5208" xmlns:rdf="http://www.w3.org/1999/02/22-rdf-syntax-ns#" xmlns="http://www.w3.org/2000/svg" xml:space="preserve" height="35.61" width="35.61" version="1.1" xmlns:cc="http://creativecommons.org/ns#" xmlns:dc="http://purl.org/dc/elements/1.1/"><metadata id="metadata5214"><rdf:RDF><cc:Work rdf:about=""><dc:format>image/svg+xml</dc:format><dc:type rdf:resource="http://purl.org/dc/dcmitype/StillImage"/><dc:title/></cc:Work></rdf:RDF></metadata><defs id="defs5212"><clipPath id="clipPath5238" clipPathUnits="userSpaceOnUse"><path id="path5240" clip-rule="evenodd" d="M0,28.488,0,0h28.488v28.488h-28.488z"/></clipPath><clipPath id="clipPath5248" clipPathUnits="userSpaceOnUse"><path id="path5250" clip-rule="evenodd" d="M0,28.488,0,0h28.488v28.488h-28.488z"/></clipPath></defs><g id="g5216" transform="matrix(1.25,0,0,-1.25,0,35.610237)"><g id="g5234"><g id="g5236" clip-path="url(#clipPath5238)"><path id="path5242" stroke-linejoin="round" d="m-1.4346-1.4689,0,31.395,31.322,0,0-31.395-31.322,0z" stroke="param(stroke) #000" stroke-linecap="round" stroke-miterlimit="10" stroke-dasharray="none" stroke-width="0.95641" fill="none"/></g></g><g id="g5244"><g id="g5246" clip-path="url(#clipPath5248)"><text id="text5252" transform="matrix(0.99768651,0,0,-1,-0.71731,75.19896)"><tspan id="tspan5254" style="writing-mode:lr;" font-weight="bold" fill-rule="nonzero" font-size="2.15691" font-variant="normal" y="0" x="0 1.20105376 2.40210753 3.84337636 5.04443012 6.48569896" font-family="Arial" fill="none">Legend</tspan></text>
<text id="text5256" transform="matrix(0.99768651,0,0,-1,21.041,67.79184)"><tspan id="tspan5258" style="writing-mode:lr;" font-weight="normal" fill-rule="nonzero" font-size="2.15691" font-variant="normal" y="0" x="0 1.44126883 2.16191403 2.64234416 3.84339793 4.56404313 5.04447326 5.76511846 6.96617223 7.44660236" font-family="Arial" fill="none">Priority 1</tspan></text>
<text id="text5260" transform="matrix(0.99768651,0,0,-1,21.041,57.96593)"><tspan id="tspan5262" style="writing-mode:lr;" font-weight="normal" fill-rule="nonzero" font-size="2.15691" font-variant="normal" y="0" x="0 1.44126883 2.16191403 2.64234416 3.84339793 4.56404313 5.04447326 5.76511846 6.96617223 7.44660236 8.88787119" font-family="Arial" fill="none">Priority 2 </tspan></text>
<text id="text5264" transform="matrix(0.99768651,0,0,-1,21.041,47.90036)"><tspan id="tspan5266" style="writing-mode:lr;" font-weight="normal" fill-rule="nonzero" font-size="2.15691" font-variant="normal" y="0" x="0 1.44126883 2.16191403 2.64234416 3.84339793 4.56404313 5.04447326 5.76511846 6.96617223 7.44660236 8.88787119" font-family="Arial" fill="none">Priority 3 </tspan></text>
<text id="text5268" transform="matrix(0.99768651,0,0,-1,21.041,38.07445)"><tspan id="tspan5270" style="writing-mode:lr;" font-weight="normal" fill-rule="nonzero" font-size="2.15691" font-variant="normal" y="0" x="0 1.44126883 2.16191403 2.64234416 3.84339793 4.56404313 5.04447326 5.76511846 6.96617223 7.44660236 8.88787119" font-family="Arial" fill="none">Priority 4 </tspan></text>
<path id="path5278" d="m23.432,17.704-5.7385,0,0,5.7518-5.7384,0,0-5.7518-5.7385,0,0-5.7518,5.7385,0,0-5.7518,5.7384,0,0,5.7518,5.7385,0,0,5.7518z" fill="param(fill) #000" fill-rule="evenodd"/><text id="text5284" transform="matrix(0.99768651,0,0,-1,21.041,-16.0879)"><tspan id="tspan5286" style="writing-mode:lr;" font-weight="normal" fill-rule="nonzero" font-size="2.15691" font-variant="normal" y="0" x="0 1.20105376 1.6814839 2.4021291 3.60318286 4.32382806 5.52488183 7.44658079 8.64763456 9.84868832 10.56933352 12.01060235 12.49103248 13.69208625 14.65292495 15.85397871 17.05503248 18.25608624 18.73651637" font-family="Arial" fill="none">air_temperature_stn</tspan></text>
</g></g></g></svg>
