<?xml version="1.0" encoding="UTF-8" standalone="no"?>
<!-- Created with Inkscape (http://www.inkscape.org/) -->
<svg id="svg3065" xmlns:rdf="http://www.w3.org/1999/02/22-rdf-syntax-ns#" xmlns="http://www.w3.org/2000/svg" xml:space="preserve" height="35.433" width="35.433" version="1.1" xmlns:cc="http://creativecommons.org/ns#" xmlns:dc="http://purl.org/dc/elements/1.1/"><metadata id="metadata3071"><rdf:RDF><cc:Work rdf:about=""><dc:format>image/svg+xml</dc:format><dc:type rdf:resource="http://purl.org/dc/dcmitype/StillImage"/><dc:title/></cc:Work></rdf:RDF></metadata><defs id="defs3069"><clipPath id="clipPath3075" clipPathUnits="userSpaceOnUse"><path id="path3077" d="m0-3.4514,28.346,0,0,28.346-28.346,0,0-28.346z"/></clipPath><clipPath id="clipPath3085" clipPathUnits="userSpaceOnUse"><path id="path3087" clip-rule="evenodd" d="M56.7,0,0,0v42.9h56.7v-42.9z"/></clipPath></defs><g id="g3073" clip-path="url(#clipPath3075)" transform="matrix(1.25,0,0,-1.25,0,31.118875)"><g id="g3079" fill="param(fill) #000" transform="scale(0.5,0.5)"><g id="g3081" fill="param(fill) #000"><g id="g3083" fill="param(fill) #000" clip-path="url(#clipPath3085)"><g id="g3089" transform="translate(34.4,22.3)"><path id="path3091" stroke-linejoin="miter" d="m0,0,0-0.6,4.7,0,0-0.6,2.4,0,0-0.6,2.4,0,0-0.6,1.7,0,0-0.6,1.2,0,0-0.6,1.2,0,0-0.5,1.2,0,0-0.6,0.6,0,0-0.6,1.1,0,0-0.6,0.6,0,0-0.6,0.6,0,0-1.2,0.6,0,0-0.6,0.6,0,0-4.1-0.6,0,0-1.2-0.6,0,0-0.6-0.6,0,0-1.2-1.2,0,0-0.6-0.5,0,0-0.6-1.2,0,0-0.5-0.6,0,0-0.6-1.2,0,0-0.6-1.8,0,0-0.6-1.7,0,0-0.6-1.8,0,0-0.6-3,0,0-0.6-2.9,0,0-0.6-14.2,0,0,0.6-3.5,0,0,0.6-3,0,0,0.6-2.4,0,0,0.6-1.7,0,0,0.6-1.2,0,0,0.6-1.2,0,0,0.6-1.2,0,0,0.5-1.2,0,0,0.6-0.6,0,0,0.6-0.5,0,0,0.6-0.6,0,0,0.6-0.6,0,0,0.6-0.6,0,0,1.2-0.6,0,0,4.1,0.6,0,0,0.6,0.6,0,0,1.2,0.6,0,0,0.6,1.1,0,0,0.6,0.6,0,0,0.6,0.6,0,0,0.6,1.2,0,0,0.5,1.2,0,0,0.6,1.2,0,0,0.6,1.7,0,0,0.6,1.8,0,0,0.6,3,0,0,0.6,3.5,0,0,0.6,3.6,0,0-2.4-3.6,0,0-0.6-3.5,0,0-0.6-2.4,0,0-0.5-1.8,0,0-0.6-1.1,0,0-0.6-1.2,0,0-0.6-1.2,0,0-0.6-1.2,0,0-0.6-0.6,0,0-0.6-0.6,0,0-0.6-0.6,0,0-0.6-0.6,0,0-3.5,0.6,0,0-0.6,0.6,0,0-0.6,0.6,0,0-0.6,0.6,0,0-0.6,1.2,0,0-0.6,1.2,0,0-0.6,1.7,0,0-0.6,1.2,0,0-0.5,2.4,0,0-0.6,2.9,0,0-0.6,3,0,0-0.6,12.4,0,0,0.6,4.1,0,0,0.6,2.4,0,0,0.6,2.4,0,0,0.5,1.7,0,0,0.6,1.2,0,0,0.6,1.2,0,0,0.6,1.2,0,0,0.6,0.6,0,0,0.6,0.6,0,0,0.6,0.6,0,0,0.6,0.5,0,0,1.8,0.6,0,0,0.5-0.6,0,0,1.2-0.5,0,0,0.6-0.6,0,0,0.6-0.6,0,0,0.6-0.6,0,0,0.6-1.2,0,0,0.6-1.2,0,0,0.6-1.2,0,0,0.6-1.1,0,0,0.6-1.8,0,0,0.5-2.4,0,0,0.6-4.1,0,0,0.6-3.6,0,0,2.4,3,0" stroke="param(outline) #000" stroke-linecap="round" stroke-miterlimit="3" stroke-dasharray="none" stroke-width="0.70899999999999996" fill="param(fill) #000"/></g><g id="g3093" transform="translate(43.3,39.4)"><path id="path3095" stroke-linejoin="miter" d="m0,0,0-0.6,0.6,0,0-1.1-0.6,0,0-0.6-7.7,0,0-0.6-1.8,0,0-0.6-0.6,0,0-0.6-0.6,0,0-0.6-1.2,0,0-0.6-0.5,0,0-1.2-0.6,0,0-0.6-0.6,0,0-1.7-0.6,0,0-19.5-3,0,0,20.1-0.6,0,0,1.7-0.6,0,0,0.6-0.5,0,0,0.6-0.6,0,0,0.6-0.6,0,0,0.6-1.2,0,0,0.6-0.6,0,0,0.6-1.2,0,0,0.6-8.3,0,0,2.3,8.9,0,0-0.6,1.8,0,0-0.6,1.2,0,0-0.5,0.6,0,0-0.6,0.5,0,0-0.6,0.6,0,0-0.6,0.6,0,0-0.6,0.6,0,0-0.6,0.6,0,0-0.6,0.6,0,0,0.6,0.6,0,0,0.6,0.6,0,0,0.6,0.6,0,0,0.6,0.6,0,0,0.6,0.6,0,0,0.6,1.1,0,0,0.5,1.2,0,0,0.6,1.2,0,0,0.6,8.9,0" stroke="param(outline) #000" stroke-linecap="round" stroke-miterlimit="3" stroke-dasharray="none" stroke-width="0.70899999999999996" fill="param(fill) #000"/></g></g></g></g></g></svg>
