<?xml version="1.0" encoding="UTF-8" standalone="no"?>
<!-- Created with Inkscape (http://www.inkscape.org/) -->
<svg id="svg83373" xmlns:rdf="http://www.w3.org/1999/02/22-rdf-syntax-ns#" xmlns="http://www.w3.org/2000/svg" xml:space="preserve" height="35.433" width="35.433" version="1.1" xmlns:cc="http://creativecommons.org/ns#" xmlns:dc="http://purl.org/dc/elements/1.1/"><metadata id="metadata83379"><rdf:RDF><cc:Work rdf:about=""><dc:format>image/svg+xml</dc:format><dc:type rdf:resource="http://purl.org/dc/dcmitype/StillImage"/><dc:title/></cc:Work></rdf:RDF></metadata><defs id="defs83377"><clipPath id="clipPath83383" clipPathUnits="userSpaceOnUse"><path id="path83385" d="m0-1.4899,28.346,0,0,28.346-28.346,0,0-28.346z"/></clipPath><clipPath id="clipPath83393" clipPathUnits="userSpaceOnUse"><path id="path83395" clip-rule="evenodd" d="M56.7,0,0,0v50.7h56.7v-50.7z"/></clipPath></defs><g id="g83381" clip-path="url(#clipPath83383)" transform="matrix(1.25,0,0,-1.25,0,33.570625)"><g id="g83387" transform="scale(0.5,0.5)" stroke="param(outline) #000" stroke-dasharray="none" stroke-miterlimit="4" stroke-width="2.6"><g id="g83389" stroke="param(outline) #000" stroke-miterlimit="4" stroke-dasharray="none" stroke-width="2.6"><g id="g83391" clip-path="url(#clipPath83393)" stroke="param(outline) #000" stroke-dasharray="none" stroke-miterlimit="4" stroke-width="2.6"><g id="g83397" transform="translate(28.2,4)"><path id="path83399" stroke-linejoin="miter" d="M0,0,0,3.2" stroke="param(outline) #000" stroke-linecap="round" stroke-miterlimit="4" stroke-dasharray="none" stroke-width="2.6" fill="none"/></g><g id="g83401" transform="translate(28.2,4)"><path id="path83403" stroke-linejoin="miter" d="m0,0,6.4,0,5.7,3.2,2.4,1.6,1.6,0,1.6-1.6" stroke="param(outline) #000" stroke-linecap="round" stroke-miterlimit="4" stroke-dasharray="none" stroke-width="2.6" fill="none"/></g><g id="g83405" transform="translate(28.2,4)"><path id="path83407" stroke-linejoin="miter" d="M0,0,0-4.1" stroke="param(outline) #000" stroke-linecap="round" stroke-miterlimit="4" stroke-dasharray="none" stroke-width="2.6" fill="none"/></g><g id="g83409" transform="translate(28.2,4)"><path id="path83411" stroke-linejoin="miter" d="m0,0-4.9,0-0.8,0.8-1.6,0-4,2.4-2.4,1.6-1.7,0l-1.6-0.8" stroke="param(outline) #000" stroke-linecap="round" stroke-miterlimit="4" stroke-dasharray="none" stroke-width="2.6" fill="none"/></g><g id="g83413" transform="translate(13.6,8.8)"><path id="path83415" stroke-linejoin="miter" d="m0,0,0,1.6,0.9,0.8,0.8,0" stroke="param(outline) #000" stroke-linecap="round" stroke-miterlimit="4" stroke-dasharray="none" stroke-width="2.6" fill="none"/></g><g id="g83417" transform="translate(43.5,8.8)"><path id="path83419" stroke-linejoin="miter" d="m0,0,0,1.6,2.4,2.4,2.4,4.9,0,1.6,0.8,0.8,0,9.7-0.8,0.8,0,1.6-2.4,4-1.6,2.4-1.6,0-1.6-0.8" stroke="param(outline) #000" stroke-linecap="round" stroke-miterlimit="4" stroke-dasharray="none" stroke-width="2.6" fill="none"/></g><g id="g83421" transform="translate(13.6,10.4)"><path id="path83423" stroke-linejoin="miter" d="m0,0-1.6,0.8-0.8,1.6-1.6,1.7-0.8,3.2-0.8,0.8,0,3.2-0.8,0.8,0,4.9,0.8,0.8,0,3.2,2.4,4,3.2,4,0.9,0,1.6-2.4" stroke="param(outline) #000" stroke-linecap="round" stroke-miterlimit="4" stroke-dasharray="none" stroke-width="2.6" fill="none"/></g><g id="g83425" transform="translate(13.6,10.4)"><path id="path83427" stroke-linejoin="miter" d="M0,0-0.8,0.8" stroke="param(outline) #000" stroke-linecap="round" stroke-miterlimit="4" stroke-dasharray="none" stroke-width="2.6" fill="none"/></g><g id="g83429" transform="translate(43.5,10.4)"><path id="path83431" stroke-linejoin="miter" d="M0,0-0.8,0-1.6,0.8-2.4,1.6-3.2,2.4" stroke="param(outline) #000" stroke-linecap="round" stroke-miterlimit="4" stroke-dasharray="none" stroke-width="2.6" fill="none"/></g><g id="g83433" transform="translate(43.5,10.4)"><path id="path83435" stroke-linejoin="miter" d="M0,0-0.8,0.8" stroke="param(outline) #000" stroke-linecap="round" stroke-miterlimit="4" stroke-dasharray="none" stroke-width="2.6" fill="none"/></g><g id="g83437" transform="translate(7.2,24.9)"><path id="path83439" stroke-linejoin="miter" d="M0,0,4,0" stroke="param(outline) #000" stroke-linecap="round" stroke-miterlimit="4" stroke-dasharray="none" stroke-width="2.6" fill="none"/></g><g id="g83441" transform="translate(7.2,24.9)"><path id="path83443" stroke-linejoin="miter" d="M0,0-4,0" stroke="param(outline) #000" stroke-linecap="round" stroke-miterlimit="4" stroke-dasharray="none" stroke-width="2.6" fill="none"/></g><g id="g83445" transform="translate(49.1,24.9)"><path id="path83447" stroke-linejoin="miter" d="M0,0,4.1,0" stroke="param(outline) #000" stroke-linecap="round" stroke-miterlimit="4" stroke-dasharray="none" stroke-width="2.6" fill="none"/></g><g id="g83449" transform="translate(49.1,24.9)"><path id="path83451" stroke-linejoin="miter" d="M0,0-4,0" stroke="param(outline) #000" stroke-linecap="round" stroke-miterlimit="4" stroke-dasharray="none" stroke-width="2.6" fill="none"/></g><g id="g83453" transform="translate(43.5,38.6)"><path id="path83455" stroke-linejoin="miter" d="m0,0,0,1.6,0.8,0.9,0.8,0" stroke="param(outline) #000" stroke-linecap="round" stroke-miterlimit="4" stroke-dasharray="none" stroke-width="2.6" fill="none"/></g><g id="g83457" transform="translate(43.5,40.2)"><path id="path83459" stroke-linejoin="miter" d="m0,0-3.2,1.7-4.1,2.4-1.6,0-0.8,0.8-2.4,0-0.8,0.8-4.1,0-0.8-0.8-3.2,0-0.8-0.8-1.6,0-4-2.4-1.6-1.7-1.7,0-1.6,1.7" stroke="param(outline) #000" stroke-linecap="round" stroke-miterlimit="4" stroke-dasharray="none" stroke-width="2.6" fill="none"/></g><g id="g83461" transform="translate(43.5,40.2)"><path id="path83463" stroke-linejoin="miter" d="M0,0-0.8,0.9" stroke="param(outline) #000" stroke-linecap="round" stroke-miterlimit="4" stroke-dasharray="none" stroke-width="2.6" fill="none"/></g><g id="g83465" transform="translate(28.2,45.9)"><path id="path83467" stroke-linejoin="miter" d="M0,0,0,3.2" stroke="param(outline) #000" stroke-linecap="round" stroke-miterlimit="4" stroke-dasharray="none" stroke-width="2.6" fill="none"/></g><g id="g83469" transform="translate(28.2,45.9)"><path id="path83471" stroke-linejoin="miter" d="M0,0,0-4" stroke="param(outline) #000" stroke-linecap="round" stroke-miterlimit="4" stroke-dasharray="none" stroke-width="2.6" fill="none"/></g></g></g></g></g></svg>
