<?xml version="1.0" encoding="UTF-8" standalone="no"?>
<!-- Created with Inkscape (http://www.inkscape.org/) -->
<svg id="svg82823" xmlns:rdf="http://www.w3.org/1999/02/22-rdf-syntax-ns#" xmlns="http://www.w3.org/2000/svg" xml:space="preserve" height="35.433" width="35.433" version="1.1" xmlns:cc="http://creativecommons.org/ns#" xmlns:dc="http://purl.org/dc/elements/1.1/"><metadata id="metadata82829"><rdf:RDF><cc:Work rdf:about=""><dc:format>image/svg+xml</dc:format><dc:type rdf:resource="http://purl.org/dc/dcmitype/StillImage"/><dc:title/></cc:Work></rdf:RDF></metadata><defs id="defs82827"><clipPath id="clipPath82833" clipPathUnits="userSpaceOnUse"><path id="path82835" d="m0-0.12463,28.346,0,0,28.346-28.346,0,0-28.346z"/></clipPath><clipPath id="clipPath82843" clipPathUnits="userSpaceOnUse"><path id="path82845" clip-rule="evenodd" d="M56.7,0,0,0v56.2h56.7v-56.2z"/></clipPath></defs><g id="g82831" clip-path="url(#clipPath82833)" transform="matrix(1.25,0,0,-1.25,0,35.27725)"><g id="g82837" transform="scale(0.5,0.5)"><g id="g82839"><g id="g82841" clip-path="url(#clipPath82843)" stroke="param(outline) #000" stroke-dasharray="none" stroke-miterlimit="4" stroke-width="2.28"><g id="g82847" transform="translate(28.5,13)"><path id="path82849" stroke-linejoin="miter" d="m0,0,2.6,0,0.6,0.7,1.9,0,4.4,2.5,0.6,1.2,1.3,0.7,0.6,1.2,1.3,1.3,0,1.3,0.6,0.6,0,1.2,0.6,0.7,0,6.9-0.6,0.6,0,1.3-1.9,3.2-1.9,2.5-1.2,0.6-4.4,2.5-8.2,0-1.9-1.2-1.3,0-1.3-1.3-1.2-0.6-1.3-1.3-0.6-1.2-1.3-1.3-1.2-2.5,0-1.3-0.7-0.6,0-5.7,0.7-0.6,0-1.3,1.9-3.1,2.5-3.2,0.6,0,0.6-1.2,0.7,0,1.9-1.3,1.2,0,0.7-0.6,1.2,0l0.7-0.7h1.8v-11.9" stroke="param(outline) #000" stroke-linecap="round" stroke-miterlimit="4" stroke-dasharray="none" stroke-width="2.28" fill="none"/></g><g id="g82851" transform="translate(14,27.5)"><path id="path82853" stroke-linejoin="miter" d="M0,0-11.9,0" stroke="param(outline) #000" stroke-linecap="round" stroke-miterlimit="4" stroke-dasharray="none" stroke-width="2.28" fill="none"/></g><g id="g82855" transform="translate(43,27.5)"><path id="path82857" stroke-linejoin="miter" d="M0,0,12.7,0" stroke="param(outline) #000" stroke-linecap="round" stroke-miterlimit="4" stroke-dasharray="none" stroke-width="2.28" fill="none"/></g><g id="g82859" transform="translate(28.5,42)"><path id="path82861" stroke-linejoin="miter" d="M0,0,0,12.6" stroke="param(outline) #000" stroke-linecap="round" stroke-miterlimit="4" stroke-dasharray="none" stroke-width="2.28" fill="none"/></g></g></g></g></g></svg>
