<?xml version="1.0" encoding="UTF-8" standalone="no"?>
<!-- Created with Inkscape (http://www.inkscape.org/) -->

<svg
   xmlns:dc="http://purl.org/dc/elements/1.1/"
   xmlns:cc="http://creativecommons.org/ns#"
   xmlns:rdf="http://www.w3.org/1999/02/22-rdf-syntax-ns#"
   xmlns:svg="http://www.w3.org/2000/svg"
   xmlns="http://www.w3.org/2000/svg"
   xmlns:sodipodi="http://sodipodi.sourceforge.net/DTD/sodipodi-0.dtd"
   xmlns:inkscape="http://www.inkscape.org/namespaces/inkscape"
   width="55"
   height="40"
   viewBox="0 0 54.999997 39.999998"
   id="svg4507"
   version="1.1"
   inkscape:version="0.91 r13725"
   sodipodi:docname="fire_bomber_bases.svg">
  <defs
     id="defs4509" />
  <sodipodi:namedview
     id="base"
     pagecolor="#ffffff"
     bordercolor="#666666"
     borderopacity="1.0"
     inkscape:pageopacity="0.0"
     inkscape:pageshadow="2"
     inkscape:zoom="11.2"
     inkscape:cx="28.283724"
     inkscape:cy="38.302966"
     inkscape:document-units="px"
     inkscape:current-layer="layer1"
     showgrid="false"
     units="px"
     inkscape:window-width="1884"
     inkscape:window-height="1178"
     inkscape:window-x="1912"
     inkscape:window-y="-8"
     inkscape:window-maximized="1" />
  <metadata
     id="metadata4512">
    <rdf:RDF>
      <cc:Work
         rdf:about="">
        <dc:format>image/svg+xml</dc:format>
        <dc:type
           rdf:resource="http://purl.org/dc/dcmitype/StillImage" />
        <dc:title></dc:title>
      </cc:Work>
    </rdf:RDF>
  </metadata>
  <g
     inkscape:label="Layer 1"
     inkscape:groupmode="layer"
     id="layer1"
     transform="translate(0,-1012.3622)">
    <rect
       style="opacity:1;fill:#0000ff;fill-opacity:0;fill-rule:evenodd;stroke:#0000ff;stroke-width:1.7853477px;stroke-linecap:butt;stroke-linejoin:miter;stroke-opacity:1"
       id="rect3699"
       width="38.214649"
       height="25.477571"
       x="8.3926725"
       y="1019.6234" />
    <g
       transform="matrix(2.1515678,0,0,2.1515678,-3.1469356,1063.0095)"
       style="font-style:normal;font-weight:normal;font-size:9.37742424px;line-height:125%;font-family:sans-serif;letter-spacing:0px;word-spacing:0px;opacity:1;fill:#0000ff;fill-opacity:1;stroke:none;stroke-width:1px;stroke-linecap:butt;stroke-linejoin:miter;stroke-opacity:1"
       id="text4501">
      <path
         d="m 13.165688,-10.887914 -1.208809,0 -0.480776,-1.524747 -2.1978336,0 -0.4533032,1.524747 -1.1813357,0 2.142888,-6.71255 1.1767565,0 2.202413,6.71255 z m -2.046733,-2.655716 -0.755505,-2.490878 -0.7463479,2.490878 1.5018529,0 z"
         style="font-style:normal;font-variant:normal;font-weight:bold;font-stretch:condensed;font-family:Arial;-inkscape-font-specification:'Arial Bold Condensed';fill:#0000ff"
         id="path4501"
         inkscape:connector-curvature="0" />
      <path
         d="m 13.719725,-10.887914 0,-6.71255 1.108075,0 0,6.71255 -1.108075,0 z"
         style="font-style:normal;font-variant:normal;font-weight:bold;font-stretch:condensed;font-family:Arial;-inkscape-font-specification:'Arial Bold Condensed';fill:#0000ff"
         id="path4503"
         inkscape:connector-curvature="0" />
      <path
         d="m 15.899244,-10.887914 0,-6.71255 2.339777,0 q 0.897449,0 1.28207,0.183152 0.384621,0.178574 0.631877,0.627299 0.247256,0.444145 0.247256,1.066865 0,0.787557 -0.380042,1.268333 -0.375463,0.480776 -1.071444,0.604404 0.357148,0.256414 0.590668,0.563195 0.23352,0.302203 0.636456,1.08976 l 0.668508,1.309542 -1.323279,0 -0.805872,-1.460643 q -0.434988,-0.792136 -0.590668,-0.989026 -0.15568,-0.201468 -0.329675,-0.274729 -0.173996,-0.07784 -0.558616,-0.07784 l -0.228941,0 0,2.802238 -1.108075,0 z m 1.108075,-3.873682 0.824187,0 q 0.755506,0 0.961553,-0.0641 0.206046,-0.06868 0.334253,-0.270151 0.128207,-0.201468 0.128207,-0.535722 0,-0.320517 -0.128207,-0.512828 -0.128207,-0.196889 -0.34799,-0.27015 -0.15568,-0.05037 -0.902028,-0.05037 l -0.869975,0 0,1.703321 z"
         style="font-style:normal;font-variant:normal;font-weight:bold;font-stretch:condensed;font-family:Arial;-inkscape-font-specification:'Arial Bold Condensed';fill:#0000ff"
         id="path4505"
         inkscape:connector-curvature="0" />
    </g>
  </g>
</svg>
