<?xml version="1.0" encoding="UTF-8" standalone="no"?>
<!-- Created with Inkscape (http://www.inkscape.org/) -->
<svg id="svg81172" xmlns:rdf="http://www.w3.org/1999/02/22-rdf-syntax-ns#" xmlns="http://www.w3.org/2000/svg" xml:space="preserve" height="35.433" width="35.433" version="1.1" xmlns:cc="http://creativecommons.org/ns#" xmlns:dc="http://purl.org/dc/elements/1.1/"><metadata id="metadata81178"><rdf:RDF><cc:Work rdf:about=""><dc:format>image/svg+xml</dc:format><dc:type rdf:resource="http://purl.org/dc/dcmitype/StillImage"/><dc:title/></cc:Work></rdf:RDF></metadata><defs id="defs81176"><clipPath id="clipPath81182" clipPathUnits="userSpaceOnUse"><path id="path81184" d="m-4.6529,0,28.346,0,0,28.346-28.346,0,0-28.346z"/></clipPath><clipPath id="clipPath81192" clipPathUnits="userSpaceOnUse"><path id="path81194" clip-rule="evenodd" d="M38.1,0,0,0v56.7h38.1v-56.7z"/></clipPath></defs><g id="g81180" clip-path="url(#clipPath81182)" transform="matrix(1.25,0,0,-1.25,5.816175,35.433125)"><g id="g81186" transform="scale(0.5,0.5)"><g id="g81188"><g id="g81190" clip-path="url(#clipPath81192)"><g id="g81196" transform="translate(14.5,16)"><path id="path81198" stroke-linejoin="miter" d="M0,0,0,10.905,0,19.7l-0.8,0.8h-7.7l-0.9,0.9v6.8l0.9,0.9h8.5v8.5l0.9,0.9h6.8l0.9-0.9v-7.7l0.8-0.8h7.7l0.9-0.9v-7.7h-8.6l-0.8-0.8v-19.7h-17.1l-0.9-0.9v-12.8l0.9-0.9h26.5v13.7l-0.9,0.9h-8.5" stroke="param(outline) #000" stroke-linecap="round" stroke-miterlimit="3" stroke-dasharray="none" stroke-width="2.3088" fill="none"/></g></g></g></g></g></svg>
