<?xml version="1.0" encoding="UTF-8" standalone="no"?>
<!-- Created with Inkscape (http://www.inkscape.org/) -->
<svg id="svg3475" xmlns:rdf="http://www.w3.org/1999/02/22-rdf-syntax-ns#" xmlns="http://www.w3.org/2000/svg" xml:space="preserve" height="35.433" width="35.433" version="1.1" xmlns:cc="http://creativecommons.org/ns#" xmlns:dc="http://purl.org/dc/elements/1.1/"><metadata id="metadata3481"><rdf:RDF><cc:Work rdf:about=""><dc:format>image/svg+xml</dc:format><dc:type rdf:resource="http://purl.org/dc/dcmitype/StillImage"/><dc:title/></cc:Work></rdf:RDF></metadata><defs id="defs3479"><clipPath id="clipPath3485" clipPathUnits="userSpaceOnUse"><path id="path3487" d="m-54.364,0,28.346,0,0,28.346-28.346,0,0-28.346z"/></clipPath><clipPath id="clipPath3495" clipPathUnits="userSpaceOnUse"><path id="path3497" clip-rule="evenodd" d="M0,56.7,0,0h-53.6v56.7h53.6z"/></clipPath></defs><g id="g3483" clip-path="url(#clipPath3485)" transform="matrix(1.25,0,0,-1.25,67.95525,35.433125)"><g id="g3489" fill="param(fill) #000" transform="matrix(0,-0.54221206,-0.5,0,-25.976225,-0.07462416)"><g id="g3491" fill="param(fill) #000"><g id="g3493" fill="param(fill) #000" clip-path="url(#clipPath3495)"><g id="g3499" fill="param(fill) #000" transform="translate(-50.5,53.8)"><path id="path3501" stroke-linejoin="miter" d="m0,0,48.9,0,0-51.4-48.9,0,0,1.6,0.8,0,0,0.8,0.8,0,0,0.8,0.7,0,0,0.8,0.8,0,0,0.8,0.8,0,0,0.8,0.8,0,0,0.8,0.8,0,0,0.8,0.8,0,0,0.7,0.8,0,0,0.8,0.8,0,0,0.8,0.8,0,0,0.8,0.8,0,0,0.8,0.7,0,0,0.8,0.8,0,0,0.8,0.8,0,0,0.8,0.8,0,0,0.8,0.8,0,0,0.8,0.8,0,0,0.7,0.8,0,0,0.8,0.8,0,0,0.8,0.8,0,0,0.8,0.8,0,0,0.8,0.7,0,0,0.8,0.8,0,0,0.8,0.8,0,0,0.8,0.8,0,0,0.8,0.8,0,0,0.8,0.8,0,0,0.7,0.8,0,0,0.8,0.8,0,0,0.8,0.8,0,0,0.8-0.8,0,0,0.8-0.8,0,0,0.8-0.8,0,0,0.8-0.8,0,0,0.8-0.8,0,0,0.8-0.8,0,0,0.8-0.8,0,0,0.7-0.8,0,0,0.8-0.7,0,0,0.8-0.8,0,0,0.8-0.8,0,0,0.8-0.8,0,0,0.8-0.8,0,0,0.8-0.8,0,0,0.8-0.8,0,0,0.8-0.8,0,0,0.7-0.8,0,0,0.8-0.8,0,0,0.8-0.7,0,0,0.8-0.8,0,0,0.8-0.8,0,0,0.8-0.8,0,0,0.8-0.8,0,0,0.8-0.8,0,0,0.8-0.8,0,0,0.8-0.8,0,0,0.7-0.8,0,0,0.8-0.8,0,0,0.8-0.7,0,0,0.8-0.8,0,0,0.8-0.8,0,0,1.6" stroke="param(outline) #000" stroke-linecap="round" stroke-miterlimit="3" stroke-dasharray="none" stroke-width="0.70899999000000002" fill="param(fill) #000"/></g></g></g></g></g></svg>
