<?xml version="1.0" encoding="UTF-8" standalone="no"?>
<!-- Created with Inkscape (http://www.inkscape.org/) -->
<svg id="svg80620" xmlns:rdf="http://www.w3.org/1999/02/22-rdf-syntax-ns#" xmlns="http://www.w3.org/2000/svg" xml:space="preserve" height="35.433" width="35.433" version="1.1" xmlns:cc="http://creativecommons.org/ns#" xmlns:dc="http://purl.org/dc/elements/1.1/"><metadata id="metadata80626"><rdf:RDF><cc:Work rdf:about=""><dc:format>image/svg+xml</dc:format><dc:type rdf:resource="http://purl.org/dc/dcmitype/StillImage"/><dc:title/></cc:Work></rdf:RDF></metadata><defs id="defs80624"><clipPath id="clipPath80630" clipPathUnits="userSpaceOnUse"><path id="path80632" d="m0-0.094101,28.346,0,0,28.347-28.346,0,0-28.347z"/></clipPath><clipPath id="clipPath80640" clipPathUnits="userSpaceOnUse"><path id="path80642" clip-rule="evenodd" d="M56.7,0,0,0v56.3h56.7v-56.3z"/></clipPath></defs><g id="g80628" clip-path="url(#clipPath80630)" transform="matrix(1.25,0,0,-1.25,0,35.3155)"><g id="g80634" transform="scale(0.5,0.5)"><g id="g80636"><g id="g80638" clip-path="url(#clipPath80640)" stroke="param(outline) #000" stroke-miterlimit="4" stroke-dasharray="none" stroke-width="4.68" fill="none"><g id="g80644" transform="translate(15.1,29.6)"><path id="path80646" stroke-linejoin="miter" d="M0,0,0,14.4" stroke="param(outline) #000" stroke-linecap="round" stroke-miterlimit="4" stroke-dasharray="none" stroke-width="4.68" fill="none"/></g><g id="g80648" transform="translate(15.1,29.6)"><path id="path80650" stroke-linejoin="miter" d="m0,0,26.9,0,0-17.9" stroke="param(outline) #000" stroke-linecap="round" stroke-miterlimit="4" stroke-dasharray="none" stroke-width="4.68" fill="none"/></g><g id="g80652" transform="translate(15.1,29.6)"><path id="path80654" stroke-linejoin="miter" d="M0,0,0-17.9" stroke="param(outline) #000" stroke-linecap="round" stroke-miterlimit="4" stroke-dasharray="none" stroke-width="4.68" fill="none"/></g><g id="g80656" transform="translate(42,29.6)"><path id="path80658" stroke-linejoin="miter" d="M0,0,0,14.4" stroke="param(outline) #000" stroke-linecap="round" stroke-miterlimit="4" stroke-dasharray="none" stroke-width="4.68" fill="none"/></g><g id="g80660" transform="translate(2.5,0.9)"><path id="path80662" stroke-linejoin="miter" d="m0,0,52.1,0,0.9,0.9,0,53.8-53.9,0-0.9-0.9,0-52l1.8-1.8" stroke="param(outline) #000" stroke-linecap="round" stroke-miterlimit="4" stroke-dasharray="none" stroke-width="4.68" fill="none"/></g></g></g></g></g></svg>
