<?xml version="1.0" encoding="UTF-8" standalone="no"?>
<!-- Created with Inkscape (http://www.inkscape.org/) -->
<svg id="svg3763" xmlns:rdf="http://www.w3.org/1999/02/22-rdf-syntax-ns#" xmlns="http://www.w3.org/2000/svg" xml:space="preserve" height="35.433" width="35.433" version="1.1" xmlns:cc="http://creativecommons.org/ns#" xmlns:dc="http://purl.org/dc/elements/1.1/"><metadata id="metadata3769"><rdf:RDF><cc:Work rdf:about=""><dc:format>image/svg+xml</dc:format><dc:type rdf:resource="http://purl.org/dc/dcmitype/StillImage"/><dc:title/></cc:Work></rdf:RDF></metadata><defs id="defs3767"><clipPath id="clipPath3773" clipPathUnits="userSpaceOnUse"><path id="path3775" d="m-54.52,0,28.346,0,0,28.346-28.346,0,0-28.346z"/></clipPath><clipPath id="clipPath3783" clipPathUnits="userSpaceOnUse"><path id="path3785" clip-rule="evenodd" d="M0,56.7,0,0h-53.8v56.7h53.8z"/></clipPath></defs><g id="g3771" clip-path="url(#clipPath3773)" transform="matrix(1.25,0,0,-1.25,68.149375,35.433125)"><g id="g3777" fill="none" transform="matrix(0.5,0,0,0.5,-26.78504,0.36033686)"><g id="g3779" fill="none"><g id="g3781" fill="none" clip-path="url(#clipPath3783)"><g id="g3787" transform="translate(-1.8,21.1)"><path id="path3789" stroke-linejoin="miter" d="m0,0,0,13.4-0.9,0.8,0,1.7-3.3,5.8-1.7,2.5-1.6,0.8-0.9,1.7-3.3,1.7,0,0.8-1.7,0-4.1,2.5-2.5,0-0.9,0.9-8.3,0-0.8-0.9-3.4,0-5.8-3.3-2.5-1.7-0.8-1.7-1.7-0.8-0.8-1.7-2.5-4.1-1.7-2.5,0-1.7-0.8-0.8,0-13.4,0.8-0.8,0-1.7,3.3-5.8,1.7-2.5,1.7-0.8,0.8-1.7,1.7,0,0.8-1.7,1.7,0,1.6-1.6,3.4-1.7,1.6,0,0.9-0.8,9.1,0,0.9,0.8,2.5,0,2.5,1.7,1.6,0,1.7,1.6,1.7,0.9,2.5,1.6,0,0.9,1.6,0.8,0,1.7,2.5,1.6,0,1.7l3.4,5.8" stroke="param(outline) #000" stroke-linecap="round" stroke-miterlimit="3" stroke-dasharray="none" stroke-width="0.70899999000000002" fill="none"/></g><g id="g3791" transform="translate(-13.5,26.1)"><path id="path3793" stroke-linejoin="miter" d="m0,0,0,3.4-0.8,0.8,0,1.7-0.9,0.8,0,1.7-1.6,0.8-0.9,2.5-1.6,0-0.9,1.7-1.6,0-0.9,0.8-8.3,0-0.8-0.8-1.7,0-0.8-1.7-1.7,0-0.8-0.8,0-1.7-1.7-0.8,0-1.7-0.8-0.8,0-8.4,2.5-4.1,1.6-0.9,0.9-1.6,3.3-1.7,2.5,0,0.8-0.8,1.7,0,0.8,0.8,2.5,0,4.2,2.5,0,0.8,2.5,1.7,0,0.8,1.7,2.5,0,1.7l0.8,0.8" stroke="param(outline) #000" stroke-linecap="round" stroke-miterlimit="3" stroke-dasharray="none" stroke-width="0.70899999000000002" fill="none"/></g></g></g></g></g></svg>
