<?xml version="1.0" encoding="UTF-8" standalone="no"?>
<!-- Created with Inkscape (http://www.inkscape.org/) -->
<svg id="svg3419" xmlns:rdf="http://www.w3.org/1999/02/22-rdf-syntax-ns#" xmlns="http://www.w3.org/2000/svg" xml:space="preserve" height="35.433" width="35.433" version="1.1" xmlns:cc="http://creativecommons.org/ns#" xmlns:dc="http://purl.org/dc/elements/1.1/"><metadata id="metadata3425"><rdf:RDF><cc:Work rdf:about=""><dc:format>image/svg+xml</dc:format><dc:type rdf:resource="http://purl.org/dc/dcmitype/StillImage"/><dc:title/></cc:Work></rdf:RDF></metadata><defs id="defs3423"><clipPath id="clipPath3429" clipPathUnits="userSpaceOnUse"><path id="path3431" d="m-6.0501,0,28.347,0,0,28.346-28.347,0,0-28.346z"/></clipPath><clipPath id="clipPath3439" clipPathUnits="userSpaceOnUse"><path id="path3441" clip-rule="evenodd" d="M32.5,0,0,0v56.7h32.5v-56.7z"/></clipPath></defs><g id="g3427" clip-path="url(#clipPath3429)" transform="matrix(1.25,0,0,-1.25,7.5626375,35.433125)"><g id="g3433" fill="param(fill) #000" transform="scale(0.5,0.5)"><g id="g3435" fill="param(fill) #000"><g id="g3437" fill="param(fill) #000" clip-path="url(#clipPath3439)"><g id="g3443" fill="param(fill) #000" transform="translate(7,54.5)"><path id="path3445" stroke-linejoin="miter" d="m0,0,0-0.9,1.6,0,0-0.8,1.6,0,0-0.8,2.4,0,0-0.8,1.7,0,0-0.8,1.6,0,0-0.8,1.6,0,0-0.8,2.4,0,0-0.8,1.6,0,0-0.8,1.7,0,0-0.8,1.6,0,0-0.8,2.4,0,0-0.9,1.6,0,0-0.8,0.8,0,0-0.8-1.6,0,0-0.8-2.4,0,0-0.8-1.6,0,0-0.8-1.7,0,0-0.8-2.4,0,0-0.8-1.6,0,0-0.8-1.6,0,0-0.8-1.6,0,0-0.8-2.5,0,0-0.9-1.6,0,0-0.8-0.8,0,0-33.1-5.7,0,0,52.6,2.5,0" stroke="param(outline) #000" stroke-linecap="round" stroke-miterlimit="3" stroke-dasharray="none" stroke-width="0.70899999999999996" fill="param(fill) #000"/></g></g></g></g></g></svg>
