<?xml version="1.0" encoding="UTF-8" standalone="no"?>
<!-- Created with Inkscape (http://www.inkscape.org/) -->
<svg id="svg3391" xmlns:rdf="http://www.w3.org/1999/02/22-rdf-syntax-ns#" xmlns="http://www.w3.org/2000/svg" xml:space="preserve" height="35.433" width="35.433" version="1.1" xmlns:cc="http://creativecommons.org/ns#" xmlns:dc="http://purl.org/dc/elements/1.1/"><metadata id="metadata3397"><rdf:RDF><cc:Work rdf:about=""><dc:format>image/svg+xml</dc:format><dc:type rdf:resource="http://purl.org/dc/dcmitype/StillImage"/><dc:title/></cc:Work></rdf:RDF></metadata><defs id="defs3395"><clipPath id="clipPath3401" clipPathUnits="userSpaceOnUse"><path id="path3403" d="m-28.487,0,28.346,0,0,28.346-28.346,0,0-28.346z"/></clipPath><clipPath id="clipPath3411" clipPathUnits="userSpaceOnUse"><path id="path3413" clip-rule="evenodd" d="M0,56.7,0,0h-19.1v56.7h19.1z"/></clipPath></defs><g id="g3399" clip-path="url(#clipPath3401)" transform="matrix(1.25,0,0,-1.25,35.608625,35.433125)"><g id="g3405" fill="param(fill) #000" transform="matrix(0,-0.5,-0.5,0,-0.32909501,9.520112)"><g id="g3407" fill="param(fill) #000"><g id="g3409" fill="param(fill) #000" clip-path="url(#clipPath3411)"><g id="g3415" fill="param(fill) #000" transform="translate(-17.6,29.5)"><path id="path3417" stroke-linejoin="miter" d="m0,0,5.7,0,0,2.3,1.2,0,0,1.2,2.3,0,0,1.1,4.6,0,0,1.2,1.2,0,0,3.5-1.2,0,0,1.1-4.6,0,0,1.2-1.2,0,0,1.1-1.1,0,0,1.2-1.2,0,0,4.6,1.2,0,0,2.3,1.1,0,0,1.2,4.6,0,0,1.1,1.2,0,0,1.2,1.2,0,0,1.1,1.1,0,0-3.4-1.1,0,0-1.2-1.2,0,0-1.1-4.6,0,0-1.2-1.2,0,0-1.2-1.1,0,0-2.3,1.1,0,0-1.1,2.3,0,0-1.2,3.5,0,0-1.1,1.2,0,0-1.2,1.1,0,0-5.8-1.1,0,0-1.1-1.2,0,0-1.2-4.6,0,0-1.1-2.3,0,0-3.5,1.1,0,0-1.1,1.2,0,0-1.2,4.6,0,0-1.1,1.2,0,0-1.2,1.1,0,0-5.8-1.1,0,0-1.1-1.2,0,0-1.2-3.5,0,0-1.1-2.3,0,0-1.2-1.1,0,0-2.3,1.1,0,0-1.2,1.2,0,0-1.1,4.6,0,0-1.2,1.2,0,0-1.1,1.1,0,0-3.5-1.1,0,0,1.2-1.2,0,0,1.1-1.2,0,0,1.2-4.6,0,0,1.1-1.1,0,0,2.3-1.2,0,0,4.7,1.2,0,0,1.1,1.1,0,0,1.2,2.3,0,0,1.1,3.5,0,0,1.2,1.2,0,0,3.4-1.2,0,0,1.2-4.6,0,0,1.2-2.3,0,0,1.1-1.2,0,0,2.3-5.7,0,0,2.3" stroke="param(outline) #000" stroke-linecap="round" stroke-miterlimit="3" stroke-dasharray="none" stroke-width="0.70899999000000002" fill="param(fill) #000"/></g></g></g></g></g></svg>
