<?xml version="1.0" encoding="UTF-8" standalone="no"?>
<!-- Created with Inkscape (http://www.inkscape.org/) -->
<svg id="svg79820" xmlns:rdf="http://www.w3.org/1999/02/22-rdf-syntax-ns#" xmlns="http://www.w3.org/2000/svg" xml:space="preserve" height="35.433" width="35.433" version="1.1" xmlns:cc="http://creativecommons.org/ns#" xmlns:dc="http://purl.org/dc/elements/1.1/"><metadata id="metadata79826"><rdf:RDF><cc:Work rdf:about=""><dc:format>image/svg+xml</dc:format><dc:type rdf:resource="http://purl.org/dc/dcmitype/StillImage"/><dc:title/></cc:Work></rdf:RDF></metadata><defs id="defs79824"><clipPath id="clipPath79830" clipPathUnits="userSpaceOnUse"><path id="path79832" d="m-49.83,0,28.346,0,0,28.346-28.346,0,0-28.346z"/></clipPath><clipPath id="clipPath79840" clipPathUnits="userSpaceOnUse"><path id="path79842" clip-rule="evenodd" d="M0,56.7,0,0h-47.5v56.7h47.5z"/></clipPath></defs><g id="g79828" clip-path="url(#clipPath79830)" transform="matrix(1.25,0,0,-1.25,62.288125,35.433125)"><g id="g79834" transform="matrix(0,-0.5,0.5,0,-50.007232,2.4847754)" stroke="param(outline) #000" stroke-dasharray="none" stroke-miterlimit="4" stroke-width="1.96000004"><g id="g79836" stroke="param(outline) #000" stroke-miterlimit="4" stroke-dasharray="none" stroke-width="1.96000004"><g id="g79838" clip-path="url(#clipPath79840)" stroke="param(outline) #000" stroke-dasharray="none" stroke-miterlimit="4" stroke-width="1.96000004"><g id="g79844" transform="translate(-21.7,28.9)"><path id="path79846" stroke-linejoin="miter" d="M0,0-0.9,0-1.8-0.9" stroke="param(outline) #000" stroke-linecap="round" stroke-miterlimit="4" stroke-dasharray="none" stroke-width="1.96000004" fill="none"/></g><g id="g79848" transform="translate(-21.7,28.9)"><path id="path79850" stroke-linejoin="miter" d="m0,0,1-2.7,3.6-1.9,6.5-3.6,6.4-3.7,3.7-2.8,0-10.1-0.9-0.9-3.7,0-6.5,3.7-4.6,2.7-6.4,3.7-6.4,3.7-6.5,3.7-4.6,2.7-5.5,2.8-0.9,2.7,1.8,1.9,3.7,1.8,6.5,3.7,6.4,3.7,4.6,2.7,6.4,3.7,6.5,3.7,4.6,2.7,0.9,1,2.7,0,1.9,0.9,0-12l-1.9-1.8-3.6-1.9-6.5-3.6-6.4-3.7-2.8-2.8" stroke="param(outline) #000" stroke-linecap="round" stroke-miterlimit="4" stroke-dasharray="none" stroke-width="1.96000004" fill="none"/></g></g></g></g></g></svg>
