<?xml version="1.0" encoding="UTF-8" standalone="no"?>
<!-- Created with Inkscape (http://www.inkscape.org/) -->
<svg id="svg3827" xmlns:rdf="http://www.w3.org/1999/02/22-rdf-syntax-ns#" xmlns="http://www.w3.org/2000/svg" xml:space="preserve" height="35.433" width="35.433" version="1.1" xmlns:cc="http://creativecommons.org/ns#" xmlns:dc="http://purl.org/dc/elements/1.1/"><metadata id="metadata3833"><rdf:RDF><cc:Work rdf:about=""><dc:format>image/svg+xml</dc:format><dc:type rdf:resource="http://purl.org/dc/dcmitype/StillImage"/><dc:title/></cc:Work></rdf:RDF></metadata><defs id="defs3831"><clipPath id="clipPath3837" clipPathUnits="userSpaceOnUse"><path id="path3839" d="m-53.954,0,28.346,0,0,28.346-28.346,0,0-28.346z"/></clipPath><clipPath id="clipPath3847" clipPathUnits="userSpaceOnUse"><path id="path3849" clip-rule="evenodd" d="M0,56.7,0,0h-53v56.7h53z"/></clipPath></defs><g id="g3835" clip-path="url(#clipPath3837)" transform="matrix(1.25,0,0,-1.25,67.4425,35.433125)"><g id="g3841" fill="param(fill) #000" transform="matrix(0,-0.5,0.5,0,-54.270377,1.2048877)"><g id="g3843" fill="param(fill) #000"><g id="g3845" fill="param(fill) #000" clip-path="url(#clipPath3847)"><g id="g3851" transform="translate(-51,36.6)"><path id="path3853" stroke-linejoin="miter" d="m0,0,24,0,0,17.8,3.1,0,0-17.8,23.3,0,0-3.8h-50.4v3.8" stroke="param(outline) #000" stroke-linecap="round" stroke-miterlimit="3" stroke-dasharray="none" stroke-width="0.70899999000000002" fill="param(fill) #000"/></g><g id="g3855" transform="translate(-51,23.5)"><path id="path3857" stroke-linejoin="miter" d="m0,0,50.4,0,0-3.1-23.3,0,0-17.9-3.1,0,0,17.9-24,0,0,3.1" stroke="param(outline) #000" stroke-linecap="round" stroke-miterlimit="3" stroke-dasharray="none" stroke-width="0.70899999000000002" fill="param(fill) #000"/></g></g></g></g></g></svg>
