<?xml version="1.0" encoding="UTF-8" standalone="no"?>
<!-- Created with Inkscape (http://www.inkscape.org/) -->
<svg id="svg81708" xmlns:rdf="http://www.w3.org/1999/02/22-rdf-syntax-ns#" xmlns="http://www.w3.org/2000/svg" xml:space="preserve" height="35.433" width="35.433" version="1.1" xmlns:cc="http://creativecommons.org/ns#" xmlns:dc="http://purl.org/dc/elements/1.1/"><metadata id="metadata81714"><rdf:RDF><cc:Work rdf:about=""><dc:format>image/svg+xml</dc:format><dc:type rdf:resource="http://purl.org/dc/dcmitype/StillImage"/><dc:title/></cc:Work></rdf:RDF></metadata><defs id="defs81712"><clipPath id="clipPath81718" clipPathUnits="userSpaceOnUse"><path id="path81720" d="m-3.2423,0,28.346,0,0,28.346-28.346,0,0-28.346z"/></clipPath><clipPath id="clipPath81728" clipPathUnits="userSpaceOnUse"><path id="path81730" clip-rule="evenodd" d="M43.7,0,0,0v56.7h43.7v-56.7z"/></clipPath></defs><g id="g81716" clip-path="url(#clipPath81718)" transform="matrix(1.25,0,0,-1.25,4.05285,35.433125)"><g id="g81722" transform="scale(0.5,0.5)"><g id="g81724"><g id="g81726" clip-path="url(#clipPath81728)" stroke="param(outline) #000" stroke-dasharray="none" stroke-miterlimit="4" stroke-width="1.32"><g id="g81732" transform="translate(33.6,33.8)"><path id="path81734" stroke-linejoin="miter" d="m0,0-0.7,0,0-5.4-0.8,0,0-1.5,2.3,0,0,3.8-0.8,0,0,3.1" stroke="param(outline) #000" stroke-linecap="round" stroke-miterlimit="4" stroke-dasharray="none" stroke-width="1.32" fill="none"/></g><g id="g81736" transform="translate(18.2,35.4)"><path id="path81738" stroke-linejoin="miter" d="m0,0-0.8,0,0-1.6-0.8,0,0-1.5-0.7,0,0-1.6-0.8,0,0-0.7-0.8,0,0-0.8-0.8,0,0-0.8,0.8,0,0-10.8,0.8,0,0-3.9,0.8,0,0-3.1,0.7,0,0-0.7,0.8,0,0-1.6,0.8,0,0-0.7,0.8,0,0-1.6,0.7,0,0,5.4-0.7,0,0,9.3-0.8,0v14.7" stroke="param(outline) #000" stroke-linecap="round" stroke-miterlimit="4" stroke-dasharray="none" stroke-width="1.32" fill="none"/></g><g id="g81740" transform="translate(27.5,53.9)"><path id="path81742" stroke-linejoin="miter" d="m0,0,0-0.8,1.5,0,0-5.4-0.8,0,0-0.7-0.7,0,0-0.8-4.7,0,0,0.8-0.8,0,0,0.7-0.7,0,0,1.6-0.8,0,0,0.7-1.5,0,0,0.8,0.7,0,0,0.8,0.8,0,0,0.8,0.8,0,0,0.7-0.8,0,0,0.8,3.1,0,0-0.8,0.8,0,0,0.8,0.7,0,0-0.8,0.8,0,0,0.8,1.6,0" stroke="param(outline) #000" stroke-linecap="round" stroke-miterlimit="4" stroke-dasharray="none" stroke-width="1.32" fill="none"/></g><g id="g81744" transform="translate(21.3,50.8)"><path id="path81746" stroke-linejoin="miter" d="m0,0-0.8,0,0-0.8,0.8,0,0,0.8" stroke="param(outline) #000" stroke-linecap="round" stroke-miterlimit="4" stroke-dasharray="none" stroke-width="1.32" fill="none"/></g><g id="g81748" transform="translate(28.2,45.4)"><path id="path81750" stroke-linejoin="miter" d="m0,0,0-1.5,3.9,0,0-0.8,0.8,0,0-0.8,0.7,0,0-0.8,0.8,0,0-0.7,0.8,0,0-1.6,0.8,0,0-1.5,0.7,0,0-2.3,0.8,0,0-2.4,0.8,0,0-8.4-0.8,0,0-0.8-0.8,0,0-0.8-2.3,0,0-2.3-0.8,0,0-3.1-2.3,0,0-1.5-0.8,0,0-5.5-0.7,0,0-6.1-0.8,0,0-0.8-9.3,0,0,1.5-0.7,0,0-0.7-1.6,0,0-0.8-2.3,0,0,1.5-0.8,0,0,0.8-0.8,0,0,1.6-0.7,0,0,0.7-0.8,0,0,1.6-0.8,0,0,3.1-1.5,0,0-1.6-0.8,0,0-0.8-0.8,0,0-3-0.7,0,0-2.4-0.8,0,0-1.5-1.6,0,0,0.8-2.3,0,0,3.1,0.8,0,0,3.8,0.8,0,0,1.6,0.7,0,0,1.5,0.8,0,0,0.8,0.8,0,0,1.5,0.8,0,0,0.8,0.7,0,0,7.7,0.8,0,0,1.6,0.8,0,0,0.7-3.9,0,0,0.8-0.8,0,0,0.8-0.7,0,0,3.1,0.7,0,0,0.7,4.7,0,0-0.7,0.8,0,0-0.8,0.7,0,0,0.8,0.8,0,0,1.5,0.8,0,0,1.6,0.7,0,0,1.5,0.8,0,0,1.6,0.8,0,0,1.5,0.8,0,0,1.5,0.7,0,0,0.8,0.8,0,0,0.8,0.8,0,0,0.8,3.8,0,0,1.5,6.2,0" stroke="param(outline) #000" stroke-linecap="round" stroke-miterlimit="4" stroke-dasharray="none" stroke-width="1.32" fill="none"/></g><g id="g81752" transform="translate(29,40.8)"><path id="path81754" stroke-linejoin="miter" d="m0,0-1.5,0,0-1.6,0.7,0,0-0.7,0.8,0,0,2.3" stroke="param(outline) #000" stroke-linecap="round" stroke-miterlimit="4" stroke-dasharray="none" stroke-width="1.32" fill="none"/></g></g></g></g></g></svg>
