<?xml version="1.0" encoding="UTF-8" standalone="no"?>
<!-- Created with Inkscape (http://www.inkscape.org/) -->
<svg id="svg3503" xmlns:rdf="http://www.w3.org/1999/02/22-rdf-syntax-ns#" xmlns="http://www.w3.org/2000/svg" xml:space="preserve" height="35.433" width="35.433" version="1.1" xmlns:cc="http://creativecommons.org/ns#" xmlns:dc="http://purl.org/dc/elements/1.1/"><metadata id="metadata3509"><rdf:RDF><cc:Work rdf:about=""><dc:format>image/svg+xml</dc:format><dc:type rdf:resource="http://purl.org/dc/dcmitype/StillImage"/><dc:title/></cc:Work></rdf:RDF></metadata><defs id="defs3507"><clipPath id="clipPath3513" clipPathUnits="userSpaceOnUse"><path id="path3515" d="m-55.783,0,28.346,0,0,28.346-28.346,0,0-28.346z"/></clipPath><clipPath id="clipPath3523" clipPathUnits="userSpaceOnUse"><path id="path3525" clip-rule="evenodd" d="M0,56.7,0,0h-55.5v56.7h55.5z"/></clipPath></defs><g id="g3511" clip-path="url(#clipPath3513)" transform="matrix(1.25,0,0,-1.25,69.729,35.433125)"><g id="g3517" fill="param(fill) #000" transform="matrix(0.509619,0,0,0.5,-27.661644,0)"><g id="g3519" fill="param(fill) #000"><g id="g3521" fill="param(fill) #000" clip-path="url(#clipPath3523)"><g id="g3527" fill="param(fill) #000" transform="translate(-53.3,28.6)"><path id="path3529" stroke-linejoin="miter" d="m0,0,3.9,0,0,4.7,0.8,0,0,3.1,0.8,0,0,1.6,0.8,0,0,2.3-0.8,0,0,0.8-0.8,0,0,1.6,0.8,0,0,0.7,0.8,0,0-0.7,0.7,0,0-0.8,1.6,0,0,0.8,1.6,0,0,0.7,0.7,0,0,0.8,0.8,0,0,0.8,1.6,0,0,0.8,0.8,0,0,0.8,0.7,0,0,0.7,1.6,0,0,0.8,0.8,0,0,0.8-0.8,0,0,2.4,1.6,0,0-0.8,0.8,0,0-0.8,0.7,0,0,0.8,2.4,0,0,0.8,1.5,0,0,0.7,3.2,0,0,0.8,0.7,0,0,2.4,1.6,0,0-0.8,0.8,0,0-1.6,2.3,0,0-2.3-1.5,0,0-3.2-1.6,0,0,1.6-0.8,0,0,0.8-3.1,0,0-0.8-2.3,0,0-0.8-2.4,0,0-2.3,0.8,0,0-1.6-0.8,0,0-0.8-0.8,0,0,0.8-0.7,0,0,1.6-1.6,0,0-0.8-1.6,0,0-0.8-0.8,0,0-0.8-1.5,0,0-0.7-0.8,0,0-0.8-0.8,0,0-0.8-0.8,0,0-1.6,1.6,0,0-1.5-0.8,0,0-0.8-1.5,0,0,0.8-0.8,0,0,0.8-0.8,0,0-0.8-0.8,0,0-1.6-0.8,0,0-1.6-0.7,0,0-3.1-0.8,0,0-3.1,3.9,0,0-3.1-3.9,0,0-1.6,0.8,0,0-2.3,0.7,0,0-2.4,0.8,0,0-0.8,0.8,0,0-1.5,0.8,0,0-0.8,0.8,0,0,0.8,0.7,0,0,0.8,0.8,0,0,0.7,0.8,0,0-0.7,0.8,0,0-2.4-0.8,0,0-0.8-0.8,0,0-0.7,0.8,0,0-0.8,1.6,0,0-0.8,0.7,0,0-0.8,2.4,0,0-0.8,3.1,0,0-0.8,2.4,0,0,4,1.5,0,0-4,3.9,0,0,0.8,4.7,0,0,0.8,1.6,0,0,0.8,0.8,0,0,0.8-0.8,0,0,2.3,1.5,0,0-0.8,0.8,0,0-0.7,1.6,0,0,0.7,0.8,0,0,0.8,0.7,0,0,0.8,0.8,0,0,0.8,0.8,0,0,0.8,0.8,0,0,1.5,0.8,0,0,0.8,0.8,0,0,0.8,0.7,0,0,2.3-0.7,0,0,0.8-0.8,0,0,1.6,0.8,0,0,0.8,0.7,0,0-0.8,1.6,0,0-0.8,0.8,0,0,0.8,0.8,0,0,0.8,0.7,0,0,1.5,2.4,0,0-1.5-0.8,0,0-1.6-0.8,0,0-0.8-0.8,0,0-0.8,0.8,0,0-0.8,1.6,0,0-1.5-0.8,0,0-0.8-1.6,0,0,0.8-0.7,0,0,0.8-0.8,0,0-1.6-0.8,0,0-0.8-0.8,0,0-1.5-0.8,0,0-0.8-0.7,0,0-0.8-0.8,0,0-0.8-0.8,0,0-0.8-0.8,0,0-0.7-0.8,0,0-0.8-0.8,0,0-0.8-0.7,0,0-0.8,0.7,0,0-0.8,0.8,0,0-2.3-1.5,0,0,0.8-0.8,0,0,0.7-0.8,0,0,0.8-0.8,0,0-0.8-0.8,0,0-0.7-2.3,0,0-0.8-2.3,0,0-0.8-7.1,0,0-3.1-1.5,0,0,3.1-3.2,0,0,0.8-3.1,0,0,0.8-1.6,0,0,0.7-1.5,0,0,0.8-1.6,0,0,0.8-0.8,0,0,0.8-1.5,0,0-0.8-0.8,0,0-0.8-0.8,0,0-0.8-0.8,0,0,0.8-0.7,0,0,0.8-0.8,0,0,0.8,0.8,0,0,0.8,0.7,0,0,0.8,0.8,0,0,1.5-0.8,0,0,1.6-0.7,0,0,1.5-0.8,0,0,1.6-0.8,0,0,2.3-0.8,0,0,3.2-3.9,0,0,3.1" stroke="param(outline) #000" stroke-linecap="round" stroke-miterlimit="3" stroke-dasharray="none" stroke-width="0.70899999000000002" fill="param(fill) #000"/></g></g></g></g></g></svg>
