<?xml version="1.0" encoding="UTF-8" standalone="no"?>
<!-- Created with Inkscape (http://www.inkscape.org/) -->
<svg id="svg3447" xmlns:rdf="http://www.w3.org/1999/02/22-rdf-syntax-ns#" xmlns="http://www.w3.org/2000/svg" xml:space="preserve" height="35.433" width="35.433" version="1.1" xmlns:cc="http://creativecommons.org/ns#" xmlns:dc="http://purl.org/dc/elements/1.1/"><metadata id="metadata3453"><rdf:RDF><cc:Work rdf:about=""><dc:format>image/svg+xml</dc:format><dc:type rdf:resource="http://purl.org/dc/dcmitype/StillImage"/><dc:title/></cc:Work></rdf:RDF></metadata><defs id="defs3451"><clipPath id="clipPath3457" clipPathUnits="userSpaceOnUse"><path id="path3459" d="m-4.6529,0,28.346,0,0,28.346-28.346,0,0-28.346z"/></clipPath><clipPath id="clipPath3467" clipPathUnits="userSpaceOnUse"><path id="path3469" clip-rule="evenodd" d="M38.1,0,0,0v56.7h38.1v-56.7z"/></clipPath></defs><g id="g3455" clip-path="url(#clipPath3457)" transform="matrix(1.25,0,0,-1.25,5.816175,35.433125)"><g id="g3461" transform="scale(0.5,0.5)"><g id="g3463"><g id="g3465" clip-path="url(#clipPath3467)"><g id="g3471" transform="translate(14.5,16)"><path id="path3473" stroke-linejoin="miter" d="m0,0,0,19.7-0.8,0.8-7.7,0-0.9,0.9,0,6.8,0.9,0.9,8.5,0,0,8.5,0.9,0.9,6.8,0,0.9-0.9,0-7.7,0.8-0.8,7.7,0,0.9-0.9,0-7.7-8.6,0-0.8-0.8,0-19.7-17.1,0-0.9-0.9,0-12.8,0.9-0.9,26.5,0,0,13.7l-0.9,0.9h-8.5" stroke="param(outline) #000" stroke-linecap="round" stroke-miterlimit="3" stroke-dasharray="none" stroke-width="0.709" fill="none"/></g></g></g></g></g></svg>
