<?xml version="1.0" encoding="UTF-8" standalone="no"?>
<!-- Created with Inkscape (http://www.inkscape.org/) -->
<svg id="svg3651" xmlns:rdf="http://www.w3.org/1999/02/22-rdf-syntax-ns#" xmlns="http://www.w3.org/2000/svg" xml:space="preserve" height="35.433" width="35.433" version="1.1" xmlns:cc="http://creativecommons.org/ns#" xmlns:dc="http://purl.org/dc/elements/1.1/"><metadata id="metadata3657"><rdf:RDF><cc:Work rdf:about=""><dc:format>image/svg+xml</dc:format><dc:type rdf:resource="http://purl.org/dc/dcmitype/StillImage"/><dc:title/></cc:Work></rdf:RDF></metadata><defs id="defs3655"><clipPath id="clipPath3661" clipPathUnits="userSpaceOnUse"><path id="path3663" d="m-49.83,0,28.346,0,0,28.346-28.346,0,0-28.346z"/></clipPath><clipPath id="clipPath3671" clipPathUnits="userSpaceOnUse"><path id="path3673" clip-rule="evenodd" d="M0,56.7,0,0h-47.5v56.7h47.5z"/></clipPath></defs><g id="g3659" clip-path="url(#clipPath3661)" transform="matrix(1.25,0,0,-1.25,62.288125,35.433125)"><g id="g3665" fill="none" transform="matrix(0,-0.5,0.5,0,-49.526784,2.2445509)"><g id="g3667" fill="none"><g id="g3669" fill="none" clip-path="url(#clipPath3671)"><g id="g3675" transform="translate(-21.7,28.9)"><path id="path3677" stroke-linejoin="miter" d="M0,0-0.9,0-1.8-0.9" stroke="param(outline) #000" stroke-linecap="round" stroke-miterlimit="3" stroke-dasharray="none" stroke-width="0.70899999000000002" fill="none"/></g><g id="g3679" transform="translate(-21.7,28.9)"><path id="path3681" stroke-linejoin="miter" d="m0,0,1-2.7,3.6-1.9,6.5-3.6,6.4-3.7,3.7-2.8,0-10.1-0.9-0.9-3.7,0-6.5,3.7-4.6,2.7-6.4,3.7-6.4,3.7-6.5,3.7-4.6,2.7-5.5,2.8-0.9,2.7,1.8,1.9,3.7,1.8,6.5,3.7,6.4,3.7,4.6,2.7,6.4,3.7,6.5,3.7,4.6,2.7,0.9,1,2.7,0,1.9,0.9,0-12l-1.9-1.8-3.6-1.9-6.5-3.6-6.4-3.7-2.8-2.8" stroke="param(outline) #000" stroke-linecap="round" stroke-miterlimit="3" stroke-dasharray="none" stroke-width="0.70899999000000002" fill="none"/></g></g></g></g></g></svg>
