<?xml version="1.0" encoding="UTF-8" standalone="no"?>
<!-- Created with Inkscape (http://www.inkscape.org/) -->
<svg id="svg4141" xmlns:rdf="http://www.w3.org/1999/02/22-rdf-syntax-ns#" xmlns="http://www.w3.org/2000/svg" xml:space="preserve" height="35.61" width="35.61" version="1.1" xmlns:cc="http://creativecommons.org/ns#" xmlns:dc="http://purl.org/dc/elements/1.1/"><metadata id="metadata4147"><rdf:RDF><cc:Work rdf:about=""><dc:format>image/svg+xml</dc:format><dc:type rdf:resource="http://purl.org/dc/dcmitype/StillImage"/><dc:title/></cc:Work></rdf:RDF></metadata><defs id="defs4145"><clipPath id="clipPath4155" clipPathUnits="userSpaceOnUse"><path id="path4157" clip-rule="evenodd" d="M0,28.488,0,0h28.488v28.488h-28.488z"/></clipPath><clipPath id="clipPath4165" clipPathUnits="userSpaceOnUse"><path id="path4167" clip-rule="evenodd" d="M0,28.488,0,0h28.488v28.488h-28.488z"/></clipPath><clipPath id="clipPath4175" clipPathUnits="userSpaceOnUse"><path id="path4177" clip-rule="evenodd" d="M0,28.488,0,0h28.488v28.488h-28.488z"/></clipPath></defs><g id="g4149" transform="matrix(1.25,0,0,-1.25,0,35.610237)"><g id="g4151"><g id="g4153" clip-path="url(#clipPath4155)"><path id="path4159" d="m-1.4346-1.4689,0,31.395,31.322,0,0-31.395-31.322,0z" fill="none"/></g></g><g id="g4161" transform="translate(-0.96570135,-0.362138)" fill="param(fill) #000"><g id="g4163" clip-path="url(#clipPath4165)" fill="param(fill) #000"><path id="path4169" d="m16.737,21.059-1.1955,0,0,4.7931-1.1955,0,0-4.7931-0.95641,0,1.6737-4.5535,1.6737,4.5535zm8.8468-6.2311,0,1.1983-5.0212,0,0,0.95862-4.3038-1.6776,4.3038-1.6776,0,1.1983,5.0212,0zm-11.955,0.47932-4.3038,1.6776,0-0.95862-4.782,0,0-1.1983,4.782,0,0-1.1983,4.3038,1.6776zm3.1083-5.5121-1.6737,4.0742-1.6737-4.0742,0.95641,0,0-5.0328,1.1955,0,0,5.0328,1.1955,0z" fill="param(fill) #000" fill-rule="evenodd"/></g></g><g id="g4171"><g id="g4173" clip-path="url(#clipPath4175)"><path id="path4179" stroke-linejoin="round" d="m-1.4346-1.4689,0,31.395,31.322,0,0-31.395-31.322,0z" stroke="none" stroke-linecap="round" stroke-miterlimit="10" stroke-dasharray="none" stroke-width="0.95641" fill="none"/></g></g></g></svg>
