<?xml version="1.0" encoding="UTF-8" standalone="no"?>
<!-- Created with Inkscape (http://www.inkscape.org/) -->
<svg id="svg4384" xmlns:rdf="http://www.w3.org/1999/02/22-rdf-syntax-ns#" xmlns="http://www.w3.org/2000/svg" xml:space="preserve" height="35.61" width="35.61" version="1.1" xmlns:cc="http://creativecommons.org/ns#" xmlns:dc="http://purl.org/dc/elements/1.1/"><metadata id="metadata4390"><rdf:RDF><cc:Work rdf:about=""><dc:format>image/svg+xml</dc:format><dc:type rdf:resource="http://purl.org/dc/dcmitype/StillImage"/><dc:title/></cc:Work></rdf:RDF></metadata><defs id="defs4388"><clipPath id="clipPath4398" clipPathUnits="userSpaceOnUse"><path id="path4400" clip-rule="evenodd" d="M0,28.488,0,0h28.488v28.488h-28.488z"/></clipPath><clipPath id="clipPath4410" clipPathUnits="userSpaceOnUse"><path id="path4412" clip-rule="evenodd" d="M0,28.488,0,0h28.488v28.488h-28.488z"/></clipPath><clipPath id="clipPath4420" clipPathUnits="userSpaceOnUse"><path id="path4422" clip-rule="evenodd" d="M0,28.488,0,0h28.488v28.488h-28.488z"/></clipPath></defs><g id="g4392" transform="matrix(1.25,0,0,-1.25,0,35.610237)"><g id="g4394"><g id="g4396" clip-path="url(#clipPath4398)" fill="none"><path id="path4402" d="m21.519,29.926,0-1.6776-16.737,0,0,1.6776,16.737,0z"/><path id="path4404" d="m4.782,29.926,0-1.6776,16.737,0,0,1.6776,8.3686,0,0-31.395-31.322,0,0,31.395,6.2167,0z"/></g></g><g id="g4416"><g id="g4418" clip-path="url(#clipPath4420)"><path id="path4424" stroke-linejoin="round" d="m-1.4346-1.4689,0,31.395,31.322,0,0-31.395-31.322,0z" stroke="none"stroke-linecap="round" stroke-miterlimit="10" stroke-dasharray="none" stroke-width="0.95641" fill="none"/></g></g><g id="g4406" transform="translate(0.24142534,2.2935407)"><g id="g4408" clip-path="url(#clipPath4410)"><path id="path4414" d="m5.0212,11.952,0-0.47932,18.172,0,0,0.47932-7.6513,0-1.4346,2.3966-1.6737-2.3966-7.4122,0zm8.3686,0,0.71731,0.95862,0.7173-0.95862-1.4346,0z" fill="param(fill) #000" fill-rule="evenodd"/></g></g></g></svg>
