<?xml version="1.0" encoding="UTF-8" standalone="no"?>
<!-- Created with Inkscape (http://www.inkscape.org/) -->
<svg id="svg5086" xmlns:rdf="http://www.w3.org/1999/02/22-rdf-syntax-ns#" xmlns="http://www.w3.org/2000/svg" xml:space="preserve" height="35.61" width="35.61" version="1.1" xmlns:cc="http://creativecommons.org/ns#" xmlns:dc="http://purl.org/dc/elements/1.1/"><metadata id="metadata5092"><rdf:RDF><cc:Work rdf:about=""><dc:format>image/svg+xml</dc:format><dc:type rdf:resource="http://purl.org/dc/dcmitype/StillImage"/><dc:title/></cc:Work></rdf:RDF></metadata><defs id="defs5090"><clipPath id="clipPath5100" clipPathUnits="userSpaceOnUse"><path id="path5102" clip-rule="evenodd" d="M0,28.488,0,0h28.488v28.488h-28.488z"/></clipPath><clipPath id="clipPath5110" clipPathUnits="userSpaceOnUse"><path id="path5112" clip-rule="evenodd" d="M0,28.488,0,0h28.488v28.488h-28.488z"/></clipPath></defs><g id="g5094" transform="matrix(1.25,0,0,-1.25,0,35.610237)"><g id="g5096"><g id="g5098" clip-path="url(#clipPath5100)"><path id="path5104" stroke-linejoin="round" d="m-1.4346-1.4689,0,31.395,31.322,0,0-31.395-31.322,0z" stroke="none"stroke-linecap="round" stroke-miterlimit="10" stroke-dasharray="none" stroke-width="0.95641" fill="none"/></g></g><g id="g5106"><g id="g5108" clip-path="url(#clipPath5110)"><text id="text5114" transform="matrix(0.99768651,0,0,-1,-0.71731,77.11621)"><tspan id="tspan5116" style="writing-mode:lr;" font-weight="bold" fill-rule="nonzero" font-size="2.15691" font-variant="normal" y="0" x="0 1.20105376 2.40210753 3.84337636 5.04443012 6.48569896" font-family="Arial" fill="none">Legend</tspan></text>
<text id="text5118" transform="matrix(0.99768651,0,0,-1,20.8019,61.80043)"><tspan id="tspan5120" style="writing-mode:lr;" font-weight="normal" fill-rule="nonzero" font-size="2.15691" font-variant="normal" y="0" x="0 1.20105376 1.6814839 2.88253766 4.08359143 4.80423663 6.00529039 7.20634416 8.64761299 9.60845168" font-family="Arial" fill="none">Lighthouse</tspan></text>
<text id="text5122" transform="matrix(0.99768651,0,0,-1,20.8019,35.67788)"><tspan id="tspan5124" style="writing-mode:lr;" font-weight="normal" fill-rule="nonzero" font-size="2.15691" font-variant="normal" y="0" x="0 1.6814839 2.16191403 2.88255923 4.083613 5.28466676 6.48572052 7.20636572 8.40741949 9.12806469 10.80954859 12.01060235 13.21165612" font-family="Arial" fill="none">Offshore Rock</tspan></text>
<path id="path5126" d="m20.324,6.4398,2.8692,3.3552-4.3038-0.23966,0.2391-0.95862-0.7173-0.23966-0.71731-0.47931-1.1955-0.23966-1.1955-0.23965,0,9.3466,3.1083,0,0.4782-0.47932,0.71731-0.23965,0.71731,0.23965,0.4782,0.95863-0.4782,0.95862-0.71731,0.47932-0.71731-0.23966-0.4782-0.47931-3.1083,0,0,1.1983,0.2391,0.23966,0.71731,0.47931,0.2391,0.95862,0,0.71897-0.47821,0.71897-0.7173,0.23966-0.47821,0.23966-0.7173-0.23966-0.71731-0.23966-0.2391-0.71897-0.23911-0.71897,0.23911-0.71896,0.4782-0.71897,0.47821-0.23966,0-1.1983-3.1083,0-0.47821,0.47931-0.71731,0.23966-0.7173-0.47932-0.47821-0.95862,0.47821-0.71897,0.7173-0.47931,0.71731,0.23965,0.47821,0.47932,3.1083,0,0-9.3466-1.6737,0.23965-2.391,0.71897,0.4782,0.95863-4.3038,0.47931,2.8692-3.3552,0.4782,0.95863,1.6737-0.71897,1.6737-0.47932,0.95641-0.23965,0.47821,0,0.7173,0,0.47821,0.23965,2.391,0.23966,0.71731,0.23966,1.1955,0.71897,0.47821-0.95863z" fill="param(fill) #000" fill-rule="evenodd"/></g></g></g></svg>
