<?xml version="1.0" encoding="UTF-8" standalone="no"?>
<!-- Created with Inkscape (http://www.inkscape.org/) -->
<svg id="svg5040" xmlns:rdf="http://www.w3.org/1999/02/22-rdf-syntax-ns#" xmlns="http://www.w3.org/2000/svg" xml:space="preserve" height="35.61" width="35.61" version="1.1" xmlns:cc="http://creativecommons.org/ns#" xmlns:dc="http://purl.org/dc/elements/1.1/"><metadata id="metadata5046"><rdf:RDF><cc:Work rdf:about=""><dc:format>image/svg+xml</dc:format><dc:type rdf:resource="http://purl.org/dc/dcmitype/StillImage"/><dc:title/></cc:Work></rdf:RDF></metadata><defs id="defs5044"><clipPath id="clipPath5054" clipPathUnits="userSpaceOnUse"><path id="path5056" clip-rule="evenodd" d="M0,28.488,0,0h28.488v28.488h-28.488z"/></clipPath><clipPath id="clipPath5064" clipPathUnits="userSpaceOnUse"><path id="path5066" clip-rule="evenodd" d="M0,28.488,0,0h28.488v28.488h-28.488z"/></clipPath></defs><g id="g5048" transform="matrix(1.25,0,0,-1.25,0,35.610237)"><g id="g5050"><g id="g5052" clip-path="url(#clipPath5054)"><path id="path5058" stroke-linejoin="round" d="m-1.4346-1.4689,0,31.395,31.322,0,0-31.395-31.322,0z" stroke="none"stroke-linecap="round" stroke-miterlimit="10" stroke-dasharray="none" stroke-width="0.95641" fill="none"/></g></g><g id="g5060"><g id="g5062" clip-path="url(#clipPath5064)"><text id="text5068" transform="matrix(0.99768651,0,0,-1,1.43461,50.99366)"><tspan id="tspan5070" style="writing-mode:lr;" font-weight="bold" fill-rule="nonzero" font-size="2.15691" font-variant="normal" y="0" x="0 1.20105376 2.40210753 3.84337636 5.04443012 6.48569896" font-family="Arial" fill="none">Legend</tspan></text>
<text id="text5072" transform="matrix(0.99768651,0,0,-1,22.95382,35.67788)"><tspan id="tspan5074" style="writing-mode:lr;" font-weight="normal" fill-rule="nonzero" font-size="2.15691" font-variant="normal" y="0" x="0 1.20105376 1.6814839 2.88253766 4.08359143 4.80423663 6.00529039 7.20634416 8.64761299 9.60845168" font-family="Arial" fill="none">Lighthouse</tspan></text>
<path id="path5076" d="m20.085,19.621-6.4558,3.3552,0-12.222-4.0647,0,0-5.0328,8.8468,0,0,5.0328-4.0647,0,0,5.9914,5.7384,2.8759z" fill="param(fill) #000" fill-rule="evenodd"/><text id="text5082" transform="matrix(0.99768651,0,0,-1,22.95382,-16.0879)"><tspan id="tspan5084" style="writing-mode:lr;" font-weight="normal" fill-rule="nonzero" font-size="2.15691" font-variant="normal" y="0" x="0 1.92169896 2.64234416 4.083613 5.04445169" font-family="Arial" fill="none">Wreck</tspan></text>
</g></g></g></svg>
