<?xml version="1.0" encoding="UTF-8" standalone="no"?>
<!-- Created with Inkscape (http://www.inkscape.org/) -->
<svg id="svg4130" xmlns:rdf="http://www.w3.org/1999/02/22-rdf-syntax-ns#" xmlns="http://www.w3.org/2000/svg" xml:space="preserve" height="35.61" width="35.61" version="1.1" xmlns:cc="http://creativecommons.org/ns#" xmlns:dc="http://purl.org/dc/elements/1.1/"><metadata id="metadata4136"><rdf:RDF><cc:Work rdf:about=""><dc:format>image/svg+xml</dc:format><dc:type rdf:resource="http://purl.org/dc/dcmitype/StillImage"/><dc:title/></cc:Work></rdf:RDF></metadata><defs id="defs4134"><clipPath id="clipPath5710" clipPathUnits="userSpaceOnUse"><path id="path5712" clip-rule="evenodd" d="M0,28.488,0,0h28.488v28.488h-28.488z"/></clipPath></defs><g id="g4138" transform="matrix(1.25,0,0,-1.25,0,35.610237)"><g id="g5706" stroke="#000"><g id="g5708" stroke="#000" clip-path="url(#clipPath5710)"><path id="path5714" fill="none" d="m19.082,16.391c0.68254,0.9591,1.0617,2.1388,1.0617,3.3233s-0.37919,2.369-1.0617,3.3281"/><path id="path5716" fill="none" d="m22.258,14.065c1.166,1.6305,1.8106,3.6398,1.8106,5.6491,0,2.0141-0.64462,4.0234-1.8106,5.6539"/><path id="path5718" fill="#000" d="M18.902,3.8695,15.537,17.916"/><path id="path5720" fill="#000" d="m10.185,3.8695,3.3511,13.993"/><path id="path5722" fill="#000" d="m10.185,3.8695,7.1145,6.6897"/><path id="path5724" fill="#000" d="m18.902,3.8695-7.1145,6.6897"/><path id="path5726" fill="none" d="m10.005,16.391c-0.68728,0.9591-1.0617,2.1388-1.0617,3.3233s0.37445,2.369,1.0617,3.3281"/><path id="path5728" fill="none" d="m6.8297,14.065c-1.166,1.6305-1.8106,3.6398-1.8106,5.6491,0,2.0141,0.64462,4.0234,1.8106,5.6539"/><path id="path5730" d="m17.148,19.757c-0.0237,1.453-1.2039,2.6136-2.6448,2.5944-1.4362-0.02398-2.5832-1.2181-2.5642-2.6759,0.0237-1.453,1.2039-2.6183,2.6448-2.5944,1.4362,0.02398,2.5832,1.2181,2.5642,2.6759z" fill-rule="nonzero" fill="#000"/></g></g></g></svg>
