<?xml version="1.0" encoding="UTF-8" standalone="no"?>
<!-- Created with Inkscape (http://www.inkscape.org/) -->
<svg id="svg4426" xmlns:rdf="http://www.w3.org/1999/02/22-rdf-syntax-ns#" xmlns="http://www.w3.org/2000/svg" xml:space="preserve" height="35.61" width="35.61" version="1.1" xmlns:cc="http://creativecommons.org/ns#" xmlns:dc="http://purl.org/dc/elements/1.1/"><metadata id="metadata4432"><rdf:RDF><cc:Work rdf:about=""><dc:format>image/svg+xml</dc:format><dc:type rdf:resource="http://purl.org/dc/dcmitype/StillImage"/><dc:title/></cc:Work></rdf:RDF></metadata><defs id="defs4430"><clipPath id="clipPath4440" clipPathUnits="userSpaceOnUse"><path id="path4442" clip-rule="evenodd" d="M0,28.488,0,0h28.488v28.488h-28.488z"/></clipPath><clipPath id="clipPath4454" clipPathUnits="userSpaceOnUse"><path id="path4456" clip-rule="evenodd" d="M0,28.488,0,0h28.488v28.488h-28.488z"/></clipPath></defs><g id="g4434" transform="matrix(1.25,0,0,-1.25,0,35.610237)"><g id="g4436"><g id="g4438" clip-path="url(#clipPath4440)" fill="param(fill) #000" fill-rule="evenodd"><path id="path4444" d="m8.8468,16.266-0.23911,0-0.2391,0,0-0.47931,0.2391-0.71897,0.47821-0.47931,0.7173-0.47931,0.71731,0,7.8904,0,1.1955,0.23965,0.71731,0.71897,0.2391,0.95863,0,0.23965-0.47821,0,0-0.23965,0-0.71897-0.4782-0.47932-0.47821-0.47931-0.7173,0-7.8904,0-0.71731,0-0.4782,0.47931-0.2391,0.71897-0.2391,0.71897zm1.6737-3.5948-1.4346-0.47932-0.47821-0.71897-0.2391-0.71896,0.2391,0,0.23911,0,0.2391,0.95862,0.4782,0.47931,0.95641,0.23966,7.8904,0,0.7173-0.23966,0.47821-0.23965,0.4782-0.47932,0-0.71896,0.47821,0-0.2391,0.71896,0,0.23966-0.95641,0.71897-0.95641,0.23966-7.8904,0z"/><path id="path4448" d="m17.215,29.926,0-0.47931-6.6949,0,0,0.47931,6.6949,0z"/></g></g><g id="g4450"><g id="g4452" clip-path="url(#clipPath4454)"><path id="path4458" stroke-linejoin="round" d="m-1.4346-1.4689,0,31.395,31.322,0,0-31.395-31.322,0z" stroke="none" stroke-linecap="round" stroke-miterlimit="10" stroke-dasharray="none" stroke-width="0.95641" fill="none"/></g></g></g></svg>
