<?xml version="1.0" encoding="UTF-8" standalone="no"?>
<!-- Created with Inkscape (http://www.inkscape.org/) -->
<svg id="svg4460" xmlns:rdf="http://www.w3.org/1999/02/22-rdf-syntax-ns#" xmlns="http://www.w3.org/2000/svg" xml:space="preserve" height="35.61" width="35.61" version="1.1" xmlns:cc="http://creativecommons.org/ns#" xmlns:dc="http://purl.org/dc/elements/1.1/"><metadata id="metadata4466"><rdf:RDF><cc:Work rdf:about=""><dc:format>image/svg+xml</dc:format><dc:type rdf:resource="http://purl.org/dc/dcmitype/StillImage"/><dc:title/></cc:Work></rdf:RDF></metadata><defs id="defs4464"><clipPath id="clipPath4474" clipPathUnits="userSpaceOnUse"><path id="path4476" clip-rule="evenodd" d="M0,28.488,0,0h28.488v28.488h-28.488z"/></clipPath><clipPath id="clipPath4484" clipPathUnits="userSpaceOnUse"><path id="path4486" clip-rule="evenodd" d="M0,28.488,0,0h28.488v28.488h-28.488z"/></clipPath></defs><g id="g4468" transform="matrix(1.25,0,0,-1.25,0,35.610237)"><g id="g4470"><g id="g4472" clip-path="url(#clipPath4474)"><path id="path4478" stroke-linejoin="round" d="m-1.4346-1.4689,0,31.395,31.322,0,0-31.395-31.322,0z" stroke="none" stroke-linecap="round" stroke-miterlimit="10" stroke-dasharray="none" stroke-width="0.95641" fill="none"/></g></g><g id="g4480" transform="translate(0,-0.96570135)"><g id="g4482" clip-path="url(#clipPath4484)"><text id="text4488" transform="matrix(0.99768651,0,0,-1,-1.91282,72.32308)"><tspan id="tspan4490" style="writing-mode:lr-tb;" font-family="Arial" fill-rule="nonzero" font-size="2.15690994px" font-variant="normal" y="0" x="0 1.2010537 2.4021075 3.8433764 5.0444303 6.4856992" font-weight="bold" fill="none">Legend</tspan></text>
<path id="path4492" d="m18.889,5.4812,0,20.131-2.1519-0.23965-1.9128-0.47932-1.6737-0.95862-1.6737-1.1983-1.1955-1.6776-0.95641-1.6776-0.4782-1.9173-0.23911-1.9172,0.23911-2.1569,0.4782-1.6776,0.95641-1.9172,1.1955-1.4379,1.6737-1.1983,1.6737-0.95863,1.9128-0.47931,2.1519-0.23966z" fill="param(fill) #000" fill-rule="evenodd"/></g></g></g></svg>
