<?xml version="1.0" encoding="UTF-8" standalone="no"?>
<!-- Created with Inkscape (http://www.inkscape.org/) -->
<svg id="svg82281" xmlns:rdf="http://www.w3.org/1999/02/22-rdf-syntax-ns#" xmlns="http://www.w3.org/2000/svg" xml:space="preserve" height="35.61" width="35.61" version="1.1" xmlns:cc="http://creativecommons.org/ns#" xmlns:dc="http://purl.org/dc/elements/1.1/"><metadata id="metadata82287"><rdf:RDF><cc:Work rdf:about=""><dc:format>image/svg+xml</dc:format><dc:type rdf:resource="http://purl.org/dc/dcmitype/StillImage"/><dc:title/></cc:Work></rdf:RDF></metadata><defs id="defs82285"><clipPath id="clipPath82295" clipPathUnits="userSpaceOnUse"><path id="path82297" clip-rule="evenodd" d="M0,28.488,0,0h28.488v28.488h-28.488z"/></clipPath><clipPath id="clipPath82309" clipPathUnits="userSpaceOnUse"><path id="path82311" clip-rule="evenodd" d="M0,28.488,0,0h28.488v28.488h-28.488z"/></clipPath></defs><g id="g82289" transform="matrix(1.25,0,0,-1.25,0,35.610237)"><g id="g82291"><g id="g82293" clip-path="url(#clipPath82295)"><path id="path82299" d="m8.8468,16.266-0.23911,0-0.2391,0,0-0.47931,0.2391-0.71897,0.47821-0.47931,0.7173-0.47931,0.71731,0,7.8904,0,1.1955,0.23965,0.71731,0.71897,0.2391,0.95863,0,0.23965-0.47821,0,0-0.23965,0-0.71897-0.4782-0.47932-0.47821-0.47931-0.7173,0-7.8904,0-0.71731,0-0.4782,0.47931-0.2391,0.71897-0.2391,0.71897zm1.6737-3.5948-1.4346-0.47932-0.47821-0.71897-0.2391-0.71896,0.2391,0,0.23911,0,0.2391,0.95862,0.4782,0.47931,0.95641,0.23966,7.8904,0,0.7173-0.23966,0.47821-0.23965,0.4782-0.47932,0-0.71896,0.47821,0-0.2391,0.71896,0,0.23966-0.95641,0.71897-0.95641,0.23966-7.8904,0z" fill-rule="evenodd" stroke="param(outline) #000" stroke-miterlimit="4" stroke-dasharray="none" stroke-width="0.44" fill="#000"/></g></g><g id="g82305"><g id="g82307" clip-path="url(#clipPath82309)"><path id="path82313" stroke-linejoin="round" d="m-1.4346-1.4689,0,31.395,31.322,0,0-31.395-31.322,0z" stroke="param(outline) #000" stroke-linecap="round" stroke-miterlimit="10" stroke-dasharray="none" stroke-width="0.95641" fill="none"/></g></g></g></svg>
