<?xml version="1.0" encoding="UTF-8" standalone="no"?>
<!-- Created with Inkscape (http://www.inkscape.org/) -->
<svg id="svg2985" xmlns:rdf="http://www.w3.org/1999/02/22-rdf-syntax-ns#" xmlns="http://www.w3.org/2000/svg" xml:space="preserve" height="990" width="765" version="1.1" xmlns:cc="http://creativecommons.org/ns#" xmlns:dc="http://purl.org/dc/elements/1.1/"><metadata id="metadata2991"><rdf:RDF><cc:Work rdf:about=""><dc:format>image/svg+xml</dc:format><dc:type rdf:resource="http://purl.org/dc/dcmitype/StillImage"/><dc:title/></cc:Work></rdf:RDF></metadata><defs id="defs2989"><clipPath id="clipPath2999" clipPathUnits="userSpaceOnUse"><path id="path3001" clip-rule="evenodd" d="m21.362,770.64,0-749.23,569.32,0,0,749.23-569.32,0z"/></clipPath></defs><g id="g2993" transform="matrix(1.25,0,0,-1.25,0,990)"><g id="g2995"><g id="g2997" clip-path="url(#clipPath2999)"><g id="g78785" fill-rule="evenodd"><path id="path3003" d="m-543.54-790.75,0,2275.9,1729.4,0,0-2275.9-1729.4,0z" fill="#FFF"/><path id="path42565" d="m205.12,650.8,205.05,0,0-68.351-205.05,0,0,68.351z" fill="param(fill) #000000"/><path id="path42571" d="m410.18,582.45,68.361,0,0-68.334-68.361,0,0,68.334z" fill="param(fill) #000000"/><path id="path42575" d="m478.54,514.11,68.348,0,0-68.35-68.348,0,0,68.35z" fill="param(fill) #000000"/><path id="path42581" d="m478.54,445.76,68.348,0,0-68.343-68.348,0,0,68.343z" fill="param(fill) #000000"/><path id="path42585" d="m68.416,377.42,68.353,0,0-68.346-68.353,0,0,68.346z" fill="param(fill) #000000"/><path id="path42587" d="m478.54,377.42,68.348,0,0-68.346-68.348,0,0,68.346z" fill="param(fill) #000000"/><path id="path42593" d="m136.77,309.07,68.356,0,0-68.339-68.356,0,0,68.339z" fill="param(fill) #000000"/><path id="path42595" d="m410.18,309.07,68.361,0,0-68.339-68.361,0,0,68.339z" fill="param(fill) #000000"/><path id="path42599" d="m205.12,240.73,205.05,0,0-68.345-205.05,0,0,68.345z" fill="param(fill) #000000"/><path id="path42605" d="m205.12,172.39,136.71,0,0-68.361-136.71,0,0,68.361z" fill="param(fill) #000000"/></g></g></g></g></svg>
