<?xml version="1.0" encoding="UTF-8" standalone="no"?>
<!-- Created with Inkscape (http://www.inkscape.org/) -->

<svg
   xmlns:dc="http://purl.org/dc/elements/1.1/"
   xmlns:cc="http://creativecommons.org/ns#"
   xmlns:rdf="http://www.w3.org/1999/02/22-rdf-syntax-ns#"
   xmlns:svg="http://www.w3.org/2000/svg"
   xmlns="http://www.w3.org/2000/svg"
   xmlns:sodipodi="http://sodipodi.sourceforge.net/DTD/sodipodi-0.dtd"
   xmlns:inkscape="http://www.inkscape.org/namespaces/inkscape"
   width="64px"
   height="64px"
   id="svg5196"
   version="1.1"
   inkscape:version="0.48.2 r9819"
   sodipodi:docname="remnant_vegetation_final_2.svg">
  <defs
     id="defs5198" />
  <sodipodi:namedview
     id="base"
     pagecolor="#ffffff"
     bordercolor="#666666"
     borderopacity="1.0"
     inkscape:pageopacity="0.0"
     inkscape:pageshadow="2"
     inkscape:zoom="5.5"
     inkscape:cx="3.9090909"
     inkscape:cy="32"
     inkscape:current-layer="layer1"
     showgrid="true"
     inkscape:document-units="px"
     inkscape:grid-bbox="true"
     inkscape:window-width="1920"
     inkscape:window-height="1024"
     inkscape:window-x="-4"
     inkscape:window-y="-4"
     inkscape:window-maximized="1" />
  <metadata
     id="metadata5201">
    <rdf:RDF>
      <cc:Work
         rdf:about="">
        <dc:format>image/svg+xml</dc:format>
        <dc:type
           rdf:resource="http://purl.org/dc/dcmitype/StillImage" />
        <dc:title />
      </cc:Work>
    </rdf:RDF>
  </metadata>
  <g
     id="layer1"
     inkscape:label="Layer 1"
     inkscape:groupmode="layer">
    <g
       id="g3827">
      <path
         transform="matrix(2.3666577,0,0,3.0408381,-2.3421491,-11.328531)"
         d="m 3.4894671,6.3444858 a 0.83271378,0.71375465 0 1 1 -1.6654276,0 0.83271378,0.71375465 0 1 1 1.6654276,0 z"
         sodipodi:ry="0.71375465"
         sodipodi:rx="0.83271378"
         sodipodi:cy="6.3444858"
         sodipodi:cx="2.6567533"
         id="path3853"
         style="fill:none;stroke:#d3d675;stroke-width:0.37276543;stroke-miterlimit:4;stroke-opacity:1;stroke-dasharray:none"
         sodipodi:type="arc" />
      <path
         transform="matrix(2.7300391,0,0,3.2425608,9.3814079,-9.1126535)"
         d="m 3.4894671,6.3444858 a 0.83271378,0.71375465 0 1 1 -1.6654276,0 0.83271378,0.71375465 0 1 1 1.6654276,0 z"
         sodipodi:ry="0.71375465"
         sodipodi:rx="0.83271378"
         sodipodi:cy="6.3444858"
         sodipodi:cx="2.6567533"
         id="path3853-4"
         style="fill:none;stroke:#d3d675;stroke-width:0.33610231;stroke-miterlimit:4;stroke-opacity:1;stroke-dasharray:none"
         sodipodi:type="arc" />
      <path
         transform="matrix(2.7300391,0,0,3.4964018,13.98116,-4.990539)"
         d="m 3.4894671,6.3444858 a 0.83271378,0.71375465 0 1 1 -1.6654276,0 0.83271378,0.71375465 0 1 1 1.6654276,0 z"
         sodipodi:ry="0.71375465"
         sodipodi:rx="0.83271378"
         sodipodi:cy="6.3444858"
         sodipodi:cx="2.6567533"
         id="path3853-4-0"
         style="fill:none;stroke:#d3d675;stroke-width:0.32367183;stroke-miterlimit:4;stroke-opacity:1;stroke-dasharray:none"
         sodipodi:type="arc" />
      <path
         transform="matrix(2.520067,0,0,2.9179409,20.867254,-5.3247223)"
         d="m 3.4894671,6.3444858 a 0.83271378,0.71375465 0 1 1 -1.6654276,0 0.83271378,0.71375465 0 1 1 1.6654276,0 z"
         sodipodi:ry="0.71375465"
         sodipodi:rx="0.83271378"
         sodipodi:cy="6.3444858"
         sodipodi:cx="2.6567533"
         id="path3853-4-0-9"
         style="fill:none;stroke:#d3d675;stroke-width:0.36877011;stroke-miterlimit:4;stroke-opacity:1;stroke-dasharray:none"
         sodipodi:type="arc" />
      <path
         transform="matrix(2.520067,0,0,2.9179409,30.479524,-9.3529831)"
         d="m 3.4894671,6.3444858 a 0.83271378,0.71375465 0 1 1 -1.6654276,0 0.83271378,0.71375465 0 1 1 1.6654276,0 z"
         sodipodi:ry="0.71375465"
         sodipodi:rx="0.83271378"
         sodipodi:cy="6.3444858"
         sodipodi:cx="2.6567533"
         id="path3853-4-0-9-4"
         style="fill:none;stroke:#d3d675;stroke-width:0.36877011;stroke-miterlimit:4;stroke-opacity:1;stroke-dasharray:none"
         sodipodi:type="arc" />
      <path
         transform="matrix(2.7004038,0,0,3.0727783,42.768692,-7.0441449)"
         d="m 3.4894671,6.3444858 a 0.83271378,0.71375465 0 1 1 -1.6654276,0 0.83271378,0.71375465 0 1 1 1.6654276,0 z"
         sodipodi:ry="0.71375465"
         sodipodi:rx="0.83271378"
         sodipodi:cy="6.3444858"
         sodipodi:cx="2.6567533"
         id="path3853-4-0-9-4-8"
         style="fill:none;stroke:#d3d675;stroke-width:0.34715229;stroke-miterlimit:4;stroke-opacity:1;stroke-dasharray:none"
         sodipodi:type="arc" />
      <path
         transform="matrix(2.387374,0,0,2.7075769,54.425613,-3.2203142)"
         d="m 3.4894671,6.3444858 a 0.83271378,0.71375465 0 1 1 -1.6654276,0 0.83271378,0.71375465 0 1 1 1.6654276,0 z"
         sodipodi:ry="0.71375465"
         sodipodi:rx="0.83271378"
         sodipodi:cy="6.3444858"
         sodipodi:cx="2.6567533"
         id="path3853-4-0-9-4-8-8"
         style="fill:none;stroke:#d3d675;stroke-width:0.39332302;stroke-miterlimit:4;stroke-opacity:1;stroke-dasharray:none"
         sodipodi:type="arc" />
      <path
         transform="matrix(2.0714309,0,0,2.4500877,56.058057,-11.341325)"
         d="m 3.4894671,6.3444858 a 0.83271378,0.71375465 0 1 1 -1.6654276,0 0.83271378,0.71375465 0 1 1 1.6654276,0 z"
         sodipodi:ry="0.71375465"
         sodipodi:rx="0.83271378"
         sodipodi:cy="6.3444858"
         sodipodi:cx="2.6567533"
         id="path3853-4-0-9-4-8-8-2"
         style="fill:none;stroke:#d3d675;stroke-width:0.44388857;stroke-miterlimit:4;stroke-opacity:1;stroke-dasharray:none"
         sodipodi:type="arc" />
      <path
         transform="matrix(2.7245234,0,0,3.2378355,47.404903,-2.2226987)"
         d="m 3.4894671,6.3444858 a 0.83271378,0.71375465 0 1 1 -1.6654276,0 0.83271378,0.71375465 0 1 1 1.6654276,0 z"
         sodipodi:ry="0.71375465"
         sodipodi:rx="0.83271378"
         sodipodi:cy="6.3444858"
         sodipodi:cx="2.6567533"
         id="path3853-4-0-9-4-8-8-2-4"
         style="fill:none;stroke:#d3d675;stroke-width:0.33668777;stroke-miterlimit:4;stroke-opacity:1;stroke-dasharray:none"
         sodipodi:type="arc" />
      <path
         transform="matrix(2.4100646,0,0,2.9265225,30.176978,22.394306)"
         d="m 3.4894671,6.3444858 a 0.83271378,0.71375465 0 1 1 -1.6654276,0 0.83271378,0.71375465 0 1 1 1.6654276,0 z"
         sodipodi:ry="0.71375465"
         sodipodi:rx="0.83271378"
         sodipodi:cy="6.3444858"
         sodipodi:cx="2.6567533"
         id="path3853-4-0-9-4-8-8-2-4-5"
         style="fill:none;stroke:#d3d675;stroke-width:0.37653879;stroke-miterlimit:4;stroke-opacity:1;stroke-dasharray:none"
         sodipodi:type="arc" />
      <path
         transform="matrix(2.1460794,0,0,2.4518731,0.54374944,1.0984011)"
         d="m 3.4894671,6.3444858 a 0.83271378,0.71375465 0 1 1 -1.6654276,0 0.83271378,0.71375465 0 1 1 1.6654276,0 z"
         sodipodi:ry="0.71375465"
         sodipodi:rx="0.83271378"
         sodipodi:cy="6.3444858"
         sodipodi:cx="2.6567533"
         id="path3853-4-0-9-4-8-8-2-4-5-5"
         style="fill:none;stroke:#d3d675;stroke-width:0.4359414;stroke-miterlimit:4;stroke-opacity:1;stroke-dasharray:none"
         sodipodi:type="arc" />
      <path
         transform="matrix(2.2787786,0,0,2.6622443,6.337421,-14.075206)"
         d="m 3.4894671,6.3444858 a 0.83271378,0.71375465 0 1 1 -1.6654276,0 0.83271378,0.71375465 0 1 1 1.6654276,0 z"
         sodipodi:ry="0.71375465"
         sodipodi:rx="0.83271378"
         sodipodi:cy="6.3444858"
         sodipodi:cx="2.6567533"
         id="path3853-4-0-9-4-8-8-2-4-5-5-1"
         style="fill:none;stroke:#d3d675;stroke-width:0.40599902;stroke-miterlimit:4;stroke-opacity:1;stroke-dasharray:none"
         sodipodi:type="arc" />
      <path
         transform="matrix(1.9657471,0,0,2.2970409,23.506118,-11.401301)"
         d="m 3.4894671,6.3444858 a 0.83271378,0.71375465 0 1 1 -1.6654276,0 0.83271378,0.71375465 0 1 1 1.6654276,0 z"
         sodipodi:ry="0.71375465"
         sodipodi:rx="0.83271378"
         sodipodi:cy="6.3444858"
         sodipodi:cx="2.6567533"
         id="path3853-4-0-9-4-8-8-2-4-5-5-1-7"
         style="fill:none;stroke:#d3d675;stroke-width:0.47059988;stroke-miterlimit:4;stroke-opacity:1;stroke-dasharray:none"
         sodipodi:type="arc" />
      <path
         transform="matrix(2.4173486,0,0,2.6572427,39.096908,-13.148801)"
         d="m 3.4894671,6.3444858 a 0.83271378,0.71375465 0 1 1 -1.6654276,0 0.83271378,0.71375465 0 1 1 1.6654276,0 z"
         sodipodi:ry="0.71375465"
         sodipodi:rx="0.83271378"
         sodipodi:cy="6.3444858"
         sodipodi:cx="2.6567533"
         id="path3853-4-0-9-4-8-8-2-4-5-5-1-7-1"
         style="fill:none;stroke:#d3d675;stroke-width:0.39456154;stroke-miterlimit:4;stroke-opacity:1;stroke-dasharray:none"
         sodipodi:type="arc" />
      <path
         transform="matrix(2.1907981,0,0,2.5040448,33.852452,2.1949077)"
         d="m 3.4894671,6.3444858 a 0.83271378,0.71375465 0 1 1 -1.6654276,0 0.83271378,0.71375465 0 1 1 1.6654276,0 z"
         sodipodi:ry="0.71375465"
         sodipodi:rx="0.83271378"
         sodipodi:cy="6.3444858"
         sodipodi:cx="2.6567533"
         id="path3853-4-0-9-4-8-8-2-4-5-5-1-7-1-1"
         style="fill:none;stroke:#d3d675;stroke-width:0.42695074;stroke-miterlimit:4;stroke-opacity:1;stroke-dasharray:none"
         sodipodi:type="arc" />
      <path
         transform="matrix(2.7721408,0,0,3.182278,39.604126,2.2537013)"
         d="m 3.4894671,6.3444858 a 0.83271378,0.71375465 0 1 1 -1.6654276,0 0.83271378,0.71375465 0 1 1 1.6654276,0 z"
         sodipodi:ry="0.71375465"
         sodipodi:rx="0.83271378"
         sodipodi:cy="6.3444858"
         sodipodi:cx="2.6567533"
         id="path3853-4-0-9-4-8-8-2-4-5-5-1-7-1-1-5"
         style="fill:none;stroke:#d3d675;stroke-width:0.33668464;stroke-miterlimit:4;stroke-opacity:1;stroke-dasharray:none"
         sodipodi:type="arc" />
      <path
         transform="matrix(2.324954,0,0,2.6605601,47.810779,11.551341)"
         d="m 3.4894671,6.3444858 a 0.83271378,0.71375465 0 1 1 -1.6654276,0 0.83271378,0.71375465 0 1 1 1.6654276,0 z"
         sodipodi:ry="0.71375465"
         sodipodi:rx="0.83271378"
         sodipodi:cy="6.3444858"
         sodipodi:cx="2.6567533"
         id="path3853-4-0-9-4-8-8-2-4-5-5-1-7-1-1-5-2"
         style="fill:none;stroke:#d3d675;stroke-width:0.40207427;stroke-miterlimit:4;stroke-opacity:1;stroke-dasharray:none"
         sodipodi:type="arc" />
      <path
         transform="matrix(2.1013608,0,0,2.3997014,56.216459,20.383554)"
         d="m 3.4894671,6.3444858 a 0.83271378,0.71375465 0 1 1 -1.6654276,0 0.83271378,0.71375465 0 1 1 1.6654276,0 z"
         sodipodi:ry="0.71375465"
         sodipodi:rx="0.83271378"
         sodipodi:cy="6.3444858"
         sodipodi:cx="2.6567533"
         id="path3853-4-0-9-4-8-8-2-4-5-5-1-7-1-1-5-2-7"
         style="fill:none;stroke:#d3d675;stroke-width:0.44531886;stroke-miterlimit:4;stroke-opacity:1;stroke-dasharray:none"
         sodipodi:type="arc" />
      <path
         transform="matrix(2.4072484,0,0,3.034348,54.769341,26.785797)"
         d="m 3.4894671,6.3444858 a 0.83271378,0.71375465 0 1 1 -1.6654276,0 0.83271378,0.71375465 0 1 1 1.6654276,0 z"
         sodipodi:ry="0.71375465"
         sodipodi:rx="0.83271378"
         sodipodi:cy="6.3444858"
         sodipodi:cx="2.6567533"
         id="path3853-4-0-9-4-8-8-2-4-5-5-1-7-1-1-5-2-7-6"
         style="fill:none;stroke:#d3d675;stroke-width:0.37000437;stroke-miterlimit:4;stroke-opacity:1;stroke-dasharray:none"
         sodipodi:type="arc" />
      <path
         transform="matrix(2.9048415,0,0,3.3926511,42.106591,22.728161)"
         d="m 3.4894671,6.3444858 a 0.83271378,0.71375465 0 1 1 -1.6654276,0 0.83271378,0.71375465 0 1 1 1.6654276,0 z"
         sodipodi:ry="0.71375465"
         sodipodi:rx="0.83271378"
         sodipodi:cy="6.3444858"
         sodipodi:cx="2.6567533"
         id="path3853-4-0-9-4-8-8-2-4-5-5-1-7-1-1-5-2-7-6-1"
         style="fill:none;stroke:#d3d675;stroke-width:0.31854382;stroke-miterlimit:4;stroke-opacity:1;stroke-dasharray:none"
         sodipodi:type="arc" />
      <path
         transform="matrix(2.9899816,0,0,3.6586479,46.837025,27.147115)"
         d="m 3.4894671,6.3444858 a 0.83271378,0.71375465 0 1 1 -1.6654276,0 0.83271378,0.71375465 0 1 1 1.6654276,0 z"
         sodipodi:ry="0.71375465"
         sodipodi:rx="0.83271378"
         sodipodi:cy="6.3444858"
         sodipodi:cx="2.6567533"
         id="path3853-4-0-9-4-8-8-2-4-5-5-1-7-1-1-5-2-7-6-1-4"
         style="fill:none;stroke:#d3d675;stroke-width:0.30234684;stroke-miterlimit:4;stroke-opacity:1;stroke-dasharray:none"
         sodipodi:type="arc" />
      <path
         transform="matrix(2.8615781,0,0,3.2866216,39.128594,34.107184)"
         d="m 3.4894671,6.3444858 a 0.83271378,0.71375465 0 1 1 -1.6654276,0 0.83271378,0.71375465 0 1 1 1.6654276,0 z"
         sodipodi:ry="0.71375465"
         sodipodi:rx="0.83271378"
         sodipodi:cy="6.3444858"
         sodipodi:cx="2.6567533"
         id="path3853-4-0-9-4-8-8-2-4-5-5-1-7-1-1-5-2-7-6-1-4-2"
         style="fill:none;stroke:#d3d675;stroke-width:0.32607864;stroke-miterlimit:4;stroke-opacity:1;stroke-dasharray:none"
         sodipodi:type="arc" />
      <path
         transform="matrix(2.4143913,0,0,2.7649036,47.652472,43.563437)"
         d="m 3.4894671,6.3444858 a 0.83271378,0.71375465 0 1 1 -1.6654276,0 0.83271378,0.71375465 0 1 1 1.6654276,0 z"
         sodipodi:ry="0.71375465"
         sodipodi:rx="0.83271378"
         sodipodi:cy="6.3444858"
         sodipodi:cx="2.6567533"
         id="path3853-4-0-9-4-8-8-2-4-5-5-1-7-1-1-5-2-7-6-1-4-2-3"
         style="fill:none;stroke:#d3d675;stroke-width:0.38704029;stroke-miterlimit:4;stroke-opacity:1;stroke-dasharray:none"
         sodipodi:type="arc" />
      <path
         transform="matrix(2.4143913,0,0,2.7649036,32.980848,32.698505)"
         d="m 3.4894671,6.3444858 a 0.83271378,0.71375465 0 1 1 -1.6654276,0 0.83271378,0.71375465 0 1 1 1.6654276,0 z"
         sodipodi:ry="0.71375465"
         sodipodi:rx="0.83271378"
         sodipodi:cy="6.3444858"
         sodipodi:cx="2.6567533"
         id="path3853-4-0-9-4-8-8-2-4-5-5-1-7-1-1-5-2-7-6-1-4-2-3-2"
         style="fill:none;stroke:#d3d675;stroke-width:0.38704029;stroke-miterlimit:4;stroke-opacity:1;stroke-dasharray:none"
         sodipodi:type="arc" />
      <path
         transform="matrix(2.6394539,0,0,2.9719211,25.522937,39.870834)"
         d="m 3.4894671,6.3444858 a 0.83271378,0.71375465 0 1 1 -1.6654276,0 0.83271378,0.71375465 0 1 1 1.6654276,0 z"
         sodipodi:ry="0.71375465"
         sodipodi:rx="0.83271378"
         sodipodi:cy="6.3444858"
         sodipodi:cx="2.6567533"
         id="path3853-4-0-9-4-8-8-2-4-5-5-1-7-1-1-5-2-7-6-1-4-2-3-2-2"
         style="fill:none;stroke:#d3d675;stroke-width:0.35704612;stroke-miterlimit:4;stroke-opacity:1;stroke-dasharray:none"
         sodipodi:type="arc" />
      <path
         transform="matrix(2.3249539,0,0,2.66056,39.126764,18.450969)"
         d="m 3.4894671,6.3444858 a 0.83271378,0.71375465 0 1 1 -1.6654276,0 0.83271378,0.71375465 0 1 1 1.6654276,0 z"
         sodipodi:ry="0.71375465"
         sodipodi:rx="0.83271378"
         sodipodi:cy="6.3444858"
         sodipodi:cx="2.6567533"
         id="path3853-4-0-9-4-8-8-2-4-5-5-1-7-1-1-5-2-7-6-1-4-2-3-2-2-1"
         style="fill:none;stroke:#d3d675;stroke-width:0.40207428;stroke-miterlimit:4;stroke-opacity:1;stroke-dasharray:none"
         sodipodi:type="arc" />
      <path
         transform="matrix(2.3249539,0,0,2.66056,27.032588,9.2514653)"
         d="m 3.4894671,6.3444858 a 0.83271378,0.71375465 0 1 1 -1.6654276,0 0.83271378,0.71375465 0 1 1 1.6654276,0 z"
         sodipodi:ry="0.71375465"
         sodipodi:rx="0.83271378"
         sodipodi:cy="6.3444858"
         sodipodi:cx="2.6567533"
         id="path3853-4-0-9-4-8-8-2-4-5-5-1-7-1-1-5-2-7-6-1-4-2-3-2-2-1-6"
         style="fill:none;stroke:#d3d675;stroke-width:0.40207428;stroke-miterlimit:4;stroke-opacity:1;stroke-dasharray:none"
         sodipodi:type="arc" />
      <path
         transform="matrix(2.3249539,0,0,2.66056,14.264311,10.520363)"
         d="m 3.4894671,6.3444858 a 0.83271378,0.71375465 0 1 1 -1.6654276,0 0.83271378,0.71375465 0 1 1 1.6654276,0 z"
         sodipodi:ry="0.71375465"
         sodipodi:rx="0.83271378"
         sodipodi:cy="6.3444858"
         sodipodi:cx="2.6567533"
         id="path3853-4-0-9-4-8-8-2-4-5-5-1-7-1-1-5-2-7-6-1-4-2-3-2-2-1-6-8"
         style="fill:none;stroke:#d3d675;stroke-width:0.40207428;stroke-miterlimit:4;stroke-opacity:1;stroke-dasharray:none"
         sodipodi:type="arc" />
      <path
         transform="matrix(2.0076013,0,0,2.456982,22.601862,19.266732)"
         d="m 3.4894671,6.3444858 a 0.83271378,0.71375465 0 1 1 -1.6654276,0 0.83271378,0.71375465 0 1 1 1.6654276,0 z"
         sodipodi:ry="0.71375465"
         sodipodi:rx="0.83271378"
         sodipodi:cy="6.3444858"
         sodipodi:cx="2.6567533"
         id="path3853-4-0-9-4-8-8-2-4-5-5-1-7-1-1-5-2-7-6-1-4-2-3-2-2-1-6-8-5"
         style="fill:none;stroke:#d3d675;stroke-width:0.4502568;stroke-miterlimit:4;stroke-opacity:1;stroke-dasharray:none"
         sodipodi:type="arc" />
      <path
         transform="matrix(2.5372591,0,0,3.3526939,6.8006403,0.14152049)"
         d="m 3.4894671,6.3444858 a 0.83271378,0.71375465 0 1 1 -1.6654276,0 0.83271378,0.71375465 0 1 1 1.6654276,0 z"
         sodipodi:ry="0.71375465"
         sodipodi:rx="0.83271378"
         sodipodi:cy="6.3444858"
         sodipodi:cx="2.6567533"
         id="path3853-4-0-9-4-8-8-2-4-5-5-1-7-1-1-5-2-7-6-1-4-2-3-2-2-1-6-8-5-7"
         style="fill:none;stroke:#d3d675;stroke-width:0.34286301;stroke-miterlimit:4;stroke-opacity:1;stroke-dasharray:none"
         sodipodi:type="arc" />
      <path
         transform="matrix(2.3653463,0,0,2.8743511,5.116106,15.706719)"
         d="m 3.4894671,6.3444858 a 0.83271378,0.71375465 0 1 1 -1.6654276,0 0.83271378,0.71375465 0 1 1 1.6654276,0 z"
         sodipodi:ry="0.71375465"
         sodipodi:rx="0.83271378"
         sodipodi:cy="6.3444858"
         sodipodi:cx="2.6567533"
         id="path3853-4-0-9-4-8-8-2-4-5-5-1-7-1-1-5-2-7-6-1-4-2-3-2-2-1-6-8-5-7-6"
         style="fill:none;stroke:#d3d675;stroke-width:0.38351533;stroke-miterlimit:4;stroke-opacity:1;stroke-dasharray:none"
         sodipodi:type="arc" />
      <path
         transform="matrix(2.5875206,0,0,3.18911,-4.2374771,19.538732)"
         d="m 3.4894671,6.3444858 a 0.83271378,0.71375465 0 1 1 -1.6654276,0 0.83271378,0.71375465 0 1 1 1.6654276,0 z"
         sodipodi:ry="0.71375465"
         sodipodi:rx="0.83271378"
         sodipodi:cy="6.3444858"
         sodipodi:cx="2.6567533"
         id="path3853-4-0-9-4-8-8-2-4-5-5-1-7-1-1-5-2-7-6-1-4-2-3-2-2-1-6-8-5-7-6-1"
         style="fill:none;stroke:#d3d675;stroke-width:0.34811549;stroke-miterlimit:4;stroke-opacity:1;stroke-dasharray:none"
         sodipodi:type="arc" />
      <path
         transform="matrix(2.8572478,0,0,3.4482361,8.0124669,21.42383)"
         d="m 3.4894671,6.3444858 a 0.83271378,0.71375465 0 1 1 -1.6654276,0 0.83271378,0.71375465 0 1 1 1.6654276,0 z"
         sodipodi:ry="0.71375465"
         sodipodi:rx="0.83271378"
         sodipodi:cy="6.3444858"
         sodipodi:cx="2.6567533"
         id="path3853-4-0-9-4-8-8-2-4-5-5-1-7-1-1-5-2-7-6-1-4-2-3-2-2-1-6-8-5-7-6-1-8"
         style="fill:none;stroke:#d3d675;stroke-width:0.31858663;stroke-miterlimit:4;stroke-opacity:1;stroke-dasharray:none"
         sodipodi:type="arc" />
      <path
         transform="matrix(2.8572478,0,0,3.4482361,12.770831,27.490745)"
         d="m 3.4894671,6.3444858 a 0.83271378,0.71375465 0 1 1 -1.6654276,0 0.83271378,0.71375465 0 1 1 1.6654276,0 z"
         sodipodi:ry="0.71375465"
         sodipodi:rx="0.83271378"
         sodipodi:cy="6.3444858"
         sodipodi:cx="2.6567533"
         id="path3853-4-0-9-4-8-8-2-4-5-5-1-7-1-1-5-2-7-6-1-4-2-3-2-2-1-6-8-5-7-6-1-8-9"
         style="fill:none;stroke:#d3d675;stroke-width:0.31858663;stroke-miterlimit:4;stroke-opacity:1;stroke-dasharray:none"
         sodipodi:type="arc" />
      <path
         transform="matrix(2.4100646,0,0,2.9265224,20.620596,26.438917)"
         d="m 3.4894671,6.3444858 a 0.83271378,0.71375465 0 1 1 -1.6654276,0 0.83271378,0.71375465 0 1 1 1.6654276,0 z"
         sodipodi:ry="0.71375465"
         sodipodi:rx="0.83271378"
         sodipodi:cy="6.3444858"
         sodipodi:cx="2.6567533"
         id="path3853-4-0-9-4-8-8-2-4-5-5-1-7-1-1-5-2-7-6-1-4-2-3-2-2-1-6-8-5-7-6-1-8-9-2"
         style="fill:none;stroke:#d3d675;stroke-width:0.3765388;stroke-miterlimit:4;stroke-opacity:1;stroke-dasharray:none"
         sodipodi:type="arc" />
      <path
         transform="matrix(2.1878997,0,0,2.6117745,-0.95521364,32.480439)"
         d="m 3.4894671,6.3444858 a 0.83271378,0.71375465 0 1 1 -1.6654276,0 0.83271378,0.71375465 0 1 1 1.6654276,0 z"
         sodipodi:ry="0.71375465"
         sodipodi:rx="0.83271378"
         sodipodi:cy="6.3444858"
         sodipodi:cx="2.6567533"
         id="path3853-4-0-9-4-8-8-2-4-5-5-1-7-1-1-5-2-7-6-1-4-2-3-2-2-1-6-8-5-7-6-1-8-9-2-7"
         style="fill:none;stroke:#d3d675;stroke-width:0.41832947;stroke-miterlimit:4;stroke-opacity:1;stroke-dasharray:none"
         sodipodi:type="arc" />
      <path
         transform="matrix(2.6783743,0,0,3.2395505,5.2757936,33.255888)"
         d="m 3.4894671,6.3444858 a 0.83271378,0.71375465 0 1 1 -1.6654276,0 0.83271378,0.71375465 0 1 1 1.6654276,0 z"
         sodipodi:ry="0.71375465"
         sodipodi:rx="0.83271378"
         sodipodi:cy="6.3444858"
         sodipodi:cx="2.6567533"
         id="path3853-4-0-9-4-8-8-2-4-5-5-1-7-1-1-5-2-7-6-1-4-2-3-2-2-1-6-8-5-7-6-1-8-9-2-7-9"
         style="fill:none;stroke:#d3d675;stroke-width:0.33948609;stroke-miterlimit:4;stroke-opacity:1;stroke-dasharray:none"
         sodipodi:type="arc" />
      <path
         transform="matrix(2.3279135,0,0,2.5529018,13.384081,43.996459)"
         d="m 3.4894671,6.3444858 a 0.83271378,0.71375465 0 1 1 -1.6654276,0 0.83271378,0.71375465 0 1 1 1.6654276,0 z"
         sodipodi:ry="0.71375465"
         sodipodi:rx="0.83271378"
         sodipodi:cy="6.3444858"
         sodipodi:cx="2.6567533"
         id="path3853-4-0-9-4-8-8-2-4-5-5-1-7-1-1-5-2-7-6-1-4-2-3-2-2-1-6-8-5-7-6-1-8-9-2-7-9-5"
         style="fill:none;stroke:#d3d675;stroke-width:0.41020366;stroke-miterlimit:4;stroke-opacity:1;stroke-dasharray:none"
         sodipodi:type="arc" />
    </g>
  </g>
</svg>
