<?xml version="1.0" encoding="UTF-8" standalone="no"?>
<!-- Created with Inkscape (http://www.inkscape.org/) -->
<svg id="svg4570" xmlns:rdf="http://www.w3.org/1999/02/22-rdf-syntax-ns#" xmlns="http://www.w3.org/2000/svg" xml:space="preserve" height="35.61" width="35.61" version="1.1" xmlns:cc="http://creativecommons.org/ns#" xmlns:dc="http://purl.org/dc/elements/1.1/"><metadata id="metadata4576"><rdf:RDF><cc:Work rdf:about=""><dc:format>image/svg+xml</dc:format><dc:type rdf:resource="http://purl.org/dc/dcmitype/StillImage"/><dc:title/></cc:Work></rdf:RDF></metadata><defs id="defs4574"><clipPath id="clipPath4584" clipPathUnits="userSpaceOnUse"><path id="path4586" clip-rule="evenodd" d="M0,28.488,0,0h28.488v28.488h-28.488z"/></clipPath><clipPath id="clipPath4594" clipPathUnits="userSpaceOnUse"><path id="path4596" clip-rule="evenodd" d="M0,28.488,0,0h28.488v28.488h-28.488z"/></clipPath></defs><g id="g4578" transform="matrix(1.25,0,0,-1.25,0,35.610237)"><g id="g4580"><g id="g4582" clip-path="url(#clipPath4584)"><path id="path4588" stroke-linejoin="round" d="m-1.4346-1.4689,0,31.395,31.322,0,0-31.395-31.322,0z" stroke="none" stroke-linecap="round" stroke-miterlimit="10" stroke-dasharray="none" stroke-width="0.95641" fill="none"/></g></g><g id="g4590"><g id="g4592" clip-path="url(#clipPath4594)"><path id="path4602" d="m23.304,22.023-0.2391,0.71897-0.71731,0.23965-0.7173-0.23965-0.23911-0.71897,0.23911-0.71897,0.7173-0.23966,0.71731,0.23966,0.2391,0.71897zm-15.303,0-0.23911,0.71897-0.7173,0.23965-0.71731-0.23965-0.2391-0.71897,0.2391-0.71897,0.71731-0.23966,0.7173,0.23966,0.23911,0.71897zm7.6513-7.669-0.2391,0.71897-0.71731,0.23966-0.71731-0.23966-0.2391-0.71897,0.2391-0.71897,0.71731-0.23965,0.71731,0.23965,0.2391,0.71897zm7.6513-7.669-0.2391,0.71897-0.71731,0.23965-0.7173-0.23965-0.23911-0.71897,0.23911-0.71897,0.7173-0.23966,0.71731,0.23966,0.2391,0.71897zm-15.303,0-0.23911,0.71897-0.7173,0.23965-0.71731-0.23965-0.2391-0.71897,0.2391-0.71897,0.71731-0.23966,0.7173,0.23966,0.23911,0.71897z" fill="param(fill) #000" fill-rule="evenodd"/></g></g></g></svg>
