<?xml version="1.0" encoding="UTF-8" standalone="no"?>
<!-- Created with Inkscape (http://www.inkscape.org/) -->
<svg id="svg4532" xmlns:rdf="http://www.w3.org/1999/02/22-rdf-syntax-ns#" xmlns="http://www.w3.org/2000/svg" xml:space="preserve" height="35.61" width="35.61" version="1.1" xmlns:cc="http://creativecommons.org/ns#" xmlns:dc="http://purl.org/dc/elements/1.1/"><metadata id="metadata4538"><rdf:RDF><cc:Work rdf:about=""><dc:format>image/svg+xml</dc:format><dc:type rdf:resource="http://purl.org/dc/dcmitype/StillImage"/><dc:title/></cc:Work></rdf:RDF></metadata><defs id="defs4536"><clipPath id="clipPath4546" clipPathUnits="userSpaceOnUse"><path id="path4548" clip-rule="evenodd" d="M0,28.488,0,0h28.488v28.488h-28.488z"/></clipPath><clipPath id="clipPath4556" clipPathUnits="userSpaceOnUse"><path id="path4558" clip-rule="evenodd" d="M0,28.488,0,0h28.488v28.488h-28.488z"/></clipPath></defs><g id="g4540" transform="matrix(1.25,0,0,-1.25,0,35.610237)"><g id="g4542"><g id="g4544" clip-path="url(#clipPath4546)"><path id="path4550" stroke-linejoin="round" d="m-1.4346-1.4689,0,31.395,31.322,0,0-31.395-31.322,0z" stroke="none" stroke-linecap="round" stroke-miterlimit="10" stroke-dasharray="none" stroke-width="0.95641" fill="none"/></g></g><g id="g4552"><g id="g4554" clip-path="url(#clipPath4556)"><text id="text4560" transform="matrix(0.99768651,0,0,-1,0,47.15916)"><tspan id="tspan4562" style="writing-mode:lr;" font-weight="bold" fill-rule="nonzero" font-size="2.15691" font-variant="normal" y="0" x="0 1.20105376 2.40210753 3.84337636 5.04443012 6.48569896" font-family="Arial" fill="param(fill) #000000">Legend</tspan></text>
<path id="path4566" d="m23.309,11.229,0,0.47931-4.782,0,0,2.8759,4.782,0,0,0.47931-4.782,0,0,2.8759,4.782,0,0,0.47931-16.976,0,0-0.47931,5.0212,0,0-2.8759-5.0212,0,0-0.47931,5.0212,0,0-2.8759-5.0212,0,0-0.47931,16.976,0zm-5.2602,0.47931-5.9776,0,5.9776,5.9914,0-5.9914z" fill="param(fill) #000" fill-rule="evenodd"/></g></g></g></svg>
