<?xml version="1.0" encoding="UTF-8" standalone="no"?>
<!-- Created with Inkscape (http://www.inkscape.org/) -->
<svg id="svg4494" xmlns:rdf="http://www.w3.org/1999/02/22-rdf-syntax-ns#" xmlns="http://www.w3.org/2000/svg" xml:space="preserve" height="35.61" width="35.61" version="1.1" xmlns:cc="http://creativecommons.org/ns#" xmlns:dc="http://purl.org/dc/elements/1.1/"><metadata id="metadata4500"><rdf:RDF><cc:Work rdf:about=""><dc:format>image/svg+xml</dc:format><dc:type rdf:resource="http://purl.org/dc/dcmitype/StillImage"/><dc:title/></cc:Work></rdf:RDF></metadata><defs id="defs4498"><clipPath id="clipPath4508" clipPathUnits="userSpaceOnUse"><path id="path4510" clip-rule="evenodd" d="M0,28.488,0,0h28.488v28.488h-28.488z"/></clipPath><clipPath id="clipPath4518" clipPathUnits="userSpaceOnUse"><path id="path4520" clip-rule="evenodd" d="M0,28.488,0,0h28.488v28.488h-28.488z"/></clipPath></defs><g id="g4502" transform="matrix(1.25,0,0,-1.25,0,35.610237)"><g id="g4504"><g id="g4506" clip-path="url(#clipPath4508)"><path id="path4512" stroke-linejoin="round" d="m-1.4346-1.4689,0,31.395,31.322,0,0-31.395-31.322,0z" stroke="none" stroke-linecap="round" stroke-miterlimit="10" stroke-dasharray="none" stroke-width="0.95641" fill="none"/></g></g><g id="g4514"><g id="g4516" clip-path="url(#clipPath4518)"><text id="text4522" transform="matrix(0.99768651,0,0,-1,0,60.1006)"><tspan id="tspan4524" style="writing-mode:lr;" font-weight="bold" fill-rule="nonzero" font-size="2.15691" font-variant="normal" y="0" x="0 1.20105376 2.40210753 3.84337636 5.04443012 6.48569896" font-family="Arial" fill="param(fill) #000000">Legend</tspan></text>
<path id="path4528" d="m16.976,11.473-4.782,0,2.391,4.7931,2.391-4.7931zm-7.4122,0-1.6737,0,0-0.71896,13.39,0,0,0.71896-1.6737,0-5.0212,9.8259-5.0212-9.8259z" fill="param(fill) #000" fill-rule="evenodd"/></g></g></g></svg>
