<?xml version="1.0" encoding="UTF-8" standalone="no"?>
<!-- Created with Inkscape (http://www.inkscape.org/) -->
<svg id="svg4794" xmlns:rdf="http://www.w3.org/1999/02/22-rdf-syntax-ns#" xmlns="http://www.w3.org/2000/svg" xml:space="preserve" height="35.61" width="35.61" version="1.1" xmlns:cc="http://creativecommons.org/ns#" xmlns:dc="http://purl.org/dc/elements/1.1/"><metadata id="metadata4800"><rdf:RDF><cc:Work rdf:about=""><dc:format>image/svg+xml</dc:format><dc:type rdf:resource="http://purl.org/dc/dcmitype/StillImage"/><dc:title/></cc:Work></rdf:RDF></metadata><defs id="defs4798"><clipPath id="clipPath4808" clipPathUnits="userSpaceOnUse"><path id="path4810" clip-rule="evenodd" d="M0,28.488,0,0h28.488v28.488h-28.488z"/></clipPath><clipPath id="clipPath4818" clipPathUnits="userSpaceOnUse"><path id="path4820" clip-rule="evenodd" d="M0,28.488,0,0h28.488v28.488h-28.488z"/></clipPath></defs><g id="g4802" transform="matrix(1.25,0,0,-1.25,0,35.610237)"><g id="g4804"><g id="g4806" clip-path="url(#clipPath4808)"><path id="path4812" stroke-linejoin="round" d="m-1.4346-1.4689,0,31.395,31.322,0,0-31.395-31.322,0z" stroke="none"stroke-linecap="round" stroke-miterlimit="10" stroke-dasharray="none" stroke-width="0.95641" fill="none"/></g></g><g id="g4814"><g id="g4816" clip-path="url(#clipPath4818)"><text id="text4822" transform="matrix(0.99768651,0,0,-1,5.97756,62.49717)"><tspan id="tspan4824" style="writing-mode:lr;" font-weight="bold" fill-rule="nonzero" font-size="2.15691" font-variant="normal" y="0" x="0 1.20105376 2.40210753 3.84337636 5.04443012 6.48569896" font-family="Arial" fill="none">Legend</tspan></text>
<path id="path4828" d="m8.8468,18.902,0-3.5948,0.7173,0,0,2.8759,2.8692,0,0,0.71897-3.5865,0zm6.6949,0,0-0.71897,2.8692,0,0-2.8759,0.7173,0,0,3.5948-3.5865,0zm-6.6949-6.7104,0-3.5948,3.5865,0,0,0.71897-2.8692,0,0,2.8759-0.7173,0zm9.5641,0,0-2.8759-2.8692,0,0-0.71897,3.5865,0,0,3.5948-0.7173,0z" fill="param(fill) #000" fill-rule="evenodd"/></g></g></g></svg>
