<?xml version="1.0" encoding="UTF-8" standalone="no"?>
<!-- Created with Inkscape (http://www.inkscape.org/) -->
<svg id="svg4720" xmlns:rdf="http://www.w3.org/1999/02/22-rdf-syntax-ns#" xmlns="http://www.w3.org/2000/svg" xml:space="preserve" height="35.61" width="35.61" version="1.1" xmlns:cc="http://creativecommons.org/ns#" xmlns:dc="http://purl.org/dc/elements/1.1/"><metadata id="metadata4726"><rdf:RDF><cc:Work rdf:about=""><dc:format>image/svg+xml</dc:format><dc:type rdf:resource="http://purl.org/dc/dcmitype/StillImage"/><dc:title/></cc:Work></rdf:RDF></metadata><defs id="defs4724"><clipPath id="clipPath4734" clipPathUnits="userSpaceOnUse"><path id="path4736" clip-rule="evenodd" d="M0,28.488,0,0h28.488v28.488h-28.488z"/></clipPath><clipPath id="clipPath4744" clipPathUnits="userSpaceOnUse"><path id="path4746" clip-rule="evenodd" d="M0,28.488,0,0h28.488v28.488h-28.488z"/></clipPath></defs><g id="g4728" transform="matrix(1.25,0,0,-1.25,0,35.610237)"><g id="g4730"><g id="g4732" clip-path="url(#clipPath4734)"><path id="path4738" stroke-linejoin="round" d="m-1.4346-1.4689,0,31.395,31.322,0,0-31.395-31.322,0z" stroke="none"stroke-linecap="round" stroke-miterlimit="10" stroke-dasharray="none" stroke-width="0.95641" fill="none"/></g></g><g id="g4740"><g id="g4742" clip-path="url(#clipPath4744)"><text id="text4748" transform="matrix(0.99768651,0,0,-1,6.45576,33.7384)"><tspan id="tspan4750" style="writing-mode:lr;" font-weight="bold" fill-rule="nonzero" font-size="2.15691" font-variant="normal" y="0" x="0 1.20105376 2.40210753 3.84337636 5.04443012 6.48569896" font-family="Arial" fill="none">Legend</tspan></text>
<path id="path4754" d="m15.303,18.902-0.23911,0,2.1519-1.6776-2.6301-2.6362-2.391,2.6362,2.1519,1.6776-0.47821,0-1.6737-0.47931-1.1955-0.95863-0.95641-1.4379-0.47821-1.6776,0-0.23965,0.95641,1.1983,0.2391,0.47931,0.71731,0.71897,2.391-2.6362-2.8692-2.8759,0-0.47931,0-0.47931,0.2391,0,0.4782,0.23965,2.8692,2.8759,3.1083-2.8759,0.2391-0.23965,0.2391,0,0.23911,0.47931,0,0.47931-2.391,2.3966-0.7173,0.47931,2.6301,2.6362,0.95641-1.1983,0.95641-1.1983,0,0.23965-0.4782,1.6776-0.95641,1.4379-1.4346,0.95863-1.6737,0.47931z" fill="param(fill) #000" fill-rule="evenodd"/></g></g></g></svg>
