<?xml version="1.0" encoding="UTF-8" standalone="no"?>
<!-- Created with Inkscape (http://www.inkscape.org/) -->
<svg id="svg4646" xmlns:rdf="http://www.w3.org/1999/02/22-rdf-syntax-ns#" xmlns="http://www.w3.org/2000/svg" xml:space="preserve" height="35.61" width="35.61" version="1.1" xmlns:cc="http://creativecommons.org/ns#" xmlns:dc="http://purl.org/dc/elements/1.1/"><metadata id="metadata4652"><rdf:RDF><cc:Work rdf:about=""><dc:format>image/svg+xml</dc:format><dc:type rdf:resource="http://purl.org/dc/dcmitype/StillImage"/><dc:title/></cc:Work></rdf:RDF></metadata><defs id="defs4650"><clipPath id="clipPath4660" clipPathUnits="userSpaceOnUse"><path id="path4662" clip-rule="evenodd" d="M0,28.488,0,0h28.488v28.488h-28.488z"/></clipPath><clipPath id="clipPath4670" clipPathUnits="userSpaceOnUse"><path id="path4672" clip-rule="evenodd" d="M0,28.488,0,0h28.488v28.488h-28.488z"/></clipPath></defs><g id="g4654" transform="matrix(1.25,0,0,-1.25,0,35.610237)"><g id="g4656"><g id="g4658" clip-path="url(#clipPath4660)"><path id="path4664" stroke-linejoin="round" d="m-1.4346-1.4689,0,31.395,31.322,0,0-31.395-31.322,0z" stroke="none"stroke-linecap="round" stroke-miterlimit="10" stroke-dasharray="none" stroke-width="0.95641" fill="none"/></g></g><g id="g4666"><g id="g4668" clip-path="url(#clipPath4670)"><text id="text4674" transform="matrix(0.99768651,0,0,-1,7.89038,47.87812)"><tspan id="tspan4676" style="writing-mode:lr;" font-weight="bold" fill-rule="nonzero" font-size="2.15691" font-variant="normal" y="0" x="0 1.20105376 2.40210753 3.84337636 5.04443012 6.48569896" font-family="Arial" fill="none">Legend</tspan></text>
<path id="path4680" d="m16.02,14.588-0.2391,0.71897-0.4782,0.71897-0.71731,0.23965,0,2.1569,0.2391,0-0.4782,1.4379-0.47821-1.4379,0.47821,0,0-2.1569-0.47821-0.23965-0.95641-0.47932-0.2391-0.95862,0.2391-0.95863,0.95641-0.71897,0.47821,0,0-2.1569-0.47821,0,0.47821-1.1983,0.4782,1.1983-0.2391,0,0,2.1569,0.71731,0.23966,0.4782,0.47931,0.2391,0.95863zm-0.2391,0-0.4782-0.71897-0.95641-0.47931-0.95641,0.23965-0.47821,0.95863,0.47821,0.95862,0.95641,0.47932,0.95641-0.47932,0.4782-0.95862z" fill="param(fill) #000" fill-rule="evenodd"/></g></g></g></svg>
