<?xml version="1.0" encoding="UTF-8" standalone="no"?>
<!DOCTYPE svg PUBLIC "-//W3C//DTD SVG 1.1//EN" "http://www.w3.org/Graphics/SVG/1.1/DTD/svg11-flat.dtd"
[

]>
<svg xmlns="http://www.w3.org/2000/svg"  viewBox="-0.912199 -0.912199 74.8003 84.2892"><g fill="none" stroke="black" stroke-width="3" transform="translate(0,82.4648) scale(1, -1)">
<g id="grapes" >
<ellipse stroke="rgb(177,0,127)" rx="10.714" ry="10.714" transform="translate(15.2245,47.8651) rotate(0.00)"/>
<ellipse stroke="rgb(177,0,127)" rx="10.714" ry="10.714" transform="translate(36.6525,47.8651) rotate(0.00)"/>
<ellipse stroke="rgb(177,0,127)" rx="10.714" ry="10.714" transform="translate(58.0806,47.8651) rotate(0.00)"/>
<ellipse stroke="rgb(177,0,127)" rx="10.714" ry="10.714" transform="translate(47.395,29.2754) rotate(0.00)"/>
<ellipse stroke="rgb(177,0,127)" rx="10.714" ry="10.714" transform="translate(25.9669,29.2754) rotate(0.00)"/>
<ellipse stroke="rgb(177,0,127)" rx="10.714" ry="10.714" transform="translate(36.6414,10.714) rotate(0.00)"/>
<path stroke="rgb(0,255,0)" d="M 36.488,59.2086 l -0.98078,2.84591 -0.955567,2.84885 -0.968174,2.84738 -1.0186,2.84149 -1.10684,2.83119 -3.88149,4.57507 -5.99033,2.15412 -7.19539,0.770722 -7.49665,0.424872 -6.89412,1.11657 "/>
<path stroke="rgb(0,255,0)" d="M 0,82.4648 l 3.86019,-3.08556 3.83049,-3.11859 3.84534,-3.10207 3.90473,-3.03601 4.00867,-2.92041 3.21235,-1.96215 3.38329,-1.64414 3.48096,-1.46241 3.50538,-1.41698 3.45654,-1.50784 "/>
<path stroke="rgb(0,255,0)" d="M 36.488,59.2086 l 0.98078,2.84591 0.955567,2.84885 0.968174,2.84738 1.0186,2.84149 1.10684,2.83119 3.88149,4.57507 5.99033,2.15412 7.19539,0.770722 7.49665,0.424872 6.89412,1.11657 "/>
<path stroke="rgb(0,255,0)" d="M 72.9759,82.4648 l -3.86,-3.0858 -3.83011,-3.11908 -3.84505,-3.10244 -3.90483,-3.03589 -4.00944,-2.91943 -3.21294,-1.9614 -3.38336,-1.64404 -3.48074,-1.46269 -3.50509,-1.41736 -3.4564,-1.50803 "/>
</g></g></svg>