<?xml version="1.0" encoding="UTF-8" standalone="no"?>
<!-- Created with Inkscape (http://www.inkscape.org/) -->
<svg id="svg3798" xmlns:rdf="http://www.w3.org/1999/02/22-rdf-syntax-ns#" xmlns="http://www.w3.org/2000/svg" xml:space="preserve" height="35.433" width="35.433" version="1.1" xmlns:cc="http://creativecommons.org/ns#" xmlns:dc="http://purl.org/dc/elements/1.1/"><metadata id="metadata3804"><rdf:RDF><cc:Work rdf:about=""><dc:format>image/svg+xml</dc:format><dc:type rdf:resource="http://purl.org/dc/dcmitype/StillImage"/><dc:title/></cc:Work></rdf:RDF></metadata><defs id="defs3802"><clipPath id="clipPath3808" clipPathUnits="userSpaceOnUse"><path id="path3810" d="m-0.1322,0,28.346,0,0,28.346-28.346,0,0-28.346z"/></clipPath><clipPath id="clipPath3818" clipPathUnits="userSpaceOnUse"><path id="path3820" clip-rule="evenodd" d="M0,0,14,0,14,14.2,0,14.2,0,0z"/></clipPath></defs><g id="g3806" clip-path="url(#clipPath3808)" transform="matrix(1.25,0,0,-1.25,0.1652525,35.433125)"><g id="g3812" transform="scale(2,2)"><g id="g3814"><g id="g3816" clip-path="url(#clipPath3818)"><g id="g3822" transform="translate(5.1,8.3)"><path id="path3824" stroke-linejoin="miter" d="M0,0-0.2,0.8-0.7,1.4-1.5,1.7-2.3,1.5-2.9,1-3.2,0.3v-0.8l0.5-0.7,0.7-0.4,0.8,0.1,0.7,0.3,0.4,0.7,0.1,0.5z" stroke="param(outline) #b2007f" stroke-linecap="square" stroke-miterlimit="3" stroke-dasharray="none" stroke-width="0.283" fill="none"/></g><g id="g3826" transform="translate(8.4,8.3)"><path id="path3828" stroke-linejoin="miter" d="M0,0-0.2,0.8-0.8,1.4-1.5,1.7-2.3,1.5-3,1-3.3,0.3l0.1-0.8,0.4-0.7,0.7-0.4,0.8,0.1,0.7,0.3,0.5,0.7,0.1,0.5z" stroke="param(outline) #b2007f" stroke-linecap="square" stroke-miterlimit="3" stroke-dasharray="none" stroke-width="0.283" fill="none"/></g><g id="g3830" transform="translate(11.6,8.3)"><path id="path3832" stroke-linejoin="miter" d="M0,0-0.2,0.8-0.7,1.4-1.5,1.7-2.3,1.5-2.9,1-3.2,0.3v-0.8l0.5-0.7,0.7-0.4,0.8,0.1,0.7,0.3,0.4,0.7,0.1,0.5z" stroke="param(outline) #b2007f" stroke-linecap="square" stroke-miterlimit="3" stroke-dasharray="none" stroke-width="0.283" fill="none"/></g><g id="g3834" transform="translate(10,5.5)"><path id="path3836" stroke-linejoin="miter" d="M0,0-0.2,0.8-0.8,1.4-1.5,1.6-2.3,1.5-2.9,1-3.3,0.3l0.1-0.8,0.5-0.7,0.7-0.4h0.8l0.7,0.4,0.4,0.7,0.1,0.5z" stroke="param(outline) #b2007f" stroke-linecap="square" stroke-miterlimit="3" stroke-dasharray="none" stroke-width="0.283" fill="none"/></g><g id="g3838" transform="translate(6.7,5.5)"><path id="path3840" stroke-linejoin="miter" d="M0,0-0.2,0.8-0.7,1.4-1.5,1.6-2.3,1.5-2.9,1-3.2,0.3l0.1-0.8,0.4-0.7,0.7-0.4h0.8l0.7,0.4,0.4,0.7,0.1,0.5z" stroke="param(outline) #b2007f" stroke-linecap="square" stroke-miterlimit="3" stroke-dasharray="none" stroke-width="0.283" fill="none"/></g><g id="g3842" transform="translate(8.3,2.7)"><path id="path3844" stroke-linejoin="miter" d="M0,0-0.1,0.8-0.7,1.4-1.5,1.6-2.2,1.5-2.9,1-3.2,0.2l0.1-0.8,0.4-0.6,0.7-0.4h0.8l0.7,0.4,0.5,0.7v0.5z" stroke="param(outline) #b2007f" stroke-linecap="square" stroke-miterlimit="3" stroke-dasharray="none" stroke-width="0.283" fill="none"/></g><g id="g3846" transform="translate(6.7,10.1)"><path id="path3848" stroke-linejoin="miter" d="m0,0-0.3,1.1-0.2,0.6-0.3,0.4-0.4,0.3-1,0.4-3.3,0.7" stroke="#0F0" stroke-linecap="square" stroke-miterlimit="3" stroke-dasharray="none" stroke-width="0.283" fill="none"/></g><g id="g3850" transform="translate(1.2,13.6)"><path id="path3852" stroke-linejoin="miter" d="M0,0,1.4-1.2,2.9-2.3,4.2-3,5.5-3.5" stroke="#0F0" stroke-linecap="square" stroke-miterlimit="3" stroke-dasharray="none" stroke-width="0.283" fill="none"/></g><g id="g3854" transform="translate(6.7,10.1)"><path id="path3856" stroke-linejoin="miter" d="m0,0,0.3,1.1,0.2,0.6,0.3,0.4,0.4,0.3,1,0.4,3.3,0.7" stroke="#0F0" stroke-linecap="square" stroke-miterlimit="3" stroke-dasharray="none" stroke-width="0.283" fill="none"/></g><g id="g3858" transform="translate(12.2,13.6)"><path id="path3860" stroke-linejoin="miter" d="M0,0-1.4-1.2-2.9-2.3-4.2-3-5.5-3.5" stroke="#0F0" stroke-linecap="square" stroke-miterlimit="3" stroke-dasharray="none" stroke-width="0.283" fill="none"/></g><g id="g3862" transform="translate(19.4,21.7)"><path id="path3864" stroke-linejoin="miter" d="M0,0,0,0z" stroke="#b2007f" stroke-linecap="square" stroke-miterlimit="3" stroke-dasharray="none" stroke-width="0.283" fill="none"/></g><g id="g3866" transform="translate(22.6,21.7)"><path id="path3868" stroke-linejoin="miter" d="M0,0,0,0z" stroke="#b2007f" stroke-linecap="square" stroke-miterlimit="3" stroke-dasharray="none" stroke-width="0.283" fill="none"/></g><g id="g3870" transform="translate(25.9,21.7)"><path id="path3872" stroke-linejoin="miter" d="M0,0,0,0z" stroke="#b2007f" stroke-linecap="square" stroke-miterlimit="3" stroke-dasharray="none" stroke-width="0.283" fill="none"/></g><g id="g3874" transform="translate(24.3,18.9)"><path id="path3876" stroke-linejoin="miter" d="M0,0,0,0z" stroke="#b2007f" stroke-linecap="square" stroke-miterlimit="3" stroke-dasharray="none" stroke-width="0.283" fill="param(fill) #ff0000"/></g><g id="g3878" transform="translate(21,18.9)"><path id="path3880" stroke-linejoin="miter" d="M0,0,0,0z" stroke="#b2007f" stroke-linecap="square" stroke-miterlimit="3" stroke-dasharray="none" stroke-width="0.283" fill="none"/></g><g id="g3882" transform="translate(22.6,16.1)"><path id="path3884" stroke-linejoin="miter" d="M0,0,0,0z" stroke="#b2007f" stroke-linecap="square" stroke-miterlimit="3" stroke-dasharray="none" stroke-width="0.283" fill="none"/></g><g id="g3886" transform="translate(21,23.5)"><path id="path3888" stroke-linejoin="miter" d="M0,0-5.6,3.5" stroke="#0F0" stroke-linecap="square" stroke-miterlimit="3" stroke-dasharray="none" stroke-width="0.283" fill="none"/></g><g id="g3890" transform="translate(15.4,27)"><path id="path3892" stroke-linejoin="miter" d="M0,0,5.6-3.5" stroke="#0F0" stroke-linecap="square" stroke-miterlimit="3" stroke-dasharray="none" stroke-width="0.283" fill="none"/></g><g id="g3894" transform="translate(21,23.5)"><path id="path3896" stroke-linejoin="miter" d="M0,0,5.5,3.5" stroke="#0F0" stroke-linecap="square" stroke-miterlimit="3" stroke-dasharray="none" stroke-width="0.283" fill="none"/></g><g id="g3898" transform="translate(26.5,27)"><path id="path3900" stroke-linejoin="miter" d="M0,0-5.5-3.5" stroke="#0F0" stroke-linecap="square" stroke-miterlimit="3" stroke-dasharray="none" stroke-width="0.283" fill="none"/></g></g></g></g></g></svg>
