<?xml version="1.0" encoding="UTF-8" standalone="no"?>
<!-- Created with Inkscape (http://www.inkscape.org/) -->
<svg id="svg4758" xmlns:rdf="http://www.w3.org/1999/02/22-rdf-syntax-ns#" xmlns="http://www.w3.org/2000/svg" xml:space="preserve" height="35.61" width="35.61" version="1.1" xmlns:cc="http://creativecommons.org/ns#" xmlns:dc="http://purl.org/dc/elements/1.1/"><metadata id="metadata4764"><rdf:RDF><cc:Work rdf:about=""><dc:format>image/svg+xml</dc:format><dc:type rdf:resource="http://purl.org/dc/dcmitype/StillImage"/><dc:title/></cc:Work></rdf:RDF></metadata><defs id="defs4762"><clipPath id="clipPath4772" clipPathUnits="userSpaceOnUse"><path id="path4774" clip-rule="evenodd" d="M0,28.488,0,0h28.488v28.488h-28.488z"/></clipPath><clipPath id="clipPath4782" clipPathUnits="userSpaceOnUse"><path id="path4784" clip-rule="evenodd" d="M0,28.488,0,0h28.488v28.488h-28.488z"/></clipPath></defs><g id="g4766" transform="matrix(1.25,0,0,-1.25,0,35.610237)"><g id="g4768"><g id="g4770" clip-path="url(#clipPath4772)"><path id="path4776" stroke-linejoin="round" d="m-1.4346-1.4689,0,31.395,31.322,0,0-31.395-31.322,0z" stroke="none"stroke-linecap="round" stroke-miterlimit="10" stroke-dasharray="none" stroke-width="0.95641" fill="none"/></g></g><g id="g4778"><g id="g4780" clip-path="url(#clipPath4782)"><text id="text4786" transform="matrix(0.99768651,0,0,-1,6.21666,78.7938)"><tspan id="tspan4788" style="writing-mode:lr;" font-weight="bold" fill-rule="nonzero" font-size="2.15691" font-variant="normal" y="0" x="0 1.20105376 2.40210753 3.84337636 5.04443012 6.48569896" font-family="Arial" fill="none">Legend</tspan></text>
<path id="path4792" d="m14.585,14.348,2.391-2.6362,1.9128-1.9172,0.2391-0.47931,0,0.23965,0,0.23966,0,0.47931-0.2391,0.95863,0,0.95862-0.2391,1.4379-0.2391,1.6776-0.47821,1.9172-0.2391,2.1569-0.2391,0.23965-0.2391,0-5.2602,0-0.47821-0.47931-0.4782-2.1569-0.23911-1.6776-0.2391-1.6776-0.2391-1.4379-0.2391-0.95862-0.23911-0.95863,0-0.47931,0-0.23966,0.23911-0.23965,0.2391,0.23965,0.95641,0.95863,1.4346,1.6776,1.1955,1.1983,0.71731,0.95862zm2.6301,3.8345-5.4994,0,0.23911,0.71897,5.2602,0,0-0.71897zm-0.71731-0.71897-2.1519-2.3966-2.1519,2.3966,4.3038,0zm1.9128-6.95-3.5865,4.0742,2.6301,2.8759,0.95641-6.95zm-4.3038,4.3138-3.5865-4.3138,1.1955,6.7104,2.391-2.3966z" fill="param(fill) #000" fill-rule="evenodd"/></g></g></g></svg>
