<?xml version="1.0" encoding="UTF-8" standalone="no"?>
<!-- Created with Inkscape (http://www.inkscape.org/) -->
<svg id="svg5489" xmlns:rdf="http://www.w3.org/1999/02/22-rdf-syntax-ns#" xmlns="http://www.w3.org/2000/svg" xml:space="preserve" height="35.61" width="35.61" version="1.1" xmlns:cc="http://creativecommons.org/ns#" xmlns:dc="http://purl.org/dc/elements/1.1/"><metadata id="metadata5495"><rdf:RDF><cc:Work rdf:about=""><dc:format>image/svg+xml</dc:format><dc:type rdf:resource="http://purl.org/dc/dcmitype/StillImage"/><dc:title/></cc:Work></rdf:RDF></metadata><defs id="defs5493"><clipPath id="clipPath5503" clipPathUnits="userSpaceOnUse"><path id="path5505" clip-rule="evenodd" d="M0,28.488,0,0h28.488v28.488h-28.488z"/></clipPath><clipPath id="clipPath5513" clipPathUnits="userSpaceOnUse"><path id="path5515" clip-rule="evenodd" d="M0,28.488,0,0h28.488v28.488h-28.488z"/></clipPath></defs><g id="g5497" transform="matrix(1.25,0,0,-1.25,0,35.610237)"><g id="g5499"><g id="g5501" clip-path="url(#clipPath5503)"><path id="path5507" stroke-linejoin="round" d="m-1.4346-1.4689,0,31.395,31.322,0,0-31.395-31.322,0z" stroke="none" stroke-linecap="round" stroke-miterlimit="10" stroke-dasharray="none" stroke-width="0.95641" fill="none"/></g></g><g id="g5509"><g id="g5511" clip-path="url(#clipPath5513)"><path id="path5537" fill-rule="evenodd" fill="param(fill) #000" d="m19.367,6.2001-4.543,12.222,0,0.23966,3.3474-3.1155,0.47821,0.23966-4.0647,3.8345,3.8256,3.5948-0.23911,0.23965-4.0647-3.5948-3.8256,3.5948-0.2391-0.23965,3.8256-3.8345-4.0647-3.5948,0.47821-0.23966,3.3474,2.8759-4.5429-12.222,10.281,0zm-0.95641,0.71897-8.6077,0,4.3038,11.504,4.3038-11.504z"/></g></g></g></svg>
