<?xml version="1.0" encoding="UTF-8" standalone="no"?>
<!-- Created with Inkscape (http://www.inkscape.org/) -->
<svg id="svg4886" xmlns:rdf="http://www.w3.org/1999/02/22-rdf-syntax-ns#" xmlns="http://www.w3.org/2000/svg" xml:space="preserve" height="35.61" width="35.61" version="1.1" xmlns:cc="http://creativecommons.org/ns#" xmlns:dc="http://purl.org/dc/elements/1.1/"><metadata id="metadata4892"><rdf:RDF><cc:Work rdf:about=""><dc:format>image/svg+xml</dc:format><dc:type rdf:resource="http://purl.org/dc/dcmitype/StillImage"/><dc:title/></cc:Work></rdf:RDF></metadata><defs id="defs4890"><clipPath id="clipPath4900" clipPathUnits="userSpaceOnUse"><path id="path4902" clip-rule="evenodd" d="M0,28.488,0,0h28.488v28.488h-28.488z"/></clipPath><clipPath id="clipPath4910" clipPathUnits="userSpaceOnUse"><path id="path4912" clip-rule="evenodd" d="M0,28.488,0,0h28.488v28.488h-28.488z"/></clipPath></defs><g id="g4894" transform="matrix(1.25,0,0,-1.25,0,35.610237)"><g id="g4896"><g id="g4898" clip-path="url(#clipPath4900)"><path id="path4904" stroke-linejoin="round" d="m-1.4346-1.4689,0,31.395,31.322,0,0-31.395-31.322,0z" stroke="none"stroke-linecap="round" stroke-miterlimit="10" stroke-dasharray="none" stroke-width="0.95641" fill="none"/></g></g><g id="g4906"><g id="g4908" clip-path="url(#clipPath4910)"><text id="text4914" transform="matrix(0.99768651,0,0,-1,-5.73846,50.03503)"><tspan id="tspan4916" style="writing-mode:lr;" font-weight="bold" fill-rule="nonzero" font-size="2.15691" font-variant="normal" y="0" x="0 1.20105376 2.40210753 3.84337636 5.04443012 6.48569896" font-family="Arial" fill="none">Legend</tspan></text>
<text id="text4918" transform="matrix(0.99768651,0,0,-1,16.01985,34.71926)"><tspan id="tspan4920" style="writing-mode:lr;" font-weight="normal" fill-rule="nonzero" font-size="2.15691" font-variant="normal" y="0" x="0 1.44126883 2.6423226 3.3629678" font-family="Arial" fill="none">Bore</tspan></text>
<path id="path4922" d="m21.519,21.298,0,0.47931-0.47821,0.23966-2.6301,0-1.4346-0.47932-0.4782-0.23965-0.95641-0.71897-1.1955-1.4379-0.2391-0.95863-0.23911-0.71897,0-7.9087,0.23911-0.47931,0.4782,0,0.2391,0,0.2391,0.71897,0,7.669,0.47821,1.1983,0.95641,1.1983,1.1955,0.71897,0.95641,0.23965,2.391,0,0.47821,0.23966,0,0.23966zm1.1955-11.743-0.2391,0.95863-0.95641,0.71897-1.9128,0.71897-0.71731,0.23965-1.1955,0.23966-0.95641,0-0.4782,0-0.23911,0,0-0.95863,2.391-0.47931,1.4346-0.23965,0.95641-0.47932,0.4782-0.23965,0.23911-0.47932-0.23911-0.23965-0.4782-0.23966-0.95641-0.47931-0.2391-0.23966-0.71731,0-1.4346-0.47931-1.4346,0-3.1083,0-0.9564,0-1.6737,0.47931-2.1519,0.71897-0.47821,0.23966,0,0.23965,0,0.47932,0.71731,0.23965,1.6737,0.71897,2.6301,0.47931,0,0.95863-1.1955,0l-0.716-0.24-1.6741-0.24-1.6737-0.959-0.7173-0.479-0.2391-0.9587,0.4782-0.9586,0.9564-0.719,1.4346-0.4793,2.1519-0.47932,1.4346-0.23965h3.3474l1.4346,0.23965,2.1519,0.47932,1.1955,0.23965,0.95641,0.71897,0.47821,0.47931,0.2391,0.71897zm2.8692,0-0.23911,1.1983-0.95641,0.95862-1.1955,0.71897-1.4346,0.71897-1.6737,0.47931-1.9128,0.47932-0.4782,0-0.4782,0-1.1955,0-0.2391,0,0-0.95863,3.1083-0.23966,0.95641-0.23965,0.71731-0.23966,1.6737-0.71897,1.4346-0.71897,0.7173-0.71897l0.244-0.7167-0.24-0.7189-0.478-0.719-0.478-0.4793-2.869-1.1983-1.674-0.2397-0.956-0.2396-1.435-0.2397h-4.0647l-1.674,0.2397-1.435,0.2396-0.7173,0.2397-1.9128,0.719-1.4347,0.7189-0.7173,0.719-0.2391,0.95862,0.47821,0.95863,0.95641,0.71897,2.391,1.1983,2.391,0.47931,2.1519,0.23966v0.95863h-1.1955l-1.1955-0.23966h-0.95641l-2.1525-0.719-2.1519-1.198-1.1956-1.198-0.4782-1.1987,0.2391-0.9586,0.4782-0.9586,1.4347-0.9586,2.1519-0.9587,1.9128-0.4793,1.1959-0.2396,1.4346-0.23965h4.5429l1.4346,0.23965,2.391,0.47931,1.9128,0.47932,1.4346,0.71897,0.95641,0.95862,0.4782,0.95863,0.23911,0.95862z" fill="param(fill) #000" fill-rule="evenodd"/><text id="text4928" transform="matrix(0.99768651,0,0,-1,16.01985,-17.52584)"><tspan id="tspan4930" style="writing-mode:lr;" font-weight="normal" fill-rule="nonzero" font-size="2.15691" font-variant="normal" y="0" x="0 1.92169896 3.12275273 3.84339793 5.04445169 5.76509689 6.48574209 7.44658079 8.88784962 10.08890339" font-family="Arial" fill="none">Water Tank</tspan></text>
<text id="text4932" transform="matrix(0.99768651,0,0,-1,16.01985,-43.64839)"><tspan id="tspan4934" style="writing-mode:lr;" font-weight="normal" fill-rule="nonzero" font-size="2.15691" font-variant="normal" y="0" x="0 1.92169896 3.12275273 3.84339793 5.04445169 5.76509689 6.96615066 8.40741949 8.88784962 10.08890339" font-family="Arial" fill="none">Waterpoint</tspan></text>
<text id="text4936" transform="matrix(0.99768651,0,0,-1,16.01985,-69.77094)"><tspan id="tspan4938" style="writing-mode:lr;" font-weight="normal" fill-rule="nonzero" font-size="2.15691" font-variant="normal" y="0" x="0 1.92169896 2.4021291 3.84339793 5.04445169 6.96615066 7.44658079 7.92701092" font-family="Arial" fill="none">Windmill</tspan></text>
</g></g></g></svg>
