<?xml version="1.0" encoding="UTF-8" standalone="no"?>
<!-- Generator: Adobe Illustrator 12.0.1, SVG Export Plug-In . SVG Version: 6.00 Build 51448)  -->

<svg
   xmlns:dc="http://purl.org/dc/elements/1.1/"
   xmlns:cc="http://creativecommons.org/ns#"
   xmlns:rdf="http://www.w3.org/1999/02/22-rdf-syntax-ns#"
   xmlns:svg="http://www.w3.org/2000/svg"
   xmlns="http://www.w3.org/2000/svg"
   xmlns:sodipodi="http://sodipodi.sourceforge.net/DTD/sodipodi-0.dtd"
   xmlns:inkscape="http://www.inkscape.org/namespaces/inkscape"
   version="1.0"
   id="Layer_1"
   width="215.99001"
   height="215.994"
   viewBox="0 0 215.99001 215.994"
   overflow="visible"
   enable-background="new 0 0 504.09 215.994"
   xml:space="preserve"
   inkscape:version="0.47 r22583"
   sodipodi:docname="django-logo-negative.svg"
   style="overflow:visible"><metadata
   id="metadata25"><rdf:RDF><cc:Work
       rdf:about=""><dc:format>image/svg+xml</dc:format><dc:type
         rdf:resource="http://purl.org/dc/dcmitype/StillImage" /><dc:title></dc:title></cc:Work></rdf:RDF></metadata><defs
   id="defs23"><inkscape:perspective
     sodipodi:type="inkscape:persp3d"
     inkscape:vp_x="0 : 107.997 : 1"
     inkscape:vp_y="0 : 1000 : 0"
     inkscape:vp_z="504.09 : 107.997 : 1"
     inkscape:persp3d-origin="252.045 : 71.998001 : 1"
     id="perspective27" /><filter
     id="filter2835"
     inkscape:label="Desaturate"
     x="0"
     y="0"
     width="1"
     height="1"
     inkscape:menu="Color"
     inkscape:menu-tooltip="Render in shades of gray by reducing saturation to zero"
     color-interpolation-filters="sRGB"><feColorMatrix
       id="feColorMatrix2837"
       type="saturate"
       values="0" /></filter></defs><sodipodi:namedview
   pagecolor="#ffffff"
   bordercolor="#666666"
   borderopacity="1"
   objecttolerance="10"
   gridtolerance="10"
   guidetolerance="10"
   inkscape:pageopacity="0"
   inkscape:pageshadow="2"
   inkscape:window-width="1680"
   inkscape:window-height="1003"
   id="namedview21"
   showgrid="false"
   inkscape:zoom="1.0712373"
   inkscape:cx="135.3575"
   inkscape:cy="107.997"
   inkscape:window-x="-4"
   inkscape:window-y="-4"
   inkscape:window-maximized="1"
   inkscape:current-layer="Layer_1" />
<path
   d="m 216.09,187.994 c 0,15.464 -12.536,28 -28,28 l -160.09,0 c -15.464,0 -28,-12.536 -28,-28 L 0,28 C 0,12.536 12.536,0 28,0 l 160.09,0 c 15.464,0 28,12.536 28,28 l 0,159.994 z"
   id="path3"
   sodipodi:nodetypes="ccccccccc"
   style="fill:#092e20;filter:url(#filter2835)" />
<g
   id="g5"
   transform="translate(13.857505,1.082)">
	<g
   id="g7">
		<path
   d="m 86.945,33.919 h 23.872 v 110.496 c -12.246,2.325 -21.237,3.255 -31.002,3.255 -29.142,0 -44.333,-13.174 -44.333,-38.443 0,-24.336 16.122,-40.147 41.078,-40.147 3.875,0 6.82,0.311 10.386,1.239 v -36.4 z m 0,55.62 C 84.155,88.61 81.83,88.3 78.885,88.3 c -12.091,0 -19.067,7.441 -19.067,20.46 0,12.713 6.666,19.688 18.912,19.688 2.634,0 4.805,-0.155 8.215,-0.618 V 89.539 z"
   id="path9"
   style="fill:#ffffff" />
		<path
   d="m 148.793,70.783 v 55.341 c 0,19.065 -1.395,28.21 -5.58,36.117 -3.876,7.596 -8.992,12.399 -19.532,17.67 L 101.514,169.37 c 10.541,-4.96 15.656,-9.297 18.911,-15.966 3.411,-6.819 4.497,-14.727 4.497,-35.498 V 70.783 h 23.871 z M 124.922,34.046 h 23.871 V 58.539 H 124.922 V 34.046 z"
   id="path11"
   style="fill:#ffffff" />
		
		
		
		
	</g>
</g>
</svg>