<?xml version="1.0" encoding="UTF-8" standalone="no"?>
<!-- Created with Inkscape (http://www.inkscape.org/) -->

<svg
   xmlns:dc="http://purl.org/dc/elements/1.1/"
   xmlns:cc="http://creativecommons.org/ns#"
   xmlns:rdf="http://www.w3.org/1999/02/22-rdf-syntax-ns#"
   xmlns:svg="http://www.w3.org/2000/svg"
   xmlns="http://www.w3.org/2000/svg"
   xmlns:xlink="http://www.w3.org/1999/xlink"
   xmlns:sodipodi="http://sodipodi.sourceforge.net/DTD/sodipodi-0.dtd"
   xmlns:inkscape="http://www.inkscape.org/namespaces/inkscape"
   width="574.5"
   height="57"
   id="svg2821"
   version="1.1"
   inkscape:version="0.47 r22583"
   sodipodi:docname="image.svg">
  <defs
     id="defs2823">
    <inkscape:perspective
       sodipodi:type="inkscape:persp3d"
       inkscape:vp_x="0 : 30 : 1"
       inkscape:vp_y="0 : 1000 : 0"
       inkscape:vp_z="468 : 30 : 1"
       inkscape:persp3d-origin="234 : 20 : 1"
       id="perspective2829" />
    <filter
       color-interpolation-filters="sRGB"
       inkscape:menu-tooltip="Render in shades of gray by reducing saturation to zero"
       inkscape:menu="Color"
       height="1"
       width="1"
       y="0"
       x="0"
       inkscape:label="Desaturate"
       id="filter2958">
      <feColorMatrix
         values="0"
         type="saturate"
         id="feColorMatrix2960" />
    </filter>
    <filter
       color-interpolation-filters="sRGB"
       inkscape:menu-tooltip="Render in shades of gray by reducing saturation to zero"
       inkscape:menu="Color"
       height="1"
       width="1"
       y="0"
       x="0"
       inkscape:label="Desaturate"
       id="filter2954">
      <feColorMatrix
         values="0"
         type="saturate"
         id="feColorMatrix2956" />
    </filter>
    <filter
       color-interpolation-filters="sRGB"
       inkscape:menu-tooltip="Render in shades of gray by reducing saturation to zero"
       inkscape:menu="Color"
       height="1"
       width="1"
       y="0"
       x="0"
       inkscape:label="Desaturate"
       id="filter2950">
      <feColorMatrix
         values="0"
         type="saturate"
         id="feColorMatrix2952" />
    </filter>
    <filter
       color-interpolation-filters="sRGB"
       inkscape:menu-tooltip="Render in shades of gray by reducing saturation to zero"
       inkscape:menu="Color"
       height="1"
       width="1"
       y="0"
       x="0"
       inkscape:label="Desaturate"
       id="filter2946">
      <feColorMatrix
         values="0"
         type="saturate"
         id="feColorMatrix2948" />
    </filter>
    <filter
       color-interpolation-filters="sRGB"
       inkscape:menu-tooltip="Render in shades of gray by reducing saturation to zero"
       inkscape:menu="Color"
       height="1"
       width="1"
       y="0"
       x="0"
       inkscape:label="Desaturate"
       id="filter2942">
      <feColorMatrix
         values="0"
         type="saturate"
         id="feColorMatrix2944" />
    </filter>
    <filter
       color-interpolation-filters="sRGB"
       inkscape:menu-tooltip="Render in shades of gray by reducing saturation to zero"
       inkscape:menu="Color"
       height="1"
       width="1"
       y="0"
       x="0"
       inkscape:label="Desaturate"
       id="filter2938">
      <feColorMatrix
         values="0"
         type="saturate"
         id="feColorMatrix2940" />
    </filter>
    <filter
       color-interpolation-filters="sRGB"
       inkscape:menu-tooltip="Render in shades of gray by reducing saturation to zero"
       inkscape:menu="Color"
       height="1"
       width="1"
       y="0"
       x="0"
       inkscape:label="Desaturate"
       id="filter2934">
      <feColorMatrix
         values="0"
         type="saturate"
         id="feColorMatrix2936" />
    </filter>
    <filter
       color-interpolation-filters="sRGB"
       inkscape:menu-tooltip="Render in shades of gray by reducing saturation to zero"
       inkscape:menu="Color"
       height="1"
       width="1"
       y="0"
       x="0"
       inkscape:label="Desaturate"
       id="filter2930">
      <feColorMatrix
         values="0"
         type="saturate"
         id="feColorMatrix2932" />
    </filter>
    <filter
       color-interpolation-filters="sRGB"
       inkscape:menu-tooltip="Render in shades of gray by reducing saturation to zero"
       inkscape:menu="Color"
       height="1"
       width="1"
       y="0"
       x="0"
       inkscape:label="Desaturate"
       id="filter2926">
      <feColorMatrix
         values="0"
         type="saturate"
         id="feColorMatrix2928" />
    </filter>
    <filter
       color-interpolation-filters="sRGB"
       inkscape:menu-tooltip="Render in shades of gray by reducing saturation to zero"
       inkscape:menu="Color"
       height="1"
       width="1"
       y="0"
       x="0"
       inkscape:label="Desaturate"
       id="filter2922">
      <feColorMatrix
         values="0"
         type="saturate"
         id="feColorMatrix2924" />
    </filter>
    <filter
       color-interpolation-filters="sRGB"
       inkscape:menu-tooltip="Render in shades of gray by reducing saturation to zero"
       inkscape:menu="Color"
       height="1"
       width="1"
       y="0"
       x="0"
       inkscape:label="Desaturate"
       id="filter2918">
      <feColorMatrix
         values="0"
         type="saturate"
         id="feColorMatrix2920" />
    </filter>
    <filter
       color-interpolation-filters="sRGB"
       inkscape:menu-tooltip="Render in shades of gray by reducing saturation to zero"
       inkscape:menu="Color"
       height="1"
       width="1"
       y="0"
       x="0"
       inkscape:label="Desaturate"
       id="filter2914">
      <feColorMatrix
         values="0"
         type="saturate"
         id="feColorMatrix2916" />
    </filter>
    <inkscape:perspective
       id="perspective36"
       inkscape:persp3d-origin="270.04437 : 185.57625 : 1"
       inkscape:vp_z="540.08875 : 278.36438 : 1"
       inkscape:vp_y="0 : 1000 : 0"
       inkscape:vp_x="0 : 278.36438 : 1"
       sodipodi:type="inkscape:persp3d" />
    <filter
       color-interpolation-filters="sRGB"
       inkscape:menu-tooltip="Render in shades of gray by reducing saturation to zero"
       inkscape:menu="Color"
       height="1"
       width="1"
       y="0"
       x="0"
       inkscape:label="Desaturate"
       id="filter2835">
      <feColorMatrix
         values="0"
         type="saturate"
         id="feColorMatrix2837" />
    </filter>
    <inkscape:perspective
       id="perspective27"
       inkscape:persp3d-origin="252.045 : 71.998001 : 1"
       inkscape:vp_z="504.09 : 107.997 : 1"
       inkscape:vp_y="0 : 1000 : 0"
       inkscape:vp_x="0 : 107.997 : 1"
       sodipodi:type="inkscape:persp3d" />
    <filter
       color-interpolation-filters="sRGB"
       inkscape:menu-tooltip="Render in shades of gray by reducing saturation to zero"
       inkscape:menu="Color"
       height="1"
       width="1"
       y="0"
       x="0"
       inkscape:label="Desaturate"
       id="filter3275">
      <feColorMatrix
         values="0"
         type="saturate"
         id="feColorMatrix3277" />
    </filter>
    <filter
       color-interpolation-filters="sRGB"
       inkscape:menu-tooltip="Render in shades of gray by reducing saturation to zero"
       inkscape:menu="Color"
       height="1"
       width="1"
       y="0"
       x="0"
       inkscape:label="Desaturate"
       id="filter3271">
      <feColorMatrix
         values="0"
         type="saturate"
         id="feColorMatrix3273" />
    </filter>
    <inkscape:perspective
       sodipodi:type="inkscape:persp3d"
       inkscape:vp_x="0 : 0.5 : 1"
       inkscape:vp_y="0 : 1000 : 0"
       inkscape:vp_z="1 : 0.5 : 1"
       inkscape:persp3d-origin="0.5 : 0.33333333 : 1"
       id="perspective3238" />
    <inkscape:perspective
       id="perspective3254"
       inkscape:persp3d-origin="32 : 21.333333 : 1"
       inkscape:vp_z="64 : 32 : 1"
       inkscape:vp_y="0 : 1000 : 0"
       inkscape:vp_x="0 : 32 : 1"
       sodipodi:type="inkscape:persp3d" />
    <inkscape:perspective
       id="perspective2973"
       inkscape:persp3d-origin="0.5 : 0.33333333 : 1"
       inkscape:vp_z="1 : 0.5 : 1"
       inkscape:vp_y="0 : 1000 : 0"
       inkscape:vp_x="0 : 0.5 : 1"
       sodipodi:type="inkscape:persp3d" />
    <filter
       color-interpolation-filters="sRGB"
       inkscape:menu-tooltip="Render in shades of gray by reducing saturation to zero"
       inkscape:menu="Color"
       height="1"
       width="1"
       y="0"
       x="0"
       inkscape:label="Desaturate"
       id="filter2856">
      <feColorMatrix
         values="0"
         type="saturate"
         id="feColorMatrix2858" />
    </filter>
    <filter
       color-interpolation-filters="sRGB"
       inkscape:menu-tooltip="Render in shades of gray by reducing saturation to zero"
       inkscape:menu="Color"
       height="1"
       width="1"
       y="0"
       x="0"
       inkscape:label="Desaturate"
       id="filter2852">
      <feColorMatrix
         values="0"
         type="saturate"
         id="feColorMatrix2854" />
    </filter>
    <radialGradient
       r="29.036913"
       fy="132.28575"
       fx="61.518883"
       cy="132.28575"
       cx="61.518883"
       gradientTransform="matrix(2.38272e-8,-0.296405,1.43676,4.68367e-7,-128.544,150.52)"
       gradientUnits="userSpaceOnUse"
       id="radialGradient1480"
       xlink:href="#linearGradient2795"
       inkscape:collect="always" />
    <radialGradient
       gradientUnits="userSpaceOnUse"
       gradientTransform="matrix(1,0,0,0.177966,0,108.743)"
       r="29.036913"
       fy="132.28575"
       fx="61.518883"
       cy="132.28575"
       cx="61.518883"
       id="radialGradient2801"
       xlink:href="#linearGradient2795"
       inkscape:collect="always" />
    <linearGradient
       y2="76.313133"
       x2="26.670298"
       y1="76.176224"
       x1="172.94208"
       gradientTransform="matrix(0.562541,0,0,0.567972,-11.5974,-7.60954)"
       gradientUnits="userSpaceOnUse"
       id="linearGradient2258"
       xlink:href="#linearGradient4689"
       inkscape:collect="always" />
    <linearGradient
       y2="144.75717"
       x2="-65.308502"
       y1="144.75717"
       x1="224.23996"
       gradientTransform="matrix(0.562541,0,0,0.567972,-11.5974,-7.60954)"
       gradientUnits="userSpaceOnUse"
       id="linearGradient2255"
       xlink:href="#linearGradient4671"
       inkscape:collect="always" />
    <linearGradient
       y2="144.75717"
       x2="-65.308502"
       y1="144.75717"
       x1="224.23996"
       gradientTransform="translate(100.27,99.6112)"
       gradientUnits="userSpaceOnUse"
       id="linearGradient2250"
       xlink:href="#linearGradient4671"
       inkscape:collect="always" />
    <linearGradient
       y2="76.313133"
       x2="26.670298"
       y1="77.475983"
       x1="172.94208"
       gradientTransform="translate(100.27,99.6112)"
       gradientUnits="userSpaceOnUse"
       id="linearGradient2248"
       xlink:href="#linearGradient4689"
       inkscape:collect="always" />
    <linearGradient
       y2="144.75717"
       x2="-65.308502"
       y1="144.75717"
       x1="224.23996"
       gradientTransform="translate(100.27,99.6112)"
       gradientUnits="userSpaceOnUse"
       id="linearGradient2589"
       xlink:href="#linearGradient4671"
       inkscape:collect="always" />
    <linearGradient
       y2="76.313133"
       x2="26.670298"
       y1="77.475983"
       x1="172.94208"
       gradientTransform="translate(100.27,99.6112)"
       gradientUnits="userSpaceOnUse"
       id="linearGradient2587"
       xlink:href="#linearGradient4689"
       inkscape:collect="always" />
    <linearGradient
       gradientTransform="translate(100.27,99.6112)"
       gradientUnits="userSpaceOnUse"
       xlink:href="#linearGradient4689"
       id="linearGradient2990"
       y2="76.313133"
       x2="26.670298"
       y1="77.475983"
       x1="172.94208" />
    <linearGradient
       gradientTransform="translate(100.27,99.6112)"
       gradientUnits="userSpaceOnUse"
       xlink:href="#linearGradient4671"
       id="linearGradient2987"
       y2="144.75717"
       x2="-65.308502"
       y1="144.75717"
       x1="224.23996" />
    <linearGradient
       id="linearGradient4689">
      <stop
         id="stop4691"
         offset="0"
         style="stop-color: rgb(90, 159, 212); stop-opacity: 1;" />
      <stop
         id="stop4693"
         offset="1"
         style="stop-color: rgb(48, 105, 152); stop-opacity: 1;" />
    </linearGradient>
    <linearGradient
       id="linearGradient4671">
      <stop
         id="stop4673"
         offset="0"
         style="stop-color: rgb(255, 212, 59); stop-opacity: 1;" />
      <stop
         id="stop4675"
         offset="1"
         style="stop-color: rgb(255, 232, 115); stop-opacity: 1;" />
    </linearGradient>
    <linearGradient
       id="linearGradient3236">
      <stop
         id="stop3244"
         offset="0"
         style="stop-color: rgb(244, 244, 244); stop-opacity: 1;" />
      <stop
         id="stop3240"
         offset="1"
         style="stop-color: white; stop-opacity: 1;" />
    </linearGradient>
    <linearGradient
       id="linearGradient3676">
      <stop
         id="stop3678"
         offset="0"
         style="stop-color: rgb(178, 178, 178); stop-opacity: 0.5;" />
      <stop
         id="stop3680"
         offset="1"
         style="stop-color: rgb(179, 179, 179); stop-opacity: 0;" />
    </linearGradient>
    <linearGradient
       id="linearGradient2787">
      <stop
         id="stop2789"
         offset="0"
         style="stop-color: rgb(127, 127, 127); stop-opacity: 0.5;" />
      <stop
         id="stop2791"
         offset="1"
         style="stop-color: rgb(127, 127, 127); stop-opacity: 0;" />
    </linearGradient>
    <linearGradient
       id="linearGradient2795">
      <stop
         id="stop2797"
         offset="0"
         style="stop-color: rgb(184, 184, 184); stop-opacity: 0.498039;" />
      <stop
         id="stop2799"
         offset="1"
         style="stop-color: rgb(127, 127, 127); stop-opacity: 0;" />
    </linearGradient>
    <inkscape:perspective
       id="perspective46"
       inkscape:persp3d-origin="243.02499 : 47.924998 : 1"
       inkscape:vp_z="486.04999 : 71.887497 : 1"
       inkscape:vp_y="0 : 1000 : 0"
       inkscape:vp_x="0 : 71.887497 : 1"
       sodipodi:type="inkscape:persp3d" />
    <filter
       color-interpolation-filters="sRGB"
       inkscape:menu-tooltip="Render in shades of gray by reducing saturation to zero"
       inkscape:menu="Color"
       height="1"
       width="1"
       y="0"
       x="0"
       inkscape:label="Desaturate"
       id="filter2836">
      <feColorMatrix
         values="0"
         type="saturate"
         id="feColorMatrix2838" />
    </filter>
    <filter
       color-interpolation-filters="sRGB"
       inkscape:menu-tooltip="Render in shades of gray by reducing saturation to zero"
       inkscape:menu="Color"
       height="1"
       width="1"
       y="0"
       x="0"
       inkscape:label="Desaturate"
       id="filter2832">
      <feColorMatrix
         values="0"
         type="saturate"
         id="feColorMatrix2834" />
    </filter>
    <filter
       color-interpolation-filters="sRGB"
       inkscape:menu-tooltip="Render in shades of gray by reducing saturation to zero"
       inkscape:menu="Color"
       height="1"
       width="1"
       y="0"
       x="0"
       inkscape:label="Desaturate"
       id="filter2828">
      <feColorMatrix
         values="0"
         type="saturate"
         id="feColorMatrix2830" />
    </filter>
    <filter
       color-interpolation-filters="sRGB"
       inkscape:menu-tooltip="Render in shades of gray by reducing saturation to zero"
       inkscape:menu="Color"
       height="1"
       width="1"
       y="0"
       x="0"
       inkscape:label="Desaturate"
       id="filter2824">
      <feColorMatrix
         values="0"
         type="saturate"
         id="feColorMatrix2826" />
    </filter>
    <inkscape:perspective
       id="perspective18"
       inkscape:persp3d-origin="25 : 16.666667 : 1"
       inkscape:vp_z="50 : 25 : 1"
       inkscape:vp_y="0 : 1000 : 0"
       inkscape:vp_x="0 : 25 : 1"
       sodipodi:type="inkscape:persp3d" />
    <filter
       color-interpolation-filters="sRGB"
       inkscape:menu-tooltip="Render in shades of gray by reducing saturation to zero"
       inkscape:menu="Color"
       height="1"
       width="1"
       y="0"
       x="0"
       inkscape:label="Desaturate"
       id="filter2857">
      <feColorMatrix
         values="0"
         type="saturate"
         id="feColorMatrix2859" />
    </filter>
    <inkscape:perspective
       id="perspective38"
       inkscape:persp3d-origin="144 : 86.333333 : 1"
       inkscape:vp_z="288 : 129.5 : 1"
       inkscape:vp_y="0 : 1000 : 0"
       inkscape:vp_x="0 : 129.5 : 1"
       sodipodi:type="inkscape:persp3d" />
    <linearGradient
       inkscape:collect="always"
       xlink:href="#linearGradient4689"
       id="linearGradient3189"
       gradientUnits="userSpaceOnUse"
       gradientTransform="matrix(0.562541,0,0,0.567972,-14.991121,-11.702374)"
       x1="26.648937"
       y1="20.603781"
       x2="135.66525"
       y2="114.39767" />
    <linearGradient
       inkscape:collect="always"
       xlink:href="#linearGradient4671"
       id="linearGradient3191"
       gradientUnits="userSpaceOnUse"
       gradientTransform="matrix(0.562541,0,0,0.567972,-14.991121,-11.702374)"
       x1="150.96111"
       y1="192.35176"
       x2="112.03144"
       y2="137.27299" />
    <inkscape:perspective
       id="perspective4012"
       inkscape:persp3d-origin="0.5 : 0.33333333 : 1"
       inkscape:vp_z="1 : 0.5 : 1"
       inkscape:vp_y="0 : 1000 : 0"
       inkscape:vp_x="0 : 0.5 : 1"
       sodipodi:type="inkscape:persp3d" />
    <inkscape:perspective
       id="perspective4026"
       inkscape:persp3d-origin="0.5 : 0.33333333 : 1"
       inkscape:vp_z="1 : 0.5 : 1"
       inkscape:vp_y="0 : 1000 : 0"
       inkscape:vp_x="0 : 0.5 : 1"
       sodipodi:type="inkscape:persp3d" />
    <inkscape:perspective
       id="perspective4040"
       inkscape:persp3d-origin="0.5 : 0.33333333 : 1"
       inkscape:vp_z="1 : 0.5 : 1"
       inkscape:vp_y="0 : 1000 : 0"
       inkscape:vp_x="0 : 0.5 : 1"
       sodipodi:type="inkscape:persp3d" />
    <inkscape:perspective
       id="perspective4054"
       inkscape:persp3d-origin="0.5 : 0.33333333 : 1"
       inkscape:vp_z="1 : 0.5 : 1"
       inkscape:vp_y="0 : 1000 : 0"
       inkscape:vp_x="0 : 0.5 : 1"
       sodipodi:type="inkscape:persp3d" />
    <linearGradient
       inkscape:collect="always"
       xlink:href="#linearGradient4689"
       id="linearGradient4106"
       gradientUnits="userSpaceOnUse"
       gradientTransform="matrix(0.562541,0,0,0.567972,-14.991121,-11.702374)"
       x1="26.648937"
       y1="20.603781"
       x2="135.66525"
       y2="114.39767" />
    <linearGradient
       inkscape:collect="always"
       xlink:href="#linearGradient4671"
       id="linearGradient4108"
       gradientUnits="userSpaceOnUse"
       gradientTransform="matrix(0.562541,0,0,0.567972,-14.991121,-11.702374)"
       x1="150.96111"
       y1="192.35176"
       x2="112.03144"
       y2="137.27299" />
  </defs>
  <sodipodi:namedview
     id="base"
     pagecolor="#ffffff"
     bordercolor="#666666"
     borderopacity="1.0"
     inkscape:pageopacity="0.0"
     inkscape:pageshadow="2"
     inkscape:zoom="1.2"
     inkscape:cx="118.83336"
     inkscape:cy="24.000001"
     inkscape:document-units="px"
     inkscape:current-layer="layer1"
     showgrid="false"
     inkscape:window-width="1680"
     inkscape:window-height="1003"
     inkscape:window-x="-4"
     inkscape:window-y="-4"
     inkscape:window-maximized="1" />
  <metadata
     id="metadata2826">
    <rdf:RDF>
      <cc:Work
         rdf:about="">
        <dc:format>image/svg+xml</dc:format>
        <dc:type
           rdf:resource="http://purl.org/dc/dcmitype/StillImage" />
        <dc:title></dc:title>
      </cc:Work>
    </rdf:RDF>
  </metadata>
  <g
     id="layer1"
     inkscape:label="Layer 1"
     inkscape:groupmode="layer"
     transform="translate(7.3333557,3.0000005)">
    <g
       id="g4065"
       transform="translate(4.4999847,-1.4800001e-8)">
      <g
         transform="matrix(0.10777136,0,0,0.10777136,381.60714,1.5000066)"
         id="g2899">
        <g
           id="orginal"
           style="fill-rule:nonzero;stroke:#000000;stroke-miterlimit:4" />
        <g
           id="Layer_x0020_3"
           style="fill:none;stroke:#ffffff;stroke-width:12.46510029;stroke-linecap:round;stroke-linejoin:round;stroke-miterlimit:4">
          <path
             style="fill:#000000;stroke:#000000;stroke-width:37.39530182;stroke-linecap:butt;stroke-linejoin:miter;filter:url(#filter2958)"
             d="m 323.205,324.227 c 2.833,-23.601 1.984,-27.062 19.563,-23.239 l 4.463,0.392 c 13.517,0.615 31.199,-2.174 41.587,-7 22.362,-10.376 35.622,-27.7 13.572,-23.148 -50.297,10.376 -53.755,-6.655 -53.755,-6.655 C 401.746,185.774 423.948,85.741 404.784,61.255 352.514,-5.534 262.036,26.049 260.522,26.869 l -0.482,0.089 c -9.938,-2.062 -21.06,-3.294 -33.554,-3.496 -22.761,-0.374 -40.032,5.967 -53.133,15.904 0,0 -161.408,-66.498 -153.899,83.628 1.597,31.936 45.777,241.655 98.47,178.31 19.259,-23.163 37.871,-42.748 37.871,-42.748 9.242,6.14 20.307,9.272 31.912,8.147 l 0.897,-0.765 c -0.281,2.876 -0.157,5.689 0.359,9.019 -13.572,15.167 -9.584,17.83 -36.723,23.416 -27.457,5.659 -11.326,15.734 -0.797,18.367 12.768,3.193 42.305,7.716 62.268,-20.224 l -0.795,3.188 c 5.325,4.26 4.965,30.619 5.72,49.452 0.756,18.834 2.017,36.409 5.856,46.771 3.839,10.36 8.369,37.05 44.036,29.406 29.809,-6.388 52.6,-15.582 54.677,-101.107"
             id="path6" />
          <path
             style="fill:#336791;stroke:none;filter:url(#filter2954)"
             d="m 402.395,271.23 c -50.302,10.376 -53.76,-6.655 -53.76,-6.655 53.111,-78.808 75.313,-178.843 56.153,-203.326 -52.27,-66.785 -142.752,-35.2 -144.262,-34.38 l -0.486,0.087 c -9.938,-2.063 -21.06,-3.292 -33.56,-3.496 -22.761,-0.373 -40.026,5.967 -53.127,15.902 0,0 -161.411,-66.495 -153.904,83.63 1.597,31.938 45.776,241.657 98.471,178.312 19.26,-23.163 37.869,-42.748 37.869,-42.748 9.243,6.14 20.308,9.272 31.908,8.147 l 0.901,-0.765 c -0.28,2.876 -0.152,5.689 0.361,9.019 -13.575,15.167 -9.586,17.83 -36.723,23.416 -27.459,5.659 -11.328,15.734 -0.796,18.367 12.768,3.193 42.307,7.716 62.266,-20.224 l -0.796,3.188 c 5.319,4.26 9.054,27.711 8.428,48.969 -0.626,21.259 -1.044,35.854 3.147,47.254 4.191,11.4 8.368,37.05 44.042,29.406 29.809,-6.388 45.256,-22.942 47.405,-50.555 1.525,-19.631 4.976,-16.729 5.194,-34.28 l 2.768,-8.309 c 3.192,-26.611 0.507,-35.196 18.872,-31.203 l 4.463,0.392 c 13.517,0.615 31.208,-2.174 41.591,-7 22.358,-10.376 35.618,-27.7 13.573,-23.148 z"
             id="path8" />
          <path
             d="m 215.866,286.484 c -1.385,49.516 0.348,99.377 5.193,111.495 4.848,12.118 15.223,35.688 50.9,28.045 29.806,-6.39 40.651,-18.756 45.357,-46.051 3.466,-20.082 10.148,-75.854 11.005,-87.281"
             id="path10"
             style="filter:url(#filter2950)" />
          <path
             d="m 173.104,38.256 c 0,0 -161.521,-66.016 -154.012,84.109 1.597,31.938 45.779,241.664 98.473,178.316 19.256,-23.166 36.671,-41.335 36.671,-41.335"
             id="path12"
             style="filter:url(#filter2946)" />
          <path
             d="m 260.349,26.207 c -5.591,1.753 89.848,-34.889 144.087,34.417 19.159,24.484 -3.043,124.519 -56.153,203.329"
             id="path14"
             style="filter:url(#filter2942)" />
          <path
             style="stroke-linejoin:bevel;filter:url(#filter2938)"
             d="m 348.282,263.953 c 0,0 3.461,17.036 53.764,6.653 22.04,-4.552 8.776,12.774 -13.577,23.155 -18.345,8.514 -59.474,10.696 -60.146,-1.069 -1.729,-30.355 21.647,-21.133 19.96,-28.739 -1.525,-6.85 -11.979,-13.573 -18.894,-30.338 -6.037,-14.633 -82.796,-126.849 21.287,-110.183 3.813,-0.789 -27.146,-99.002 -124.553,-100.599 -97.385,-1.597 -94.19,119.762 -94.19,119.762"
             id="path16" />
          <path
             d="m 188.604,274.334 c -13.577,15.166 -9.584,17.829 -36.723,23.417 -27.459,5.66 -11.326,15.733 -0.797,18.365 12.768,3.195 42.307,7.718 62.266,-20.229 6.078,-8.509 -0.036,-22.086 -8.385,-25.547 -4.034,-1.671 -9.428,-3.765 -16.361,3.994 z"
             id="path18"
             style="filter:url(#filter2934)" />
          <path
             d="m 187.715,274.069 c -1.368,-8.917 2.93,-19.528 7.536,-31.942 6.922,-18.626 22.893,-37.255 10.117,-96.339 -9.523,-44.029 -73.396,-9.163 -73.436,-3.193 -0.039,5.968 2.889,30.26 -1.067,58.548 -5.162,36.913 23.488,68.132 56.479,64.938"
             id="path20"
             style="filter:url(#filter2930)" />
          <path
             style="fill:#ffffff;stroke-width:4.15500021;stroke-linecap:butt;stroke-linejoin:miter;filter:url(#filter2926)"
             d="m 172.517,141.7 c -0.288,2.039 3.733,7.48 8.976,8.207 5.234,0.73 9.714,-3.522 9.998,-5.559 0.284,-2.039 -3.732,-4.285 -8.977,-5.015 -5.237,-0.731 -9.719,0.333 -9.996,2.367 z"
             id="path22" />
          <path
             style="fill:#ffffff;stroke-width:2.0775001;stroke-linecap:butt;stroke-linejoin:miter;filter:url(#filter2922)"
             d="m 331.941,137.543 c 0.284,2.039 -3.732,7.48 -8.976,8.207 -5.238,0.73 -9.718,-3.522 -10.005,-5.559 -0.277,-2.039 3.74,-4.285 8.979,-5.015 5.239,-0.73 9.718,0.333 10.002,2.368 z"
             id="path24" />
          <path
             d="m 350.676,123.432 c 0.863,15.994 -3.445,26.888 -3.988,43.914 -0.804,24.748 11.799,53.074 -7.191,81.435"
             id="path26"
             style="filter:url(#filter2918)" />
          <path
             style="stroke-width:3;filter:url(#filter2914)"
             d="M 0,60.232"
             id="path28" />
        </g>
      </g>
      <g
         transform="matrix(0.2222284,0,0,0.2222284,510.14534,1.499999)"
         id="g2930"
         style="overflow:visible">
        <path
           d="m 216.09,187.994 c 0,15.464 -12.536,28 -28,28 l -160.09,0 c -15.464,0 -28,-12.536 -28,-28 L 0,28 C 0,12.536 12.536,0 28,0 l 160.09,0 c 15.464,0 28,12.536 28,28 l 0,159.994 z"
           id="path3"
           sodipodi:nodetypes="ccccccccc"
           style="fill:#092e20;filter:url(#filter2835)" />
        <g
           id="g5"
           transform="translate(13.857505,1.082)">
          <g
             id="g7">
            <path
               d="m 86.945,33.919 h 23.872 v 110.496 c -12.246,2.325 -21.237,3.255 -31.002,3.255 -29.142,0 -44.333,-13.174 -44.333,-38.443 0,-24.336 16.122,-40.147 41.078,-40.147 3.875,0 6.82,0.311 10.386,1.239 v -36.4 z m 0,55.62 C 84.155,88.61 81.83,88.3 78.885,88.3 c -12.091,0 -19.067,7.441 -19.067,20.46 0,12.713 6.666,19.688 18.912,19.688 2.634,0 4.805,-0.155 8.215,-0.618 V 89.539 z"
               id="path9"
               style="fill:#ffffff" />
            <path
               d="m 148.793,70.783 v 55.341 c 0,19.065 -1.395,28.21 -5.58,36.117 -3.876,7.596 -8.992,12.399 -19.532,17.67 L 101.514,169.37 c 10.541,-4.96 15.656,-9.297 18.911,-15.966 3.411,-6.819 4.497,-14.727 4.497,-35.498 V 70.783 h 23.871 z M 124.922,34.046 h 23.871 V 58.539 H 124.922 V 34.046 z"
               id="path11"
               style="fill:#ffffff" />
          </g>
        </g>
      </g>
      <g
         transform="matrix(0.75000241,0,0,0.75000241,-7.3333563,1.4999223)"
         id="layer1-7"
         inkscape:label="Layer 1">
        <g
           id="g3281">
          <g
             style="filter:url(#filter3271)"
             transform="matrix(0,-0.20525188,-0.20525188,0,64,32.000308)"
             id="g2828">
            <path
               id="path2830"
               style="fill:#f47421;fill-opacity:1;fill-rule:nonzero;stroke:none"
               d="m 0,0 c -86.101,0 -155.904,69.803 -155.904,155.909 0,86.104 69.803,155.903 155.904,155.903 86.107,0 155.907,-69.799 155.907,-155.903 C 155.907,69.803 86.107,0 0,0" />
          </g>
          <g
             style="filter:url(#filter3275)"
             transform="matrix(0,-0.20525188,-0.20525188,0,41.472552,17.041136)"
             id="g2832">
            <path
               id="path2834"
               style="fill:#ffffff;fill-opacity:1;fill-rule:nonzero;stroke:none"
               d="m 0,0 c -5.749,-9.955 -2.339,-22.681 7.613,-28.426 9.956,-5.748 22.681,-2.341 28.429,7.615 5.746,9.954 2.337,22.679 -7.619,28.427 C 18.471,13.362 5.746,9.953 0,0 z m -134.594,42.6 c 0,9.153 2.035,17.827 5.657,25.613 l -25.918,14.463 c -5.982,-12.081 -9.362,-25.682 -9.362,-40.076 0,-8.371 1.16,-16.465 3.29,-24.157 8.36,-1.361 16.065,-6.325 20.635,-14.239 4.561,-7.9 5.013,-17.043 2.022,-24.957 15.134,-15.391 35.724,-25.406 58.654,-26.864 l 0.432,29.665 c -31.06,2.73 -55.41,28.787 -55.41,60.552 z m 121.606,0 c 0,-31.765 -24.355,-57.822 -55.411,-60.552 l 0.433,-29.665 c 22.928,1.46 43.518,11.475 58.651,26.868 -2.989,7.913 -2.536,17.055 2.026,24.956 4.568,7.913 12.272,12.876 20.633,14.237 2.128,7.691 3.289,15.785 3.289,24.156 0,14.394 -3.379,27.994 -9.363,40.074 L -18.645,68.212 c 3.622,-7.785 5.657,-16.459 5.657,-25.612 z m -60.803,60.802 c 20.571,0 38.74,-10.223 49.742,-25.854 L 1.443,92.765 c -12.171,18.215 -30.775,31.766 -52.567,37.394 -5.359,-6.575 -13.52,-10.776 -22.669,-10.776 -9.148,0 -17.309,4.202 -22.667,10.777 -21.793,-5.627 -40.397,-19.178 -52.568,-37.394 l 25.493,-15.218 c 11.001,15.631 29.17,25.854 49.744,25.854 z m -73.79,-103.405 c -5.748,9.956 -18.472,13.365 -28.424,7.618 -9.956,-5.748 -13.367,-18.472 -7.619,-28.428 5.747,-9.953 18.472,-13.363 28.427,-7.615 9.951,5.746 13.362,18.472 7.616,28.425 z m 94.602,148.617 c 0,11.498 -9.316,20.815 -20.814,20.815 -11.495,0 -20.812,-9.317 -20.812,-20.815 0,-11.494 9.317,-20.812 20.812,-20.812 11.498,0 20.814,9.318 20.814,20.812" />
          </g>
        </g>
      </g>
      <image
         xlink:href="file:///C:/Documents%20and%20Settings/wilsonc/Desktop/fmsopenlogo/GeoServer-desat.png"
         width="48"
         height="48"
         id="image2975"
         x="121.99648"
         y="1.4999995" />
      <g
         transform="matrix(0.42708805,0,0,0.42708805,57.59376,1.4999996)"
         id="g3055">
        <path
           style="fill:url(#linearGradient4106);fill-opacity:1;filter:url(#filter2856)"
           d="M 54.918785,9.1927389e-4 C 50.335132,0.02221727 45.957846,0.41313697 42.106285,1.0946693 30.760069,3.0991731 28.700036,7.2947714 28.700035,15.032169 l 0,10.21875 26.8125,0 0,3.40625 -26.8125,0 -10.0625,0 c -7.792459,0 -14.6157588,4.683717 -16.7499998,13.59375 -2.46181998,10.212966 -2.57101508,16.586023 0,27.25 1.9059283,7.937852 6.4575432,13.593748 14.2499998,13.59375 l 9.21875,0 0,-12.25 c 0,-8.849902 7.657144,-16.656248 16.75,-16.65625 l 26.78125,0 c 7.454951,0 13.406253,-6.138164 13.40625,-13.625 l 0,-25.53125 c 0,-7.2663386 -6.12998,-12.7247771 -13.40625,-13.9374997 C 64.281548,0.32794397 59.502438,-0.02037903 54.918785,9.1927389e-4 z m -14.5,8.21875012611 c 2.769547,0 5.03125,2.2986456 5.03125,5.1249996 -2e-6,2.816336 -2.261703,5.09375 -5.03125,5.09375 -2.779476,-1e-6 -5.03125,-2.277415 -5.03125,-5.09375 -10e-7,-2.826353 2.251774,-5.1249996 5.03125,-5.1249996 z"
           id="path1948" />
        <path
           style="fill:url(#linearGradient4108);fill-opacity:1;filter:url(#filter2852)"
           d="m 85.637535,28.657169 0,11.90625 c 0,9.230755 -7.825895,16.999999 -16.75,17 l -26.78125,0 c -7.335833,0 -13.406249,6.278483 -13.40625,13.625 l 0,25.531247 c 0,7.266344 6.318588,11.540324 13.40625,13.625004 8.487331,2.49561 16.626237,2.94663 26.78125,0 6.750155,-1.95439 13.406253,-5.88761 13.40625,-13.625004 l 0,-10.218747 -26.78125,0 0,-3.40625 26.78125,0 13.406254,0 c 7.792461,0 10.696251,-5.435408 13.406241,-13.59375 2.79933,-8.398886 2.68022,-16.475776 0,-27.25 -1.92578,-7.757441 -5.60387,-13.59375 -13.406241,-13.59375 l -10.062504,0 z m -15.0625,64.65625 c 2.779478,3e-6 5.03125,2.277417 5.03125,5.093747 -2e-6,2.826354 -2.251775,5.125004 -5.03125,5.125004 -2.76955,0 -5.03125,-2.29865 -5.03125,-5.125004 2e-6,-2.81633 2.261697,-5.093747 5.03125,-5.093747 z"
           id="path1950" />
      </g>
      <g
         transform="matrix(1.1294915,0,0,1.1294915,441.10699,1.1204902)"
         id="g3085"
         style="overflow:visible">
        <polygon
           points="25.213,42.458 1.018,26.902 25.224,12.379 49.423,27.934 "
           id="polygon4"
           style="fill:#bcbec0;stroke:#000000;stroke-width:0.75;filter:url(#filter2824)" />
        <polygon
           points="25.036,39.169 0.837,23.615 25.042,9.094 49.241,24.649 "
           id="polygon6"
           style="fill:#808284;stroke:#000000;stroke-width:0.75;filter:url(#filter2828)" />
        <polygon
           points="25.213,35.238 1.018,19.684 25.224,5.16 49.423,20.714 "
           id="polygon8"
           style="fill:#0071bc;stroke:#000000;stroke-width:0.75;filter:url(#filter2832)" />
        <polygon
           points="25.217,30.787 1.018,15.232 25.224,0.711 49.423,16.266 "
           id="polygon10"
           style="fill:#008fd4;stroke:#000000;stroke-width:0.75;filter:url(#filter2836)" />
      </g>
      <path
         transform="matrix(0.29693264,0,0,0.29693264,400.53767,-19.782228)"
         style="fill:#40aa54;stroke:#20552a;stroke-width:5;stroke-linejoin:round;filter:url(#filter2857)"
         id="path8-0"
         d="m -203.33358,74.173586 c -44.67871,0 -80.89795,36.219234 -80.89795,80.898434 0,34.6792 21.82764,64.25146 52.49024,75.75439 l 18.64257,-49.71387 c -10.54004,-3.95361 -18.04345,-14.11962 -18.04345,-26.04052 0,-15.3584 12.45068,-27.80908 27.80859,-27.80908 15.3584,0 27.80957,12.45068 27.80957,27.80908 0,11.9209 -7.50391,22.08691 -18.04394,26.04052 l 18.64257,49.71387 c 30.66211,-11.50293 52.49024,-41.07519 52.49024,-75.75439 0,-44.6792 -36.21875,-80.898434 -80.89844,-80.898434 z" />
      <image
         xlink:href="file:///C:/Documents%20and%20Settings/wilsonc/Desktop/fmsopenlogo/jQuery_logo_bw.png"
         width="49.297298"
         height="48"
         id="image4014"
         x="184.35135"
         y="1.4999995" />
      <image
         xlink:href="file:///C:/Documents%20and%20Settings/wilsonc/Desktop/fmsopenlogo/jQuery_UI_logo_bw.png"
         width="54"
         height="48"
         id="image4056"
         x="247"
         y="1.4999995" />
    </g>
  </g>
</svg>
